<svg width="40" height="40" viewBox="0 0 40 40" fill="none" xmlns="http://www.w3.org/2000/svg">
<g clip-path="url(#clip0_272_2577)">
<path d="M39.0351 34.4111H38.039V31.6819V25.4009C38.039 23.3828 36.3971 21.7409 34.3789 21.7409H15.1686C14.7352 19.9869 13.149 18.6823 11.2631 18.6823C9.04441 18.6823 7.23926 20.4872 7.23926 22.7059C7.23926 22.9725 7.26745 23.236 7.31892 23.494L4.90608 23.3207C4.83768 23.3159 4.76863 23.3133 4.70055 23.3133C3.16429 23.3133 1.96093 24.5228 1.96093 26.0668V27.9875V34.4111H0.96492C0.431962 34.4111 0 34.8431 0 35.376C0 35.909 0.431962 36.3409 0.96492 36.3409H2.91953C2.92167 36.3409 2.92371 36.3412 2.92574 36.3412H37.074C37.0762 36.3412 37.0781 36.3409 37.0803 36.3409H39.0351C39.568 36.3409 40 35.909 40 35.376C40 34.8431 39.568 34.4111 39.0351 34.4111ZM36.1091 25.4009V30.7169H15.2864V27.9875V24.977V23.6707H34.3789C35.333 23.6707 36.1091 24.4469 36.1091 25.4009ZM9.16899 22.7058C9.16899 21.5513 10.1084 20.612 11.263 20.612C12.4173 20.612 13.3564 21.5513 13.3564 22.7058V23.9274L9.39146 23.6427C9.24618 23.3532 9.16899 23.0338 9.16899 22.7058ZM3.89066 26.0668C3.89066 25.5747 4.27438 25.2106 4.76778 25.2456L13.3565 25.8623V27.0226H3.89066V26.0668ZM3.89066 28.9524H13.3565V31.6819C13.3565 32.2148 13.7885 32.6468 14.3214 32.6468H36.1091V34.4111H3.89066V28.9524Z" fill="#575153"/>
<g clip-path="url(#clip1_272_2577)">
<path d="M36.83 12.0943C36.6877 11.9827 36.4918 11.9686 36.3349 12.0588C35.5909 12.4864 34.8045 12.7033 33.9976 12.7033C31.405 12.7033 29.2958 10.594 29.2958 8.0013C29.2958 7.19086 29.513 6.40557 29.9413 5.66733C30.0323 5.5106 30.0188 5.31428 29.9072 5.1714C29.7957 5.02853 29.6085 4.96774 29.4344 5.01805C28.1819 5.37909 27.0547 6.14508 26.2603 7.17487C25.4358 8.24373 25 9.52382 25 10.8768C25 14.2525 27.7463 16.999 31.1219 16.999C32.4749 16.999 33.7553 16.5634 34.8247 15.7391C35.8552 14.9449 36.6216 13.8183 36.9826 12.5667C37.0328 12.3928 36.9724 12.206 36.83 12.0943ZM31.1219 16.1111C28.2358 16.1111 25.8878 13.763 25.8878 10.8768C25.8878 8.9297 27.002 7.15777 28.6954 6.26725C28.5043 6.82863 28.408 7.4086 28.408 8.0013C28.408 11.0835 30.9155 13.5911 33.9976 13.5911C34.5895 13.5911 35.1705 13.4944 35.7346 13.3027C34.8442 14.9964 33.0707 16.1111 31.1219 16.1111Z" fill="url(#paint0_linear_272_2577)"/>
</g>
</g>
<defs>
<linearGradient id="paint0_linear_272_2577" x1="31" y1="5.00061" x2="31" y2="16.999" gradientUnits="userSpaceOnUse">
<stop stop-color="#1EFFD7"/>
<stop offset="1" stop-color="#008080"/>
</linearGradient>
<clipPath id="clip0_272_2577">
<rect width="40" height="40" fill="white"/>
</clipPath>
<clipPath id="clip1_272_2577">
<rect width="12" height="12" fill="white" transform="translate(25 5)"/>
</clipPath>
</defs>
</svg>
