<svg width="24" height="24" viewBox="0 0 24 24" fill="none" xmlns="http://www.w3.org/2000/svg">
<g id="chart-average-svgrepo-com 2" clip-path="url(#clip0_272_2559)">
<path id="Vector" d="M17.25 18C14.5507 18 13.478 14.8681 12.4405 11.8396C11.4573 8.96873 10.44 6 8.24998 6C7.73855 6.03007 7.24766 6.21172 6.83985 6.5218C6.43203 6.83188 6.12577 7.25635 5.96008 7.74112L4.53845 7.26285C4.57618 7.15005 5.49133 4.5 8.24998 4.5C11.5118 4.5 12.7591 8.14103 13.86 11.3534C14.7664 14 15.6225 16.5 17.25 16.5C17.7614 16.4699 18.2523 16.2883 18.6601 15.9782C19.0679 15.6681 19.3742 15.2436 19.5399 14.7589L20.9615 15.2372C20.9238 15.3499 20.0086 18 17.25 18Z" fill="#575153"/>
<path id="Vector_2" d="M3 21V12.75H4.5V11.25H3V1.5H1.5V21C1.5 21.3978 1.65804 21.7794 1.93934 22.0607C2.22064 22.342 2.60218 22.5 3 22.5H22.5V21H3Z" fill="#575153"/>
<path id="Vector_3" d="M7.5 11.25H6V12.75H7.5V11.25Z" fill="#575153"/>
<path id="Vector_4" d="M10.5 11.25H9V12.75H10.5V11.25Z" fill="#575153"/>
<path id="Vector_5" d="M16.5 11.25H15V12.75H16.5V11.25Z" fill="#575153"/>
<path id="Vector_6" d="M19.5 11.25H18V12.75H19.5V11.25Z" fill="#575153"/>
<path id="Vector_7" d="M22.5 11.25H21V12.75H22.5V11.25Z" fill="#575153"/>
</g>
<defs>
<clipPath id="clip0_272_2559">
<rect width="24" height="24" fill="white"/>
</clipPath>
</defs>
</svg>
