<svg width="23" height="24" viewBox="0 0 23 24" fill="none" xmlns="http://www.w3.org/2000/svg">
<path d="M16.3018 12.7298C16.5737 12.7298 16.8346 12.6171 17.0269 12.4164C17.2192 12.2158 17.3272 11.9436 17.3272 11.6598C17.3272 11.3761 17.2192 11.1039 17.0269 10.9032C16.8346 10.7026 16.5737 10.5898 16.3018 10.5898C16.0298 10.5898 15.769 10.7026 15.5767 10.9032C15.3844 11.1039 15.2764 11.3761 15.2764 11.6598C15.2764 11.9436 15.3844 12.2158 15.5767 12.4164C15.769 12.6171 16.0298 12.7298 16.3018 12.7298Z" stroke="black" stroke-width="1.5" stroke-linecap="round" stroke-linejoin="round"/>
<path d="M8.62508 15.7V20M1.91675 11.9H11.5001M5.70216 20H11.5001M19.1667 6V7.79C18.9272 7.76 18.6492 7.74 18.3522 7.74H14.2505C12.1997 7.74 11.5192 8.45 11.5192 10.59V15.7H5.75008C2.68341 15.7 1.91675 14.9 1.91675 11.7V6C1.91675 2.8 2.68341 2 5.75008 2H15.3334C18.4001 2 19.1667 2.8 19.1667 6Z" stroke="black" stroke-width="1.5" stroke-linecap="round" stroke-linejoin="round"/>
<path d="M16.3018 12.7298C16.5737 12.7298 16.8346 12.6171 17.0269 12.4164C17.2192 12.2158 17.3272 11.9436 17.3272 11.6598C17.3272 11.3761 17.2192 11.1039 17.0269 10.9032C16.8346 10.7026 16.5737 10.5898 16.3018 10.5898C16.0298 10.5898 15.769 10.7026 15.5767 10.9032C15.3844 11.1039 15.2764 11.3761 15.2764 11.6598C15.2764 11.9436 15.3844 12.2158 15.5767 12.4164C15.769 12.6171 16.0298 12.7298 16.3018 12.7298Z" stroke="black" stroke-width="1.5" stroke-miterlimit="10" stroke-linecap="round" stroke-linejoin="round"/>
<path d="M19.1663 7.79023C18.9267 7.76023 18.6488 7.74023 18.3517 7.74023H14.25C12.1992 7.74023 11.5188 8.45023 11.5188 10.5902V19.1502C11.5188 21.2902 12.1992 22.0002 14.25 22.0002H18.3517C20.4025 22.0002 21.083 21.2902 21.083 19.1502V10.5902C21.083 8.76023 20.5846 7.98023 19.1663 7.79023ZM16.3009 10.5902C16.5652 10.6022 16.8148 10.7201 16.9978 10.9195C17.1808 11.1188 17.2829 11.3842 17.2829 11.6602C17.2829 11.9363 17.1808 12.2016 16.9978 12.401C16.8148 12.6004 16.5652 12.7183 16.3009 12.7302C16.0366 12.7183 15.7869 12.6004 15.604 12.401C15.421 12.2016 15.3188 11.9363 15.3188 11.6602C15.3188 11.3842 15.421 11.1188 15.604 10.9195C15.7869 10.7201 16.0366 10.6022 16.3009 10.5902ZM16.3009 19.1502C15.17 19.1502 14.25 18.1902 14.25 17.0102C14.2506 16.6004 14.3638 16.1993 14.5762 15.8546C14.7887 15.5098 15.0914 15.2359 15.4486 15.0654C15.8058 14.8948 16.2023 14.8348 16.5912 14.8924C16.9801 14.9499 17.345 15.1227 17.6425 15.3902C18.0738 15.7902 18.3517 16.3702 18.3517 17.0102C18.3517 18.1902 17.4317 19.1502 16.3009 19.1502Z" stroke="black" stroke-width="1.5" stroke-miterlimit="10" stroke-linecap="round" stroke-linejoin="round"/>
<path d="M18.3522 17.01C18.3522 18.19 17.4322 19.15 16.3013 19.15C15.1705 19.15 14.2505 18.19 14.2505 17.01C14.251 16.6001 14.3642 16.1991 14.5767 15.8543C14.7891 15.5096 15.0919 15.2357 15.449 15.0651C15.8062 14.8946 16.2027 14.8345 16.5916 14.8921C16.9805 14.9497 17.3454 15.1225 17.643 15.39C18.0742 15.79 18.3522 16.37 18.3522 17.01ZM16.3013 12.73C16.5733 12.73 16.8341 12.6173 17.0264 12.4166C17.2187 12.2159 17.3267 11.9438 17.3267 11.66C17.3267 11.3762 17.2187 11.1041 17.0264 10.9034C16.8341 10.7027 16.5733 10.59 16.3013 10.59C16.0294 10.59 15.7685 10.7027 15.5762 10.9034C15.3839 11.1041 15.2759 11.3762 15.2759 11.66C15.2759 11.9438 15.3839 12.2159 15.5762 12.4166C15.7685 12.6173 16.0294 12.73 16.3013 12.73Z" stroke="black" stroke-width="1.5" stroke-miterlimit="10" stroke-linecap="round" stroke-linejoin="round"/>
</svg>
