<svg fill="none" height="24" viewBox="0 0 26 24" width="26" xmlns="http://www.w3.org/2000/svg"><path clip-rule="evenodd" d="m11.3328 4.52257 1.6672 1.49227 1.6673-1.49227c.8862-.79322 2.0505-1.27257 3.3327-1.27257 2.7614 0 5 2.23863 5 5.00005 0 .88724-.0938 1.71938-.265 2.49995h-3.2859l-1.5502-3.6174c-.197-.4596-.6489-.7576-1.149-.7576-.5 0-.9519.298-1.1489.7576l-2.6011 6.0691-.726-1.6941c-.197-.4596-.6489-.7576-1.149-.7576h-7.85992c-.1712-.78058-.26498-1.61274-.26498-2.5 0-2.76143 2.23857-5 5-5 1.28219 0 2.4465.47935 3.3328 1.27257zm-9.91936 8.72743c2.24847 5.8137 8.0449 8.7657 10.48156 9.7817.7119.2968 1.4981.2968 2.21 0 3.0556-1.2741 11.395-5.5927 11.395-14.78164 0-4.14213-3.3579-7.50006-7.5-7.50006-1.9209 0-3.6731.72214-5 1.90974-1.3269-1.1876-3.07911-1.90974-5-1.90974-4.14214 0-7.5 3.35786-7.5 7.5 0 .87718.075996 1.70999.216136 2.5h-.000073c.15725.8865.395267 1.719.697297 2.5zm2.72758 0h6.15968l1.5503 3.6174c.197.4596.6489.7576 1.1489.7576.5001 0 .952-.298 1.149-.7576l2.601-6.0691.7261 1.6941c.197.4596.6489.7576 1.1489.7576h3.234c-.6799 1.3812-1.6115 2.5582-2.6491 3.5626-2.1528 2.0835-4.6846 3.3353-6.0669 3.9116-.0961.04-.1897.04-.2858 0-1.3823-.5763-3.91412-1.8281-6.0668-3.9116-1.03771-1.0043-1.96933-2.1814-2.64928-3.5626z" fill="#fafafa" fill-rule="evenodd"/></svg>