<svg fill="none" height="30" viewBox="0 0 30 30" width="30" xmlns="http://www.w3.org/2000/svg" xmlns:xlink="http://www.w3.org/1999/xlink"><linearGradient id="a" gradientUnits="userSpaceOnUse" x1="15" x2="15" y1="2.5" y2="27.5"><stop offset="0" stop-color="#1effd7"/><stop offset="1" stop-color="#008080"/></linearGradient><path d="m11.4465 25.9643v-3.8335c0-.975.7949-1.7673 1.7798-1.7738h3.6076c.9895 0 1.7917.7942 1.7917 1.7738v3.8454c-.0002.8278.6672 1.5044 1.5032 1.5238h2.4051c2.3975 0 4.3411-1.9242 4.3411-4.2977v-10.905c-.0128-.9338-.4557-1.8106-1.2025-2.38101l-8.2253-6.55966c-1.441-1.14217-3.4894-1.14217-4.9304 0l-8.18927 6.57157c-.74971.5681-1.1933 1.4464-1.20253 2.381v10.8931c0 2.3735 1.94359 4.2977 4.34114 4.2977h2.40506c.8567 0 1.5513-.6876 1.5513-1.5357" stroke="url(#a)" stroke-linecap="round" stroke-linejoin="round" stroke-width="3"/></svg>