<svg width="30" height="30" viewBox="0 0 30 30" fill="none" xmlns="http://www.w3.org/2000/svg">
    <g clip-path="url(#clip0_260_480)">
        <path d="M27.6 8.76561L28.9594 6.03749C29.1937 5.57811 29.0063 5.01561 28.5375 4.78124C28.0688 4.54686 27.5156 4.73436 27.2812 5.20311L26.4562 6.85311C26.0156 6.24374 25.5281 5.66249 25.0125 5.13749C25.0125 5.13749 25.0125 5.13749 25.0031 5.12811L25.3031 1.95936C25.35 1.44374 24.975 0.984363 24.4594 0.937488C23.9438 0.871863 23.4844 1.26561 23.4375 1.78124L23.2594 3.62811C23.2594 3.62811 23.2594 3.62811 23.25 3.61874C20.9344 1.93124 18.0844 0.937488 15 0.937488C7.24687 0.937488 0.9375 7.24686 0.9375 15C0.9375 22.7531 7.24687 29.0625 15 29.0625C22.7531 29.0625 29.0625 22.7531 29.0625 15C29.0625 12.7594 28.5375 10.6406 27.6 8.76561ZM24.7594 7.69686L24.7687 7.71561C25.0312 8.06249 25.2656 8.42811 25.4906 8.80311L24.4594 10.8562L24.7594 7.69686ZM15 27.1875C8.27812 27.1875 2.8125 21.7219 2.8125 15C2.8125 8.27811 8.27812 2.81249 15 2.81249C18.075 2.81249 20.9062 3.96561 23.0531 5.85936L22.1344 15.5062L18.8438 22.0781C18.6094 22.5375 18.7969 23.1 19.2656 23.3344C19.4062 23.4 19.5469 23.4375 19.6875 23.4375C20.0344 23.4375 20.3625 23.25 20.5312 22.9219L21.6469 20.6906L21.5625 21.4687C21.5156 21.9844 21.8906 22.4437 22.4062 22.4906C22.4344 22.4906 22.4625 22.4906 22.5 22.4906C22.9781 22.4906 23.3906 22.125 23.4281 21.6375L23.9625 16.0219L26.4937 10.95C26.9438 12.2344 27.1875 13.5937 27.1875 15C27.1875 21.7219 21.7219 27.1875 15 27.1875Z" fill="url(#paint0_linear_260_480)"/>
        <path d="M12.1875 7.5C8.05313 7.5 4.6875 10.8656 4.6875 15C4.6875 19.1344 8.05313 22.5 12.1875 22.5C16.3219 22.5 19.6875 19.1344 19.6875 15C19.6875 10.8656 16.3219 7.5 12.1875 7.5ZM10.3125 17.8125H9.375C8.85938 17.8125 8.4375 17.3906 8.4375 16.875C8.4375 16.3594 8.85938 15.9375 9.375 15.9375H10.3125C10.8281 15.9375 11.25 16.3594 11.25 16.875C11.25 17.3906 10.8281 17.8125 10.3125 17.8125ZM10.3125 14.0625H9.375C8.85938 14.0625 8.4375 13.6406 8.4375 13.125C8.4375 12.6094 8.85938 12.1875 9.375 12.1875H10.3125C10.8281 12.1875 11.25 12.6094 11.25 13.125C11.25 13.6406 10.8281 14.0625 10.3125 14.0625ZM15 14.0625H13.125C12.6094 14.0625 12.1875 13.6406 12.1875 13.125C12.1875 12.6094 12.6094 12.1875 13.125 12.1875H15C15.5156 12.1875 15.9375 12.6094 15.9375 13.125C15.9375 13.6406 15.5156 14.0625 15 14.0625Z" fill="url(#paint1_linear_260_480)"/>
    </g>
    <defs>
        <linearGradient id="paint0_linear_260_480" x1="15" y1="0.930328" x2="15" y2="29.0625" gradientUnits="userSpaceOnUse">
            <stop stop-color="#1EFFD7"/>
            <stop offset="1" stop-color="#008080"/>
        </linearGradient>
        <linearGradient id="paint1_linear_260_480" x1="12.1875" y1="7.5" x2="12.1875" y2="22.5" gradientUnits="userSpaceOnUse">
            <stop stop-color="#1EFFD7"/>
            <stop offset="1" stop-color="#008080"/>
        </linearGradient>
        <clipPath id="clip0_260_480">
            <rect width="30" height="30" fill="white"/>
        </clipPath>
    </defs>
</svg>
