<svg fill="none" height="29" viewBox="0 0 32 29" width="32" xmlns="http://www.w3.org/2000/svg" xmlns:xlink="http://www.w3.org/1999/xlink"><linearGradient id="a"><stop offset="0" stop-color="#1effd7"/><stop offset="1" stop-color="#008080"/></linearGradient><linearGradient id="b" gradientUnits="userSpaceOnUse" x1="15.5" x2="15.5" xlink:href="#a" y1="3" y2="12"/><linearGradient id="c" gradientUnits="userSpaceOnUse" x1="15" x2="15" xlink:href="#a" y1="16" y2="24"/><g stroke-width="3"><ellipse cx="15.5" cy="7.5" rx="5.5" ry="4.5" stroke="url(#b)"/><path d="m4 20.2093c0-.9001.44935-1.7392 1.26111-2.128 1.7122-.8202 5.09939-2.0813 9.73889-2.0813s8.0267 1.2611 9.7389 2.0813c.8118.3888 1.2611 1.2279 1.2611 2.128 0 1.0061-.5615 1.9238-1.5089 2.2623-1.7798.636-5.0657 1.5284-9.4911 1.5284s-7.71131-.8924-9.49111-1.5284c-.94742-.3385-1.50889-1.2562-1.50889-2.2623z" stroke="url(#c)"/></g></svg>