<svg width="25" height="25" viewBox="0 0 25 25" fill="none" xmlns="http://www.w3.org/2000/svg">
<path d="M16.5891 4.16479C16.6329 4.25776 16.7524 4.34683 16.8548 4.36245C18.3055 4.58355 18.2516 4.43198 17.1969 5.50933C17.129 5.57886 17.0852 5.7148 17.1016 5.81089C17.3508 7.33433 17.486 7.25073 16.186 6.53433C16.0923 6.48276 15.9391 6.48276 15.8446 6.53433C14.5446 7.24995 14.679 7.33667 14.929 5.81089C14.9446 5.7148 14.9016 5.57886 14.8337 5.50933C13.7766 4.42964 13.7282 4.58276 15.1758 4.36245C15.2782 4.34683 15.3977 4.25776 15.4415 4.16479C16.0954 2.77808 15.936 2.77808 16.5891 4.16479ZM19.1735 9.1312C19.0704 9.34995 18.7899 9.55855 18.5509 9.59526C17.7735 9.71323 17.8485 9.79683 18.3423 10.3C18.5118 10.4726 18.618 10.8093 18.579 11.0476C18.4618 11.7632 18.4274 11.8937 19.1454 11.4976C19.3579 11.3804 19.7048 11.3804 19.9165 11.4976C20.6352 11.8937 20.6001 11.7632 20.4829 11.0476C20.4438 10.8093 20.5501 10.4726 20.7196 10.3C21.2126 9.79605 21.2884 9.71323 20.511 9.59526C20.2712 9.55855 19.9915 9.34995 19.8884 9.1312C19.5407 8.39292 19.5016 8.43511 19.1735 9.1312Z" fill="url(#paint0_linear_272_2581)"/>
<path d="M14.6281 16.4499C11.4789 16.096 8.90783 13.5265 8.55158 10.378C8.46877 9.64758 8.50393 8.93898 8.63674 8.26476C8.69612 7.96398 8.3883 7.72414 8.10627 7.84445C5.4344 8.98195 3.62658 11.7554 3.94299 14.9077C4.26487 18.1124 6.8883 20.7359 10.093 21.0577C13.2461 21.3749 16.0188 19.5663 17.1563 16.8945C17.2766 16.6124 17.0367 16.3046 16.736 16.364C16.0633 16.496 15.3563 16.5312 14.6281 16.4499Z" fill="url(#paint1_linear_272_2581)"/>
<defs>
<linearGradient id="paint0_linear_272_2581" x1="17.5776" y1="3.12476" x2="17.5776" y2="11.718" gradientUnits="userSpaceOnUse">
<stop stop-color="#1EFFD7"/>
<stop offset="1" stop-color="#008080"/>
</linearGradient>
<linearGradient id="paint1_linear_272_2581" x1="10.5475" y1="7.81274" x2="10.5475" y2="21.0938" gradientUnits="userSpaceOnUse">
<stop stop-color="#1EFFD7"/>
<stop offset="1" stop-color="#008080"/>
</linearGradient>
</defs>
</svg>
