<svg width="24" height="24" viewBox="0 0 24 24" fill="none" xmlns="http://www.w3.org/2000/svg">
<g id="target-arrow-svgrepo-com 2" clip-path="url(#clip0_272_2553)">
<g id="Group">
<path id="Vector" d="M17.625 3.375C17.418 3.375 17.25 3.543 17.25 3.75V6.17175L15.5288 7.86675C13.9193 6.36225 11.766 5.43375 9.39453 5.43375C4.43178 5.43375 0.394531 9.471 0.394531 14.4338C0.394531 17.082 1.55103 19.4587 3.37728 21.1073L1.61103 23.3752C1.48353 23.5387 1.51278 23.7743 1.67628 23.9017C1.74528 23.955 1.82628 23.9805 1.90728 23.9805C2.01828 23.9805 2.12928 23.931 2.20353 23.8358L3.95478 21.5865C5.46753 22.74 7.35003 23.4338 9.39528 23.4338C11.4383 23.4338 13.3185 22.7415 14.8305 21.5903L16.5338 23.85C16.6065 23.9482 16.7183 24 16.8315 24C16.9103 24 16.9898 23.9753 17.0573 23.9242C17.223 23.799 17.256 23.5642 17.1315 23.3993L15.4073 21.111C17.2358 19.4625 18.3938 17.0835 18.3938 14.4338C18.3938 12.1118 17.5028 9.99975 16.0538 8.4015L17.7323 6.75H20.25C20.457 6.75 20.625 6.582 20.625 6.375C20.625 6.168 20.457 6 20.25 6H18.4935L19.2555 5.25H21.75C21.957 5.25 22.125 5.082 22.125 4.875C22.125 4.668 21.957 4.5 21.75 4.5H20.0168L20.7788 3.75H23.25C23.457 3.75 23.625 3.582 23.625 3.375C23.625 3.168 23.457 3 23.25 3H21V0.75C21 0.543 20.832 0.375 20.625 0.375C20.418 0.375 20.25 0.543 20.25 0.75V3.21825L19.5 3.957V2.25C19.5 2.043 19.332 1.875 19.125 1.875C18.918 1.875 18.75 2.043 18.75 2.25V4.695L18 5.43375V3.75C18 3.543 17.832 3.375 17.625 3.375ZM17.6438 14.4345C17.6438 18.9832 13.9425 22.6845 9.39378 22.6845C4.84503 22.6845 1.14378 18.9832 1.14378 14.4345C1.14378 9.88575 4.84503 6.1845 9.39378 6.1845C11.556 6.1845 13.521 7.0275 14.994 8.394L13.3913 9.97275C12.3285 9.02025 10.9305 8.4345 9.39453 8.4345C6.08628 8.4345 3.39453 11.1263 3.39453 14.4345C3.39453 17.7428 6.08628 20.4345 9.39453 20.4345C12.7028 20.4345 15.3945 17.7428 15.3945 14.4345C15.3945 12.9315 14.835 11.5598 13.9185 10.506L15.5205 8.92875C16.836 10.3905 17.6438 12.3173 17.6438 14.4345ZM11.6438 14.4345C11.6438 15.675 10.6343 16.6845 9.39378 16.6845C8.15328 16.6845 7.14378 15.675 7.14378 14.4345C7.14378 13.194 8.15328 12.1845 9.39378 12.1845C9.88503 12.1845 10.3365 12.3472 10.707 12.615L9.13128 14.1667C8.98353 14.3123 8.98203 14.55 9.12678 14.697C9.20028 14.772 9.29778 14.8088 9.39378 14.8088C9.48903 14.8088 9.58428 14.7727 9.65703 14.7008L11.235 13.1467C11.4908 13.5127 11.6438 13.9552 11.6438 14.4345ZM11.2418 12.0885C10.731 11.685 10.0943 11.4338 9.39453 11.4338C7.74003 11.4338 6.39453 12.7793 6.39453 14.4338C6.39453 16.0883 7.74003 17.4338 9.39453 17.4338C11.049 17.4338 12.3945 16.0883 12.3945 14.4338C12.3945 13.7505 12.156 13.1265 11.769 12.6217L13.3845 11.031C14.1683 11.9482 14.6445 13.1355 14.6445 14.4338C14.6445 17.3288 12.2888 19.6838 9.39453 19.6838C6.50028 19.6838 4.14453 17.3288 4.14453 14.4338C4.14453 11.5388 6.50028 9.18375 9.39453 9.18375C10.7213 9.18375 11.9318 9.6825 12.8573 10.4977L11.2418 12.0885Z" fill="#575153"/>
</g>
</g>
<defs>
<clipPath id="clip0_272_2553">
<rect width="24" height="24" fill="white"/>
</clipPath>
</defs>
</svg>
