<svg width="40" height="40" viewBox="0 0 40 40" fill="none" xmlns="http://www.w3.org/2000/svg">
<path d="M39.0351 34.1915H38.039V31.4621V25.1808C38.039 23.1626 36.3971 21.5207 34.3789 21.5207H15.1686C14.7352 19.7665 13.149 18.4618 11.2631 18.4618C9.04441 18.4618 7.23926 20.2668 7.23926 22.4856C7.23926 22.7523 7.26745 23.0158 7.31892 23.2738L4.90608 23.1005C4.83768 23.0957 4.76863 23.0931 4.70055 23.0931C3.16429 23.0931 1.96093 24.3027 1.96093 25.8467V27.7676V34.1915H0.96492C0.431962 34.1915 0 34.6235 0 35.1565C0 35.6895 0.431962 36.1215 0.96492 36.1215H2.91953C2.92167 36.1215 2.92371 36.1218 2.92574 36.1218H37.074C37.0762 36.1218 37.0781 36.1215 37.0803 36.1215H39.0351C39.568 36.1215 40 35.6895 40 35.1565C40 34.6235 39.568 34.1915 39.0351 34.1915ZM36.1091 25.1808V30.4972H15.2864V27.7676V24.7569V23.4505H34.3789C35.333 23.4505 36.1091 24.2268 36.1091 25.1808ZM9.16899 22.4855C9.16899 21.331 10.1084 20.3916 11.263 20.3916C12.4173 20.3916 13.3564 21.331 13.3564 22.4855V23.7073L9.39146 23.4225C9.24618 23.133 9.16899 22.8136 9.16899 22.4855ZM3.89066 25.8467C3.89066 25.3546 4.27438 24.9905 4.76778 25.0255L13.3565 25.6423V26.8026H3.89066V25.8467ZM3.89066 28.7326H13.3565V31.4621C13.3565 31.9951 13.7885 32.4271 14.3214 32.4271H36.1091V34.1915H3.89066V28.7326Z" fill="#575153"/>
<path d="M36.625 7.50004H35.9916C35.9098 7.12612 35.7708 6.76868 35.58 6.44171L36.0233 5.97504C36.153 5.81562 36.2208 5.61056 36.2131 5.40083C36.2054 5.1911 36.1228 4.99215 35.9818 4.84374C35.8408 4.69533 35.6518 4.60838 35.4526 4.60028C35.2533 4.59218 35.0585 4.66352 34.9071 4.80004L34.4637 5.26671C34.1531 5.06588 33.8135 4.91953 33.4583 4.83337V4.16671C33.4583 3.94569 33.3749 3.73373 33.2264 3.57745C33.078 3.42117 32.8766 3.33337 32.6666 3.33337C32.4567 3.33337 32.2553 3.42117 32.1068 3.57745C31.9584 3.73373 31.875 3.94569 31.875 4.16671V4.83337C31.5218 4.91822 31.1847 5.06469 30.8775 5.26671L30.4262 4.80004C30.2748 4.66352 30.08 4.59218 29.8807 4.60028C29.6815 4.60838 29.4925 4.69533 29.3515 4.84374C29.2105 4.99215 29.1279 5.1911 29.1202 5.40083C29.1125 5.61056 29.1803 5.81562 29.31 5.97504L29.7533 6.45004C29.6821 6.57504 29.6266 6.71671 29.5633 6.85004C29.1563 6.7291 28.7354 6.66741 28.3125 6.66671C27.1716 6.66602 26.0685 7.09762 25.2051 7.88259C24.3416 8.66756 23.7754 9.75345 23.61 10.9417C22.9657 11.1319 22.4086 11.561 22.0415 12.1499C21.6744 12.7388 21.5222 13.4476 21.6129 14.1454C21.7036 14.8433 22.0311 15.483 22.535 15.9464C23.0389 16.4098 23.685 16.6657 24.3541 16.6667H31.6137C32.5229 16.6667 33.3948 16.2865 34.0376 15.6098C34.6805 14.9332 35.0416 14.0154 35.0416 13.0584C35.0409 12.6159 34.9603 12.1775 34.8041 11.7667L34.9071 11.8667C35.0545 12.0207 35.2535 12.1075 35.4612 12.1084C35.5654 12.109 35.6687 12.088 35.7651 12.0465C35.8616 12.005 35.9493 11.9439 36.0233 11.8667C36.1708 11.7106 36.2535 11.4994 36.2535 11.2792C36.2535 11.0591 36.1708 10.8478 36.0233 10.6917L35.58 10.225C35.7708 9.89807 35.9098 9.54063 35.9916 9.16671H36.625C36.8349 9.16671 37.0363 9.07891 37.1848 8.92263C37.3332 8.76635 37.4166 8.55439 37.4166 8.33337C37.4166 8.11236 37.3332 7.9004 37.1848 7.74412C37.0363 7.58784 36.8349 7.50004 36.625 7.50004ZM31.6137 15H24.3541C24.0392 15 23.7372 14.8683 23.5145 14.6339C23.2918 14.3995 23.1666 14.0816 23.1666 13.75C23.1666 13.4185 23.2918 13.1006 23.5145 12.8662C23.7372 12.6317 24.0392 12.5 24.3541 12.5C24.5641 12.5 24.7655 12.4122 24.9139 12.256C25.0624 12.0997 25.1458 11.8877 25.1458 11.6667C25.1492 10.8798 25.417 10.1195 25.9017 9.52043C26.3865 8.92136 27.0569 8.52213 27.7944 8.39341C28.532 8.26468 29.289 8.41477 29.9314 8.8171C30.5739 9.21943 31.0605 9.84805 31.305 10.5917C31.3502 10.7349 31.4316 10.8625 31.5403 10.9608C31.6491 11.0592 31.7812 11.1246 31.9225 11.15C32.3718 11.2385 32.774 11.4994 33.0509 11.8822C33.3279 12.265 33.46 12.7425 33.4215 13.222C33.3831 13.7015 33.1768 14.1488 32.8428 14.4774C32.5088 14.8059 32.0708 14.9921 31.6137 15ZM33.9887 9.70837C33.8492 9.84659 33.6886 9.95926 33.5137 10.0417C33.2504 9.86126 32.9656 9.71835 32.6666 9.61671C32.3029 8.78068 31.7312 8.06371 31.0121 7.54171C31.0986 7.32795 31.222 7.13297 31.3762 6.96671C31.7304 6.62114 32.1956 6.42915 32.6785 6.42915C33.1615 6.42915 33.6266 6.62114 33.9808 6.96671C34.3203 7.3352 34.5102 7.82837 34.5102 8.34171C34.5102 8.85504 34.3203 9.34821 33.9808 9.71671L33.9887 9.70837Z" fill="url(#paint0_linear_272_2578)"/>
<defs>
<linearGradient id="paint0_linear_272_2578" x1="29.502" y1="3.33337" x2="29.502" y2="16.6667" gradientUnits="userSpaceOnUse">
<stop stop-color="#1EFFD7"/>
<stop offset="1" stop-color="#008080"/>
</linearGradient>
</defs>
</svg>
