<svg fill="none" height="31" viewBox="0 0 38 31" width="38" xmlns="http://www.w3.org/2000/svg" xmlns:xlink="http://www.w3.org/1999/xlink"><linearGradient id="a"><stop offset="0" stop-color="#1effd7"/><stop offset="1" stop-color="#008080"/></linearGradient><linearGradient id="b" gradientUnits="userSpaceOnUse" x1="2.78806" x2="2.78806" xlink:href="#a" y1="15.6775" y2="16.6775"/><linearGradient id="c" gradientUnits="userSpaceOnUse" x1="34.9734" x2="34.9734" xlink:href="#a" y1="15.6775" y2="16.6775"/><linearGradient id="d" gradientUnits="userSpaceOnUse" x1="2.79727" x2="2.79727" xlink:href="#a" y1="29.9802" y2="30.0001"/><linearGradient id="e" gradientUnits="userSpaceOnUse" x1="8.1608" x2="8.1608" xlink:href="#a" y1="22.8279" y2="22.8477"/><linearGradient id="f" gradientUnits="userSpaceOnUse" x1="13.5253" x2="13.5253" xlink:href="#a" y1="29.9802" y2="30.0001"/><linearGradient id="g" gradientUnits="userSpaceOnUse" x1="24.2538" x2="24.2538" xlink:href="#a" y1="29.9802" y2="30.0001"/><linearGradient id="h" gradientUnits="userSpaceOnUse" x1="29.6183" x2="29.6183" xlink:href="#a" y1="22.8279" y2="22.8477"/><linearGradient id="i" gradientUnits="userSpaceOnUse" x1="34.9818" x2="34.9818" xlink:href="#a" y1="29.9802" y2="30.0001"/><linearGradient id="j" gradientUnits="userSpaceOnUse" x1="18.881" x2="18.881" xlink:href="#a" y1="3.75" y2="24.7019"/><g stroke-linecap="round" stroke-linejoin="round"><g stroke-width="2"><path d="m1 15.6775h3.57613" stroke="url(#b)"/><path d="m33.1853 15.6775h3.5761" stroke="url(#c)"/><path d="m2.78833 30.0001.01788-.0199" stroke="url(#d)"/><path d="m8.15186 22.8477.01788-.0198" stroke="url(#e)"/><path d="m13.5164 30.0001.0178-.0199" stroke="url(#f)"/><path d="m24.2449 30.0001.0179-.0199" stroke="url(#g)"/><path d="m29.6094 22.8477.0179-.0198" stroke="url(#h)"/><path d="m34.9729 30.0001.0179-.0199" stroke="url(#i)"/></g><path d="m19.5894 4.04348 5.5498 5.54974c3.4563 3.45628 3.4563 9.06018 0 12.51648s-9.0601 3.4563-12.5164 0c-3.45636-3.4563-3.45636-9.0602 0-12.51648l5.5497-5.54976c.3913-.39128 1.0257-.39128 1.4169.00002z" fill="#fafafa" stroke="url(#j)" stroke-width="3"/></g></svg>