<svg width="40" height="40" viewBox="0 0 40 40" fill="none" xmlns="http://www.w3.org/2000/svg">
<path d="M36.8 11.6875L38.6125 8.04999C38.925 7.43749 38.675 6.68749 38.05 6.37499C37.425 6.06249 36.6875 6.31249 36.375 6.93749L35.275 9.13749C34.6875 8.32499 34.0375 7.54999 33.35 6.84999C33.35 6.84999 33.35 6.84999 33.3375 6.83749L33.7375 2.61249C33.8 1.92499 33.3 1.31249 32.6125 1.24999C31.925 1.16249 31.3125 1.68749 31.25 2.37499L31.0125 4.83749C31.0125 4.83749 31.0125 4.83749 31 4.82499C27.9125 2.57499 24.1125 1.24999 20 1.24999C9.6625 1.24999 1.25 9.66249 1.25 20C1.25 30.3375 9.6625 38.75 20 38.75C30.3375 38.75 38.75 30.3375 38.75 20C38.75 17.0125 38.05 14.1875 36.8 11.6875ZM33.0125 10.2625L33.025 10.2875C33.375 10.75 33.6875 11.2375 33.9875 11.7375L32.6125 14.475L33.0125 10.2625ZM20 36.25C11.0375 36.25 3.75 28.9625 3.75 20C3.75 11.0375 11.0375 3.74999 20 3.74999C24.1 3.74999 27.875 5.28749 30.7375 7.81249L29.5125 20.675L25.125 29.4375C24.8125 30.05 25.0625 30.8 25.6875 31.1125C25.875 31.2 26.0625 31.25 26.25 31.25C26.7125 31.25 27.15 31 27.375 30.5625L28.8625 27.5875L28.75 28.625C28.6875 29.3125 29.1875 29.925 29.875 29.9875C29.9125 29.9875 29.95 29.9875 30 29.9875C30.6375 29.9875 31.1875 29.5 31.2375 28.85L31.95 21.3625L35.325 14.6C35.925 16.3125 36.25 18.125 36.25 20C36.25 28.9625 28.9625 36.25 20 36.25Z" fill="url(#paint0_linear_87_1052)"/>
<path d="M16.25 10C10.7375 10 6.25 14.4875 6.25 20C6.25 25.5125 10.7375 30 16.25 30C21.7625 30 26.25 25.5125 26.25 20C26.25 14.4875 21.7625 10 16.25 10ZM13.75 23.75H12.5C11.8125 23.75 11.25 23.1875 11.25 22.5C11.25 21.8125 11.8125 21.25 12.5 21.25H13.75C14.4375 21.25 15 21.8125 15 22.5C15 23.1875 14.4375 23.75 13.75 23.75ZM13.75 18.75H12.5C11.8125 18.75 11.25 18.1875 11.25 17.5C11.25 16.8125 11.8125 16.25 12.5 16.25H13.75C14.4375 16.25 15 16.8125 15 17.5C15 18.1875 14.4375 18.75 13.75 18.75ZM20 18.75H17.5C16.8125 18.75 16.25 18.1875 16.25 17.5C16.25 16.8125 16.8125 16.25 17.5 16.25H20C20.6875 16.25 21.25 16.8125 21.25 17.5C21.25 18.1875 20.6875 18.75 20 18.75Z" fill="url(#paint1_linear_87_1052)"/>
<defs>
<linearGradient id="paint0_linear_87_1052" x1="20" y1="1.24045" x2="20" y2="38.75" gradientUnits="userSpaceOnUse">
<stop stop-color="#1EFFD7"/>
<stop offset="1" stop-color="#008080"/>
</linearGradient>
<linearGradient id="paint1_linear_87_1052" x1="16.25" y1="10" x2="16.25" y2="30" gradientUnits="userSpaceOnUse">
<stop stop-color="#1EFFD7"/>
<stop offset="1" stop-color="#008080"/>
</linearGradient>
</defs>
</svg>
