<svg fill="none" height="324" viewBox="0 0 322 324" width="322" xmlns="http://www.w3.org/2000/svg" xmlns:xlink="http://www.w3.org/1999/xlink"><linearGradient id="a"><stop offset="0" stop-color="#1effd7"/><stop offset="1" stop-color="#008080"/></linearGradient><linearGradient id="b" gradientUnits="userSpaceOnUse" x1="170.719" x2="170.719" xlink:href="#a" y1="211.271" y2="302.448"/><linearGradient id="c" gradientUnits="userSpaceOnUse" x1="264.04" x2="264.04" xlink:href="#a" y1="220.613" y2="224.442"/><linearGradient id="d" gradientUnits="userSpaceOnUse" x1="269.001" x2="269.001" xlink:href="#a" y1="251.229" y2="255.123"/><linearGradient id="e" gradientUnits="userSpaceOnUse" x1="148.419" x2="148.419" xlink:href="#a" y1="231.91" y2="239.453"/><linearGradient id="f" gradientUnits="userSpaceOnUse" x1="67.2391" x2="67.2391" xlink:href="#a" y1="230.815" y2="233.491"/><linearGradient id="g" gradientUnits="userSpaceOnUse" x1="174.406" x2="174.406" xlink:href="#a" y1="219.439" y2="300.554"/><linearGradient id="h" gradientUnits="userSpaceOnUse" x1="175.442" x2="175.442" xlink:href="#a" y1="238.997" y2="294.943"/><linearGradient id="i" gradientUnits="userSpaceOnUse" x1="191.675" x2="191.675" xlink:href="#a" y1="50.0842" y2="297.275"/><linearGradient id="j" gradientUnits="userSpaceOnUse" x1="191.684" x2="191.684" xlink:href="#a" y1="102.746" y2="130.91"/><linearGradient id="k" gradientUnits="userSpaceOnUse" x1="191.684" x2="191.684" xlink:href="#a" y1="116.155" y2="146.485"/><linearGradient id="l" gradientUnits="userSpaceOnUse" x1="191.649" x2="191.649" xlink:href="#a" y1="50.0842" y2="116.941"/><linearGradient id="m" gradientUnits="userSpaceOnUse" x1="191.614" x2="191.614" xlink:href="#a" y1="146.956" y2="297.275"/><linearGradient id="n" gradientUnits="userSpaceOnUse" x1="191.744" x2="191.744" xlink:href="#a" y1="68.2259" y2="293.137"/><linearGradient id="o" gradientUnits="userSpaceOnUse" x1="191.684" x2="191.684" xlink:href="#a" y1="68.0862" y2="103.531"/><linearGradient id="p" gradientUnits="userSpaceOnUse" x1="191.753" x2="191.753" xlink:href="#a" y1="104.911" y2="172.518"/><linearGradient id="q" gradientUnits="userSpaceOnUse" x1="191.719" x2="191.719" xlink:href="#a" y1="255.579" y2="290.133"/><linearGradient id="r" gradientUnits="userSpaceOnUse" x1="139.314" x2="139.314" xlink:href="#a" y1="167.42" y2="256.759"/><linearGradient id="s" gradientUnits="userSpaceOnUse" x1="125.041" x2="125.041" xlink:href="#a" y1="271.48" y2="300.582"/><linearGradient id="t" gradientUnits="userSpaceOnUse" x1="147.449" x2="147.449" xlink:href="#a" y1="167.35" y2="271.388"/><linearGradient id="u" gradientUnits="userSpaceOnUse" x1="130.889" x2="130.889" xlink:href="#a" y1="292.718" y2="320.688"/><linearGradient id="v" gradientUnits="userSpaceOnUse" x1="143.112" x2="143.112" xlink:href="#a" y1="116.644" y2="154.517"/><linearGradient id="w" gradientUnits="userSpaceOnUse" x1="130.913" x2="130.913" xlink:href="#a" y1="100.149" y2="106.181"/><linearGradient id="x" gradientUnits="userSpaceOnUse" x1="130.616" x2="130.616" xlink:href="#a" y1="100.077" y2="106.043"/><linearGradient id="y" gradientUnits="userSpaceOnUse" x1="130.287" x2="130.287" xlink:href="#a" y1="100.009" y2="106.041"/><linearGradient id="z" gradientUnits="userSpaceOnUse" x1="129.975" x2="129.975" xlink:href="#a" y1="100.007" y2="105.974"/><linearGradient id="A" gradientUnits="userSpaceOnUse" x1="129.662" x2="129.662" xlink:href="#a" y1="99.8691" y2="105.902"/><linearGradient id="B" gradientUnits="userSpaceOnUse" x1="129.349" x2="129.349" xlink:href="#a" y1="99.8672" y2="105.834"/><linearGradient id="C" gradientUnits="userSpaceOnUse" x1="129.349" x2="129.349" xlink:href="#a" y1="100.343" y2="105.219"/><linearGradient id="D" gradientUnits="userSpaceOnUse" x1="128.966" x2="128.966" xlink:href="#a" y1="99.7295" y2="105.762"/><linearGradient id="E" gradientUnits="userSpaceOnUse" x1="128.669" x2="128.669" xlink:href="#a" y1="99.7275" y2="105.694"/><linearGradient id="F" gradientUnits="userSpaceOnUse" x1="128.202" x2="128.202" xlink:href="#a" y1="99.5166" y2="105.721"/><linearGradient id="G" gradientUnits="userSpaceOnUse" x1="127.993" x2="127.993" xlink:href="#a" y1="99.4964" y2="105.646"/><linearGradient id="H" gradientUnits="userSpaceOnUse" x1="105.219" x2="105.219" xlink:href="#a" y1="86.3559" y2="108.357"/><linearGradient id="I" gradientUnits="userSpaceOnUse" x1="105.261" x2="105.261" xlink:href="#a" y1="86.5655" y2="108.492"/><linearGradient id="J" gradientUnits="userSpaceOnUse" x1="106.806" x2="106.806" xlink:href="#a" y1="86.6122" y2="108.476"/><linearGradient id="K" gradientUnits="userSpaceOnUse" x1="105.432" x2="105.432" xlink:href="#a" y1="91.6257" y2="107.575"/><linearGradient id="L" gradientUnits="userSpaceOnUse" x1="115.679" x2="115.679" xlink:href="#a" y1="92.5912" y2="107.653"/><linearGradient id="M" gradientUnits="userSpaceOnUse" x1="105.221" x2="105.221" xlink:href="#a" y1="86.5655" y2="108.492"/><linearGradient id="N" gradientUnits="userSpaceOnUse" x1="285.621" x2="285.621" xlink:href="#a" y1="104.003" y2="108.614"/><linearGradient id="O" gradientUnits="userSpaceOnUse" x1="276.819" x2="276.819" xlink:href="#a" y1="99.2723" y2="101.995"/><linearGradient id="P" gradientUnits="userSpaceOnUse" x1="276.981" x2="276.981" xlink:href="#a" y1="102.457" y2="110.027"/><linearGradient id="Q" gradientUnits="userSpaceOnUse" x1="268.872" x2="268.872" xlink:href="#a" y1="98.0485" y2="106.265"/><linearGradient id="R" gradientUnits="userSpaceOnUse" x1="269.632" x2="269.632" xlink:href="#a" y1="94.6442" y2="97.265"/><linearGradient id="S" gradientUnits="userSpaceOnUse" x1="262.119" x2="262.119" xlink:href="#a" y1="93.0322" y2="101.381"/><linearGradient id="T" gradientUnits="userSpaceOnUse" x1="273.696" x2="273.696" xlink:href="#a" y1="85.0053" y2="107.355"/><linearGradient id="U" gradientUnits="userSpaceOnUse" x1="288.703" x2="288.703" xlink:href="#a" y1="152.123" y2="171.89"/><linearGradient id="V" gradientUnits="userSpaceOnUse" x1="280.29" x2="280.29" xlink:href="#a" y1="164.41" y2="182.397"/><linearGradient id="W" gradientUnits="userSpaceOnUse" x1="287.887" x2="287.887" xlink:href="#a" y1="170.906" y2="176.996"/><linearGradient id="X" gradientUnits="userSpaceOnUse" x1="281.424" x2="281.424" xlink:href="#a" y1="182.235" y2="186.945"/><linearGradient id="Y" gradientUnits="userSpaceOnUse" x1="273.164" x2="273.164" xlink:href="#a" y1="175.369" y2="190.056"/><linearGradient id="Z" gradientUnits="userSpaceOnUse" x1="273.918" x2="273.918" xlink:href="#a" y1="191.445" y2="195.086"/><linearGradient id="aa" gradientUnits="userSpaceOnUse" x1="273.905" x2="273.905" xlink:href="#a" y1="155.826" y2="198.779"/><linearGradient id="ab" gradientUnits="userSpaceOnUse" x1="56.1133" x2="56.1133" xlink:href="#a" y1="126.213" y2="140.912"/><linearGradient id="ac" gradientUnits="userSpaceOnUse" x1="56.92" x2="56.92" xlink:href="#a" y1="117.155" y2="129.455"/><linearGradient id="ad" gradientUnits="userSpaceOnUse" x1="51.6737" x2="51.6737" xlink:href="#a" y1="122.226" y2="130.07"/><linearGradient id="ae" gradientUnits="userSpaceOnUse" x1="51.4094" x2="51.4094" xlink:href="#a" y1="113.521" y2="120.558"/><linearGradient id="af" gradientUnits="userSpaceOnUse" x1="57.4921" x2="57.4921" xlink:href="#a" y1="109.767" y2="119.949"/><linearGradient id="ag" gradientUnits="userSpaceOnUse" x1="52.6119" x2="52.6119" xlink:href="#a" y1="106.03" y2="111.838"/><linearGradient id="ah" gradientUnits="userSpaceOnUse" x1="57.2742" x2="57.2742" xlink:href="#a" y1="98.3457" y2="138.435"/><linearGradient id="ai" gradientUnits="userSpaceOnUse" x1="258.694" x2="258.694" xlink:href="#a" y1="135.571" y2="154.08"/><linearGradient id="aj" gradientUnits="userSpaceOnUse" x1="273.766" x2="273.766" xlink:href="#a" y1="127.54" y2="143.464"/><linearGradient id="ak" gradientUnits="userSpaceOnUse" x1="77.9695" x2="77.9695" xlink:href="#a" y1="35.9057" y2="55.8109"/><linearGradient id="al" gradientUnits="userSpaceOnUse" x1="96.2518" x2="96.2518" xlink:href="#a" y1="38.7107" y2="48.3262"/><linearGradient id="am" gradientUnits="userSpaceOnUse" x1="66.1347" x2="66.1347" xlink:href="#a" y1="161.405" y2="206.407"/><linearGradient id="an" gradientUnits="userSpaceOnUse" x1="255.22" x2="255.22" xlink:href="#a" y1="38.2113" y2="76.8365"/><clipPath id="ao"><path d="m0 0h322v324h-322z"/></clipPath><g clip-path="url(#ao)"><path d="m51.5084 316.395c-62.8564-36.458-62.8564-95.545 0-132.003 62.8566-36.458 164.7896-36.458 227.6456 0 62.857 36.458 62.857 95.545 0 132.003-62.856 36.457-164.789 36.457-227.6456 0z" fill="#fff" opacity=".07"/><path d="m154.415 302.286c-19.191-11.105-19.191-29.194 0-40.299s50.341-11.105 69.531 0c19.191 11.105 19.191 29.194 0 40.299-19.19 11.175-50.34 11.175-69.531 0z" fill="#0093e5" opacity=".07"/><path d="m102.823 321.213c-16.0622-9.289-16.0622-24.375 0-33.734 16.061-9.289 42.066-9.289 58.128 0s16.062 24.375 0 33.734c-16.062 9.289-42.067 9.289-58.128 0z" fill="#0093e5" opacity=".07"/><path d="m93.2272 251.58c3.8937-2.444 1.5992-6.006-.9735-8.381-2.4336-2.305-4.8672-3.003-7.9961-4.19-2.0859-.769-3.3375-2.515-4.9367-3.982-1.6688-1.536-3.7547-2.025-5.8407-2.723-2.4336-.838-1.5297-1.886.5563-2.515 3.6852-1.117 7.7875-.489 11.4031-1.885 2.5727-.978 4.2415-1.816 7.0923-1.327 3.0593.488 5.4234 2.304 8.2741 3.142 1.947.559 4.589 1.118 6.467.07 1.599-.908 1.321-2.444.903-4.051-.556-2.304-1.529-4.33-2.016-6.635-.209-.838-.556-1.816-1.112-2.374-.557-.559-1.6-1.257-2.225-1.676-.974-.559-3.7552-.35-4.2419-1.537-.6953-1.676 2.6419-2.165 3.6159-2.235.834-.07 3.198.21 3.824.978.487.628.069 1.257.139 1.955.209 2.166 2.92 2.375 4.659 2.585 1.946.209 3.754.419 5.354 1.676 1.668 1.257 2.711 3.143 4.102 4.679 1.46 1.537 2.573 3.353 3.685 5.169 1.947 3.282 3.477 6.704 5.284 10.057 1.461 2.654 2.782 6.635 6.328 6.006 2.433-.419 2.712-2.444 4.311-3.981 3.893-3.841 6.883-2.374 6.953 2.654.139 5.378-1.669 11.245 1.182 16.413 1.669 3.073 5.562 4.4 8.622 5.588 12.029 4.47 24.336.838 34.696-6.007 5.215-3.422 9.873-7.543 14.254-11.943 2.99-3.003 6.675-5.098 9.734-8.032 1.808-1.676 3.616-3.282 5.424-4.889.904-.768 1.877-1.536 2.851-2.304.764-.559 1.599-.839 2.294-1.327 3.546-2.445 7.37-3.353 11.542-4.331 2.364-.558 4.659-.977 7.093-1.257 2.155-.209 4.31-.07 6.466-.14 1.53-.069 2.92-.419 4.38-.907.835-.28 1.739-.35 2.434.279 1.182 1.117-.626 2.305-1.391 2.933-1.946 1.467-4.38 2.235-6.049 4.121-.556.698-.834 1.606-1.39 2.305-.487.628-1.182 1.187-1.808 1.606-1.043.768-2.017 1.676-2.712 2.724-.626.978-.765 2.095-1.043 3.213-.973 3.492 1.599 5.797 4.937 5.797 1.599 0 3.198-.28 4.728.139 2.155.489 3.963 2.096 6.049 2.794.834.279 4.033.838 3.338 2.305-.487 1.048-3.129 1.397-4.103 1.606-1.46.28-3.059.489-4.38 1.188-1.46.768-2.851 1.676-4.311 2.444s-2.781 1.467-3.824 2.864c-.904 1.187-2.086 3.073-1.182 4.539.903 1.537 2.92 2.375 4.45 3.143 2.711 1.397 5.771 1.467 8.482 2.864 1.947 1.048 2.434 2.584 3.686 4.33 1.529 2.235 3.754 3.213 5.84 4.749 1.043.769 2.642 2.096 2.225 3.632-.417 1.397-2.433 2.515-3.754 2.654-2.643.28-5.215-.209-7.788-.698-2.781-.559-5.493-.699-8.274-.978-4.937-.419-9.317-.768-13.906 1.816-4.798 2.724-9.109 6.495-13.907 9.359-1.112.698-2.294 1.327-3.476 1.886-12.864 6.006-28.022 6.076-41.65 2.514-5.423-1.397-10.708-3.213-15.853-5.518-4.45-2.025-8.552-4.749-13.489-5.377-2.712-.35-7.301-.35-14.88 1.257-2.225.489-4.241.768-6.466.838-4.381.07-9.039-1.118-11.334-5.099-1.529-2.584-.347-4.12-3.407-5.308-2.99-1.187-5.91-.698-8.135-3.352-1.738-2.026-1.043-5.518-3.4069-6.845-1.5993-.908-4.5891-.698-5.354-2.654-.4867-1.187.5563-1.676-.4867-2.793-.8344-.908-2.9203-1.677-4.1023-2.166-3.6157-1.396-8.0657-.279-11.5423-2.025-4.1718-2.025.6258-4.54 2.8508-5.587 3.7547-1.607 8.4829-1.467 12.2376-3.842z" fill="url(#b)"/><path d="m93.2272 251.58c3.8937-2.444 1.5992-6.006-.9735-8.381-2.4336-2.305-4.8672-3.003-7.9961-4.19-2.0859-.769-3.3375-2.515-4.9367-3.982-1.6688-1.536-3.7547-2.025-5.8407-2.723-2.4336-.838-1.5297-1.886.5563-2.515 3.6852-1.117 7.7875-.489 11.4031-1.885 2.5727-.978 4.2415-1.816 7.0923-1.327 3.0593.488 5.4234 2.304 8.2741 3.142 1.947.559 4.589 1.118 6.467.07 1.599-.908 1.321-2.444.903-4.051-.556-2.304-1.529-4.33-2.016-6.635-.209-.838-.556-1.816-1.112-2.374-.557-.559-1.6-1.257-2.225-1.676-.974-.559-3.7552-.35-4.2419-1.537-.6953-1.676 2.6419-2.165 3.6159-2.235.834-.07 3.198.21 3.824.978.487.628.069 1.257.139 1.955.209 2.166 2.92 2.375 4.659 2.585 1.946.209 3.754.419 5.354 1.676 1.668 1.257 2.711 3.143 4.102 4.679 1.46 1.537 2.573 3.353 3.685 5.169 1.947 3.282 3.477 6.704 5.284 10.057 1.461 2.654 2.782 6.635 6.328 6.006 2.433-.419 2.712-2.444 4.311-3.981 3.893-3.841 6.883-2.374 6.953 2.654.139 5.378-1.669 11.245 1.182 16.413 1.669 3.073 5.562 4.4 8.622 5.588 12.029 4.47 24.336.838 34.696-6.007 5.215-3.422 9.873-7.543 14.254-11.943 2.99-3.003 6.675-5.098 9.734-8.032 1.808-1.676 3.616-3.282 5.424-4.889.904-.768 1.877-1.536 2.851-2.304.764-.559 1.599-.839 2.294-1.327 3.546-2.445 7.37-3.353 11.542-4.331 2.364-.558 4.659-.977 7.093-1.257 2.155-.209 4.31-.07 6.466-.14 1.53-.069 2.92-.419 4.38-.907.835-.28 1.739-.35 2.434.279 1.182 1.117-.626 2.305-1.391 2.933-1.946 1.467-4.38 2.235-6.049 4.121-.556.698-.834 1.606-1.39 2.305-.487.628-1.182 1.187-1.808 1.606-1.043.768-2.017 1.676-2.712 2.724-.626.978-.765 2.095-1.043 3.213-.973 3.492 1.599 5.797 4.937 5.797 1.599 0 3.198-.28 4.728.139 2.155.489 3.963 2.096 6.049 2.794.834.279 4.033.838 3.338 2.305-.487 1.048-3.129 1.397-4.103 1.606-1.46.28-3.059.489-4.38 1.188-1.46.768-2.851 1.676-4.311 2.444s-2.781 1.467-3.824 2.864c-.904 1.187-2.086 3.073-1.182 4.539.903 1.537 2.92 2.375 4.45 3.143 2.711 1.397 5.771 1.467 8.482 2.864 1.947 1.048 2.434 2.584 3.686 4.33 1.529 2.235 3.754 3.213 5.84 4.749 1.043.769 2.642 2.096 2.225 3.632-.417 1.397-2.433 2.515-3.754 2.654-2.643.28-5.215-.209-7.788-.698-2.781-.559-5.493-.699-8.274-.978-4.937-.419-9.317-.768-13.906 1.816-4.798 2.724-9.109 6.495-13.907 9.359-1.112.698-2.294 1.327-3.476 1.886-12.864 6.006-28.022 6.076-41.65 2.514-5.423-1.397-10.708-3.213-15.853-5.518-4.45-2.025-8.552-4.749-13.489-5.377-2.712-.35-7.301-.35-14.88 1.257-2.225.489-4.241.768-6.466.838-4.381.07-9.039-1.118-11.334-5.099-1.529-2.584-.347-4.12-3.407-5.308-2.99-1.187-5.91-.698-8.135-3.352-1.738-2.026-1.043-5.518-3.4069-6.845-1.5993-.908-4.5891-.698-5.354-2.654-.4867-1.187.5563-1.676-.4867-2.793-.8344-.908-2.9203-1.677-4.1023-2.166-3.6157-1.396-8.0657-.279-11.5423-2.025-4.1718-2.025.6258-4.54 2.8508-5.587 3.7547-1.607 8.4829-1.467 12.2376-3.842z" fill="url(#b)" opacity=".7"/><path d="m261.493 222.665c-.347 3.423 6.953 1.327 4.659-1.466-1.043-1.327-4.52-.21-4.659 1.466z" fill="url(#c)"/><path d="m261.493 222.665c-.347 3.423 6.953 1.327 4.659-1.466-1.043-1.327-4.52-.21-4.659 1.466z" fill="url(#c)" opacity=".7"/><path d="m266.291 254.095c1.182.628 5.493 1.885 6.258.139.765-2.025-2.086-2.654-3.477-2.863-.765-.07-1.808-.28-2.573 0-1.529.558-1.529 2.025-.208 2.724z" fill="url(#d)"/><path d="m266.291 254.095c1.182.628 5.493 1.885 6.258.139.765-2.025-2.086-2.654-3.477-2.863-.765-.07-1.808-.28-2.573 0-1.529.558-1.529 2.025-.208 2.724z" fill="url(#d)" opacity=".7"/><path d="m148.505 232.024c-1.461.419-2.921 2.026-2.573 3.492.139.489 2.016 3.772 2.642 3.912 1.947.419 2.503-4.54 2.364-5.658-.347-1.676-1.39-2.095-2.433-1.746z" fill="url(#e)"/><path d="m148.505 232.024c-1.461.419-2.921 2.026-2.573 3.492.139.489 2.016 3.772 2.642 3.912 1.947.419 2.503-4.54 2.364-5.658-.347-1.676-1.39-2.095-2.433-1.746z" fill="url(#e)" opacity=".7"/><path d="m68.3349 230.837c-1.1125-.14-2.7117.419-3.1984 1.117-.6954 1.188.4171 1.537 1.5297 1.537 1.0429 0 2.5726-.14 2.8507-1.327.2086-.838-.4171-1.257-1.182-1.327z" fill="url(#f)"/><path d="m68.3349 230.837c-1.1125-.14-2.7117.419-3.1984 1.117-.6954 1.188.4171 1.537 1.5297 1.537 1.0429 0 2.5726-.14 2.8507-1.327.2086-.838-.4171-1.257-1.182-1.327z" fill="url(#f)" opacity=".7"/><path d="m195.021 265.2c-12.655 7.612-30.802 8.73-44.639 4.19-2.573-.838-4.937-2.025-7.092-3.632-1.947-1.466-4.589-3.352-5.563-5.657-1.182-2.933-.973-6.565-2.086-9.638-.695-1.886-1.46-3.842-2.92-5.169-1.599-1.396-3.824-1.746-5.493-2.933-4.45-3.143-5.771-8.73-8.066-13.48-1.668-3.422-5.84-9.778-10.221-9.428-.486 1.955 3.616 5.238 4.033 7.612.834 4.82-.069 9.988-5.632 10.547-5.354.489-10.6383-1.397-15.8531-2.305-1.2516-.21-8.0657-1.816-5.7711 1.327.9734 1.397 5.8406 2.444 7.3703 3.282 2.0859 1.188 4.3805 2.305 5.9102 4.261 3.5457 4.33 1.6687 7.822-3.4071 9.01-1.8773.488-10.3602 2.514-4.5891 4.609 3.3375 1.188 6.8836.14 10.0129 2.375 2.086 1.467 1.39 1.746 1.807 3.702 1.252 6.216 7.023 4.819 10.986 8.381 1.6 1.396 1.182 2.584 1.461 4.33.417 2.514 1.738 4.47 3.754 5.936 6.745 4.889 15.993 1.258 23.363.559 5.771-.489 11.333.629 16.131 3.911 5.076 3.423 10.082 6.915 15.714 9.359 6.745 3.004 14.254 4.75 21.625 4.051 3.128-.279 6.049-.279 9.108-1.047 4.589-1.188 10.082-2.864 13.906-5.867 3.268-2.515 5.911-5.588 9.318-7.962 2.364-1.676 4.658-3.213 7.3-4.47 4.172-1.886 8.97-1.397 13.211-.28 3.199.839 6.258 1.956 9.526 2.166 1.391.069 3.268.558 4.589.069 1.46-.558.487-1.396-.417-1.676-1.599-.559-3.129-.908-4.45-1.955-1.46-1.118-2.712-2.585-4.172-3.632-1.738-1.257-3.685-1.816-5.701-2.305-1.252-.279-2.573-.629-3.825-.978-.973-.279-1.738-.419-2.503-1.117-.695-.629-1.46-1.118-2.086-1.746-1.251-1.327-1.877-3.004-1.46-4.82.417-1.955 2.225-3.212 3.546-4.609 1.53-1.537 4.172-2.724 5.354-4.261 2.017-2.444-3.337-4.12-4.937-4.539-3.268-.978-4.519-4.4-4.241-7.683.139-2.095 1.252-3.283 2.295-5.029 1.043-1.676 2.989-2.095 4.171-3.492.835-.978 1.043-2.374 1.808-3.422.348-.559 1.599-1.537 1.53-2.235-.139-.978-6.049 1.187-6.466 1.397-2.851 1.327-5.354 3.562-7.788 5.517-2.642 2.165-5.354 4.121-7.996 6.286-2.573 2.026-5.006 4.261-7.509 6.356-.974.838-1.878 1.955-2.99 2.724-1.321.908-2.503 2.025-3.825 2.933-1.112.768-2.364 1.397-3.476 2.165-4.311 2.864-8.413 5.727-12.655 8.312z" fill="url(#g)" opacity=".2"/><path d="m151.425 272.463c-5.563-1.746-11.334-3.841-14.463-9.079-1.251-2.096-2.572-4.261-3.337-6.635-.695-1.886-1.043-3.981-1.808-5.867-1.112-2.794-2.434-4.68-5.215-5.727-2.294-.838-6.049-1.188-7.509-3.423-1.113-1.746-1.391-2.863-3.824-2.723-2.017.069-2.225.907-2.851 2.654-.835 2.235-1.182 2.654-3.894 2.584-3.129-.14-8.483-1.677-4.38 3.003 1.112 1.327 3.198 3.073 2.225 5.168-.835 1.746-5.98 1.677-4.311 4.54.486.768 2.433 1.187 3.198 1.956.974.977 1.53 2.165 2.086 3.492 1.252 3.143 4.311 3.632 7.023 5.028 3.685 1.956 3.754 4.61 5.701 7.963 2.921 5.098 8.692 5.168 13.907 4.679 6.257-.629 13.141-1.467 19.26.419 7.926 2.445 14.81 7.613 22.458 10.826 8.066 3.352 16.618 4.889 25.032 2.374 3.615-1.047 6.744-3.143 9.804-5.378 2.92-2.095 5.771-3.841 8.9-5.587 6.814-3.771 14.74-5.378 22.528-4.679 1.947.209 4.38 1.187 6.258.768 3.059-.699-2.225-2.654-3.06-3.213-.973-.698-1.738-1.746-2.711-2.444-1.113-.769-2.504-1.188-3.755-1.607-1.808-.559-3.824-1.047-5.285-2.444-.973-.908-.625-1.956-.486-3.143.556-3.772 3.963-5.238 6.536-7.473 3.337-2.934 1.46-5.308-1.878-7.124-1.112-.629-2.711-1.816-2.92-3.213-.278-1.606.417-3.492.834-4.959.209-.768.904-2.514.418-3.283-.904-1.396-2.434.07-3.199.629-5.076 3.911-9.665 8.172-14.254 12.572-1.46 1.397-2.781 3.073-4.311 4.33-1.112.908-2.364 1.746-3.546 2.584-1.669 1.257-3.337 2.654-5.006 3.911-1.877 1.397-4.102 2.445-5.98 3.772-2.225 1.606-5.284 2.584-7.857 3.632-5.354 2.165-11.333 4.12-17.174 4.539-2.573.14-5.424.35-7.996.14-2.642-.209-5.215-.908-7.788-1.676-2.364-.629-4.936-1.118-7.37-1.886z" fill="url(#h)" opacity=".2"/><g fill="#fafafa"><path d="m110.054 226.088c.278 2.654-.07 5.168-2.851 6.355-3.477 1.467-7.2313-.768-10.2907-2.095s-6.0492-2.444-9.3172-1.327c-2.5031.838-4.7977 1.746-7.5789 1.327 2.7812 1.187 5.493.559 8.3437.349 3.1985-.279 5.9102.699 8.6915 2.165 4.9366 2.585 12.5856 3.143 13.3496-3.631.139-1.607-.347-3.143-.347-3.143z"/><path d="m237.783 228.392c-.626.28-1.252.489-1.877.769-1.252.558-2.504 1.257-3.686 1.955-1.529.908-2.85 2.305-4.102 3.562-2.781 2.794-5.632 5.378-8.483 8.032-2.294 2.165-5.423 5.029-8.761 5.238 1.321.28 3.546-.209 4.798-.489 2.781-.628 5.215-2.793 7.37-4.609 3.685-3.213 7.162-6.984 11.125-9.778 2.295-1.606 4.45-3.073 7.093-3.911 1.668-.559 3.407-1.048 5.145-1.537 1.112-.349 2.364-.419 3.407-.908-2.642.489-5.284-.07-7.927.419-1.46.28-2.781.699-4.102 1.257z"/><path d="m241.051 240.824c-.139 1.467-.556 2.585.139 3.981.834 1.747 2.851 3.143 4.659 3.632 2.781.699 6.049.28 8.204 2.445-1.46-.419-2.781-.908-4.311-1.118-1.947-.279-4.032 0-5.979-.558-1.461-.42-2.99-1.397-3.477-2.864-.556-1.606.07-3.073.765-5.518z"/><path d="m242.928 263.733c.417 1.047.417 2.305 1.043 3.352 2.434 4.051 7.579 2.934 11.334 4.68 2.016.908 2.99 2.584 4.241 4.33.626.908 1.321 1.816 2.225 2.514.696.489 1.53.629 2.225.978-.486.21-1.46 0-2.016-.07-1.391-.209-2.642-1.117-3.685-2.095-.904-.908-1.53-2.095-2.573-2.933-.834-.699-1.808-1.327-2.781-1.677-2.642-1.047-5.841-1.466-8.205-3.212-.904-.699-1.808-1.886-1.947-3.073-.069-.908.417-2.096.139-2.794z"/><path d="m250.09 282.87c-9.595-1.816-15.714 1.187-23.154 6.355 0 0 4.45-5.238 10.499-7.124 6.119-1.815 12.655.769 12.655.769z"/><path d="m163.315 294.394c-5.632-2.375-9.943-6.077-15.158-6.985-5.284-.977-13.489 1.327-15.366 1.537 0 0 3.546-1.187 6.814-2.375 3.268-1.257 8.274-2.165 12.793.35 4.52 2.514 7.371 5.657 10.917 7.473z"/><path d="m155.11 266.596c-.695-.209-1.46-.489-2.155-.838-2.225-1.047-4.52-2.793-5.841-4.889-1.321-2.095-1.947-4.47-2.086-6.914-.139-3.073.695-6.076.904-9.08.069-.768.139-1.606.069-2.374 0-.35-.069-.699-.208-1.048-.139-.419-.348-.908-.626-1.257-.139-.21-.348-.349-.556-.489-.139-.07-.417-.07-.556-.21.764.489 1.043 1.607.973 2.445-.069.628-.139 1.257-.209 1.816-.278 1.397-.625 2.794-.834 4.19-.348 2.235-.973 4.47-1.251 6.775-.348 2.794 0 5.168 1.738 7.473 1.043 1.397 2.781 2.515 4.38 3.213 1.878.768 4.242 1.467 6.258 1.187z"/><path d="m83.2146 260.799s.0696 0 0 0c3.0594.21 6.4664-.139 9.3172 1.188 1.043.489 2.2946.978 2.8508 2.095.4867.908-.139 1.956.4867 2.794 1.043 1.397 3.4071 1.117 4.8677 1.816 1.043.489 2.155 1.187 2.85 2.095.557.698.557 1.606.835 2.375.904-1.886-1.321-3.842-2.712-4.75-1.53-1.117-4.1719-1.466-4.5196-3.562-.2086-1.117-.6258-2.444-1.2515-3.352-.6953-.978-2.086-1.257-3.1289-1.537-2.6422-.558-5.0758-.628-7.7876-.279-1.7383.279-3.6851.698-5.3539-.07.9039.908 2.2946 1.118 3.5461 1.187z"/></g><path d="m164.08 292.578c-15.228-8.73-15.228-22.908 0-31.639 15.227-8.73 39.98-8.73 55.277 0 15.228 8.731 15.228 22.909 0 31.639-15.297 8.73-40.05 8.73-55.277 0z" fill="#000" opacity=".1"/><path d="m229.578 94.993c0-14.3177-13.071-27.937-18.773-33.3847-3.059-2.8636-4.867-4.2604-5.771-6.0763-.765-1.5366-.626-2.4445-.626-5.4478h-12.724-12.724c0 3.0033.139 3.9112-.626 5.4478-.835 1.8159-2.712 3.2127-5.771 6.0763-5.702 5.3778-18.774 19.067-18.774 33.3847 0 1.3271.209 2.5842.556 3.8414-.417 1.2576-.556 2.5846-.556 3.9116v6.146c0 1.187.139 2.444.487 3.632-.417 1.396-.556 2.723-.487 4.12v7.683c0 2.584.765 5.098 2.225 7.194l1.669 2.444c1.46 2.096 2.225 4.61 2.225 7.194 0 2.025-.487 4.051-1.46 5.867l-3.199 6.146c-.973 1.816-1.46 3.841-1.46 5.867v116.288c0 5.587 3.685 11.244 11.056 15.505 14.81 8.59 38.729 8.59 53.539 0 7.37-4.261 11.055-9.918 11.055-15.505v-116.218c0-2.026-.486-4.051-1.46-5.867l-3.198-6.146c-.974-1.816-1.46-3.842-1.46-5.867 0-2.584.764-5.099 2.225-7.194l1.668-2.444c1.461-2.096 2.225-4.61 2.225-7.194v-7.683c.07-1.397-.139-2.724-.486-4.121.347-1.187.486-2.444.486-3.631v-6.147c0-1.327-.208-2.584-.556-3.9108.487-1.327.695-2.5841.695-3.9112z" fill="url(#i)"/><path d="m229.578 94.993c0-14.3177-13.071-27.937-18.773-33.3847-3.059-2.8636-4.867-4.2604-5.771-6.0763-.765-1.5366-.626-2.4445-.626-5.4478h-12.724-12.724c0 3.0033.139 3.9112-.626 5.4478-.835 1.8159-2.712 3.2127-5.771 6.0763-5.702 5.3778-18.774 19.067-18.774 33.3847 0 1.3271.209 2.5842.556 3.8414-.417 1.2576-.556 2.5846-.556 3.9116v6.146c0 1.187.139 2.444.487 3.632-.417 1.396-.556 2.723-.487 4.12v7.683c0 2.584.765 5.098 2.225 7.194l1.669 2.444c1.46 2.096 2.225 4.61 2.225 7.194 0 2.025-.487 4.051-1.46 5.867l-3.199 6.146c-.973 1.816-1.46 3.841-1.46 5.867v116.288c0 5.587 3.685 11.244 11.056 15.505 14.81 8.59 38.729 8.59 53.539 0 7.37-4.261 11.055-9.918 11.055-15.505v-116.218c0-2.026-.486-4.051-1.46-5.867l-3.198-6.146c-.974-1.816-1.46-3.842-1.46-5.867 0-2.584.764-5.099 2.225-7.194l1.668-2.444c1.461-2.096 2.225-4.61 2.225-7.194v-7.683c.07-1.397-.139-2.724-.486-4.121.347-1.187.486-2.444.486-3.631v-6.147c0-1.327-.208-2.584-.556-3.9108.487-1.327.695-2.5841.695-3.9112z" fill="url(#i)" opacity=".5"/><path d="m153.859 108.962c0 5.587 3.685 11.244 11.055 15.505 14.81 8.59 38.729 8.59 53.539 0 7.371-4.261 11.056-9.918 11.056-15.505v-6.216c0 5.587-3.685 11.244-11.056 15.505-14.81 8.59-38.729 8.59-53.539 0-7.37-4.261-11.055-9.848-11.055-15.505z" fill="url(#j)"/><path d="m153.859 124.536c0 5.588 3.685 11.245 11.055 15.506 14.81 8.59 38.729 8.59 53.539 0 7.371-4.261 11.056-9.918 11.056-15.506v-8.381c0 5.588-3.685 11.245-11.056 15.505-14.81 8.591-38.729 8.591-53.539 0-7.37-4.26-11.055-9.917-11.055-15.505z" fill="url(#k)"/><path d="m229.509 94.993c0 .6286-.07 1.3271-.139 1.9556 0 .1397-.07.2794-.07.4191-.069.4889-.208.9778-.347 1.4667-1.321 4.2606-4.798 8.3816-10.5 11.6636-14.81 8.591-38.729 8.591-53.539 0-5.701-3.282-9.178-7.403-10.499-11.6636 0-.0699 0-.1397-.07-.2095-.069-.1397-.069-.3492-.139-.4889-.278-1.0477-.417-2.0953-.417-3.143 0-14.3177 13.072-27.937 18.774-33.3847 3.059-2.8636 4.867-4.2604 5.771-6.0763.765-1.6064.626-2.4445.626-5.4478h25.379c0 3.0033-.14 3.9112.625 5.4478.835 1.8159 2.712 3.2127 5.771 6.0763 5.702 5.4477 18.774 19.067 18.774 33.3847z" fill="url(#l)"/><path d="m216.089 166.721c-13.489 7.823-35.391 7.823-48.88 0-9.248-5.377-12.168-12.99-8.761-19.765v.07l-3.199 6.146c-.973 1.816-1.46 3.841-1.46 5.867v116.288c0 5.587 3.685 11.244 11.056 15.505 14.81 8.59 38.729 8.59 53.539 0 7.37-4.261 11.055-9.918 11.055-15.505v-116.218c0-2.026-.486-4.051-1.46-5.867l-3.198-6.146v-.07c3.476 6.775.556 14.387-8.692 19.695z" fill="url(#m)"/><g opacity=".7"><path d="m153.859 108.962c0 5.587 3.685 11.244 11.055 15.505 14.81 8.59 38.729 8.59 53.539 0 7.371-4.261 11.056-9.918 11.056-15.505v-6.216c0 5.587-3.685 11.244-11.056 15.505-14.81 8.59-38.729 8.59-53.539 0-7.37-4.261-11.055-9.848-11.055-15.505z" fill="url(#j)" opacity=".7"/><path d="m153.859 124.536c0 5.588 3.685 11.245 11.055 15.506 14.81 8.59 38.729 8.59 53.539 0 7.371-4.261 11.056-9.918 11.056-15.506v-8.381c0 5.588-3.685 11.245-11.056 15.505-14.81 8.591-38.729 8.591-53.539 0-7.37-4.26-11.055-9.917-11.055-15.505z" fill="url(#k)" opacity=".7"/><path d="m229.509 94.993c0 .6286-.07 1.3271-.139 1.9556 0 .1397-.07.2794-.07.4191-.069.4889-.208.9778-.347 1.4667-1.321 4.2606-4.798 8.3816-10.5 11.6636-14.81 8.591-38.729 8.591-53.539 0-5.701-3.282-9.178-7.403-10.499-11.6636 0-.0699 0-.1397-.07-.2095-.069-.1397-.069-.3492-.139-.4889-.278-1.0477-.417-2.0953-.417-3.143 0-14.3177 13.072-27.937 18.774-33.3847 3.059-2.8636 4.867-4.2604 5.771-6.0763.765-1.6064.626-2.4445.626-5.4478h25.379c0 3.0033-.14 3.9112.625 5.4478.835 1.8159 2.712 3.2127 5.771 6.0763 5.702 5.4477 18.774 19.067 18.774 33.3847z" fill="url(#l)" opacity=".7"/><path d="m216.089 166.721c-13.489 7.823-35.391 7.823-48.88 0-9.248-5.377-12.168-12.99-8.761-19.765v.07l-3.199 6.146c-.973 1.816-1.46 3.841-1.46 5.867v116.288c0 5.587 3.685 11.244 11.056 15.505 14.81 8.59 38.729 8.59 53.539 0 7.37-4.261 11.055-9.918 11.055-15.505v-116.218c0-2.026-.486-4.051-1.46-5.867l-3.198-6.146v-.07c3.476 6.775.556 14.387-8.692 19.695z" fill="url(#m)" opacity=".7"/></g><path d="m224.989 100.092c.278.908.418 1.746.418 2.654v6.216c0 .838-.14 1.676-.348 2.514l-.348 1.117.348 1.118c.278.908.348 1.886.348 2.794l-.14 4.26h.209v3.562c0 1.746-.487 3.422-1.46 4.819l-1.669 2.445c-1.947 2.793-2.92 6.076-2.92 9.498 0 2.724.626 5.378 1.877 7.823l3.199 6.146c.625 1.187.973 2.584.973 3.981v116.288c0 4.33-3.198 8.59-9.039 11.943-6.536 3.771-15.297 5.867-24.684 5.867-9.386 0-18.147-2.096-24.683-5.867-5.841-3.353-9.039-7.613-9.039-11.943v-116.218c0-1.397.347-2.724.973-3.981l3.198-6.147c1.252-2.374 1.878-5.098 1.878-7.822 0-3.422-1.043-6.705-2.92-9.499l-1.669-2.444c-.974-1.397-1.46-3.143-1.46-4.819v-3.562h.139l-.139-4.33c-.07-.978.069-1.886.347-2.794l.348-1.118-.348-1.117c-.208-.838-.347-1.676-.347-2.514v-6.147c0-.908.139-1.815.417-2.654l.347-1.1869-.347-1.1873c-.278-.908-.417-1.7461-.417-2.6541 0-5.0286 1.877-10.0573 4.589-14.6669 0 0 0-.0699.069-.0699.07-.1396.209-.3492.278-.4889.07-.0698.07-.1396.139-.2095 1.461-2.3048 3.825-4.4001 7.023-6.2858 11.959-6.9144 31.289-6.9144 43.249 0 3.198 1.8159 5.493 3.981 7.022 6.2858.07.0699.07.1397.139.2095.07.1397.209.3493.278.4889 0 0 0 .0699.07.0699 2.712 4.6096 4.589 9.6383 4.589 14.6669 0 .908-.139 1.7461-.417 2.6541l-.348 1.1873z" fill="url(#n)"/><path d="m224.989 100.092c.278.908.418 1.746.418 2.654v6.216c0 .838-.14 1.676-.348 2.514l-.348 1.117.348 1.118c.278.908.348 1.886.348 2.794l-.14 4.26h.209v3.562c0 1.746-.487 3.422-1.46 4.819l-1.669 2.445c-1.947 2.793-2.92 6.076-2.92 9.498 0 2.724.626 5.378 1.877 7.823l3.199 6.146c.625 1.187.973 2.584.973 3.981v116.288c0 4.33-3.198 8.59-9.039 11.943-6.536 3.771-15.297 5.867-24.684 5.867-9.386 0-18.147-2.096-24.683-5.867-5.841-3.353-9.039-7.613-9.039-11.943v-116.218c0-1.397.347-2.724.973-3.981l3.198-6.147c1.252-2.374 1.878-5.098 1.878-7.822 0-3.422-1.043-6.705-2.92-9.499l-1.669-2.444c-.974-1.397-1.46-3.143-1.46-4.819v-3.562h.139l-.139-4.33c-.07-.978.069-1.886.347-2.794l.348-1.118-.348-1.117c-.208-.838-.347-1.676-.347-2.514v-6.147c0-.908.139-1.815.417-2.654l.347-1.1869-.347-1.1873c-.278-.908-.417-1.7461-.417-2.6541 0-5.0286 1.877-10.0573 4.589-14.6669 0 0 0-.0699.069-.0699.07-.1396.209-.3492.278-.4889.07-.0698.07-.1396.139-.2095 1.461-2.3048 3.825-4.4001 7.023-6.2858 11.959-6.9144 31.289-6.9144 43.249 0 3.198 1.8159 5.493 3.981 7.022 6.2858.07.0699.07.1397.139.2095.07.1397.209.3493.278.4889 0 0 0 .0699.07.0699 2.712 4.6096 4.589 9.6383 4.589 14.6669 0 .908-.139 1.7461-.417 2.6541l-.348 1.1873z" fill="url(#n)" opacity=".85"/><path d="m213.308 98.3455c-11.959 6.9145-31.289 6.9145-43.248 0-8.414-4.889-10.917-11.8732-7.51-18.0194 0 0 0-.0698.07-.0698.069-.1397.208-.3492.278-.4889.069-.0699.069-.1397.139-.2096 1.46-2.3048 3.824-4.4001 7.023-6.2858 11.959-6.9144 31.289-6.9144 43.248 0 3.199 1.8159 5.493 3.981 7.023 6.2858.069.0699.069.1397.139.2096.069.1397.208.3492.278.4889 0 0 0 .0698.069.0698 3.407 6.1462.904 13.1304-7.509 18.0194z" fill="url(#o)" opacity=".7"/><path d="m225.337 119.019c-1.738 1.956-4.033 3.771-6.884 5.448-14.81 8.59-38.729 8.59-53.539 0-2.851-1.677-5.145-3.492-6.883-5.448l.069 1.816h-.139v3.562c0 .698.07 1.397.278 2.025 1.738 1.886 3.963 3.702 6.745 5.308 14.81 8.591 38.729 8.591 53.539 0 2.781-1.606 5.006-3.352 6.744-5.308.14-.628.279-1.327.279-2.025v-3.562h-.209zm-4.102 29.962c-1.252-2.374-1.878-5.098-1.878-7.822 0-.559.07-1.117.07-1.676-.348.209-.626.419-.974.559-14.81 8.59-38.729 8.59-53.539 0-.347-.21-.695-.42-.973-.629.069.559.069 1.117.069 1.676 0 2.724-.625 5.378-1.877 7.823l-3.198 6.146c-.348.698-.626 1.466-.765 2.235 1.46 3.422 4.519 6.705 9.108 9.359 13.489 7.822 35.392 7.822 48.881 0 4.658-2.654 7.648-5.937 9.108-9.359-.139-.769-.417-1.537-.764-2.235zm-2.782-38.483c-14.81 8.591-38.729 8.591-53.539 0-2.92-1.676-5.215-3.562-6.953-5.587v3.981c0 .838.139 1.676.348 2.514l.347 1.118-.208.698c1.669 1.816 3.824 3.492 6.466 5.029 14.81 8.59 38.729 8.59 53.539 0 2.643-1.537 4.798-3.213 6.467-5.029l-.209-.698.348-1.118c.208-.838.348-1.676.348-2.514v-3.981c-1.739 2.095-4.033 3.981-6.954 5.587z" fill="url(#p)"/><path d="m225.337 119.019c-1.738 1.956-4.033 3.771-6.884 5.448-14.81 8.59-38.729 8.59-53.539 0-2.851-1.677-5.145-3.492-6.883-5.448l.069 1.816h-.139v3.562c0 .698.07 1.397.278 2.025 1.738 1.886 3.963 3.702 6.745 5.308 14.81 8.591 38.729 8.591 53.539 0 2.781-1.606 5.006-3.352 6.744-5.308.14-.628.279-1.327.279-2.025v-3.562h-.209zm-4.102 29.962c-1.252-2.374-1.878-5.098-1.878-7.822 0-.559.07-1.117.07-1.676-.348.209-.626.419-.974.559-14.81 8.59-38.729 8.59-53.539 0-.347-.21-.695-.42-.973-.629.069.559.069 1.117.069 1.676 0 2.724-.625 5.378-1.877 7.823l-3.198 6.146c-.348.698-.626 1.466-.765 2.235 1.46 3.422 4.519 6.705 9.108 9.359 13.489 7.822 35.392 7.822 48.881 0 4.658-2.654 7.648-5.937 9.108-9.359-.139-.769-.417-1.537-.764-2.235zm-2.782-38.483c-14.81 8.591-38.729 8.591-53.539 0-2.92-1.676-5.215-3.562-6.953-5.587v3.981c0 .838.139 1.676.348 2.514l.347 1.118-.208.698c1.669 1.816 3.824 3.492 6.466 5.029 14.81 8.59 38.729 8.59 53.539 0 2.643-1.537 4.798-3.213 6.467-5.029l-.209-.698.348-1.118c.208-.838.348-1.676.348-2.514v-3.981c-1.739 2.095-4.033 3.981-6.954 5.587z" fill="url(#p)" opacity=".7"/><path d="m213.656 260.66c-12.168-6.775-31.846-6.775-43.944 0-6.049 3.352-9.109 7.752-9.109 12.222v1.537c0 3.841 2.921 7.543 8.344 10.546 6.049 3.352 14.115 5.168 22.737 5.168 8.691 0 16.757-1.816 22.806-5.168 5.354-3.003 8.344-6.705 8.344-10.546v-1.537c-.07-4.47-3.06-8.87-9.178-12.222z" fill="url(#q)"/><path d="m213.656 260.66c-12.168-6.775-31.846-6.775-43.944 0-6.049 3.352-9.109 7.752-9.109 12.222v1.537c0 3.841 2.921 7.543 8.344 10.546 6.049 3.352 14.115 5.168 22.737 5.168 8.691 0 16.757-1.816 22.806-5.168 5.354-3.003 8.344-6.705 8.344-10.546v-1.537c-.07-4.47-3.06-8.87-9.178-12.222z" fill="url(#q)" opacity=".75"/><g fill="#000" opacity=".1"><path d="m172.563 275.047v-116.218c0-2.025.486-4.051 1.46-5.867l3.198-6.146c.974-1.816 1.46-3.841 1.46-5.866 0-2.585-.764-5.099-2.225-7.194l-1.668-2.445c-1.46-2.095-2.225-4.609-2.225-7.194v-7.682c-.07-1.397.139-2.724.486-4.121-.347-1.187-.486-2.444-.486-3.632v-6.146c0-1.327.208-2.5841.556-3.9111-.417-1.2572-.556-2.5842-.556-3.8414 0-14.3177 9.734-27.937 15.436-33.3848 3.059-2.8635 4.867-4.2604 5.771-6.0763.695-1.5365.626-2.3746.626-5.1683h-2.712-12.724c0 3.0032.139 3.9112-.626 5.4477-.835 1.8159-2.712 3.2128-5.771 6.0763-5.702 5.3779-18.774 19.0671-18.774 33.3848 0 1.327.209 2.5842.556 3.8413-.417 1.2568-.556 2.5838-.556 3.9108v6.147c0 1.187.139 2.444.487 3.631-.417 1.397-.556 2.724-.487 4.121v7.683c0 2.584.765 5.098 2.225 7.194l1.669 2.444c1.46 2.095 2.225 4.61 2.225 7.194 0 2.025-.487 4.051-1.46 5.867l-3.199 6.146c-.973 1.816-1.46 3.841-1.46 5.867v116.218c0 5.587 3.685 11.244 11.056 15.505 10.082 5.867 24.336 7.682 37.129 5.587-6.744-.908-13.141-2.863-18.425-5.867-7.301-4.26-10.986-9.847-10.986-15.505z" opacity=".1"/><path d="m218.453 183.344c-14.81 8.591-38.729 8.591-53.539 0-7.37-4.26-11.055-9.918-11.055-15.505v67.957c0 5.587 3.685 11.244 11.055 15.505 14.81 8.591 38.729 8.591 53.539 0 7.371-4.261 11.056-9.918 11.056-15.505v-68.027c.069 5.657-3.685 11.245-11.056 15.575z" opacity=".1"/></g><path d="m203.782 40.3761c-6.675-3.8413-17.452-3.8413-24.127 0-3.338 1.9556-5.006 4.4699-5.006 6.9843v2.7937c0 2.5143 1.668 5.0985 5.006 6.9842 6.675 3.8414 17.452 3.8414 24.127 0 3.338-1.9556 5.007-4.4699 5.007-6.9842 0-.4889 0-2.3048 0-2.7239 0-2.5842-1.669-5.0985-5.007-7.0541z" fill="#399197"/><path d="m203.782 40.3761c-6.675-3.8413-17.452-3.8413-24.127 0-3.338 1.9556-5.006 4.4699-5.006 6.9843v2.7937c0 2.5143 1.668 5.0985 5.006 6.9842 6.675 3.8414 17.452 3.8414 24.127 0 3.338-1.9556 5.007-4.4699 5.007-6.9842 0-.4889 0-2.3048 0-2.7239 0-2.5842-1.669-5.0985-5.007-7.0541z" fill="#399197" opacity=".5"/><path d="m179.585 54.4145c-6.675-3.8414-6.675-10.1272 0-14.0384 6.675-3.8413 17.453-3.8413 24.128 0s6.675 10.1272 0 14.0384c-6.606 3.8413-17.453 3.8413-24.128 0z" fill="#399197"/><path d="m179.585 54.4145c-6.675-3.8414-6.675-10.1272 0-14.0384 6.675-3.8413 17.453-3.8413 24.128 0s6.675 10.1272 0 14.0384c-6.606 3.8413-17.453 3.8413-24.128 0z" fill="#399197" opacity=".5"/><path d="m179.585 54.4145c-6.675-3.8414-6.675-10.1272 0-14.0384 6.675-3.8413 17.453-3.8413 24.128 0s6.675 10.1272 0 14.0384c-6.606 3.8413-17.453 3.8413-24.128 0z" fill="#000" opacity=".1"/><path d="m203.435 36.8141c-6.467-3.7715-16.966-3.7715-23.502 0-3.198 1.8858-4.867 4.3303-4.867 6.7748v2.7238c0 2.4445 1.599 4.9589 4.867 6.7748 6.466 3.7715 16.966 3.7715 23.502 0 3.268-1.8858 4.867-4.3303 4.867-6.7748 0-.419 0-2.2349 0-2.654 0-2.5143-1.599-4.9588-4.867-6.8446z" fill="#399197"/><path d="m203.435 36.8141c-6.467-3.7715-16.966-3.7715-23.502 0-3.198 1.8858-4.867 4.3303-4.867 6.7748v2.7238c0 2.4445 1.599 4.9589 4.867 6.7748 6.466 3.7715 16.966 3.7715 23.502 0 3.268-1.8858 4.867-4.3303 4.867-6.7748 0-.419 0-2.2349 0-2.654 0-2.5143-1.599-4.9588-4.867-6.8446z" fill="#000" opacity=".3"/><path d="m179.933 50.4334c-6.466-3.7715-6.466-9.8478 0-13.6193s16.966-3.7715 23.502 0c6.466 3.7715 6.466 9.8478 0 13.6193-6.467 3.7017-17.036 3.7017-23.502 0z" fill="#399197"/><path d="m179.933 50.4334c-6.466-3.7715-6.466-9.8478 0-13.6193s16.966-3.7715 23.502 0c6.466 3.7715 6.466 9.8478 0 13.6193-6.467 3.7017-17.036 3.7017-23.502 0z" fill="#000" opacity=".5"/><path d="m203.782 22.6361c-6.675-3.8414-17.452-3.8414-24.127 0-3.338 1.9556-5.006 4.4699-5.006 6.9842v13.2003c0 2.5143 1.668 5.0985 5.006 6.9843 6.675 3.8413 17.452 3.8413 24.127 0 3.338-1.9556 5.007-4.47 5.007-6.9843 0-.4889 0-12.7114 0-13.2003 0-2.5143-1.669-5.0985-5.007-6.9842z" fill="#399197"/><path d="m203.782 22.6361c-6.675-3.8414-17.452-3.8414-24.127 0-3.338 1.9556-5.006 4.4699-5.006 6.9842v13.2003c0 2.5143 1.668 5.0985 5.006 6.9843 6.675 3.8413 17.452 3.8413 24.127 0 3.338-1.9556 5.007-4.47 5.007-6.9843 0-.4889 0-12.7114 0-13.2003 0-2.5143-1.669-5.0985-5.007-6.9842z" fill="#000" opacity=".2"/><path d="m180.906 35.9062c-5.979-3.4922-5.979-9.0796 0-12.5717 5.98-3.4921 15.645-3.4921 21.625 0 5.979 3.4921 5.979 9.0795 0 12.5717-5.98 3.4223-15.714 3.4223-21.625 0z" fill="#399197" opacity=".5"/><g fill="#000" opacity=".15"><path d="m192.24 41.9126v8.3113c0 .2095-.209.4191-.417.4191-.07 0-.139 0-.278 0-.209 0-.417-.2096-.417-.4191v-8.3113c0-.2095.208-.419.417-.419h.278c.208 0 .417.2095.417.419z" opacity=".15"/><path d="m189.459 41.8428v8.3113c0 .2095-.209.419-.417.3492-.07 0-.139 0-.209 0-.209 0-.417-.2095-.417-.419v-8.3113c0-.2096.208-.4191.417-.3492h.209c.208 0 .417.2095.417.419z" opacity=".15"/><path d="m186.608 41.4936v8.3113c0 .2095-.209.3492-.417.3492-.07 0-.139 0-.139-.0699-.209-.0698-.417-.2793-.417-.4889v-8.3112c0-.2096.208-.3493.417-.3493.069 0 .139 0 .139.0699.208 0 .417.2794.417.4889z" opacity=".15"/><path d="m183.827 40.7952v8.3112c0 .2096-.209.3493-.417.2794-.07 0-.07 0-.14-.0698-.208-.0699-.417-.3492-.417-.5588v-8.2414c0-.2095.209-.3492.417-.2794.07 0 .07 0 .14.0699.208.0698.417.2793.417.4889z" opacity=".15"/><path d="m181.115 39.8174v8.3113c0 .2095-.139.3492-.348.2095-.069 0-.069-.0699-.139-.0699-.208-.0698-.347-.3492-.347-.6285v-8.2415c0-.2095.139-.3492.347-.2095.07 0 .07.0698.139.0698.209.0699.348.3493.348.5588z" opacity=".15"/><path d="m178.681 38.4205v8.3113c0 .2095-.139.2794-.347.2095-.07-.0698-.139-.0698-.139-.1397-.209-.1396-.348-.419-.348-.6984v-8.3811c0-.2095.139-.2794.348-.1397.069.0699.139.0698.139.1397.139.2095.347.4889.347.6984z" opacity=".15"/><path d="m176.387 36.4649v8.3113c0 .2095-.139.2794-.278.0698-.07-.1396-.209-.2793-.278-.419-.139-.2095-.209-.5588-.209-.7683v-8.3113c0-.2095.07-.2793.209-.0698.069.1397.208.2794.278.4191.139.2095.278.4889.278.7682z" opacity=".15"/><path d="m193.978 41.8428v8.3113c0 .2095.209.419.418.3492h.208c.209 0 .417-.2095.417-.419v-8.3113c0-.2096-.208-.4191-.417-.3492-.069 0-.139 0-.208 0-.279 0-.418.2095-.418.419z" opacity=".15"/><path d="m196.76 41.4936v8.3113c0 .2095.208.3492.417.3492.069 0 .139 0 .139-.0699.208-.0698.417-.2793.417-.4889v-8.3112c0-.2096-.209-.3493-.417-.3493-.07 0-.139 0-.139.0699-.209 0-.417.2794-.417.4889z" opacity=".15"/><path d="m199.541 40.7952v8.3112c0 .2096.208.3493.417.2794.07 0 .07 0 .139-.0698.209-.0699.417-.3492.417-.5588v-8.2414c0-.2095-.208-.3492-.417-.2794-.069 0-.069 0-.139.0699-.209.0698-.417.2793-.417.4889z" opacity=".15"/><path d="m202.253 39.8174v8.3113c0 .2095.139.3492.347.2095.07 0 .07-.0699.139-.0699.209-.0698.348-.3492.348-.6285v-8.2415c0-.2095-.139-.3492-.348-.2095-.069 0-.069.0698-.139.0698-.208.0699-.347.3493-.347.5588z" opacity=".15"/><path d="m204.756 38.4205v8.3113c0 .2095.139.2794.347.2095.07-.0698.139-.0698.139-.1397.209-.1396.348-.419.348-.6984v-8.3811c0-.2095-.139-.2794-.348-.1397-.069.0699-.139.0698-.139.1397-.208.2095-.347.4889-.347.6984z" opacity=".15"/><path d="m206.981 36.4649v8.3113c0 .2095.139.2794.278.0698.069-.1396.208-.2793.278-.419.139-.2095.209-.5588.209-.7683v-8.3113c0-.2095-.07-.2793-.209-.0698-.07.1397-.209.2794-.278.4191-.139.2095-.278.4889-.278.7682z" opacity=".15"/></g><path d="m174.649 29.6902v13.0606c0 .7682.139 1.5365.486 2.3048-.347.8381-.486 1.6762-.486 2.5143v2.5143c0 2.5144 1.668 5.0986 5.006 6.9843 2.433 1.3969 5.493 2.3048 8.691 2.7239v-2.7239l2.017-1.2572v-2.654l.695-.4889h-.695v-13.2002c-3.894-.2096-7.718-1.1175-10.639-2.8636-3.407-1.8857-5.075-4.4001-5.075-6.9144z" fill="#000" opacity=".15"/><path d="m218.453 186.068c-14.81 8.59-38.729 8.59-53.539 0-7.37-4.261-11.055-9.918-11.055-15.505v67.957c0 5.587 3.685 11.244 11.055 15.505 14.81 8.59 38.729 8.59 53.539 0 7.371-4.261 11.056-9.918 11.056-15.505v-67.957c.069 5.587-3.685 11.244-11.056 15.505z" fill="#214160"/><path d="m229.578 217.218v-2.305c-1.668 1.606-3.268 3.282-4.797 4.959-1.947 2.165-4.033 4.33-6.189 6.286-8.413 7.473-17.869 9.917-28.855 7.403-7.927-1.816-14.949-8.661-20.79-15.086-1.252-1.327-2.434-2.724-3.546-4.121-3.616-4.26-7.023-8.241-11.473-11.035v1.956c3.824 2.654 6.953 6.285 10.221 10.127 1.182 1.327 2.364 2.793 3.616 4.12 5.98 6.636 13.281 13.759 21.694 15.645 2.92.629 5.701.978 8.413.978 8.066 0 15.227-2.933 21.902-8.8 2.226-2.026 4.311-4.261 6.328-6.426 1.043-1.187 2.225-2.444 3.476-3.701z" fill="#fafafa"/><path d="m219.079 233.072c-9.595 8.032-19.816 8.66-29.203 6.495-8.344-1.885-15.992-8.101-21.555-14.317-4.867-5.378-8.9-11.105-14.462-14.737v25.143c0 5.588 3.685 11.245 11.055 15.505 14.81 8.591 38.729 8.591 53.539 0 7.371-4.26 11.056-9.917 11.056-15.505v-13.41c-3.477 3.562-6.606 7.613-10.43 10.826z" fill="#fafafa"/><path d="m169.781 188.442c-1.668-.698-3.337-1.466-4.867-2.374-7.37-4.261-11.055-9.918-11.055-15.505v67.957c0 5.587 3.685 11.244 11.055 15.505 1.53.908 3.129 1.676 4.867 2.374z" fill="#000" opacity=".1"/><path d="m114.991 241.174 7.648 26.47c1.112 4.331 1.321 8.8.765 13.201 0 0 5.284 1.187 8.761-.559 2.99-1.537 3.963-3.003 3.963-3.003l-.904-6.915-3.476-30.312z" fill="#ad6359"/><path d="m136.198 277.352-.904-6.914-3.477-30.312-6.258.489c.626 8.661 3.268 30.731 3.964 36.598 0 0 .208 1.536.417 3.841.765-.14 1.599-.349 2.294-.768 2.921-1.467 3.964-2.934 3.964-2.934z" fill="#ad6359"/><path d="m122.778 168.468c-5.354 18.648-12.585 55.525-10.082 65.372 1.877 7.404 6.327 22.629 6.327 22.629 3.199.489 12.655 1.048 15.228-4.609.626-9.15 32.193-84.44 32.193-84.44z" fill="url(#r)"/><path d="m127.089 256.4c-.834-7.823-1.669-15.785-1.669-18.369-.069-6.286 10.082-45.607 10.082-45.607-6.049-6.077-6.744-10.546-6.744-10.546 4.45 5.727 9.386 10.336 9.386 10.336l-4.867 61.113c-1.46 2.304-4.38 2.933-6.188 3.073z" fill="#000" opacity=".25"/><path d="m138.492 280.425c.209.839.139 1.537 0 2.375s-2.503 3.213-3.198 4.68c-.696 1.466-.765 2.025-1.53 3.981-.834 2.165-1.043 4.679-6.119 7.682-5.076 3.004-8.83 2.864-11.542 2.515-2.712-.28-3.755-1.467-3.755-1.467s-1.46-2.933.07-3.981c1.669-.908 26.074-15.785 26.074-15.785z" fill="#263238"/><path d="m123.265 275.816c-.348.489-.348 1.676-.417 2.235-.279 1.886-1.322 3.841-2.295 5.517-4.589 7.823-10.221 8.801-8.9 14.458.417 1.606 3.894 3.352 10.847 2.165 3.546-.629 8.413-4.121 9.595-6.705 1.113-2.584 1.391-4.61 2.364-6.565.974-1.886 3.755-4.54 4.103-6.565.208-1.188-.139-2.445-.418-3.632-.278-.978-1.182-2.724-1.529-3.632-.348-1.048-.278-1.676-1.113-1.606l-.069 1.606c-.278 2.654-.835 2.584-1.599 3.422-.835.838-1.391 2.096-2.017 3.073.139-1.816.626-3.003-.417-3.631-.973-.629-2.295-.839-4.659-.769s-3.198.21-3.476.629z" fill="#27debf"/><path d="m123.265 275.816c-.348.489-.348 1.676-.417 2.235-.279 1.886-1.322 3.841-2.295 5.517-4.589 7.823-10.221 8.801-8.9 14.458.417 1.606 3.894 3.352 10.847 2.165 3.546-.629 8.413-4.121 9.595-6.705 1.113-2.584 1.391-4.61 2.364-6.565.974-1.886 3.755-4.54 4.103-6.565.208-1.188-.139-2.445-.418-3.632-.278-.978-1.182-2.724-1.529-3.632-.348-1.048-.278-1.676-1.113-1.606l-.069 1.606c-.278 2.654-.835 2.584-1.599 3.422-.835.838-1.391 2.096-2.017 3.073.139-1.816.626-3.003-.417-3.631-.973-.629-2.295-.839-4.659-.769s-3.198.21-3.476.629z" fill="url(#s)"/><path d="m120.553 283.638c-1.46 2.445-2.92 4.191-4.311 5.657-.904 2.235-.348 2.655.487 1.886.834-.838 2.99-5.517 4.797-9.289-.278.559-.625 1.118-.973 1.746z" fill="#37474f"/><path d="m135.294 276.724c.834-.699 1.321-1.816 1.529-3.003-.069-.21-.139-.419-.208-.629-.348-1.048-.278-1.676-1.113-1.606l-.069 1.606c-.278 2.654-.835 2.584-1.599 3.422-.835.838-1.391 2.096-2.017 3.073-1.947 3.493-2.155 4.959-4.311 7.962-2.155 3.004-4.311 4.331-4.033 4.82.209.488 1.252.908 3.407-1.118 2.086-2.025 4.45-6.565 5.285-8.87.765-2.305 1.947-4.61 3.129-5.657z" fill="#37474f"/><path d="m116.729 290.343c2.99-.419 5.632.07 7.996 1.467" stroke="#ebebeb" stroke-linecap="round" stroke-linejoin="round" stroke-miterlimit="10" stroke-width="1.0398"/><path d="m117.98 287.829c3.199-.419 5.98.07 8.414 1.466" stroke="#ebebeb" stroke-linecap="round" stroke-linejoin="round" stroke-miterlimit="10" stroke-width="1.0681"/><path d="m119.371 285.245c3.477-.419 6.605.069 9.248 1.606" stroke="#ebebeb" stroke-linecap="round" stroke-linejoin="round" stroke-miterlimit="10" stroke-width="1.1777"/><path d="m121.109 282.8c3.407-.419 6.467.07 9.109 1.537" stroke="#ebebeb" stroke-linecap="round" stroke-linejoin="round" stroke-miterlimit="10" stroke-width="1.1547"/><path d="m122.222 280.006c3.407-.419 6.466.07 9.108 1.537" stroke="#ebebeb" stroke-linecap="round" stroke-linejoin="round" stroke-miterlimit="10" stroke-width="1.1547"/><path d="m129.314 252.768c.07 2.305 2.434 37.366 2.434 38.413 0 1.886-.139 3.562-.418 5.448-.139.838-.347 1.397-.625 2.235s-.904 1.955-.487 2.794c.209.349.487.628.834.908 1.46 1.187 3.407 1.606 5.215 1.466.974-.07 1.947-.349 2.712-.978 1.599-1.187 2.086-3.212 2.92-4.889.835-1.885.209-2.793.278-4.749.07-2.235 5.215-36.248 5.563-38.483-3.824-3.911-14.045-3.562-18.426-2.165z" fill="#ad6359"/><path d="m124.516 173.566c4.381 9.08 6.05 12.712 13.629 18.648 0 0-9.526 38.763-9.665 46.306-.209 10.267 1.251 22.35 1.807 30.8 1.461 1.886 11.473 3.283 15.158.489 1.321-5.727 2.851-12.851 3.407-17.6 1.182-9.918-.417-11.734-.625-14.178 6.536-12.781 14.462-28.147 19.886-40.788 1.39-3.283 1.877-8.381 2.085-10.407.904-8.381-1.738-15.016-3.685-19.486z" fill="url(#t)"/><path d="m144.75 301.658c.139.838.07 1.606-.139 2.374-.139.838-2.712 3.073-3.477 4.54-.834 1.397-.834 1.956-1.738 3.911-.973 2.096-1.321 4.61-6.536 7.334-5.284 2.724-8.969 2.305-11.681 1.885-2.642-.488-3.616-1.676-3.616-1.676s-1.321-3.003.278-3.981c1.669-.978 26.909-14.387 26.909-14.387z" fill="#263238"/><path d="m129.801 296.21c-.348.489-.417 1.676-.557 2.235-.347 1.886-1.529 3.771-2.572 5.378-5.076 7.543-10.708 8.171-9.735 13.898.348 1.607 3.686 3.562 10.708 2.794 3.616-.419 8.692-3.632 9.943-6.076 1.321-2.515 1.669-4.54 2.782-6.356 1.042-1.816 3.963-4.33 4.45-6.356.278-1.187.069-2.444-.209-3.631-.209-.978-1.043-2.794-1.321-3.702-.278-1.048-.209-1.676-1.043-1.676l-.209 1.466c-.417 2.654-.973 2.515-1.808 3.283-.903.838-1.529 1.956-2.225 3.003.209-1.746.765-2.933-.208-3.632-.904-.698-2.225-.977-4.589-1.047-2.364-.14-3.129 0-3.407.419z" fill="url(#u)"/><path d="m126.672 303.823c-1.599 2.305-3.199 3.981-4.659 5.378-1.043 2.165-.486 2.654.417 1.885.904-.768 3.268-5.308 5.354-8.939-.417.558-.765 1.117-1.112 1.676z" fill="#37474f"/><path d="m141.691 297.816c.904-.698 1.46-1.746 1.738-2.863-.07-.21-.139-.419-.209-.629-.278-1.047-.208-1.676-1.043-1.676l-.139 1.536c-.417 2.654-.973 2.515-1.808 3.283-.903.838-1.529 1.956-2.225 3.003-2.085 3.353-2.433 4.819-4.728 7.683-2.294 2.864-4.519 4.051-4.311 4.54.209.489 1.252.978 3.407-.978 2.225-1.886 4.798-6.286 5.841-8.521.973-2.235 2.295-4.47 3.477-5.378z" fill="#37474f"/><path d="m130.287 312.623c-.069 0-.139 0-.208-.07-2.156-1.467-4.728-2.095-7.649-1.886-.208 0-.347-.139-.417-.349 0-.209.139-.349.348-.419 3.059-.209 5.841.419 8.135 2.025.139.14.209.35.07.489-.07.14-.139.21-.279.21z" fill="#ebebeb"/><path d="m132.095 310.178c-.069 0-.139 0-.208-.069-2.295-1.467-5.007-2.096-8.066-1.886-.209 0-.348-.14-.417-.349 0-.21.139-.35.347-.419 3.268-.21 6.119.419 8.553 2.025.139.14.208.349.139.489-.07.14-.209.209-.348.209z" fill="#ebebeb"/><path d="m134.529 307.874c-.07 0-.139 0-.209-.07-2.503-1.607-5.493-2.305-8.9-2.095-.208 0-.417-.14-.417-.35 0-.209.139-.419.348-.419 3.546-.209 6.744.489 9.386 2.235.209.14.279.349.14.559-.07.07-.209.14-.348.14z" fill="#ebebeb"/><path d="m136.267 305.569c-.069 0-.139 0-.208-.07-2.434-1.606-5.424-2.235-8.761-2.025-.209 0-.418-.14-.418-.35 0-.209.139-.419.348-.419 3.477-.209 6.606.489 9.248 2.165.208.14.208.35.139.559-.139.07-.209.14-.348.14z" fill="#ebebeb"/><path d="m137.519 302.845c-.07 0-.139 0-.209-.07-2.433-1.606-5.423-2.235-8.761-2.025-.208 0-.417-.14-.417-.35 0-.209.139-.419.348-.419 3.546-.209 6.605.489 9.247 2.166.209.139.209.349.139.558-.139.07-.278.14-.347.14z" fill="#ebebeb"/><path d="m118.954 146.747c-1.947.419-4.172.558-6.049.069-2.921-.698-4.729-3.073-6.467-5.377-1.53-1.956-1.738-5.378-1.321-7.753.556-2.794 3.824-4.33 4.241-7.194.348-2.654-.347-5.378.696-7.892 1.182-2.933 3.824-4.47 6.814-5.029 1.669-.349 3.476 0 5.076-.628 2.086-.838 2.016-2.724 2.016-4.61 0-4.749 4.52-6.076 8.344-7.054 2.225-.559 4.241-1.257 5.284-3.4222.974-1.9556.487-4.3302.974-6.3557.973-3.8413 3.754-6.4255 7.231-8.2414 3.059-1.6064 3.129-4.3302 6.605-4.0509 2.573-1.9556 8.066-1.1175 11.89 2.7239 2.642 2.654 2.712 7.3335 2.642 10.4065-.208 6.0065-4.241 11.5938-10.082 13.4098-1.877.559-3.615 1.327-5.075 2.654-1.113.978-2.225 2.235-2.712 3.702-.974 2.724-.626 5.866-.487 8.66.348 5.797-.278 11.943-6.119 14.807-2.85 1.327-5.979 1.187-8.969 2.025-2.503.699-5.215 1.257-6.675 3.632-1.669 2.794-3.616 4.54-6.814 5.378-.209-.07-.626.07-1.043.14z" fill="#37474f"/><path d="m152.12 78.9993s1.947-.7683 4.103.5587c2.155 1.3271 1.807 3.4223 1.807 3.4223s-2.781-3.073-5.91-3.981z" fill="#27debf"/><path d="m136.615 116.854c-9.735-.21-13.072 2.444-18.982 5.168-2.434 1.118-7.44 3.981-12.446 6.915.834-6.915 2.225-12.712 3.268-14.877l.764-8.032c-.347-.349-.556-.768-.486-1.257.069-.698 0-1.466.069-2.165 0-1.606.07-3.2825.278-4.8889.209-1.4667.557-2.9334.974-4.3302.347-1.1873.417-3.0731-1.321-3.0033-.418 0-.835.2794-1.252.3493-.834.2095-1.53-.2794-2.294-.4191-.835-.1397-1.461.6286-2.017 1.0476-.556.3493-1.251.3493-1.877.5588s-1.043.7682-1.5994 1.1873c-.9039.6984-1.4602 1.6762-1.8774 2.7239-.2781.6984-.5562 1.327-.7648 2.0254-.4172 1.3969-.6258 2.6542-.7648 4.0512-.2086 2.095-.2782 4.19-.1391 6.216.0695 1.397.4172 2.793.4172 4.19 0 1.467-.1391 2.375-.9735 4.75-.6257 1.815-2.364 7.054-4.45 12.781-1.3906 3.841-4.589 12.362-2.4336 17.041 2.225 4.61 7.4399 3.423 13.6284.699 8.83-3.492 30.246-13.2 30.246-13.2z" fill="#ad6359"/><path d="m105.117 129.007c-.556 4.05-.626 8.381-2.851 12.292 0 0 4.728-4.191 5.91-14.108z" fill="#ad6359"/><path d="m150.382 116.714 8.552.838c4.311 1.048 5.98 3.213 6.467 7.055.208 1.815.139 12.432-1.321 18.438-1.53 6.216-2.364 11.454-2.364 11.454s2.781 5.238 4.728 12.991c-15.436 10.127-37.269 7.124-43.666 1.048 1.53-5.588 2.573-7.893 3.824-11.804 0 0-2.016-6.286-1.738-10.546-5.841-5.937-4.659-12.013-2.016-15.994 4.728-7.194 11.75-13.27 13.767-13.2z" fill="#ad6359"/><path d="m158.934 117.483-8.552-.839-13.698.14c-1.947 0-9.039 6.007-13.767 13.2-2.642 3.981-3.824 10.058 2.017 15.994-.07 1.467.069 3.213.347 4.82 0 0 15.367 8.73 37.199-.559.418-2.026.904-4.61 1.6-7.404 1.46-6.006 1.529-16.622 1.321-18.438-.487-3.702-2.156-5.797-6.467-6.914z" fill="url(#v)"/><path d="m152.12 110.987c-.069-.908 2.712-2.933 4.033-4.12 2.92-2.655 4.867-4.54 5.632-9.9182.904-6.216-.139-12.5716-7.37-16.9019-6.119-3.7016-19.33-4.6096-23.154 4.7493z" fill="#455a64"/><path d="m136.128 80.5358c-3.546 1.2572-6.744 4.5398-8.135 15.7146-1.182 9.4986 1.46 12.2926 2.92 13.2006s4.381 1.466 7.301 1.397l.765 6.844s-5.215 5.378-3.963 10.267c13.002-1.746 17.869-9.568 17.869-9.568l-1.39-13.829s1.39 1.606 3.824.628c3.546-1.536 4.102-5.7967 2.572-7.9618-1.529-2.1651-4.45-2.0254-5.84.0699 0 0 2.503-8.8701-2.086-13.2701-5.424-5.0986-9.596-5.0287-13.837-3.4922z" fill="#ad6359"/><path d="m137.38 90.5932-1.947 9.0795-4.52-2.0254z" fill="#ad6359"/><path d="m138.214 110.848c2.712-.14 8.205-.839 11.264-5.029 0 0-.765 2.724-2.712 4.26-2.85 2.305-8.274 3.283-8.274 3.283z" fill="#ad6359"/><path d="m142.177 89.6154 2.503 2.5143c.696-.6984.696-1.8857 0-2.5842-.695-.6984-1.807-.6286-2.503.0699z" fill="#263238"/><path d="m130.705 89.0566 3.407-.9079c-.209-.9778-1.182-1.5366-2.086-1.3271-.974.2794-1.53 1.2572-1.321 2.235z" fill="#263238"/><path d="m142.873 95.1329s.069-1.0476-1.461-1.6063c-.973-.3493-1.738-.2794-2.225.3492 0 0 1.878.1397 3.686 1.2571z" fill="#263238"/><path d="m130.148 92.4091s.278-.9778 1.947-.9778c1.043 0 1.739.419 1.878 1.1873 0 .0698-1.739-.5587-3.825-.2095z" fill="#263238"/><path d="m138.909 84.5169c1.46.419 3.477-1.816 6.328-.4191 3.059 1.5365 1.599 4.9588 3.615 7.2636 1.53 1.6763-.695 5.6573 1.043 6.7049.765.4889 2.086-.7682 2.086-.7682s1.878-2.235 2.156-7.7526c.278-5.5874-6.536-10.1272-11.821-11.0351-5.215-.908-9.804 2.654-11.125 6.2858 0 0 2.017-2.4445 4.589-2.5143 2.573-.1397 1.808 1.8159 3.129 2.235z" fill="#455a64"/><path d="m156.153 182.925c-.973-.07-1.877-.14-2.712-.768-.556-.489-1.321-1.118-1.043-1.956.139-.349.418-.349.765-.419.626-.07 1.321-.139 1.947-.279 1.043-.14 2.017-.559 2.99-.838 1.391-.419 2.781-.559 4.172-.838.695-.14 1.321-.35 1.947-.559 1.043-.349 1.947-.838 2.712-1.676.695-.699 1.251-1.537 1.807-2.375 1.669-2.584 2.921-5.378 4.103-8.172 1.182-2.793 2.294-5.657 3.615-8.451-3.407-4.539-14.532-19.835-14.532-19.835-5.354-6.844-5.84-14.108-3.963-19.346 7.44-.28 10.012-.21 15.227 6.635 4.868 6.355 10.152 15.505 15.297 24.584 2.851 5.029 4.45 6.845 1.46 11.944-3.198 5.587-10.429 15.714-13.628 19.835-3.268 4.26-5.145 7.822-9.665 11.105-2.433-.978-4.519-2.724-5.91-5.029-.417-.698-.765-1.467-1.043-2.235-.069-.209-.208-.489-.278-.698-.069-.14 0-.419-.208-.559-.209-.14-.765-.07-.974-.07-.626.07-1.391.07-2.086 0z" fill="#ad6359"/><path d="m129.036 104.981c-.417-1.257-.07-3.143.834-4.191.417-.489.904-.698 1.391-.628.069 0 .417.069.487.069.417.07.834.489 1.043 1.118.417 1.257.069 3.143-.835 4.191-.417.488-.904.698-1.39.628-.07 0-.418-.07-.487-.07-.487-.139-.835-.489-1.043-1.117z" fill="url(#w)"/><path d="m129.036 104.981c-.417-1.257-.07-3.143.834-4.191.417-.489.904-.698 1.391-.628.069 0 .417.069.487.069.417.07.834.489 1.043 1.118.417 1.257.069 3.143-.835 4.191-.417.488-.904.698-1.39.628-.07 0-.418-.07-.487-.07-.487-.139-.835-.489-1.043-1.117z" fill="url(#w)" opacity=".5"/><path d="m132.234 101.209c-.417-1.2569-1.529-1.5363-2.433-.489-.904 1.048-1.252 2.934-.835 4.191.418 1.257 1.53 1.536 2.434.489.904-.978 1.321-2.864.834-4.191z" fill="url(#x)"/><path d="m132.234 101.209c-.417-1.2569-1.529-1.5363-2.433-.489-.904 1.048-1.252 2.934-.835 4.191.418 1.257 1.53 1.536 2.434.489.904-.978 1.321-2.864.834-4.191z" fill="url(#x)" opacity=".5"/><path d="m132.234 101.209c-.417-1.2569-1.529-1.5363-2.433-.489-.904 1.048-1.252 2.934-.835 4.191.418 1.257 1.53 1.536 2.434.489.904-.978 1.321-2.864.834-4.191z" fill="#000" opacity=".1"/><path d="m128.41 104.841c-.417-1.257-.069-3.143.834-4.191.418-.488.904-.6979 1.391-.628.07 0 .417.07.487.07.417.07.834.489 1.043 1.117.417 1.257.069 3.143-.835 4.191-.417.489-.904.698-1.39.628-.07 0-.417-.069-.487-.069-.487-.14-.834-.489-1.043-1.118z" fill="url(#y)"/><path d="m128.41 104.841c-.417-1.257-.069-3.143.834-4.191.418-.488.904-.6979 1.391-.628.07 0 .417.07.487.07.417.07.834.489 1.043 1.117.417 1.257.069 3.143-.835 4.191-.417.489-.904.698-1.39.628-.07 0-.417-.069-.487-.069-.487-.14-.834-.489-1.043-1.118z" fill="url(#y)" opacity=".5"/><path d="m131.609 101.139c-.418-1.2568-1.53-1.5361-2.434-.488-.904 1.047-1.252 2.933-.834 4.19.417 1.257 1.529 1.537 2.433.489s1.252-2.933.835-4.191z" fill="url(#z)"/><path d="m131.609 101.139c-.418-1.2568-1.53-1.5361-2.434-.488-.904 1.047-1.252 2.933-.834 4.19.417 1.257 1.529 1.537 2.433.489s1.252-2.933.835-4.191z" fill="url(#z)" opacity=".5"/><path d="m131.609 101.139c-.418-1.2568-1.53-1.5361-2.434-.488-.904 1.047-1.252 2.933-.834 4.19.417 1.257 1.529 1.537 2.433.489s1.252-2.933.835-4.191z" fill="#000" opacity=".1"/><path d="m127.784 104.701c-.417-1.257-.069-3.143.835-4.19.417-.489.904-.6986 1.39-.6288.07 0 .418.0699.487.0699.417.0699.834.4889 1.043 1.1179.417 1.257.07 3.142-.834 4.19-.418.489-.904.699-1.391.629-.07 0-.417-.07-.487-.07-.486-.07-.834-.489-1.043-1.118z" fill="url(#A)"/><path d="m127.784 104.701c-.417-1.257-.069-3.143.835-4.19.417-.489.904-.6986 1.39-.6288.07 0 .418.0699.487.0699.417.0699.834.4889 1.043 1.1179.417 1.257.07 3.142-.834 4.19-.418.489-.904.699-1.391.629-.07 0-.417-.07-.487-.07-.486-.07-.834-.489-1.043-1.118z" fill="url(#A)" opacity=".5"/><path d="m130.983 101c-.417-1.2574-1.53-1.5368-2.434-.489-.904 1.047-1.251 2.933-.834 4.19.417 1.258 1.529 1.537 2.433.489.904-1.047 1.252-2.933.835-4.19z" fill="url(#B)"/><path d="m130.983 101c-.417-1.2574-1.53-1.5368-2.434-.489-.904 1.047-1.251 2.933-.834 4.19.417 1.258 1.529 1.537 2.433.489.904-1.047 1.252-2.933.835-4.19z" fill="#000" opacity=".1"/><path d="m130.705 101.279c-.348-1.048-1.252-1.257-2.017-.419s-1.043 2.375-.695 3.422c.348 1.048 1.251 1.258 2.016.419.765-.838 1.043-2.304.696-3.422z" fill="url(#C)" opacity=".7"/><path d="m130.705 101.279c-.348-1.048-1.252-1.257-2.017-.419s-1.043 2.375-.695 3.422c.348 1.048 1.251 1.258 2.016.419.765-.838 1.043-2.304.696-3.422z" fill="url(#C)" opacity=".3"/><path d="m130.218 101.209c.069-.139.208-.209.278-.279.07.14.139.209.139.349.348 1.048.07 2.584-.695 3.422-.07.14-.209.21-.278.28-.07-.14-.139-.21-.139-.349-.348-1.048 0-2.585.695-3.423z" fill="#000" opacity=".1"/><path d="m127.089 104.562c-.417-1.257-.07-3.143.834-4.191.418-.4888.904-.6983 1.391-.6284.07 0 .417.0698.487.0698.417.0698.834.4886 1.043 1.1176.417 1.257.069 3.143-.835 4.19-.417.489-.973.699-1.39.629-.07 0-.417-.07-.487-.07-.417-.07-.834-.489-1.043-1.117z" fill="url(#D)"/><path d="m127.089 104.562c-.417-1.257-.07-3.143.834-4.191.418-.4888.904-.6983 1.391-.6284.07 0 .417.0698.487.0698.417.0698.834.4886 1.043 1.1176.417 1.257.069 3.143-.835 4.19-.417.489-.973.699-1.39.629-.07 0-.417-.07-.487-.07-.417-.07-.834-.489-1.043-1.117z" fill="#000" opacity=".3"/><path d="m130.287 100.86c-.417-1.2571-1.529-1.5365-2.433-.489-.904 1.048-1.252 2.934-.835 4.191.418 1.257 1.53 1.536 2.434.489.904-1.048 1.321-2.934.834-4.191z" fill="url(#E)"/><path d="m130.287 100.86c-.417-1.2571-1.529-1.5365-2.433-.489-.904 1.048-1.252 2.934-.835 4.191.418 1.257 1.53 1.536 2.434.489.904-1.048 1.321-2.934.834-4.191z" fill="#000" opacity=".5"/><path d="m126.324 104.492c-.417-1.327-.069-3.283.835-4.33.486-.559.973-.6987 1.39-.6288.07 0 .418.0698.487.0698.417.0699.834.489 1.043 1.117.417 1.327.07 3.283-.834 4.331-.487.558-.974.768-1.391.628-.07 0-.417-.07-.487-.07-.417-.069-.834-.488-1.043-1.117z" fill="url(#F)"/><path d="m126.324 104.492c-.417-1.327-.069-3.283.835-4.33.486-.559.973-.6987 1.39-.6288.07 0 .418.0698.487.0698.417.0699.834.489 1.043 1.117.417 1.327.07 3.283-.834 4.331-.487.558-.974.768-1.391.628-.07 0-.417-.07-.487-.07-.417-.069-.834-.488-1.043-1.117z" fill="url(#F)" opacity=".5"/><path d="m129.662 100.651c-.418-1.3275-1.53-1.537-2.503-.489-.904 1.047-1.322 3.003-.835 4.33.417 1.327 1.53 1.536 2.503.489.904-1.048 1.321-3.003.835-4.33z" fill="url(#G)"/><path d="m129.662 100.651c-.418-1.3275-1.53-1.537-2.503-.489-.904 1.047-1.322 3.003-.835 4.33.417 1.327 1.53 1.536 2.503.489.904-1.048 1.321-3.003.835-4.33z" fill="url(#G)" opacity=".5"/><path d="m129.662 100.651c-.418-1.3275-1.53-1.537-2.503-.489-.904 1.047-1.322 3.003-.835 4.33.417 1.327 1.53 1.536 2.503.489.904-1.048 1.321-3.003.835-4.33z" fill="#000" opacity=".1"/><path d="m129.105 100.93c-.208-.559-.556-.908-.904-.9779-.625-.1397-.973-.2095-1.321-.4191-.347-.2095-.556-.6984-.973-1.3968-.834-1.3969-3.059-4.5398-5.91-5.0985-.278-.0699-.556-.0699-.765 0-.209-.1397-.487-.2096-.765-.2794l-1.251-.2794c-.209-.0698-.487-.0698-.765-.0698-.278-.1397-.557-.2096-.835-.2794l-1.529-.2794c-.487-.0698-1.043-.0698-1.53.1397l-.556.2095c-.487.2096-1.043.2794-1.53.1397-.417-.0698-.765-.2793-1.113-.5587l-1.112-.908c-.348-.2793-.695-.419-1.113-.5587l-19.816-3.9112c-1.1125-.2095-2.4336.2794-3.5461 1.6064-2.2945 2.654-3.268 7.4732-2.1555 10.8256.5563 1.6764 1.5297 2.6544 2.6422 2.8634l19.8164 3.911c.417.07.834.07 1.252-.07l1.39-.419c.417-.139.835-.139 1.252-.069.487.069.973.349 1.321.768l.417.419c.348.349.835.629 1.321.768l1.53.28c.278.069.556.069.834.069.209.14.487.21.696.28l1.251.279c.278.07.556.07.835.07.208.14.486.21.764.279 2.851.559 6.119-1.536 7.44-2.444.696-.489 1.043-.838 1.46-.908.348-.07.765 0 1.322.14.417.069.834-.07 1.251-.559.765-.838 1.113-2.445.695-3.562z" fill="url(#H)"/><path d="m128.41 104.562c-.417.489-.834.628-1.251.558-.626-.139-.974-.209-1.322-.139-.417.07-.764.419-1.46.908-.626.489-1.808 1.257-3.129 1.816-1.321.558-2.85.977-4.311.698-.278-.07-.486-.14-.764-.279-.279 0-.557 0-.765-.07l-1.252-.28c-.208-.069-.487-.139-.695-.279-.278 0-.556 0-.835-.07l-1.529-.279c-.487-.07-.974-.349-1.321-.699l-.418-.419c-.347-.349-.834-.628-1.321-.768-.417-.07-.834-.07-1.251.07l-1.391.419c-.417.14-.834.14-1.251.07l-19.8168-3.911c-1.1125-.21-2.086-1.188-2.6422-2.8639-1.1125-3.3524-.2086-8.1716 2.1554-10.8256 1.1821-1.327 2.4336-1.8159 3.5461-1.6064l19.8165 3.9112c.417.0699.765.2794 1.112.4889l1.113.908c.348.2794.695.419 1.113.5587.486.0699 1.042.0699 1.529-.1397l.556-.2095c.487-.2095 1.043-.2794 1.53-.1397l1.53.2794c.278.0698.556.1397.834.2794.278 0 .487 0 .765.0698l1.252.2794c.278.0698.486.1397.764.2793.279 0 .557.0001.765.0699 2.851.5587 5.076 3.7715 5.91 5.0985.487.6984.626 1.1873.974 1.3969.278.2095.695.2794 1.321.4194.417.069.765.419.904.977.348.908 0 2.515-.765 3.423z" fill="url(#I)" opacity=".5"/><path d="m106.716 105.33c.696-.21 1.391-.698 2.086-1.467 2.086-2.444 2.99-6.8443 1.947-9.8475-.348-.9778-.765-1.6763-1.321-2.0953l-1.112-.908c-.348-.2793-.696-.419-1.113-.4889l-19.8164-3.9111s0 0-.0696 0c1.1125.2095 2.086 1.1873 2.6422 2.8635 1.1125 3.3524.2086 8.1716-2.1555 10.8253-1.1125 1.257-2.2945 1.816-3.407 1.677h-.0695l19.8168 3.911c.417.07.834.07 1.251-.07zm15.923-9.4288c1.112 3.3525.209 8.1718-2.155 10.8258-1.113 1.257-2.295 1.746-3.338 1.676.765.14 1.599.07 2.434-.14.069 0 .208-.069.278-.069.278-.07.556-.14.765-.21l.278-.07c.139-.07.347-.14.486-.209.07 0 .139-.07.209-.14.139-.07.348-.14.487-.21.069-.069.139-.069.208-.139.07-.07.139-.07.209-.14.765-.419 1.46-.908 1.877-1.187.696-.489 1.043-.838 1.46-.908.348-.07.765 0 1.322.139.417.07.834-.069 1.251-.558.765-.908 1.113-2.515.695-3.632-.208-.559-.556-.908-.903-.9779-.626-.1397-.974-.2095-1.322-.4191-.347-.2095-.556-.6984-.973-1.3968 0-.0699-.07-.0699-.07-.1397-.069-.0698-.139-.2095-.208-.2794-.07-.0698-.07-.1397-.139-.1397-.07-.1396-.139-.2095-.209-.3492-.069-.0698-.069-.1397-.139-.2095-.069-.1397-.208-.2794-.278-.3492-.07-.1397-.139-.2095-.278-.3492-.07-.1397-.209-.2794-.348-.3492-.069-.0699-.139-.1397-.139-.2096-.069-.0698-.139-.1397-.208-.2095-.07-.0698-.14-.1397-.209-.2095-.07-.0699-.139-.1397-.209-.2095-.208-.2096-.417-.3493-.556-.5588-.069-.0698-.139-.1397-.208-.2095-.07-.0699-.14-.1397-.209-.1397-.695-.5587-1.53-.9778-2.364-1.1873 1.112.3492 2.016 1.327 2.503 2.8635zm-3.685 10.4768c2.294-2.654 3.268-7.4735 2.155-10.826-.556-1.6762-1.529-2.5842-2.642-2.8635l-1.251-.2794c1.112.2095 2.085 1.1873 2.642 2.8635 1.112 3.3525.208 8.1714-2.156 10.8254-1.182 1.327-2.433 1.816-3.546 1.607l1.252.279c1.112.279 2.433-.279 3.546-1.606zm-2.712-.489c2.295-2.654 3.268-7.4734 2.156-10.8259-.557-1.6762-1.53-2.654-2.643-2.8635l-1.738-.3493c1.113.2096 2.156 1.1874 2.712 2.8636 1.112 3.3524.208 8.1711-2.156 10.8261-1.182 1.327-2.433 1.815-3.546 1.606l1.669.349c1.182.21 2.434-.279 3.546-1.606z" fill="url(#J)"/><path d="m106.716 105.33c.696-.21 1.391-.698 2.086-1.467 2.086-2.444 2.99-6.8443 1.947-9.8475-.348-.9778-.765-1.6763-1.321-2.0953l-1.112-.908c-.348-.2793-.696-.419-1.113-.4889l-19.8164-3.9111s0 0-.0696 0c1.1125.2095 2.086 1.1873 2.6422 2.8635 1.1125 3.3524.2086 8.1716-2.1555 10.8253-1.1125 1.257-2.2945 1.816-3.407 1.677h-.0695l19.8168 3.911c.417.07.834.07 1.251-.07zm15.923-9.4288c1.112 3.3525.209 8.1718-2.155 10.8258-1.113 1.257-2.295 1.746-3.338 1.676.765.14 1.599.07 2.434-.14.069 0 .208-.069.278-.069.278-.07.556-.14.765-.21l.278-.07c.139-.07.347-.14.486-.209.07 0 .139-.07.209-.14.139-.07.348-.14.487-.21.069-.069.139-.069.208-.139.07-.07.139-.07.209-.14.765-.419 1.46-.908 1.877-1.187.696-.489 1.043-.838 1.46-.908.348-.07.765 0 1.322.139.417.07.834-.069 1.251-.558.765-.908 1.113-2.515.695-3.632-.208-.559-.556-.908-.903-.9779-.626-.1397-.974-.2095-1.322-.4191-.347-.2095-.556-.6984-.973-1.3968 0-.0699-.07-.0699-.07-.1397-.069-.0698-.139-.2095-.208-.2794-.07-.0698-.07-.1397-.139-.1397-.07-.1396-.139-.2095-.209-.3492-.069-.0698-.069-.1397-.139-.2095-.069-.1397-.208-.2794-.278-.3492-.07-.1397-.139-.2095-.278-.3492-.07-.1397-.209-.2794-.348-.3492-.069-.0699-.139-.1397-.139-.2096-.069-.0698-.139-.1397-.208-.2095-.07-.0698-.14-.1397-.209-.2095-.07-.0699-.139-.1397-.209-.2095-.208-.2096-.417-.3493-.556-.5588-.069-.0698-.139-.1397-.208-.2095-.07-.0699-.14-.1397-.209-.1397-.695-.5587-1.53-.9778-2.364-1.1873 1.112.3492 2.016 1.327 2.503 2.8635zm-3.685 10.4768c2.294-2.654 3.268-7.4735 2.155-10.826-.556-1.6762-1.529-2.5842-2.642-2.8635l-1.251-.2794c1.112.2095 2.085 1.1873 2.642 2.8635 1.112 3.3525.208 8.1714-2.156 10.8254-1.182 1.327-2.433 1.816-3.546 1.607l1.252.279c1.112.279 2.433-.279 3.546-1.606zm-2.712-.489c2.295-2.654 3.268-7.4734 2.156-10.8259-.557-1.6762-1.53-2.654-2.643-2.8635l-1.738-.3493c1.113.2096 2.156 1.1874 2.712 2.8636 1.112 3.3524.208 8.1711-2.156 10.8261-1.182 1.327-2.433 1.815-3.546 1.606l1.669.349c1.182.21 2.434-.279 3.546-1.606z" fill="url(#J)" opacity=".7"/><path d="m117.146 107.495c-.209-.07-.348-.07-.487-.209l-.208-.14h-.278c-.209 0-.348 0-.557 0l-1.251-.28c-.139 0-.348-.069-.487-.139l-.209-.14h-.208c-.139 0-.348 0-.487 0h-.069l-.835-.209v.069l-.695-.139c-.348-.07-.695-.21-.904-.489l-.417-.419c-.487-.489-1.113-.838-1.808-.978-.556-.14-1.113-.07-1.599.07l-1.391.419c-.278.07-.556.07-.834.07l-19.8167-3.911c-.9039-.14-1.5992-.978-2.0164-2.3053-.3477-1.1174-.2086-2.0254.6953-2.7937.9734-.8381 2.3641-.6285 3.5461-.4889 1.1125.1397 1.9469-.3492 2.7117-1.1174 1.1125-1.1175 2.5032-1.8858 4.0329-1.7461 1.5296.0698 2.8507.6984 4.3109 1.1175.6953.2095 1.4602.419 2.1552.2095.835-.2095 1.391-.6984 2.086-1.1175 1.46-.9778 3.129-1.3968 4.867-1.1175.765.1397 1.322.3493 1.947.8381.417.3493.974.5588 1.46.6985.696.1397 1.391.0698 2.017-.2096l.556-.2095c.348-.1397.695-.2095 1.043-.1397l.695.1397v.0699l.835.1396h.069c.139 0 .348.0699.487.1397l.209.1397h.208.487l1.252.2794c.208.0698.347.0698.486.2095l.209.1397h.278.556c2.434.4889 4.381 3.2128 5.424 4.7493.069.1397.208.2794.278.4191.347.5587.556.908.904 1.187.278.21.486.28.834.349l.834.21c.07 0 .209.14.279.419.278.838 0 2.165-.557 2.794-.208.209-.347.279-.417.279l-.834-.14c-.278-.069-.557-.069-.904 0-.487.14-.835.35-1.321.769-.139.07-.278.209-.417.279-1.043.699-2.017 1.327-2.99 1.676-1.391.559-2.712.769-3.755.559z" fill="url(#K)"/><path d="m117.146 107.495c-.209-.07-.348-.07-.487-.209l-.208-.14h-.278c-.209 0-.348 0-.557 0l-1.251-.28c-.139 0-.348-.069-.487-.139l-.209-.14h-.208c-.139 0-.348 0-.487 0h-.069l-.835-.209v.069l-.695-.139c-.348-.07-.695-.21-.904-.489l-.417-.419c-.487-.489-1.113-.838-1.808-.978-.556-.14-1.113-.07-1.599.07l-1.391.419c-.278.07-.556.07-.834.07l-19.8167-3.911c-.9039-.14-1.5992-.978-2.0164-2.3053-.3477-1.1174-.2086-2.0254.6953-2.7937.9734-.8381 2.3641-.6285 3.5461-.4889 1.1125.1397 1.9469-.3492 2.7117-1.1174 1.1125-1.1175 2.5032-1.8858 4.0329-1.7461 1.5296.0698 2.8507.6984 4.3109 1.1175.6953.2095 1.4602.419 2.1552.2095.835-.2095 1.391-.6984 2.086-1.1175 1.46-.9778 3.129-1.3968 4.867-1.1175.765.1397 1.322.3493 1.947.8381.417.3493.974.5588 1.46.6985.696.1397 1.391.0698 2.017-.2096l.556-.2095c.348-.1397.695-.2095 1.043-.1397l.695.1397v.0699l.835.1396h.069c.139 0 .348.0699.487.1397l.209.1397h.208.487l1.252.2794c.208.0698.347.0698.486.2095l.209.1397h.278.556c2.434.4889 4.381 3.2128 5.424 4.7493.069.1397.208.2794.278.4191.347.5587.556.908.904 1.187.278.21.486.28.834.349l.834.21c.07 0 .209.14.279.419.278.838 0 2.165-.557 2.794-.208.209-.347.279-.417.279l-.834-.14c-.278-.069-.557-.069-.904 0-.487.14-.835.35-1.321.769-.139.07-.278.209-.417.279-1.043.699-2.017 1.327-2.99 1.676-1.391.559-2.712.769-3.755.559z" fill="url(#K)" opacity=".85"/><path d="m122.639 95.9012c-.07-.2095-.209-.4889-.278-.6984-.626-.5587-1.321-.9778-2.086-1.1873.348.419.626.9778.834 1.6063 1.113 3.3525.209 8.1712-2.155 10.8252-.417.489-.904.908-1.321 1.188.765.07 1.599-.07 2.364-.349.139-.14.347-.35.487-.489 2.364-2.724 3.267-7.6132 2.155-10.8958zm-5.91-1.1873c-.209-.6286-.487-1.1175-.765-1.6064-.139-.0698-.278-.1397-.417-.1397l-.835-.1397v-.0698l-.695-.1397c-.348-.0698-.695 0-1.043.1397l-.556.2095c-.626.2794-1.252.3492-1.947.2096.139.2095.209.4889.278.7682 1.043 3.0033.139 7.4734-1.947 9.8474-.208.21-.347.419-.556.559.626.14 1.252.489 1.669.978l.417.419c.278.279.556.419.904.489l.695.14.835.209c.139.07.278.07.417.07.417-.279.904-.629 1.321-1.117 2.433-2.655 3.337-7.4737 2.225-10.8261zm3.129.6286c-.209-.5588-.417-1.0477-.765-1.4667h-.139l-.209-.1397c-.139-.0698-.347-.1397-.486-.2095l-.696-.1397c.348.419.626.9778.835 1.6064 1.112 3.3524.208 8.1717-2.156 10.8257-.417.489-.904.908-1.391 1.187l.696.14c.208.07.347.07.556 0h.278l.139.07c.417-.28.835-.629 1.252-1.118 2.294-2.584 3.198-7.4031 2.086-10.7555z" fill="url(#L)"/><path d="m122.639 95.9012c-.07-.2095-.209-.4889-.278-.6984-.626-.5587-1.321-.9778-2.086-1.1873.348.419.626.9778.834 1.6063 1.113 3.3525.209 8.1712-2.155 10.8252-.417.489-.904.908-1.321 1.188.765.07 1.599-.07 2.364-.349.139-.14.347-.35.487-.489 2.364-2.724 3.267-7.6132 2.155-10.8958zm-5.91-1.1873c-.209-.6286-.487-1.1175-.765-1.6064-.139-.0698-.278-.1397-.417-.1397l-.835-.1397v-.0698l-.695-.1397c-.348-.0698-.695 0-1.043.1397l-.556.2095c-.626.2794-1.252.3492-1.947.2096.139.2095.209.4889.278.7682 1.043 3.0033.139 7.4734-1.947 9.8474-.208.21-.347.419-.556.559.626.14 1.252.489 1.669.978l.417.419c.278.279.556.419.904.489l.695.14.835.209c.139.07.278.07.417.07.417-.279.904-.629 1.321-1.117 2.433-2.655 3.337-7.4737 2.225-10.8261zm3.129.6286c-.209-.5588-.417-1.0477-.765-1.4667h-.139l-.209-.1397c-.139-.0698-.347-.1397-.486-.2095l-.696-.1397c.348.419.626.9778.835 1.6064 1.112 3.3524.208 8.1717-2.156 10.8257-.417.489-.904.908-1.391 1.187l.696.14c.208.07.347.07.556 0h.278l.139.07c.417-.28.835-.629 1.252-1.118 2.294-2.584 3.198-7.4031 2.086-10.7555z" fill="url(#L)" opacity=".7"/><g opacity=".05"><path d="m128.41 104.562c-.417.489-.834.628-1.251.558-.626-.139-.974-.209-1.322-.139-.417.07-.764.419-1.46.908-.626.489-1.808 1.257-3.129 1.816-1.321.558-2.85.977-4.311.698-.139 0-.278-.07-.417-.14-.139-.069-.208-.069-.347-.139-.14 0-.279 0-.418 0s-.278 0-.417-.07l-1.251-.28c-.209 0-.348-.069-.487-.139-.07 0-.139-.07-.209-.07-.278 0-.556 0-.834-.07l-1.53-.279c-.417-.07-.765-.21-1.043-.489-.139-.07-.208-.14-.278-.28l-.417-.419c-.209-.209-.417-.349-.626-.489-.208-.139-.487-.209-.695-.279-.417-.07-.835-.07-1.252.07l-1.39.419c-.07 0-.209.07-.278.07-.07 0-.14 0-.209 0-.07 0-.139 0-.209 0-.069 0-.139 0-.208 0-.07 0-.139 0-.209 0l-19.8163-3.911s0 0-.0695 0c-.0696 0-.1391 0-.2086-.07-.3477-.14-.6954-.28-1.043-.629-.0695-.07-.2086-.209-.2781-.279 0 0 0 0-.0696-.07-.0695-.07-.139-.209-.2781-.349 0 0 0-.07-.0695-.07-.0696-.14-.1391-.21-.2086-.349 0 0 0-.07-.0695-.07-.0696-.1398-.1391-.2794-.2086-.4191 0 0 0-.0699-.0696-.0699-.0695-.1397-.139-.2793-.139-.419 0 0 0 0 0-.0699-.0696-.2095-.1391-.419-.2086-.6286 0-.0698 0-.0698 0-.0698-.0696-.4191-.1391-.8381-.2086-1.2572v-.0698c0-.2095-.0696-.4191-.0696-.6286s0-.419 0-.6984c0-.0699 0-.0699 0-.1397 0-.2095 0-.4191 0-.6286v-.0698c0-.2096.0696-.4191.0696-.6985 0-.0698 0-.0698 0-.1396 0-.2096.0695-.3493.0695-.5588 0-.0698 0-.0698 0-.1397.0695-.2095.0695-.419.1391-.6285 0-.0699 0-.0699.0695-.1397.0695-.2096.0695-.3492.1391-.5588 0-.0698 0-.0698.0695-.1397.0695-.2095.1391-.419.2086-.5587 0-.0698.0695-.1397.0695-.2095.0695-.1397.1391-.2794.1391-.4191 0-.0698.0695-.1397.0695-.2095.0695-.2095.1391-.3492.2781-.4889 0-.0699.0696-.0699.0696-.1397.0695-.1397.2086-.3492.2781-.4889 0 0 0-.0698.0695-.0698.1391-.1397.2086-.3493.3477-.4889l.0695-.0699c.1391-.1397.2781-.3492.4172-.4889 1.1125-1.327 2.3641-1.8159 3.4766-1.6064 1.1125.2096 2.0859 1.1874 2.6422 2.8636.8343 2.5143.5562 5.7969-.6258 8.4509-.0695.1397-.1391.2794-.2086.4191-.0695.0698-.0695.2095-.1391.2794-.0695.1397-.139.2095-.2086.3492l16.1314 3.2127c.417.07.834.07 1.251-.07l1.391-.419c.417-.14.835-.14 1.252-.07s.904.28 1.182.629c.069.07.069.07.139.14l.417.419c.348.349.834.628 1.321.768l1.53.279c.278.07.556.07.834.07.209.14.487.21.695.279l1.252.28c.278.07.556.07.834 0 .209.14.487.209.765.279 2.851.559 5.98-.838 7.301-1.816.695-.489 1.043-.838 1.46-.908.209-.069 1.46.21 2.781.419-.069.629-.347 1.537-.834 2.096z" fill="url(#M)" opacity=".05"/><path d="m93.5748 90.1043c1.1125 3.3524.2086 8.1716-2.1554 10.8257-1.1821 1.327-1.2516 2.095-2.3641 1.886l10.0821 2.025c1.1126.21 2.4336-.279 3.5456-1.606 2.295-2.654 3.268-7.4735 2.156-10.8259-.556-1.6762-1.53-2.654-2.642-2.8636l-11.2644-2.2349c1.1125.1397 2.086 1.1175 2.6422 2.7937z" fill="#000" opacity=".05"/></g><path d="m94.5483 90.3138c1.1125 3.3525.2086 8.1716-2.1555 10.8252-1.182 1.327-2.4336 1.816-3.5461 1.607l11.2643 2.235c1.112.209 2.433-.28 3.546-1.607 2.294-2.654 3.268-7.4728 2.155-10.8252-.556-1.6763-1.529-2.6541-2.642-2.8636l-11.3334-2.2349c1.182.2095 2.1554 1.1873 2.7117 2.8635z" fill="#0eb5bf"/><path d="m96.7038 104.282c.2781-.908.9039-1.676 1.182-1.955.4867-.489 1.043-1.048 1.5992-1.607.973-.9774 2.016-1.8854 2.781-3.0029.974-1.4667 1.391-3.0032 1.252-5.0286-.07-1.1175-.417-2.0953-1.113-3.143l-.417-.0698c.765 1.1873 1.113 2.0953 1.182 3.2826.07 2.0254-.278 3.4921-1.251 4.889-.696 1.0476-1.739 2.0254-2.7121 2.9337-.5563.558-1.1125 1.047-1.5992 1.606-.2781.279-.9735 1.118-1.2516 2.095z" fill="#fafafa"/><path d="m95.1045 90.3837c1.1125 3.3524.2086 8.1715-2.1554 10.8253-1.1821 1.327-2.4336 1.816-3.5461 1.607l5.2843 1.047c.2086-.768.6954-1.536 1.1821-2.025 1.3211-1.467 3.1984-2.9335 4.3806-4.5399 1.043-1.5366 1.321-3.0731 1.251-4.9588-.069-1.2572-.486-2.235-1.112-3.2128l-7.9962-1.6064c1.182.2794 2.1555 1.2572 2.7117 2.8636z" fill="#fafafa"/><path d="m93.0881 100.231c-.2086.35-.4172.629-.6953.908-1.182 1.327-2.4336 1.816-3.5461 1.607l11.2643 2.235c1.112.209 2.433-.28 3.546-1.607.208-.279.487-.558.695-.908z" fill="#000" opacity=".1"/><path d="m116.033 104.701c-1.182 0-2.433.28-3.476.978-.695.419-1.53.978-2.434.838-.347-.07-.695-.209-.973-.489l-.765 8.032c1.252-1.606 3.685-2.514 4.798-3.981 1.112-1.536 3.685-3.422 4.102-3.841.973-1.048-.487-1.467-1.252-1.537z" fill="#ad6359"/><path d="m278.25 104.003s2.364 3.352 7.927 4.33c4.45.838 6.814-.419 6.814-.908s-1.669-1.537-6.675-2.515c-2.016-.419-8.066-.907-8.066-.907z" fill="url(#N)"/><path d="m270.185 99.8818c.417.2792 4.658 1.8162 9.526 2.0952 2.572.14 3.893-.559 3.754-1.117-.139-.35-1.808-1.3274-5.701-1.537-3.964-.2095-7.927.2794-7.579.5588z" fill="url(#O)"/><path d="m274.635 102.466c.417.21 1.529 1.397 2.99 3.702.973 1.536 2.225 3.282 1.807 3.771-.417.419-2.503-.698-3.615-2.514-1.182-1.816-1.669-5.169-1.182-4.959z" fill="url(#P)"/><path d="m267.195 98.0659c.487.2794 2.016 3.1431 2.712 4.4001.695 1.327 1.251 2.933.834 3.632-.417.628-2.016-.559-2.99-2.864-1.112-2.305-1.043-5.4475-.556-5.1681z" fill="url(#Q)"/><path d="m264.205 95.4817c.209.419 2.851 1.1175 5.424 1.5365 2.572.4191 5.701.3492 5.423-.5587-.278-.908-2.016-1.6064-4.798-1.7461-2.99-.2793-6.258.3492-6.049.7683z" fill="url(#R)"/><path d="m261.354 93.0372c.278.0699.835 2.3048 1.53 4.6096.695 2.235 1.043 3.2132.417 3.6322-.556.419-1.947-.419-2.503-3.0036-.556-2.5842.278-5.3779.556-5.2382z" fill="url(#S)"/><path d="m290.279 107.355c-3.476-.419-6.883-1.327-10.151-2.445-3.268-1.187-6.536-2.584-9.526-4.33-3.059-1.7458-5.98-3.7713-8.413-6.3555-2.434-2.5841-4.381-5.6572-5.146-9.1493v-.0699h.07c1.182 3.2826 3.198 6.216 5.632 8.5907 2.433 2.4445 5.215 4.5397 8.135 6.3556 2.99 1.8164 6.119 3.2824 9.387 4.5394 3.268 1.258 6.605 2.235 10.082 2.724-.07.07-.07.07-.07.14z" fill="url(#T)"/><path d="m284.925 171.89s4.798-2.863 6.814-10.337c1.6-6.006.209-9.359-.417-9.428-.626-.07-2.294 2.095-4.172 8.8-.764 2.794-2.225 10.965-2.225 10.965z" fill="url(#U)"/><path d="m278.459 182.366c.417-.488 2.99-6.146 3.894-12.711.486-3.492-.278-5.378-1.043-5.238-.417.14-2.017 2.305-2.782 7.613-.695 5.378-.486 10.825-.069 10.336z" fill="url(#V)"/><path d="m282.492 176.709c.347-.559 2.086-1.886 5.423-3.632 2.225-1.117 4.728-2.654 5.285-2.025.556.629-1.252 3.283-3.825 4.61-2.642 1.396-7.231 1.606-6.883 1.047z" fill="url(#W)"/><path d="m275.678 186.348c.417-.629 4.45-2.375 6.327-3.143 1.877-.769 4.172-1.327 5.006-.699.835.629-1.043 2.724-4.241 3.772-3.338 1.047-7.579.698-7.092.07z" fill="url(#X)"/><path d="m271.784 190.049c.556-.209 1.808-3.771 2.712-7.194.904-3.422 1.112-7.752-.139-7.473-1.252.28-2.364 2.584-2.921 6.286-.695 4.121-.208 8.591.348 8.381z" fill="url(#Y)"/><path d="m268.168 193.681c.139-.349 3.268-.838 6.397-1.537 3.129-.698 4.45-1.047 5.006-.209.487.838-.764 2.654-4.311 3.073-3.546.419-7.231-.978-7.092-1.327z" fill="url(#Z)"/><path d="m290.905 155.896c-.973 4.68-2.573 9.219-4.45 13.619-1.947 4.401-4.241 8.591-6.953 12.502s-5.771 7.683-9.595 10.756c-3.755 3.003-8.205 5.378-12.933 6.006 0 0-.07 0-.07-.069 0 0 0-.07.07-.07 4.589-1.187 8.761-3.632 12.307-6.705 3.615-3.073 6.744-6.565 9.526-10.407 2.781-3.841 5.145-7.962 7.161-12.292 2.017-4.26 3.755-8.73 4.868-13.41 0 .07 0 0 .069.07z" fill="url(#aa)"/><path d="m54.3592 126.213s-1.8078 3.702 0 9.079c1.3906 4.331 3.6156 5.867 4.0328 5.588.4172-.21.5562-2.235-.9734-7.054-.6258-2.026-3.0594-7.613-3.0594-7.613z" fill="url(#ab)"/><path d="m54.1506 117.203c-.0696.489.6257 4.959 2.7117 9.359 1.1125 2.305 2.3641 3.213 2.7117 2.794.2086-.28.3477-2.235-1.3906-5.797-1.5992-3.562-3.9633-6.845-4.0328-6.356z" fill="url(#ac)"/><path d="m54.0115 122.302c.0695.489-.4867 2.025-1.8773 4.4-.9039 1.606-1.8774 3.562-2.4336 3.352-.5563-.139-.5563-2.514.4867-4.4s3.7547-3.841 3.8242-3.352z" fill="url(#ad)"/><path d="m54.2896 113.641c0 .559-1.8078 3.283-2.5726 4.47-.8344 1.257-2.0165 2.514-2.7813 2.445-.7648-.07-.4867-2.096 1.1125-4.051 1.5297-1.956 4.311-3.423 4.2414-2.864z" fill="url(#ae)"/><path d="m55.1935 109.8c-.2781.349.4172 3.003 1.2516 5.517.8344 2.445 2.4336 5.169 3.0594 4.54.6258-.698.4172-2.584-.6953-5.028-1.2516-2.864-3.3375-5.378-3.6157-5.029z" fill="url(#af)"/><path d="m55.9584 106.098c.0695.28-1.6688 1.816-3.3375 3.562-1.5993 1.676-2.3641 2.445-2.9899 2.096-.6258-.35-.6258-1.956 1.3906-3.632 2.086-1.746 4.8672-2.305 4.9368-2.026z" fill="url(#ag)"/><path d="m57.1404 138.435c-1.3211-3.282-2.1555-6.705-2.7117-10.127-.5563-3.492-.8344-6.984-.7648-10.546.0695-3.492.4867-7.054 1.5992-10.476 1.1125-3.353 2.8508-6.566 5.5625-8.9403h.0695v.0698c-2.364 2.5845-3.8937 5.7965-4.8672 9.0795-.9734 3.283-1.5297 6.775-1.6687 10.267-.1391 3.492 0 6.984.4867 10.407.4867 3.422 1.182 6.914 2.3641 10.197 0 .069 0 .069-.0696.069z" fill="url(#ah)"/><path d="m262.745 154.08c-.556-7.753-3.338-9.499-5.145-12.293-2.295-3.562-2.295-6.216-2.295-6.216-.834 2.235-1.391 8.382 1.599 11.944 2.503 2.933 4.868 3.492 5.841 6.565z" fill="url(#ai)"/><path d="m267.473 143.464c4.659-1.188 8.066-4.331 9.178-8.94 1.113-4.61 3.407-6.984 3.407-6.984-9.943 3.771-12.515 12.501-12.585 15.924z" fill="url(#aj)"/><path d="m78.7646 55.8109c2.6422-7.3335.7649-10.0574.2781-13.34-.6953-4.1906.4172-6.5652.4172-6.5652-1.6687 1.6762-4.6586 7.1239-3.3375 11.5939 1.043 3.7016 2.9203 5.1683 2.6422 8.3113z" fill="url(#ak)"/><path d="m87.317 48.1282c4.7977.7682 9.1781-.6985 11.9594-4.4001 2.8506-3.7715 5.9106-4.9588 5.9106-4.9588-10.5692-.7683-16.4099 6.216-17.87 9.3589z" fill="url(#al)"/><path d="m277.833 76.4852c-.973-3.0033-2.711-5.6573-4.589-8.1018-2.503-3.2826-5.076-6.4953-7.787-9.6383-.278-.2793-.557-.6286-.835-.9079.278-.5588.348-2.5842.348-2.8636 0-.6984-.139-1.3968-.417-2.0254-.835-2.0953-3.477-3.8414-3.546-6.1462 0-.1396-.209-.3492-.278-.1396-.626 2.2349-.557 5.308.556 7.6128-1.391-1.3968-2.851-2.7239-4.311-3.981-.835-.6985-1.669-1.3969-2.503-2.0953-.139-1.9556.208-3.9112-.417-5.7969-.487-1.5366-1.669-2.5842-2.851-3.562-.139-.0699-.278 0-.209.1397.278 1.2571.417 2.3746.348 3.6318 0 .7683-.07 1.4667.069 2.2349.07.4191.278.908.487 1.3271-.556-.4191-1.182-.8382-1.808-1.1874-1.043-1.1175-1.599-2.3048-2.781-3.3524-.348-.2794-.695-.5588-1.043-.8381-.348-.2794-.695-.4191-1.112-.6286-.835-.4889-1.878-.8381-2.851-1.1175-1.599-.4889-3.338-.8381-5.007-.8381-.278 0-.069.3492.07.4191.139.0698.278.1396.417.2095 1.043.4889 2.017 1.1175 2.851 1.8159.348.2794.765.5587.973.9778.139.1397.209.2794.348.419.139.1397.348.2794.487.4889.208.2096.417.3493.626.5588.139.1397.347.2793.486.419.07.0699.209.1397.278.2096-.139.0698-.278.0698-.417.0698-.208 0-.347 0-.556 0-.626 0-1.252.1397-1.877.1397-.696 0-1.391 0-2.086.0698-.278 0-.765.2096-.348.4889.348.2096.765.4191 1.182.5588.209.1397.487.2095.765.3492.417.1397.765.3492 1.112.4889 1.113.4889 2.434.8381 3.616.9778.556.0698 1.182.1397 1.738.1397 1.321 0 2.712-.0699 4.033 0 .417.0698.835.1397 1.252.2095.695.5587 1.39 1.1175 2.016 1.6762 0 0 0 .0699.07.0699 0 .0698.069.0698.139.0698.695.5587 1.39 1.1175 2.086 1.7461 2.642 2.3048 5.075 4.8191 7.37 7.4731-.348-.1397-.626-.2095-.973-.3492-.904-.3492-1.808-.7682-2.573-1.327-3.268-3.7017-7.51-5.1683-12.446-5.1683-.209 0-.139.2793 0 .419 2.225 1.5365 4.45 3.2826 6.883 4.4699-1.738-.419-3.476-.6984-5.214-.9778-.835-.1396-1.6-.3492-2.434-.3492-.07-.0698-.348-.1397-.417-.2095-.139-.0698-.278-.1397-.487-.2095-.626-.3492-1.321-.6985-1.947-1.0477-.417-.2095-.765-.419-1.182-.6285-.278-.1397-.556-.2794-.904-.4191-.556-.2095-1.112-.3492-1.669-.4191-.625-.0698-1.321-.0698-1.946-.0698-.974 0-1.947.1397-2.921.1397-.556.0698-1.112 0-1.599.1397-.278.0698-.487.0698-.765.1397-.208.0698-.417.1396-.626.2095-.139 0-.139.1397-.069.2095 0 .2095.348.2794.487.3492.347.1397.625.3492.903.4889.348.2095.626.4191.904.5588.835.4889 1.669.9079 2.573 1.2571.834.2794 1.669.4191 2.503.4889.904.0699 1.878.0699 2.781 0 .904-.0698 1.808-.2793 2.712-.4889 3.616-.4889 7.231 1.1874 10.847 1.4667 1.391.5588 3.059.908 4.241.0699.557.419 1.252.7682 1.878 1.0476s1.39.6286 2.086.8381c2.364 2.7239 4.658 5.4477 6.814 8.3113.695.9079 1.39 1.8159 2.086 2.7937-.696-.3492-1.391-.6286-2.086-.908-.835-1.5365-1.947-2.7937-3.546-3.6318-.696-.3492-1.53-.6984-2.295-.9778-1.321-.4889-2.851-.5587-4.102-1.2571-.209-.1397-.278.1396-.209.2793 3.06 4.1207 8.205 4.8192 12.516 6.9843 1.321 1.8857 2.434 3.8413 3.129 6.0763.278.4191 1.112.3492.973-.0698zm-37.13-36.3182c-.625-.5588-1.39-.9778-2.155-1.3969.904.1397 1.808.2794 2.712.4889.973.2096 1.877.4191 2.781.7683.348.1397.695.2794 1.043.4191.209.1396.417.2793.695.3492.278.1397.557.3492.765.5587.278.2095.487.4889.765.7683s.556.5587.765.9079c.487.6286.973 1.2572 1.53 1.8159-.14-.1396-.487-.2793-.696-.3492-.278-.0698-.487-.1397-.765-.2095-.208-.0698-.486-.1397-.695-.2095-.209-.0699-.417-.0699-.626-.0699-.417-.0698-.834-.1397-1.182-.2095-.486-.1397-1.043-.2794-1.46-.5587-.765-.4191-1.321-.9778-1.877-1.6064-.626-.4889-1.043-1.0477-1.6-1.4667zm3.686 5.9366c-.07 0-.139 0-.209 0-.278-.0698-.487-.0698-.765-.1397-.487-.1397-.973-.2095-1.46-.419-.209-.0699-.417-.2096-.626-.2794-.556-.2095-1.112-.3492-1.599-.6286-.069-.0698-.487-.2095-.348-.2794.07-.0698.487-.0698.557-.0698.764 0 1.529-.0698 2.294-.0698h1.252c1.112.0698 2.225 0 3.337.2095.417.0698.765.1397 1.182.2794.209.0698.417.1396.626.2095 1.113.419 2.086 1.0476 2.99 1.7461-.209-.1397-.626-.1397-.904-.2096-.348-.0698-.626-.0698-.904-.0698-.556 0-1.112 0-1.669 0-1.182-.0699-2.294-.0699-3.476-.2794-.07 0-.209 0-.278 0zm8.135.5588c-.835-1.1874-.904-2.7239-.835-4.1906 0-.5587.07-1.1873 0-1.7461-.069-.7682-.695-1.3968.279-.8381 1.668.9778 2.016 3.7017 2.016 5.4477 0 .908-.139 1.6763 0 2.4445-.487-.3492-.973-.6984-1.46-1.1174zm-7.023 8.4509c-.278.0699-.556.1397-.834.2095-.904.2096-1.878.2794-2.851.2794s-1.877-.0698-2.851-.3492c-1.251-.3492-2.503-.7683-3.615-1.3969-.139-.0698-1.669-.7682-1.461-1.0476.139-.2095.765-.2095.974-.2095 2.364-.2794 4.867-.5588 7.162.2794.625.2095 1.321.4888 1.946.8381.348.2095.696.419 1.113.6285.209.0699.348.2096.556.2794.07.0699.209.0699.278.1397.07 0 .209.1397.278.1397-.208.0698-.486.1397-.695.2095zm11.334 1.6064c-.139-.0698-.348-.0698-.487-.1397-2.781-.9778-5.562-3.2826-7.718-4.8191 2.156 0 4.172.3492 6.188 1.1175 2.225.9079 3.616 2.3746 5.354 3.9111-1.043.3493-2.155.2794-3.337-.0698zm7.37.6286c-.626-.6984-1.251-1.3969-1.947-2.0255-.904-1.6063-1.39-3.073-1.529-5.0286 0-.3492.139-2.235 0-2.8636.139.3492.417 1.1874.417 1.1874.486.9079 1.251 1.6063 1.808 2.4444.834 1.1874 1.39 2.5144 1.39 3.9811.139.8381-.069 1.6064-.139 2.3048zm-2.086 6.5652c.556.2095 1.113.2794 1.669.419 1.182.2794 2.364.6985 3.477 1.2572 1.668.7683 2.642 1.9556 3.685 3.2826-3.199-1.2572-6.536-2.3048-8.831-4.9588z" fill="#0093e5"/><path d="m85.4396 205.694c-2.225-.629-4.1719-1.746-6.0492-3.073-2.225-4.33-2.9899-9.499-7.1617-12.502-.1391-.14-.4172-.07-.2782.21.6953 1.187.7649 2.793 1.2516 4.05.2781.769.6258 1.537.9734 2.235.8344 1.537 2.1555 2.654 3.6852 3.492.2781.699.6258 1.397.9734 2.096-.9734-.699-1.8773-1.327-2.7812-2.026-2.8508-2.165-5.7016-4.4-8.4133-6.774-.2086-.699-.5563-1.397-.8344-2.026-.2781-.628-.6258-1.327-1.043-1.886.8344-1.257.4172-2.863-.139-4.26-.3477-3.632-2.086-7.194-1.5992-10.895.2085-.908.4171-1.816.4867-2.724.0695-.908.0695-1.886-.0696-2.794-.0695-.908-.2781-1.676-.5562-2.514-.2781-.908-.7649-1.816-1.2516-2.585-.2086-.349-.4172-.628-.6258-.907-.2086-.28-.4172-.559-.4867-.908-.0695-.21-.139-.559-.3476-.489-.0696 0-.2086 0-.2086.07-.0696.209-.1391.419-.2086.628-.0696.279-.0696.489-.0696.768-.139.489-.0695 1.048-.139 1.607-.0696.978-.1391 1.955-.1391 2.933 0 .629 0 1.327.0695 1.956.0696.628.2086 1.117.4172 1.676.1391.279.2782.559.4172.908.2086.419.4172.768.6258 1.187.3477.629.7649 1.257 1.043 1.956.0695.14.139.279.2086.489.0695.139.0695.349.2086.419 0 .838.2086 1.606.3476 2.444.3477 1.746.6258 3.492 1.043 5.238-1.2516-2.444-2.9899-4.609-4.5891-6.844-.0695-.14-.4172-.21-.4172 0 0 4.959 1.5993 9.149 5.2844 12.432.5563.768 1.043 1.676 1.3907 2.584.139.279.2085.629.3476.978-2.6422-2.305-5.2148-4.68-7.5789-7.334-.6258-.698-1.1821-1.396-1.8078-2.095 0-.07 0-.14-.0696-.14-.0695 0-.0695 0-.0695-.069-.5563-.699-1.1125-1.327-1.6688-2.026-.0695-.419-.139-.838-.2085-1.257-.1391-1.327-.0696-2.654-.0696-4.051 0-.559-.0695-1.187-.139-1.746-.1391-1.187-.5563-2.514-1.043-3.632-.1391-.349-.3477-.768-.5563-1.117-.139-.21-.2086-.489-.3476-.769-.1391-.349-.3477-.838-.5563-1.117-.2781-.349-.4172.07-.4172.349-.0695.699 0 1.397 0 2.095 0 .629-.0695 1.258-.0695 1.886v.559c0 .14 0 .279-.0695.419-.0696 0-.1391-.21-.2086-.279-.1391-.14-.2781-.35-.4172-.489-.1391-.21-.3477-.419-.5563-.629-.2086-.14-.3476-.349-.4867-.489-.139-.139-.2781-.209-.4172-.349-.3476-.279-.6953-.698-.9734-.978-.7648-.838-1.3906-1.816-1.8774-2.863-.0695-.14-.139-.28-.2085-.419-.0696-.14-.4172-.35-.4172-.07.0695 1.746.4172 3.422.9039 5.028.2781.978.6258 1.956 1.1125 2.794.2086.349.4172.699.6953 1.048s.5562.698.8344 1.047c1.0429 1.118 2.2945 1.677 3.407 2.724.4172.629.7649 1.188 1.182 1.816-.4171-.209-.9039-.419-1.3211-.489-.7648-.139-1.4601-.069-2.225-.069-1.2515.069-2.4336-.07-3.6156-.28-.1391 0-.2086.14-.1391.21.9735 1.187 2.086 2.374 3.5461 2.863 1.9469.629 3.8243.21 5.7712.28.6953.838 1.4601 1.676 2.1554 2.514 1.2516 1.467 2.5727 2.933 3.9633 4.26-2.2945-1.047-5.4234-1.047-7.5789-.419-.2086.07 0 .28.1391.28 2.2945 0 4.0328 2.654 6.1187 3.492.6258.279 1.3211.349 2.0164.419.2782 0 2.2946-.14 2.8508-.419.2781.279.6258.559.9039.838 3.1289 2.724 6.3969 5.238 9.6649 7.683 2.5031 1.885 5.1453 3.562 8.1352 4.469.6953.35.7648-.488.3476-.628zm-35.2524-34.433c.6258.559 1.2516 1.118 1.6688 1.886.2781.489.4171.978.5562 1.467.1391.419.2086.768.2781 1.187 0 .21.0696.419.0696.629.0695.209.139.489.2086.698.0695.28.0695.489.2085.769.0696.209.2086.558.3477.698-.5562-.559-1.182-.978-1.8078-1.467-.2781-.209-.6258-.489-.9039-.768s-.5563-.489-.7649-.768c-.2086-.28-.4172-.489-.5562-.769-.1391-.209-.2781-.419-.3477-.628-.2086-.349-.3476-.699-.4867-1.048-.3477-.908-.5562-1.816-.7648-2.793-.2086-.908-.4172-1.816-.5563-2.724.4172.768.8344 1.466 1.3906 2.165.4172.489.9039.978 1.4602 1.466zm4.45 2.445c.2086 1.117.2781 2.305.3477 3.492.0695.559 0 1.118.0695 1.676 0 .28.0695.629.0695.908 0 .21.0696.699.2086.838-.7648-.908-1.3906-1.955-1.8078-3.003-.0695-.209-.1391-.419-.2086-.628-.1391-.419-.2086-.769-.2781-1.188-.2086-1.117-.2086-2.235-.2781-3.352 0-.419-.0696-.838-.0696-1.257 0-.769 0-1.537 0-2.305 0-.07-.0695-.489 0-.559.1391-.14.2782.279.2782.349.2781.489.4171 1.118.6257 1.607.0696.209.2086.419.2782.628.2086.489.2781.978.4172 1.467.0695.21.139.489.139.768 0 .07 0 .14.0695.21.1391.139.1391.209.1391.349zm1.8774 9.289c-.7649-.14-1.5297 0-2.4336 0-1.7383 0-4.4501-.279-5.4235-1.956-.5562-.977.0695-.349.8344-.279.5562.07 1.182 0 1.7383 0 1.4601-.07 2.9898-.07 4.1719.768.2781.489.6953.978 1.1125 1.467zm6.9531-7.892c0-.07-.0695-.21-.1391-.28-.0695-.069-.0695-.209-.139-.279-.0696-.209-.2086-.349-.2782-.559-.2085-.349-.4171-.698-.6257-1.047-.3477-.629-.6258-1.257-.9039-1.886-.904-2.305-.6258-4.819-.4172-7.194 0-.209.0695-.838.2086-.978.2781-.209.9734 1.258 1.0429 1.397.6953 1.118 1.043 2.375 1.4602 3.562.2781.908.3477 1.886.3477 2.864s-.0696 1.955-.2782 2.863c-.0695.35-.139.559-.2086.838 0 .21-.0695.489-.0695.699zm2.0859 14.108c-1.5297-1.746-3.0593-3.073-3.9632-5.308-.8344-2.025-1.1126-4.051-1.1821-6.216 1.5992 2.165 3.8938 4.889 4.8672 7.683.0695.139.0695.279.1391.419.3476 1.117.4172 2.305.139 3.422zm-1.6687 4.26c-1.4602 0-2.7813-.558-3.9633-1.327-.8344-.558-1.5992-1.257-2.5031-1.815 0 0-.8344-.28-1.1821-.42.6258.07 2.5032-.069 2.8508-.069 1.9469.069 3.4766.558 5.0758 1.466.6953.629 1.3906 1.257 2.086 1.886-.8344.07-1.5993.279-2.3641.279zm13.7672 6.286c-1.3906-1.047-2.5727-2.025-3.3375-3.701-.5563-1.118-.9734-2.235-1.2516-3.423-.139-.558-.2781-1.117-.4172-1.676 2.6422 2.305 3.7547 5.588 5.0063 8.8z" fill="url(#am)"/><path d="m277.833 76.4851c-.973-3.0033-2.711-5.6573-4.589-8.1018-2.503-3.2826-5.076-6.4953-7.787-9.6383-.278-.2793-.557-.6285-.835-.9079.278-.5588.348-2.5842.348-2.8636 0-.6984-.139-1.3968-.417-2.0254-.835-2.0953-3.477-3.8413-3.546-6.1462 0-.1396-.209-.3492-.278-.1396-.626 2.2349-.557 5.308.556 7.6128-1.391-1.3968-2.851-2.7239-4.311-3.981-.835-.6984-1.669-1.3969-2.503-2.0953-.139-1.9556.208-3.9112-.417-5.7969-.487-1.5366-1.669-2.5842-2.851-3.562-.139-.0699-.278 0-.209.1397.278 1.2571.417 2.3746.348 3.6318 0 .7683-.07 1.4667.069 2.235.07.419.278.9079.487 1.327-.556-.4191-1.182-.8381-1.808-1.1874-1.043-1.1174-1.599-2.3048-2.781-3.3524-.348-.2794-.695-.5587-1.043-.8381s-.695-.4191-1.112-.6286c-.835-.4889-1.878-.8381-2.851-1.1175-1.599-.4889-3.338-.8381-5.007-.8381-.278 0-.069.3492.07.4191.139.0698.278.1396.417.2095 1.043.4889 2.017 1.1175 2.851 1.8159.348.2794.765.5587.973.9778.139.1397.209.2794.348.419.139.1397.348.2794.487.4889.208.2096.417.3493.626.5588.139.1397.347.2794.486.419.07.0699.209.1397.278.2096-.139.0698-.278.0698-.417.0698-.208 0-.347 0-.556 0-.626 0-1.252.1397-1.877.1397-.696 0-1.391 0-2.086.0698-.278 0-.765.2096-.348.4889.348.2096.765.4191 1.182.5588.209.1397.487.2095.765.3492.417.1397.765.3492 1.112.4889 1.113.4889 2.434.8381 3.616.9778.556.0698 1.182.1397 1.738.1397 1.321 0 2.712-.0699 4.033 0 .417.0698.835.1397 1.252.2095.695.5587 1.39 1.1175 2.016 1.6762 0 0 0 .0699.07.0699 0 .0698.069.0698.139.0698.695.5588 1.39 1.1175 2.086 1.7461 2.642 2.3048 5.075 4.8191 7.37 7.4731-.348-.1396-.626-.2095-.973-.3492-.904-.3492-1.808-.7682-2.573-1.327-3.268-3.7016-7.509-5.1683-12.446-5.1683-.209 0-.139.2793 0 .419 2.225 1.5366 4.45 3.2826 6.883 4.4699-1.738-.419-3.476-.6984-5.214-.9777-.835-.1397-1.6-.3493-2.434-.3493-.07-.0698-.348-.1396-.417-.2095-.139-.0698-.278-.1397-.487-.2095-.626-.3492-1.321-.6984-1.947-1.0477-.417-.2095-.765-.419-1.182-.6285-.278-.1397-.556-.2794-.904-.4191-.556-.2095-1.112-.3492-1.669-.4191-.625-.0698-1.321-.0698-1.946-.0698-.974 0-1.947.1397-2.921.1397-.556.0698-1.112 0-1.599.1397-.278.0698-.487.0698-.765.1397-.208.0698-.417.1396-.626.2095-.139 0-.139.1397-.069.2095 0 .2095.348.2794.487.3492.347.1397.625.3492.903.4889.348.2096.626.4191.904.5588.835.4889 1.669.9079 2.573 1.2571.834.2794 1.669.4191 2.503.4889.904.0699 1.878.0699 2.781 0 .904-.0698 1.808-.2793 2.712-.4889 3.616-.4889 7.231 1.1874 10.847 1.4667 1.391.5588 3.059.908 4.242.0699.556.419 1.251.7682 1.877 1.0476s1.39.6286 2.086.8381c2.364 2.7239 4.658 5.4478 6.814 8.3113.695.908 1.39 1.8159 2.086 2.7937-.696-.3492-1.391-.6286-2.086-.908-.835-1.5365-1.947-2.7937-3.546-3.6318-.696-.3492-1.53-.6984-2.295-.9778-1.321-.4889-2.851-.5587-4.102-1.2571-.209-.1397-.278.1397-.209.2793 3.06 4.1208 8.205 4.8192 12.516 6.9843 1.321 1.8858 2.434 3.8414 3.129 6.0763.278.4191 1.112.3492.973-.0698zm-37.129-36.3182c-.626-.5587-1.391-.9778-2.156-1.3969.904.1397 1.808.2794 2.712.4889.973.2096 1.877.4191 2.781.7683.348.1397.695.2794 1.043.4191.209.1397.417.2793.695.3492.278.1397.557.3492.765.5587.278.2096.487.4889.765.7683s.556.5587.765.9079c.487.6286.973 1.2572 1.53 1.816-.14-.1397-.487-.2794-.696-.3493-.278-.0698-.486-.1396-.765-.2095-.208-.0698-.486-.1397-.695-.2095-.209-.0699-.417-.0699-.626-.0699-.417-.0698-.834-.1396-1.182-.2095-.486-.1397-1.043-.2794-1.46-.5587-.765-.4191-1.321-.9778-1.877-1.6064-.626-.4889-1.043-1.0476-1.599-1.4667zm3.685 5.9366c-.07 0-.139 0-.209 0-.278-.0698-.487-.0698-.765-.1397-.486-.1396-.973-.2095-1.46-.419-.209-.0699-.417-.2095-.626-.2794-.556-.2095-1.112-.3492-1.599-.6286-.069-.0698-.487-.2095-.348-.2793.07-.0699.487-.0699.557-.0699.765 0 1.529-.0698 2.294-.0698h1.252c1.112.0698 2.225 0 3.337.2095.417.0698.765.1397 1.182.2794.209.0698.417.1397.626.2095 1.113.4191 2.086 1.0476 2.99 1.7461-.209-.1397-.626-.1397-.904-.2096-.348-.0698-.626-.0698-.904-.0698-.556 0-1.112 0-1.669 0-1.182-.0698-2.294-.0699-3.476-.2794-.07 0-.209 0-.278 0zm8.135.5588c-.835-1.1874-.904-2.7239-.835-4.1906 0-.5587.07-1.1873 0-1.7461-.069-.7682-.695-1.3968.279-.8381 1.668.9778 2.016 3.7017 2.016 5.4478 0 .9079-.139 1.6762 0 2.4444-.487-.3492-.973-.6984-1.46-1.1174zm-7.023 8.4509c-.278.0699-.556.1397-.834.2096-.904.2095-1.878.2793-2.851.2793s-1.877-.0698-2.851-.3492c-1.251-.3492-2.503-.7683-3.615-1.3968-.139-.0699-1.669-.7683-1.461-1.0477.14-.2095.765-.2095.974-.2095 2.364-.2794 4.867-.5588 7.162.2794.625.2095 1.321.4889 1.946.8381.348.2095.696.419 1.113.6286.209.0698.348.2095.556.2793.07.0699.209.0699.278.1397.07 0 .209.1397.278.1397-.208.0698-.486.1397-.695.2095zm11.334 1.6064c-.139-.0698-.348-.0698-.487-.1397-2.781-.9778-5.562-3.2826-7.718-4.8191 2.156 0 4.172.3492 6.188 1.1175 2.225.9079 3.616 2.3746 5.354 3.9111-1.043.3493-2.155.2794-3.337-.0698zm7.37.6286c-.626-.6984-1.251-1.3969-1.947-2.0254-.904-1.6064-1.39-3.0731-1.529-5.0287 0-.3492.139-2.235 0-2.8636.139.3492.417 1.1874.417 1.1874.486.9079 1.251 1.6063 1.808 2.4445.834 1.1873 1.39 2.5143 1.39 3.981.139.8381-.069 1.6064-.139 2.3048zm-2.086 6.5652c.556.2095 1.113.2794 1.669.4191 1.182.2793 2.364.6984 3.477 1.2571 1.668.7683 2.642 1.9556 3.685 3.2826-3.199-1.2571-6.536-2.3048-8.831-4.9588z" fill="url(#an)"/></g></svg>