<svg fill="none" height="294" viewBox="0 0 313 294" width="313" xmlns="http://www.w3.org/2000/svg" xmlns:xlink="http://www.w3.org/1999/xlink"><filter id="a" color-interpolation-filters="sRGB" filterUnits="userSpaceOnUse" height="66.809" width="53.5798" x="108" y="129"><feFlood flood-opacity="0" result="BackgroundImageFix"/><feColorMatrix in="SourceAlpha" result="hardAlpha" type="matrix" values="0 0 0 0 0 0 0 0 0 0 0 0 0 0 0 0 0 0 127 0"/><feOffset dy="4"/><feGaussianBlur stdDeviation="2"/><feComposite in2="hardAlpha" operator="out"/><feColorMatrix type="matrix" values="0 0 0 0 0 0 0 0 0 0 0 0 0 0 0 0 0 0 0.25 0"/><feBlend in2="BackgroundImageFix" mode="normal" result="effect1_dropShadow_49_150"/><feBlend in="SourceGraphic" in2="effect1_dropShadow_49_150" mode="normal" result="shape"/></filter><linearGradient id="b"><stop offset="0" stop-color="#1effd7"/><stop offset="1" stop-color="#008080"/></linearGradient><linearGradient id="c" gradientUnits="userSpaceOnUse" x1="148.42" x2="148.42" xlink:href="#b" y1="43.5524" y2="213.394"/><linearGradient id="d" gradientUnits="userSpaceOnUse" x1="230.579" x2="230.579" xlink:href="#b" y1="71.0925" y2="158.86"/><linearGradient id="e" gradientUnits="userSpaceOnUse" x1="199.848" x2="199.848" xlink:href="#b" y1="132.094" y2="235.673"/><linearGradient id="f" gradientUnits="userSpaceOnUse" x1="199.847" x2="199.847" xlink:href="#b" y1="156.727" y2="234.183"/><linearGradient id="g" gradientUnits="userSpaceOnUse" x1="200.06" x2="200.06" xlink:href="#b" y1="132.937" y2="235.673"/><linearGradient id="h" gradientUnits="userSpaceOnUse" x1="188.987" x2="210.708" y1="136.428" y2="136.428"><stop offset="0" stop-color="#cfd5ec"/><stop offset=".0461" stop-color="#d4d9ef"/><stop offset=".1879" stop-color="#dee0f3"/><stop offset=".3686" stop-color="#e1e2f5"/><stop offset=".7217" stop-color="#bfcce4"/><stop offset="1" stop-color="#a2b8d6"/></linearGradient><linearGradient id="i" gradientUnits="userSpaceOnUse" x1="182.811" x2="216.884" y1="188.166" y2="188.166"><stop offset="0" stop-color="#e1e2f5"/><stop offset=".5592" stop-color="#bfcce4"/><stop offset="1" stop-color="#a2b8d6"/></linearGradient><linearGradient id="j" gradientUnits="userSpaceOnUse" x1="188.574" x2="188.574" xlink:href="#b" y1="181.029" y2="193.23"/><linearGradient id="k" gradientUnits="userSpaceOnUse" x1="195.997" x2="195.997" xlink:href="#b" y1="181.029" y2="193.23"/><linearGradient id="l" gradientUnits="userSpaceOnUse" x1="201.449" x2="201.449" xlink:href="#b" y1="181.029" y2="193.23"/><linearGradient id="m" gradientUnits="userSpaceOnUse" x1="206.873" x2="206.873" xlink:href="#b" y1="181.029" y2="193.23"/><linearGradient id="n" gradientUnits="userSpaceOnUse" x1="212.507" x2="212.507" xlink:href="#b" y1="181.029" y2="193.23"/><linearGradient id="o" gradientUnits="userSpaceOnUse" x1="235.854" x2="235.854" xlink:href="#b" y1="112.396" y2="172.459"/><linearGradient id="p" gradientUnits="userSpaceOnUse" x1="206.635" x2="206.635" xlink:href="#b" y1="112.396" y2="134.507"/><linearGradient id="q" gradientUnits="userSpaceOnUse" x1="33.5551" x2="33.5551" xlink:href="#b" y1="192.389" y2="208.729"/><linearGradient id="r" gradientUnits="userSpaceOnUse" x1="38.2225" x2="38.2225" xlink:href="#b" y1="202.403" y2="235.673"/><linearGradient id="s" gradientUnits="userSpaceOnUse" x1="148.421" x2="148.421" xlink:href="#b" y1="235.38" y2="252.088"/><linearGradient id="t"><stop offset="0" stop-color="#544140"/><stop offset=".5342" stop-color="#503d3c"/><stop offset="1" stop-color="#463332"/></linearGradient><linearGradient id="u" gradientUnits="userSpaceOnUse" x1="55.0812" x2="55.0812" xlink:href="#t" y1="168.993" y2="239.046"/><linearGradient id="v" gradientUnits="userSpaceOnUse" x1="95.927" x2="95.927" xlink:href="#t" y1="168.993" y2="239.046"/><linearGradient id="w" gradientUnits="userSpaceOnUse" x1="53.6813" x2="96.7471" y1="176.624" y2="229.113"><stop offset="0" stop-color="#ec8d42"/><stop offset=".0083" stop-color="#ec8e43"/><stop offset=".2073" stop-color="#f7ab5c"/><stop offset=".3799" stop-color="#fdbd6b"/><stop offset=".5059" stop-color="#ffc370"/><stop offset="1" stop-color="#e57830"/></linearGradient><linearGradient id="x" gradientUnits="userSpaceOnUse" x1="56.1703" x2="94.1998" y1="178.419" y2="227.091"><stop offset="0" stop-color="#e57830"/><stop offset="1" stop-color="#ffd782"/></linearGradient><linearGradient id="y" gradientUnits="userSpaceOnUse" x1="64.1229" x2="86.2752" xlink:href="#b" y1="175.334" y2="229.681"/><linearGradient id="z" gradientUnits="userSpaceOnUse" x1="46.9783" x2="46.9783" xlink:href="#b" y1="161.246" y2="167.699"/><linearGradient id="A" gradientUnits="userSpaceOnUse" x1="54.0146" x2="54.0146" xlink:href="#b" y1="160.54" y2="185.74"/><linearGradient id="B" gradientUnits="userSpaceOnUse" x1="54.3339" x2="54.3339" xlink:href="#b" y1="160.541" y2="185.74"/><linearGradient id="C" gradientUnits="userSpaceOnUse" x1="44.3168" x2="44.3168" xlink:href="#b" y1="167.918" y2="174.044"/><linearGradient id="D" gradientUnits="userSpaceOnUse" x1="42.041" x2="42.041" xlink:href="#b" y1="175.369" y2="178.364"/><linearGradient id="E" gradientUnits="userSpaceOnUse" x1="103.822" x2="103.822" xlink:href="#b" y1="161.288" y2="167.731"/><linearGradient id="F" gradientUnits="userSpaceOnUse" x1="96.9052" x2="96.9052" xlink:href="#b" y1="160.778" y2="185.877"/><linearGradient id="G" gradientUnits="userSpaceOnUse" x1="96.9044" x2="96.9044" xlink:href="#b" y1="163.874" y2="185.877"/><linearGradient id="H" gradientUnits="userSpaceOnUse" x1="96.6452" x2="96.6452" xlink:href="#b" y1="162.148" y2="166.598"/><linearGradient id="I" gradientUnits="userSpaceOnUse" x1="90.3343" x2="90.3343" xlink:href="#b" y1="163.195" y2="165.717"/><linearGradient id="J" gradientUnits="userSpaceOnUse" x1="114.443" x2="114.443" xlink:href="#b" y1="166.933" y2="193.051"/><linearGradient id="K"><stop offset="0" stop-color="#ffb182"/><stop offset=".2108" stop-color="#fdaa7c"/><stop offset=".5183" stop-color="#f8966c"/><stop offset=".8834" stop-color="#ef7751"/><stop offset="1" stop-color="#ec6b47"/></linearGradient><linearGradient id="L" gradientUnits="userSpaceOnUse" x1="159.857" x2="159.913" xlink:href="#K" y1="235.974" y2="226.912"/><linearGradient id="M" gradientUnits="userSpaceOnUse" x1="159.328" x2="143.416" xlink:href="#K" y1="192.231" y2="181.152"/><linearGradient id="N" gradientUnits="userSpaceOnUse" x1="144.524" x2="144.524" y1="132.957" y2="81.973"><stop offset="0" stop-color="#ffb182"/><stop offset=".2173" stop-color="#fda87b"/><stop offset=".5653" stop-color="#f69167"/><stop offset=".9985" stop-color="#ec6b47"/><stop offset="1" stop-color="#ec6b47"/></linearGradient><linearGradient id="O"><stop offset="0" stop-color="#dc874e"/><stop offset=".2524" stop-color="#c37442"/><stop offset=".7485" stop-color="#97532c"/><stop offset="1" stop-color="#864623"/></linearGradient><linearGradient id="P" gradientUnits="userSpaceOnUse" x1="170.22" x2="170.22" xlink:href="#O" y1="37.3171" y2="87.243"/><linearGradient id="Q" gradientUnits="userSpaceOnUse" x1="168.213" x2="168.213" xlink:href="#O" y1="37.9827" y2="71.4163"/><linearGradient id="R"><stop offset="0" stop-color="#ffb182"/><stop offset=".2243" stop-color="#feac7e"/><stop offset=".4761" stop-color="#fa9f73"/><stop offset=".7403" stop-color="#f48860"/><stop offset="1" stop-color="#ec6b47"/></linearGradient><linearGradient id="S" gradientUnits="userSpaceOnUse" x1="160.968" x2="160.968" xlink:href="#R" y1="83.3198" y2="64.2767"/><linearGradient id="T" gradientUnits="userSpaceOnUse" x1="159.82" x2="159.82" xlink:href="#R" y1="85.6827" y2="61.0668"/><linearGradient id="U" gradientUnits="userSpaceOnUse" x1="148.468" x2="150.828" xlink:href="#O" y1="38.9196" y2="72.2728"/><linearGradient id="V" gradientUnits="userSpaceOnUse" x1="159.317" x2="150.859" y1="45.2714" y2="84.6042"><stop offset="0" stop-color="#ad6359"/><stop offset=".2243" stop-color="#feac7e"/><stop offset=".4761" stop-color="#fa9f73"/><stop offset=".7403" stop-color="#f48860"/><stop offset="1" stop-color="#ec6b47"/></linearGradient><linearGradient id="W" gradientUnits="userSpaceOnUse" x1="169.811" x2="164.819" xlink:href="#R" y1="45.7086" y2="85.8412"/><linearGradient id="X" gradientUnits="userSpaceOnUse" x1="159.857" x2="159.426" xlink:href="#O" y1="42.491" y2="55.0678"/><linearGradient id="Y" gradientUnits="userSpaceOnUse" x1="149.102" x2="148.649" xlink:href="#O" y1="42.7122" y2="53.8237"/><linearGradient id="Z" gradientUnits="userSpaceOnUse" x1="166.112" x2="166.112" xlink:href="#O" y1="37.9826" y2="71.4163"/><linearGradient id="aa" gradientUnits="userSpaceOnUse" x1="162.356" x2="162.356" xlink:href="#O" y1="38.0677" y2="71.358"/><linearGradient id="ab"><stop offset="0" stop-color="#ffb182"/><stop offset=".2221" stop-color="#feac7e"/><stop offset=".4766" stop-color="#fa9e72"/><stop offset=".7459" stop-color="#f4885f"/><stop offset="1" stop-color="#ec6b47"/></linearGradient><linearGradient id="ac" gradientUnits="userSpaceOnUse" x1="151.008" x2="201.248" xlink:href="#ab" y1="96.5066" y2="96.5066"/><linearGradient id="ad" gradientUnits="userSpaceOnUse" x1="144.488" x2="144.488" xlink:href="#ab" y1="126.155" y2="78.546"/><linearGradient id="ae" gradientUnits="userSpaceOnUse" x1="154.936" x2="154.936" xlink:href="#ab" y1="126.434" y2="77.849"/><linearGradient id="af" gradientUnits="userSpaceOnUse" x1="154.382" x2="162.692" y1="85.8707" y2="146.464"><stop offset="0" stop-color="#ffb182"/><stop offset=".3267" stop-color="#feae80"/><stop offset=".5369" stop-color="#fca678"/><stop offset=".7141" stop-color="#f8976c"/><stop offset=".8722" stop-color="#f2825a"/><stop offset="1" stop-color="#ec6b47"/></linearGradient><linearGradient id="ag" gradientUnits="userSpaceOnUse" x1="157.385" x2="158.275" xlink:href="#O" y1="37.0972" y2="74.6391"/><linearGradient id="ah" gradientUnits="userSpaceOnUse" x1="234.238" x2="234.238" xlink:href="#b" y1="95.7234" y2="126.82"/><linearGradient id="ai" gradientUnits="userSpaceOnUse" x1="232.805" x2="232.805" y1="96.132" y2="104.317"><stop offset="0" stop-color="#d6c6c6"/><stop offset=".0302" stop-color="#dac9c9"/><stop offset=".209" stop-color="#ebd9d9"/><stop offset=".3412" stop-color="#f1dfdf"/><stop offset=".5642" stop-color="#dfcece"/><stop offset="1" stop-color="#b2a4a3"/></linearGradient><linearGradient id="aj" gradientUnits="userSpaceOnUse" x1="226.727" x2="233.703" y1="104.075" y2="104.075"><stop offset="0" stop-color="#cbbcbc"/><stop offset=".0302" stop-color="#cfbfbf"/><stop offset=".209" stop-color="#e0cfcf"/><stop offset=".3412" stop-color="#e6d5d5"/><stop offset=".5642" stop-color="#d4c4c4"/><stop offset="1" stop-color="#a79a99"/></linearGradient><linearGradient id="ak" gradientUnits="userSpaceOnUse" x1="230.194" x2="230.194" xlink:href="#b" y1="105.886" y2="118.073"/><linearGradient id="al" gradientUnits="userSpaceOnUse" x1="226.3" x2="234.135" y1="105.334" y2="105.334"><stop offset="0" stop-color="#d6c6c6"/><stop offset=".1617" stop-color="#e1cccc"/><stop offset=".3373" stop-color="#e7d0d0"/><stop offset=".5973" stop-color="#d5c1c1"/><stop offset="1" stop-color="#b2a4a3"/></linearGradient><linearGradient id="am" gradientUnits="userSpaceOnUse" x1="237.272" x2="237.272" y1="114.481" y2="118.118"><stop offset="0" stop-color="#a4324b"/><stop offset=".0764" stop-color="#af384f"/><stop offset=".1942" stop-color="#b73d53"/><stop offset=".3765" stop-color="#ba3f54"/><stop offset=".5297" stop-color="#ab364e"/><stop offset=".8235" stop-color="#841d3d"/><stop offset="1" stop-color="#690d32"/></linearGradient><linearGradient id="an" gradientUnits="userSpaceOnUse" x1="231.534" x2="231.534" xlink:href="#b" y1="116.695" y2="117.032"/><linearGradient id="ao" gradientUnits="userSpaceOnUse" x1="235.736" x2="235.736" xlink:href="#b" y1="116.825" y2="117.161"/><linearGradient id="ap" gradientUnits="userSpaceOnUse" x1="238.321" x2="238.321" xlink:href="#b" y1="115.96" y2="116.296"/><linearGradient id="aq" gradientUnits="userSpaceOnUse" x1="241.28" x2="241.28" xlink:href="#b" y1="117.053" y2="117.39"/><linearGradient id="ar" gradientUnits="userSpaceOnUse" x1="242.604" x2="242.604" xlink:href="#b" y1="115.542" y2="115.878"/><linearGradient id="as" gradientUnits="userSpaceOnUse" x1="231.987" x2="231.987" xlink:href="#b" y1="116.042" y2="116.279"/><linearGradient id="at" gradientUnits="userSpaceOnUse" x1="236.33" x2="236.33" xlink:href="#b" y1="116.052" y2="116.289"/><linearGradient id="au" gradientUnits="userSpaceOnUse" x1="238.017" x2="238.017" xlink:href="#b" y1="116.886" y2="117.123"/><linearGradient id="av" gradientUnits="userSpaceOnUse" x1="240.461" x2="240.461" xlink:href="#b" y1="116.211" y2="116.448"/><linearGradient id="aw" gradientUnits="userSpaceOnUse" x1="242.299" x2="242.299" xlink:href="#b" y1="116.767" y2="117.004"/><linearGradient id="ax" gradientUnits="userSpaceOnUse" x1="233.35" x2="233.35" xlink:href="#b" y1="116.886" y2="117.123"/><linearGradient id="ay" gradientUnits="userSpaceOnUse" x1="232.523" x2="232.523" xlink:href="#b" y1="116.772" y2="116.94"/><linearGradient id="az" gradientUnits="userSpaceOnUse" x1="236.909" x2="236.909" xlink:href="#b" y1="116.542" y2="116.71"/><linearGradient id="aA" gradientUnits="userSpaceOnUse" x1="239.635" x2="239.635" xlink:href="#b" y1="116.78" y2="116.949"/><linearGradient id="aB" gradientUnits="userSpaceOnUse" x1="241.645" x2="241.645" xlink:href="#b" y1="116.273" y2="116.442"/><linearGradient id="aC" gradientUnits="userSpaceOnUse" x1="243.276" x2="243.276" xlink:href="#b" y1="116.422" y2="116.591"/><linearGradient id="aD" gradientUnits="userSpaceOnUse" x1="231.381" x2="231.381" xlink:href="#b" y1="115.798" y2="115.966"/><linearGradient id="aE" gradientUnits="userSpaceOnUse" x1="237.273" x2="237.273" xlink:href="#b" y1="114.881" y2="117.87"/><linearGradient id="aF"><stop offset="0" stop-color="#ffd6a0"/><stop offset=".2232" stop-color="#ffcc89"/><stop offset=".3451" stop-color="#ffc57b"/><stop offset=".5335" stop-color="#f3ae6d"/><stop offset=".9263" stop-color="#d4744b"/><stop offset=".9961" stop-color="#ce6944"/></linearGradient><linearGradient id="aG" gradientUnits="userSpaceOnUse" x1="237.272" x2="237.272" xlink:href="#aF" y1="117.224" y2="121.045"/><linearGradient id="aH" gradientUnits="userSpaceOnUse" x1="239.365" x2="239.365" xlink:href="#b" y1="115.034" y2="116.203"/><linearGradient id="aI" gradientUnits="userSpaceOnUse" x1="236.428" x2="236.428" xlink:href="#b" y1="114.911" y2="117.371"/><linearGradient id="aJ" gradientUnits="userSpaceOnUse" x1="240.862" x2="240.862" xlink:href="#b" y1="114.848" y2="116.169"/><linearGradient id="aK"><stop offset="0" stop-color="#ffc370"/><stop offset="1" stop-color="#e57830"/></linearGradient><linearGradient id="aL" gradientUnits="userSpaceOnUse" x1="230.941" x2="239.257" xlink:href="#aK" y1="115.819" y2="115.819"/><linearGradient id="aM" gradientUnits="userSpaceOnUse" x1="243.644" x2="237.359" xlink:href="#aK" y1="115.307" y2="115.307"/><linearGradient id="aN" gradientUnits="userSpaceOnUse" x1="237.272" x2="237.272" xlink:href="#aF" y1="110.032" y2="114.446"/><linearGradient id="aO" gradientUnits="userSpaceOnUse" x1="229.318" x2="244.993" y1="114.984" y2="114.984"><stop offset="0" stop-color="#bddd3e"/><stop offset=".2725" stop-color="#b2d335"/><stop offset=".749" stop-color="#95ba1e"/><stop offset="1" stop-color="#83aa0f"/></linearGradient><linearGradient id="aP" gradientUnits="userSpaceOnUse" x1="244.517" x2="224.29" xlink:href="#b" y1="101.155" y2="121.71"/><linearGradient id="aQ" gradientUnits="userSpaceOnUse" x1="67.9238" x2="67.9238" xlink:href="#b" y1="117.629" y2="148.726"/><linearGradient id="aR" gradientUnits="userSpaceOnUse" x1="67.9308" x2="67.9308" y1="119.102" y2="121.364"><stop offset="0" stop-color="#e0b589"/><stop offset=".2492" stop-color="#ddb085"/><stop offset=".5346" stop-color="#d5a279"/><stop offset=".8367" stop-color="#c78c65"/><stop offset="1" stop-color="#be7c58"/></linearGradient><linearGradient id="aS" gradientUnits="userSpaceOnUse" x1="67.9238" x2="67.9238" y1="120.899" y2="147.369"><stop offset="0" stop-color="#875933"/><stop offset=".2754" stop-color="#815631"/><stop offset=".6326" stop-color="#714c2a"/><stop offset="1" stop-color="#593d20"/></linearGradient><linearGradient id="aT" gradientUnits="userSpaceOnUse" x1="78.2056" x2="57.9789" xlink:href="#b" y1="123.062" y2="143.617"/><linearGradient id="aU" gradientUnits="userSpaceOnUse" x1="206.424" x2="206.424" xlink:href="#b" y1="52.9099" y2="84.0067"/><linearGradient id="aV" gradientUnits="userSpaceOnUse" x1="215.375" x2="210.085" xlink:href="#b" y1="75.4415" y2="71.6612"/><linearGradient id="aW" gradientUnits="userSpaceOnUse" x1="216.705" x2="196.478" xlink:href="#b" y1="58.3399" y2="78.895"/><linearGradient id="aX" gradientUnits="userSpaceOnUse" x1="245.256" x2="245.256" xlink:href="#b" y1="172.253" y2="235.673"/><linearGradient id="aY" gradientUnits="userSpaceOnUse" x1="244.249" x2="244.249" xlink:href="#b" y1="176.195" y2="229.716"/><linearGradient id="aZ" gradientUnits="userSpaceOnUse" x1="133.983" x2="133.983" xlink:href="#b" y1="207.88" y2="235.638"/><linearGradient id="a0" gradientUnits="userSpaceOnUse" x1="133.96" x2="133.96" xlink:href="#b" y1="225.807" y2="235.638"/><linearGradient id="a1" gradientUnits="userSpaceOnUse" x1="128.718" x2="128.718" xlink:href="#b" y1="207.874" y2="235.631"/><linearGradient id="a2" gradientUnits="userSpaceOnUse" x1="127.691" x2="127.691" xlink:href="#b" y1="221.258" y2="235.631"/><linearGradient id="a3" gradientUnits="userSpaceOnUse" x1="128.285" x2="128.285" xlink:href="#b" y1="207.874" y2="227.956"/><linearGradient id="a4" gradientUnits="userSpaceOnUse" x1="106.924" x2="106.924" xlink:href="#b" y1="207.915" y2="235.673"/><linearGradient id="a5" gradientUnits="userSpaceOnUse" x1="106.895" x2="106.895" xlink:href="#b" y1="225.798" y2="235.673"/><linearGradient id="a6" gradientUnits="userSpaceOnUse" x1="101.309" x2="101.309" xlink:href="#b" y1="207.909" y2="235.665"/><linearGradient id="a7" gradientUnits="userSpaceOnUse" x1="101.5" x2="101.5" xlink:href="#b" y1="216.005" y2="228.966"/><linearGradient id="a8" gradientUnits="userSpaceOnUse" x1="99.9695" x2="99.9695" xlink:href="#b" y1="207.909" y2="231.933"/><linearGradient id="a9"><stop offset=".0039" stop-color="#9ec42c"/><stop offset=".2887" stop-color="#9bc22b"/><stop offset=".489" stop-color="#92ba2a"/><stop offset=".6635" stop-color="#82ae26"/><stop offset=".8231" stop-color="#6c9c22"/><stop offset=".9713" stop-color="#50851c"/><stop offset="1" stop-color="#4a801b"/></linearGradient><linearGradient id="ba" gradientUnits="userSpaceOnUse" x1="301.023" x2="227.582" xlink:href="#a9" y1="227.921" y2="227.787"/><linearGradient id="bb" gradientUnits="userSpaceOnUse" x1="301.01" x2="227.569" xlink:href="#a9" y1="234.998" y2="234.864"/><linearGradient id="bc" gradientUnits="userSpaceOnUse" x1="300.999" x2="227.559" xlink:href="#a9" y1="240.781" y2="240.647"/><linearGradient id="bd" gradientUnits="userSpaceOnUse" x1="233.002" x2="161.808" y1="236.431" y2="230.647"><stop offset="0" stop-color="#dca22c"/><stop offset=".3209" stop-color="#dc9722"/><stop offset=".8824" stop-color="#db7a07"/><stop offset="1" stop-color="#db7301"/></linearGradient><linearGradient id="be" gradientUnits="userSpaceOnUse" x1="104.579" x2="104.579" xlink:href="#b" y1="85.9499" y2="118.053"/><linearGradient id="bf" gradientUnits="userSpaceOnUse" x1="95.3373" x2="95.3373" xlink:href="#b" y1="57.2586" y2="65.5606"/><linearGradient id="bg" gradientUnits="userSpaceOnUse" x1="97.573" x2="97.573" xlink:href="#b" y1="48.3148" y2="61.5256"/><linearGradient id="bh" gradientUnits="userSpaceOnUse" x1="109.754" x2="109.754" xlink:href="#b" y1="48.0039" y2="61.481"/><linearGradient id="bi" gradientUnits="userSpaceOnUse" x1="103.544" x2="103.544" xlink:href="#b" y1="42.3169" y2="61.3211"/><linearGradient id="bj" gradientUnits="userSpaceOnUse" x1="112.147" x2="112.147" xlink:href="#b" y1="56.8609" y2="65.1628"/><linearGradient id="bk" gradientUnits="userSpaceOnUse" x1="97.5307" x2="97.5307" xlink:href="#b" y1="47.8731" y2="61.8542"/><linearGradient id="bl" gradientUnits="userSpaceOnUse" x1="109.789" x2="109.789" xlink:href="#b" y1="47.5521" y2="61.8108"/><linearGradient id="bm" gradientUnits="userSpaceOnUse" x1="112.27" x2="112.27" xlink:href="#b" y1="60.8788" y2="65.4649"/><linearGradient id="bn" gradientUnits="userSpaceOnUse" x1="95.4361" x2="95.4361" xlink:href="#b" y1="61.2791" y2="65.7463"/><linearGradient id="bo" gradientUnits="userSpaceOnUse" x1="110.289" x2="110.289" xlink:href="#b" y1="50.4233" y2="57.7183"/><linearGradient id="bp" gradientUnits="userSpaceOnUse" x1="112.226" x2="112.226" xlink:href="#b" y1="56.5222" y2="65.501"/><linearGradient id="bq" gradientUnits="userSpaceOnUse" x1="97.391" x2="97.391" xlink:href="#b" y1="50.4023" y2="58.8075"/><linearGradient id="br" gradientUnits="userSpaceOnUse" x1="95.2581" x2="95.2581" xlink:href="#b" y1="56.92" y2="65.8993"/><linearGradient id="bs" gradientUnits="userSpaceOnUse" x1="103.543" x2="103.543" xlink:href="#b" y1="41.6362" y2="61.758"/><path d="m148.42 213.394c47.662 0 86.299-38.021 86.299-84.921 0-46.9004-38.637-84.9206-86.299-84.9206-47.661 0-86.2989 38.0202-86.2989 84.9206 0 46.9 38.6379 84.921 86.2989 84.921z" fill="url(#c)"/><g fill="#fff"><path d="m76.8068 166.416c-.2464 0-.4853-.131-.6092-.361-.4281-.795-.8515-1.614-1.2576-2.436-.1666-.336-.0248-.742.3173-.906.3415-.162.7545-.023.9204.313.3999.808.8156 1.614 1.2369 2.395.1776.33.0496.741-.2864.916-.1025.053-.2133.079-.3214.079z"/><path d="m74.1464 160.987c-.2657 0-.5184-.151-.6312-.406-.4523-1.02-.888-2.061-1.2941-3.095-.137-.349.0392-.741.3937-.875.3552-.135.7537.039.89.387.3993 1.015.8274 2.039 1.2721 3.041.1521.343-.0069.742-.3559.891-.0888.039-.1824.057-.2746.057z"/><path d="m71.7117 154.801c-.2863 0-.5541-.178-.6518-.46-.296-.856-.5817-1.732-.8481-2.602-.1101-.358.0964-.736.4598-.844.3642-.107.7483.094.8584.453.2622.855.5431 1.715.8336 2.557.1225.354-.0702.739-.4302.86-.073.025-.148.036-.2217.036z"/><path d="m229.157 135.565c-.018 0-.037 0-.056-.002-.379-.029-.661-.356-.631-.729.071-.873.129-1.775.171-2.681.018-.374.345-.652.72-.646.38.017.673.334.656.708-.044.922-.101 1.84-.174 2.727-.029.355-.331.623-.686.623z"/><path d="m228.457 141.449c-.035 0-.071-.003-.106-.008-.376-.058-.633-.404-.575-.774.139-.876.264-1.772.372-2.66.045-.371.386-.636.765-.592.378.044.647.381.602.753-.11.904-.238 1.815-.379 2.707-.053.335-.345.574-.679.574z"/><path d="m218.572 89.2853c-.238 0-.47-.1213-.596-.338-.455-.7736-.929-1.5478-1.408-2.301-.202-.317-.104-.7349.218-.9334.322-.1977.747-.1036.949.2148.488.7667.969 1.5545 1.431 2.3422.191.3238.078.7383-.25.9253-.109.0616-.227.0901-.344.0901z"/><path d="m221.861 95.4931c-.26 0-.508-.1443-.625-.3908-.379-.8-.782-1.6121-1.196-2.4147-.172-.3333-.037-.7411.302-.9111.34-.1693.753-.0365.926.2974.421.8162.831 1.6425 1.217 2.456.16.3387.012.7424-.332.9002-.096.0427-.195.063-.292.063z"/><path d="m183.923 57.4948c-.101 0-.204-.0217-.301-.0691-.813-.3908-1.644-.7735-2.473-1.1379-.346-.1531-.502-.5534-.347-.8948.155-.3407.56-.4951.909-.3421.843.3705 1.688.76 2.515 1.1576.342.1639.483.5697.316.9056-.118.2412-.364.3807-.619.3807z"/><path d="m187.693 59.4293c-.112 0-.227-.0278-.333-.0854-.786-.4294-1.597-.8548-2.409-1.2646-.338-.1707-.472-.5784-.299-.9117.174-.3325.588-.464.927-.2939.825.4165 1.65.8487 2.45 1.2862.332.1816.452.5934.267.9205-.126.2229-.361.3489-.603.3489z"/><path d="m120.642 54.2612c-.281 0-.545-.1707-.647-.4457-.13-.3516.054-.7404.411-.8684.871-.3122 1.753-.613 2.624-.8927.363-.1152.75.0785.868.4335.118.3556-.079.7383-.44.8541-.856.275-1.724.5703-2.58.8772-.079.0284-.158.042-.236.042z"/><path d="m127.97 52.0117c-.306 0-.585-.2018-.666-.5067-.096-.3623.125-.7315.493-.8263 1.594-.4078 3.224-.7735 4.844-1.0851.374-.0732.735.1673.808.5344s-.17.7227-.543.7952c-1.593.3068-3.195.6658-4.762 1.0668-.059.0149-.117.0217-.174.0217z"/><path d="m137.636 50.1497c-.34 0-.635-.2473-.681-.588-.051-.3705.214-.7112.591-.7606.917-.1199 1.845-.2256 2.758-.3143.397-.0359.716.2357.753.6076.038.3725-.239.7037-.617.7403-.898.0874-1.811.191-2.712.3096-.031.0033-.062.0054-.092.0054z"/><path d="m68.5784 115.679c-.0385 0-.0771-.002-.1163-.009-.3751-.063-.6271-.413-.5631-.782.1556-.899.3284-1.803.5129-2.686.0764-.366.4364-.604.8129-.526.3724.075.6119.433.5355.799-.1817.868-.351 1.756-.5039 2.641-.0571.33-.3483.563-.678.563z"/><path d="m70.2476 108.221c-.0592 0-.1204-.008-.1803-.024-.3669-.098-.5837-.47-.4839-.831.4391-1.594.9354-3.193 1.4744-4.754.1218-.354.5107-.545.8728-.423.36.12.5528.505.4302.859-.5293 1.534-1.0167 3.106-1.4489 4.673-.0833.302-.3614.5-.6643.5zm3.2187-9.3276c-.0874 0-.1755-.017-.2609-.0515-.3517-.1423-.5197-.5378-.3751-.8839.6381-1.5288 1.3319-3.0549 2.0636-4.5369.1659-.3366.5768-.4775.9196-.3129.3421.1632.4846.5683.318.9056-.7186 1.4563-1.4014 2.9566-2.0285 4.4589-.1094.2622-.3662.4207-.6367.4207zm4.3703-8.8624c-.1143 0-.2306-.0278-.338-.0874-.3311-.1835-.4474-.5967-.2609-.9225.8233-1.4353 1.7043-2.8652 2.6178-4.2503.2065-.3137.6326-.4037.9519-.1999.3187.2039.4096.6232.2031.9368-.8983 1.3615-1.7642 2.7676-2.5737 4.1785-.1267.2208-.36.3448-.6002.3448zm5.4502-8.2636c-.1418 0-.2856-.0433-.4088-.1328-.3057-.2228-.3697-.6468-.1432-.9476.9967-1.3242 2.0499-2.6369 3.1292-3.9008.2443-.2865.6787-.3231.9699-.0826.2911.2404.329.6679.0839.9544-1.0621 1.2429-2.0966 2.5332-3.0768 3.8358-.1356.1788-.3435.2736-.5542.2736z"/><path d="m89.7352 74.2198c-.1707 0-.3414-.0617-.4742-.1863-.2754-.2581-.2857-.6868-.0241-.9578.6346-.6563 1.2899-1.312 1.9473-1.9473.2705-.2628.7062-.2581.9733.0088.2664.2669.2623.6956-.009.9577-.6456.6246-1.2899 1.2687-1.9142 1.9149-.1363.1395-.3173.21-.4991.21z"/></g><path d="m59.7236 107.748-2.0099-.468c3.0927-12.8639 8.8685-24.6957 17.1672-35.1661l1.6279 1.2497c-8.1142 10.238-13.762 21.8071-16.7852 34.3844z" fill="#d7edf9"/><path d="m236.39 158.86-1.948-.673c3.398-9.526 5.121-19.523 5.121-29.714 0-20.644-6.928-40.0466-20.034-56.1085l1.61-1.272c13.213 16.1925 20.49 36.5705 20.49 57.3805-.001 10.421-1.764 20.645-5.239 30.387z" fill="url(#d)"/><path d="m208.73 146.097v-13.537l-8.649-.442v-.023l-.026.001-.042-.002v.004l-.166.009-.167-.009v-.004l-.04.002-.026-.001v.023l-8.649.442v13.538s-8.154 2.013-8.154 8.811v74.709c0 5.023 10.361 6.014 16.803 6.051v.004h.072c.052 0 .11-.002.162-.002.053 0 .11.002.161.002h.073v-.004c6.442-.037 16.803-1.028 16.803-6.051v-74.71c-.002-6.797-8.155-8.811-8.155-8.811z" fill="url(#e)"/><path d="m184.326 156.727v72.89c0 2.673 6.147 4.508 15.416 4.565l.338.001-.009-.004c9.15-.053 15.298-1.886 15.298-4.562v-72.89z" fill="url(#f)" opacity=".4"/><path d="m183.234 231.236c1.989 3.622 10.702 4.4 16.38 4.433v.004h.072c.052 0 .11-.002.162-.002.053 0 .11.002.161.002h.073v-.004c6.442-.037 16.803-1.028 16.803-6.051v-74.71c0-6.797-8.154-8.811-8.154-8.811v-13.16l-17.765 4.572v6.254h9.409v2.334s4.418 1.392 4.418 8.379v75.607c-.002 3.355-16.45 5.124-21.559 1.153z" fill="url(#g)" opacity=".5"/><path d="m210.707 141.668h-21.72v-8.811c0-.922.759-1.669 1.696-1.669h18.328c.937 0 1.696.747 1.696 1.669z" fill="url(#h)"/><path d="m216.884 170.156h-34.073v36.018h34.073z" fill="url(#i)"/><path d="m209.011 131.188h-7.139v10.48h8.835v-8.811c0-.922-.759-1.669-1.696-1.669z" fill="#a2b8d6" opacity=".4"/><path d="m197.928 139.882h-7.653v-6.093c0-.665.548-1.203 1.223-1.203h6.429v7.296z" fill="#fff7e6" opacity=".6"/><path d="m187.596 193.23h-1.417l-1.67-12.201h1.685l.727 6.341.033.398h.134l.051-.398.776-6.341h1.317l.776 6.341.049.398h.137l.033-.398.724-6.341h1.688l-1.67 12.201h-1.417l-.842-5.776-.103-.715h-.067l-.101.715z" fill="url(#j)"/><path d="m193.01 193.23 1.873-12.201h2.227l1.873 12.201h-1.77l-.338-2.489h-1.754l-.338 2.489zm3.09-8.233-.052-.317h-.101l-.051.317-.523 3.851h1.25z" fill="url(#k)"/><path d="m198.817 182.872v-1.843h5.265v1.843h-1.721v10.358h-1.822v-10.358z" fill="url(#l)"/><path d="m204.79 181.029h4.166v1.843h-2.345v3.203h1.688v1.96h-1.688v3.352h2.345v1.843h-4.166z" fill="url(#m)"/><path d="m213.224 193.23-.944-5.147h-.489v5.147h-1.822v-12.201h1.822c2.175 0 3.104 1.212 3.104 3.519 0 1.212-.321 2.308-1.012 2.772l1.162 5.91zm-1.433-6.806c.253 0 .59-.033.86-.266.271-.233.49-.68.49-1.544 0-.862-.219-1.328-.49-1.56-.27-.233-.607-.249-.86-.249z" fill="url(#n)"/><path d="m208.657 131.188h-1.105v10.48h1.105z" fill="#a2b8d6" opacity=".4"/><path d="m204.535 131.188h-1.105v10.48h1.105z" fill="#a2b8d6" opacity=".4"/><path d="m200.413 131.188h-1.104v10.48h1.104z" fill="#a2b8d6" opacity=".4"/><path d="m196.292 131.188h-1.105v10.48h1.105z" fill="#a2b8d6" opacity=".4"/><path d="m192.17 131.188h-1.105v10.48h1.105z" fill="#a2b8d6" opacity=".4"/><path d="m204.791 206.174h12.093v-36.018h-12.093z" fill="#a2b8d6" opacity=".4"/><g fill="#fff7e6" opacity=".6"><path d="m195.351 148.824c2.886 2.952-6.365 8-8.267 6.078-2.951-2.981 5.153-9.262 8.267-6.078z"/><path d="m191.656 185.554c0 18.392-2.14 41.269-3.905 41.269-1.764 0-2.485-22.877-2.485-41.269s.721-25.334 2.485-25.334c1.765 0 3.905 6.942 3.905 25.334z"/></g><path d="m272.128 155.103c-3.927-5.584-18.397 2.276-36.558-5.313-11.132-4.652-12.459-12.271-17.505-18.013-1.583-1.802-4.928-3.009-6.407-4.248-1.479-1.238-2.735-3.231-3.36-5.09-.626-1.858-1.051-8.076-1.051-8.076l-5.509-1.967-2.99 4.366s4.18 5.757 5.038 7.554c.857 1.797 1.981 4.523 1.583 6.541-.398 2.016-1.965 3.587-1.804 8.096.293 8.279 5.457 20.548 24.692 29.14 28.292 12.636 49.197-5.419 43.871-12.99z" fill="url(#o)"/><path d="m201.739 112.396 5.509 1.967s.426 6.218 1.051 8.076c.625 1.859 1.881 3.852 3.36 5.09.677.568 1.75 1.132 2.862 1.746-2.546-1.16-4.621-.896-6.064-.226-1.413.657-3.537 2.773-4.363 5.458.45-1.483 1.049-2.503 1.276-3.65.398-2.017-.726-4.744-1.584-6.541-.857-1.797-5.037-7.554-5.037-7.554z" fill="url(#p)"/><path d="m205.37 130.857c.398-2.017-.725-4.744-1.583-6.541s-5.038-7.554-5.038-7.554l2.853-4.165c.987 2.245 6.513 14.896 7.021 17.865.558 3.26-.488 20.889 22.904 31.199 24.667 10.872 37.96 1.489 41.421-4.073.679 8.056-19.166 21.905-44.689 10.504-19.236-8.592-24.399-20.861-24.693-29.14-.16-4.508 1.406-6.079 1.804-8.095z" fill="#db7301" opacity=".3"/><path d="m272.886 158.953s-1.192-.852-1.832-2.378c-.562-1.336-.424-2.761-.424-2.761s2.977 1.312 2.256 5.139z" fill="#7c5939"/><path d="m207.248 114.363-5.509-1.967-2.99 4.366 1.768 2.339 6.945-1.795z" fill="#7c5939"/><path d="m201.739 112.396-2.99 4.366 1.768 2.339 3.656-.945z" fill="#7c5939" opacity=".3"/><g opacity=".4"><path d="m263.479 155.687c.935 2.131-5.574 4.955-15.128 3.508-9.554-1.448-17.132-5.933-15.982-7.798.974-1.58 6.808 1.87 15.713 2.78 9.567.977 14.645-.203 15.397 1.51z" fill="#fafafa"/><path d="m230.55 150.344c.332-.728-.672-1.888-2.308-3.53-1.635-1.642-3.129-3.221-3.777-2.921-1.294.602-.759 3.351 1.586 5.305 2.344 1.955 4.182 1.843 4.499 1.146z" fill="#ffe299"/></g><path d="m33.4924 208.729s-3.8024-3.047-3.907-7.655c-.084-3.692 4.7825-8.685 4.7825-8.685s2.5269 3.812 3.1072 8.38c.5796 4.57-3.9827 7.96-3.9827 7.96z" fill="url(#q)"/><path d="m33.4924 208.729c-.6491-4.914-.263-10.414.8755-16.34 0 0 2.5269 3.812 3.1072 8.381.5796 4.569-3.9827 7.959-3.9827 7.959z" fill="#9cb702" opacity=".4"/><path d="m33.1523 209.778s-.0661-.14-.1817-.386c-.0571-.13-.1322-.224-.2134-.37-.0819-.139-.2113-.297-.349-.458-.5589-.66-1.5852-1.351-2.6047-2.117-2.0863-1.492-3.7824-3.518-3.7824-3.518-.2843-.34-.2354-.842.1102-1.122.3455-.28.8562-.232 1.1405.108.0269.032.0503.065.0716.1l.0069.011s.0764.128.2099.352c.1315.227.3215.549.5872.91.5204.733 1.3264 1.626 2.2701 2.41.9376.782 1.988 1.512 2.6887 2.244.3311.361.6264.73.7771.979.1398.234.2196.367.2196.367.1508.251.0661.575-.19.724-.2553.148-.5851.065-.7358-.187-.0083-.016-.0172-.031-.0248-.047z" fill="#7c5939"/><path d="m42.0815 202.508c-5.9163.911-7.1608 5.02-8.7172 5.818-1.5563.798-5.7166-.699-9.8157 3.68-2.6659 2.847-2.8297 6.68-1.4861 10.48 1.5075 4.261 5.6802 8.103 8.8011 10.004 5.2059 3.171 12.1733 5.123 15.3988.176 6.1779.444 8.8686-6.362 8.9436-12.966.0503-4.451-.9547-9.048-3.7727-12.758-2.381-3.136-5.5749-5.016-9.3518-4.434z" fill="url(#r)"/><path d="m51.4332 206.941c-2.3809-3.135-5.5748-5.015-9.3517-4.434-1.9363.298-3.3653.941-4.4756 1.696 13.0908-3.023 16.5428 20.772 4.627 27.194-3.1884 1.718-6.6845 2.24-9.9121 1.914 4.9836 2.641 11.0079 3.853 13.9416-.646 6.1779.444 8.8686-6.362 8.9436-12.967.0503-4.449-.9547-9.046-3.7728-12.757z" fill="#9cb702" opacity=".3"/><g fill="#fff7e6" opacity=".4"><path d="m29.5151 211.695c6.7264.049 2.1703 12.023-1.3905 12.089-5.5232.103-4.4762-12.132 1.3905-12.089z"/><path d="m29.6383 225.572c2.8387-2.827 5.5019 2.475 4.1005 3.788-2.1724 2.036-6.3259-1.573-4.1005-3.788z"/></g><path d="m47.401 232.104c-.9389-.281-2.3136.504-2.4953 1.257-.1549.459-.1672 1.34.0661 1.408.2334.067.9052-1.215.9052-1.215s.9072.837 1.082.747c.1749-.089.0744-1.24.0744-1.24s1.3003-.011 1.3856-.201c.0847-.189-.7923-.689-1.018-.756z" fill="#7c5939"/><path d="m11.2673 235.38h274.3067s-41.011 16.708-136.885 16.708c-95.8736 0-137.4217-16.708-137.4217-16.708z" fill="url(#s)"/><path d="m59.7773 229.553s-6.288 6.997-8.5533 6.027c-2.2227-.952.678-9.185.678-9.185z" fill="url(#u)"/><path d="m91.231 229.553s6.2879 6.997 8.5533 6.027c2.2227-.952-.678-9.185-.678-9.185z" fill="url(#v)"/><path d="m75.5038 235.673c18.6863 0 33.8342-14.907 33.8342-33.294 0-18.388-15.1479-33.295-33.8342-33.295-18.6864 0-33.8347 14.907-33.8347 33.295 0 18.387 15.1483 33.294 33.8347 33.294z" fill="url(#w)"/><path d="m75.5038 232.84c17.0965 0 30.9562-13.638 30.9562-30.461 0-16.824-13.8597-30.462-30.9562-30.462s-30.956 13.638-30.956 30.462c0 16.823 13.8595 30.461 30.956 30.461z" fill="url(#x)"/><path d="m86.8941 229.429c15.1809-6.188 22.3889-23.313 16.1009-38.251-6.2879-14.938-23.6916-22.032-38.8721-15.844s-22.3892 23.313-16.1011 38.251 23.6918 22.032 38.8723 15.844z" fill="url(#y)"/><path d="m49.1817 163.011c1.0463 1.527 1.2431 3.197-.3091 4.226-1.5522 1.03-3.0514.224-4.0977-1.304-1.0462-1.527-1.2431-3.197.3091-4.226 1.5522-1.03 3.0514-.223 4.0977 1.304z" fill="url(#z)"/><path d="m41.4413 185.74 27.7098-18.381s-7.9311-12.765-22.1012-3.365c-14.1695 9.399-5.6086 21.746-5.6086 21.746z" fill="url(#A)"/><path d="m49.6181 162.491c2.6095-.158 4.7654.516 5.8626 2.117 2.2873 3.339-.8329 9.345-6.9688 13.415-3.0417 2.018-6.2508 3.174-8.9952 3.428.7593 2.598 1.9246 4.289 1.9246 4.289l27.7098-18.381s-6.9763-11.226-19.533-4.868z" fill="url(#B)" opacity=".2"/><g opacity=".5"><path d="m45.7235 168.037c3.443 1.188-1.0339 6.545-2.8732 5.963-2.8531-.902-.1301-7 2.8732-5.963z" fill="url(#C)"/><path d="m41.9032 175.376c2.1841-.173 1.3712 2.934.3235 2.986-1.6259.081-2.0354-2.85-.3235-2.986z" fill="url(#D)"/></g><path d="m106.009 165.994c-1.063 1.516-2.571 2.307-4.111 1.261-1.541-1.046-1.326-2.714-.263-4.23 1.062-1.516 2.571-2.306 4.111-1.261 1.541 1.046 1.326 2.715.263 4.23z" fill="url(#E)"/><path d="m81.6796 167.203 27.5074 18.674s9.181-11.927-4.885-21.476c-14.067-9.55-22.6224 2.802-22.6224 2.802z" fill="url(#F)"/><path d="m106.66 166.205c1.102 2.333 1.252 4.554.138 6.144-2.324 3.314-9.1448 2.649-15.2359-1.486-3.0197-2.05-5.2857-4.567-6.5275-6.989-2.1807 1.644-3.355 3.33-3.355 3.33l27.5074 18.673c-.001-.001 8.074-10.491-2.527-19.672z" fill="url(#G)" opacity=".2"/><g opacity=".5"><path d="m99.9915 164.661c.1325 3.588-6.5695 1.443-6.6907-.455-.1879-2.943 6.5751-2.675 6.6907.455z" fill="url(#H)"/><path d="m91.653 163.841c.9616 1.937-2.2743 2.328-2.7066 1.387-.6697-1.46 1.9528-2.905 2.7066-1.387z" fill="url(#I)"/></g><path d="m75.5045 177.552c-4.4398 0-8.6057 1.137-12.2298 3.118l.2712-.104 11.9586 21.813-12.9071 21.304c3.7797 2.222 8.1837 3.523 12.9064 3.523 13.934 0 25.2292-11.115 25.2292-24.827.001-13.712-11.2945-24.827-25.2285-24.827z" fill="#fafafa"/><path d="m77.5461 226.991c0 1.109-.9142 2.009-2.0417 2.009s-2.0416-.9-2.0416-2.009c0-1.11.9141-2.009 2.0416-2.009s2.0417.899 2.0417 2.009z" fill="#000"/><path d="m75.5038 179.776c1.1275 0 2.0416-.899 2.0416-2.009 0-1.109-.9141-2.009-2.0416-2.009-1.1276 0-2.0416.9-2.0416 2.009 0 1.11.914 2.009 2.0416 2.009z" fill="#000"/><path d="m50.493 204.388c-1.1275 0-2.0416-.9-2.0416-2.009 0-1.11.9141-2.009 2.0416-2.009s2.0416.899 2.0416 2.009c0 1.109-.9141 2.009-2.0416 2.009z" fill="#000"/><path d="m100.515 204.388c-1.1272 0-2.0413-.9-2.0413-2.009 0-1.11.9141-2.009 2.0413-2.009 1.128 0 2.042.899 2.042 2.009 0 1.109-.914 2.009-2.042 2.009z" fill="#000"/><path d="m63.5404 224.016c-.2891.476-.9162.631-1.4001.346s-.6415-.902-.3517-1.378c.2897-.476.9161-.631 1.4-.346.4839.284.6416.902.3518 1.378z" fill="#000"/><path d="m89.2196 181.773c-.2898.476-.9161.631-1.4.346s-.6416-.901-.3518-1.377c.2898-.477.9162-.632 1.4001-.347.4839.286.6415.902.3517 1.378z" fill="#000"/><path d="m53.5162 190.606c-.484-.284-.6416-.901-.3518-1.377s.9162-.632 1.4001-.346c.4839.285.6415.901.3517 1.377s-.9161.631-1.4.346z" fill="#000"/><path d="m96.4437 215.875c-.4839-.284-.6415-.901-.3517-1.377.2891-.476.9161-.632 1.4-.346.4839.284.6416.901.3518 1.377-.2891.476-.9162.632-1.4001.346z" fill="#000"/><path d="m53.9326 214.875c-.497.261-1.1158.077-1.3815-.412s-.0785-1.098.4185-1.359c.497-.262 1.1158-.078 1.3815.412.2657.489.0785 1.098-.4185 1.359z" fill="#000"/><path d="m98.0386 191.654c-.497.262-1.1158.077-1.3815-.412s-.0785-1.098.4185-1.359c.497-.262 1.1158-.077 1.3815.412.2664.488.0792 1.097-.4185 1.359z" fill="#000"/><path d="m62.8052 181.152c-.2657-.489-.0784-1.098.4185-1.359.497-.262 1.1159-.078 1.3815.411.2657.489.0785 1.098-.4185 1.36-.4969.261-1.1158.077-1.3815-.412z" fill="#000"/><path d="m86.4029 224.554c-.2657-.49-.0785-1.098.4185-1.36.497-.261 1.1158-.077 1.3815.412s.0785 1.098-.4185 1.359c-.497.262-1.1151.078-1.3815-.411z" fill="#000"/><path d="m77.5461 202.379c0 1.109-.9141 2.009-2.0416 2.009s-2.0416-.9-2.0416-2.009c0-1.11.9141-2.009 2.0416-2.009s2.0416.899 2.0416 2.009z" fill="#000"/><path d="m82.8484 199.491c-5.5659 2.946-7.0755 3.228-7.3425 2.74-.2671-.488.8094-1.564 6.3754-4.509 5.5652-2.946 13.5121-6.646 13.7791-6.158.2678.489-7.2461 4.981-12.812 7.927z" fill="#000"/><path d="m73.6122 196.677c2.2681 4.124 2.3879 5.297 1.8916 5.561-.4956.264-1.4194-.48-3.6874-4.604-2.2681-4.124-5.0208-10.064-4.5252-10.328.497-.264 4.0537 5.248 6.321 9.371z" fill="#000"/><path d="m114.443 193.051c7.33 0 13.271-5.847 13.271-13.059 0-7.213-5.941-13.059-13.271-13.059-7.329 0-13.271 5.846-13.271 13.059 0 7.212 5.942 13.059 13.271 13.059z" fill="url(#J)"/><path d="m125.295 182.215c1.248-5.904-2.605-11.686-8.604-12.914-6-1.227-11.876 2.563-13.123 8.467-1.248 5.904 2.604 11.686 8.604 12.914s11.875-2.563 13.123-8.467z" fill="#fff2eb"/><path d="m108.718 180.007v-.058c-.743-.553-1.29-1.238-1.29-2.237 0-1.61 1.29-2.61 3.079-2.61 1.755 0 2.924 1.03 2.924 2.595 0 .909-.592 1.639-1.26 2.071v.062c.926.492 1.668 1.222 1.668 2.474 0 1.491-1.363 2.624-3.409 2.624-1.924 0-3.35-1.059-3.35-2.593-.001-1.15.727-1.852 1.638-2.328zm1.755 3.401c.742 0 1.29-.389 1.29-1.179 0-.835-.819-1.149-2.032-1.655-.422.386-.742.925-.742 1.505 0 .835.683 1.329 1.484 1.329zm1.153-5.563c0-.731-.44-1.222-1.168-1.222-.591 0-1.076.357-1.076 1.087 0 .776.668 1.148 1.652 1.522.38-.433.592-.896.592-1.387z" fill="#655352"/><path d="m115.443 174.297h2.226v2.565l-.102 1.326c.558-.492 1.3-1.014 2.317-1.014 1.635 0 2.333 1.133 2.333 2.982v4.592h-2.226v-4.309c0-1.073-.29-1.402-.926-1.402-.561 0-.91.254-1.396.716v4.996h-2.226z" fill="#655352"/><path d="m156.836 227.503s.209 2.313-.04 3.686c-.368 2.024-.553 2-.679 3.255-.187 1.864 7.555 1.312 7.756.283.238-1.216-3.608-1.701-3.81-3.275-.138-1.073 1.072-4.125 1.072-4.125z" fill="url(#L)"/><path d="m160.063 231.452c-.122-.951.815-3.459 1.029-4.014l-4.223.514c.023.367.05.919.05 1.505h2.005s-.445 1.423 0 2.682c.446 1.259 4.062 1.314 4.173 2.409.112 1.094-5.174.985-5.174.985l.145.05c2.255.294 5.673-.177 5.805-.856.239-1.215-3.608-1.701-3.81-3.275z" fill="#c3694d" opacity=".4"/><path d="m141.936 128.713c-1.602 9.577 12.418 17.431 12.418 17.431l4.236.737c.428 12.751-.634 27.982-1.451 37.74-1.563 18.682-.703 30.931-1.005 44.23h5.055c5.311-19.939 8.942-24.353 7.873-44.11-.924-17.103 13.884-37.622 9.844-55.152z" fill="#37474f"/><path d="m167.047 182.43c-.446 5.036.89 10.73.222 17.08-.668 6.351-4.896 23.87-8.011 24.307-3.116.438-1.725-24.161-1.725-24.161s2.112-.223 1.501-8.03c-.185-2.372 1.224-5.51-.037-6.314-.825-.525-1.124.344-1.958.528-1.426 17.999-.611 30.002-.907 43.011h5.056c5.31-19.94 8.941-24.354 7.874-44.11-.424-7.827 2.448-16.369 5.3-25.013.018-.334.028-.511.028-.511-2.669 7.227-6.898 18.176-7.343 23.213z" fill="#334b72" opacity=".2"/><path d="m153.979 182.529c1.553 2.829 3.649 1.49 4.761 2.858.829 1.02-.115 2.67-.099 5.259.016 2.592.268 6.615-1.077 6.776-1.343.161-.43-3.759-2.945-8.329-.687-1.249-4.124-3.659-4.124-3.659z" fill="url(#M)"/><path d="m157.441 196.883c-.226.05-.403.027-.542-.031.142.403.336.61.666.571 1.343-.162 1.092-4.184 1.076-6.777-.016-2.59.928-4.239.099-5.259-1-1.23-2.793-.273-4.273-2.119l-2.476 3.282c.38.299.789.631 1.172.968l1.422-2.169s.519.246 1.446.392 1.224.009 1.78.776c.556.766.148 2.555.186 4.452.037 1.898.26 5.731-.556 5.914z" fill="#c3694d" opacity=".4"/><path d="m141.936 128.713c-1.149 6.846-28.801 24.293-29.418 33.523-.619 9.263 22.054 13.467 39.784 25.286l3.053-4.765c-15.036-16.513-24.927-19.946-24.866-21.347s25.147-15.267 25.147-15.267z" fill="#37474f"/><g filter="url(#a)" opacity=".2"><path d="m112.012 162.523c-.618 9.263 22.055 13.467 39.784 25.286l3.053-4.764c-15.036-16.513-24.927-19.947-24.866-21.348.056-1.309 22.117-13.503 24.852-15.095l2.745.478-2.018-2.102.594-15.475-2.149-.205-12.576-.298c-1.149 6.846-28.802 24.294-29.419 33.523z" fill="#37474f"/><path d="m154.92 146.11-.179-.032-24.758 15.619-.5-.021c-.01.239.087.441.192.593.106.155.25.303.411.445.322.285.787.615 1.363 1.002.321.217.681.454 1.079.716 1.05.692 2.366 1.56 3.936 2.679 4.27 3.044 10.381 7.929 17.757 15.987l-2.572 4.014c-6.794-4.463-14.279-7.843-20.856-10.812-1.945-.878-3.811-1.721-5.556-2.544-3.903-1.843-7.183-3.585-9.447-5.424-2.265-1.84-3.417-3.698-3.279-5.776.07-1.042.527-2.245 1.325-3.587.795-1.336 1.908-2.775 3.246-4.283 2.675-3.016 6.205-6.259 9.773-9.445.706-.631 1.414-1.259 2.116-1.883 2.838-2.521 5.592-4.967 7.817-7.175 1.389-1.378 2.585-2.677 3.473-3.855.753-.998 1.316-1.95 1.565-2.818l12.151.287 1.661.159-.575 15.003-.009.212.148.153.961 1.002z" stroke="#000"/></g><path d="m178.907 130.027-36.97-.876c-.127.754-.575 1.636-1.272 2.622 3.684 1.697 18.1 7.223 38.731 1.068-.115-.946-.275-1.884-.489-2.814z" fill="#334b72" opacity=".2"/><path d="m153.186 77.9872c-2.781-1.1346-7.592 3.8358-13.813 16.0788-4.699 9.248-7.043 16.26-4.508 17.408 2.876 1.304 4.821-2.236 9.136-8.405 2.634-5.6753 16.314-22.1726 9.185-25.0818z" fill="url(#N)"/><path d="m145.535 96.0032s-3.338 5.7668-4.748 7.9568l2.049.789c.369-.535.756-1.096 1.165-1.68.655-1.413 1.995-3.4949 3.528-5.871z" fill="#c3694d" opacity=".4"/><path d="m164.059 39.556s.997-1.2232 3.666-.8934c14.984 1.8526 6.905 45.1145 2.619 49.6229-6.949-9.4015-6.285-48.7295-6.285-48.7295z" fill="url(#P)"/><path d="m170.725 39.7836c1.082 1.625-.737 3.1727-.737 3.1727l.143.1402-6.088-1.3946c-.02 8.3062.326 38.4982 6.302 46.5829 3.961-4.167 11.149-41.4229.38-48.5012z" fill="#491d17" opacity=".3"/><path d="m162.606 69.16s9.018-1.629 11.214-11.6069l-10.005-.4532z" fill="url(#Q)"/><path d="m163.815 57.0999 10.005.4532c-2.196 9.9779-11.214 11.6069-11.214 11.6069z" fill="#491d17" opacity=".3"/><path d="m178.944 130.027c-1.662-11.426-9.551-16.361-9.028-23.876.387-5.555 7.206-13.0001 4.693-23.0587-1.912-7.6533-9.309-7.6486-15.746-7.8375-2.599-.0766-5.19.7687-7.347 2.1898-4.81 3.17-8.648 13.1242-7.42 17.4301 1.265 4.4359 4.172 4.7028 4.16 11.3193-.011 5.532-5.786 13.633-6.319 22.956 0 0 14.626 8.158 37.007.877z" fill="#ffe6d6"/><path d="m168.491 76.3947c-1.207-.4152-2.514-.6658-3.862-.8236l-7.897-.1782c-1.252.1972-2.473.592-3.616 1.1434-1.507 2.3666-4.022 7.484 1.58 8.5474 8.119 1.5423 12.596-6.2268 13.795-8.689z" fill="#fff4ee"/><path d="m169.917 106.151c.387-5.555 7.206-13.0001 4.693-23.0587-.146-.5825-.323-1.1196-.53-1.6168-.259 4.2429-2.362 8.838-6.143 12.5579-6.882 6.7726-16.716 8.0766-21.964 2.9133-.848-.8345-1.523-1.7875-2.032-2.8266.037.2676.088.5202.155.756 1.265 4.4359 4.172 4.7028 4.16 11.3199-.011 5.531-5.786 13.632-6.319 22.956 0 0 14.627 8.156 37.008.875-1.663-11.426-9.551-16.361-9.028-23.876z" fill="#ecd2bd" opacity=".8"/><path d="m169.917 106.151c.01-.141.025-.282.043-.425-4.059-.801-9.598-1.898-11.548-3.545-.193-.196.145-1.108.229-2.089.018-.1982.045-.4048.08-.6154-2.165.5994-4.323.7744-6.33.5032.033.1392.066.2732.099.4022-.49.17-.924.445-1.155.761-.647.885-1.815 1.618-3.286 2.284.133.786.209 1.693.207 2.768-.002 1.306-.326 2.756-.827 4.331 3.017-2.381 5.613-5.135 6.763-6.872.021.022.041.044.062.067 2.373 3.329 11.168 9.351 18.846 12.028-1.89-3.241-3.423-6.148-3.183-9.598z" fill="#ecd2bd" opacity=".8"/><path d="m165.867 60.8992c-.68 2.8082-.918 5.1674-1.145 8.462-.321 4.6358 2.098 6.6556 2.098 6.6556-3.012.7756-8.474 1.3323-11.704-.2635 0 0 2.483-.5933 1.531-6.9482-.652-4.3594 9.22-7.9059 9.22-7.9059z" fill="url(#S)"/><path d="m166.82 76.0168s-3.469 8.5921-11.123 7.6506c-6.116-.7526-.581-7.9141-.581-7.9141z" fill="url(#T)"/><path d="m156.82 70.4185 8.29-5.3341c-.163 1.3127-.278 2.683-.388 4.2768-.32 4.6357 2.098 6.6556 2.098 6.6556s-1.182 3.1252-4.233 5.6741c-4.486-2.6166-5.537-6.7565-5.897-8.3564.15-.7302.214-1.6866.13-2.916z" fill="#ac6b53" opacity=".6"/><path d="m152.322 42.237s-2.759-.9984-5.194 1.9839c-3.321 4.0661-.295 8.4086-.055 11.9118l5.038-8.7533z" fill="url(#U)"/><path d="m152.11 47.3794-5.038 8.7533c-.166-2.4317-1.671-5.2677-1.468-8.1349.592.2628 1.323.0664 2.489-1.184 1.252-1.3418 2.096-3.17 2.096-3.17l2 1.835z" fill="#491d17" opacity=".3"/><path d="m165.208 65.6318c-3.097 6.1191-10.187 7.9831-11.298 7.8212-1.112-.1618-8.227-6.3087-7.004-14.464.123-1.083-.432-6.4774.613-8.9368 2.558-6.0257 7.279-6.8141 12.002-5.8943 7.46 1.4536 8.674 7.822 7.363 15.1414 0 0-.359 3.6949-1.676 6.3325z" fill="url(#V)"/><path d="m163.829 51.8722 3.29 5.6931c-.071.575-.13 1.1447-.235 1.734 0 0-.359 3.6949-1.676 6.3324-3.097 6.1192-10.187 7.9832-11.298 7.8213 12.963-4.2408 9.919-21.5808 9.919-21.5808z" fill="#e38565" opacity=".3"/><path d="m152.855 59.0053c.335-1.3642.011-2.8875-.976-4.1115.66.4816 1.134 1.1589 1.431 1.8911.285.7268.447 1.5518.289 2.3294-.27 1.4753-1.263 2.6613-2.52 3.5717.544.6489 1.344 1.2219 2.299 1.4915-1.671-.0549-2.669-.716-3.783-1.648 1.554-.8311 2.906-1.9338 3.26-3.5242z" fill="#e38565" opacity=".5"/><path d="m167.017 57.444c2.109-.5852 3.497 1.9968 2.975 3.7058-.537 1.7631-2.418 2.9017-3.993 2.773-.819-.8846-.328-5.7615 1.018-6.4788z" fill="url(#W)"/><path d="m167.017 57.444c2.109-.5852 3.497 1.9968 2.975 3.7058-.537 1.7631-2.418 2.9017-3.993 2.773-.819-.8846-.328-5.7615 1.018-6.4788z" fill="#e38565" opacity=".3"/><path d="m167.32 59.1157c1.14-.2222 1.79 1.1677 1.457 2.0334-.345.892-1.382 1.4095-2.214 1.2835-.161-.1646.377-1.2571.757-3.3169z" fill="#ac6b53" opacity=".6"/><path d="m156.162 54.0587c-.34.7762 1.626.5317 3.584 1.2917 1.408.5466 2.665 1.3777 2.901 1.2049.235-.1727-.775-1.5287-2.575-2.3104-1.707-.7423-3.668-.7369-3.91-.1862z" fill="url(#X)"/><path d="m150.806 54.1961c.197.8603-1.145.6245-2.355 1.0215-1.068.3502-1.498.68-1.709.5601-.211-.1192.016-1.0336 1.279-1.6412 1.178-.5655 2.645-.55 2.785.0596z" fill="url(#Y)"/><path d="m164.607 56.9252c.307 1.6344.174 3.512 1.465 3.512 1.201 0 1.544-3.1368 1.544-3.1368z" fill="url(#Z)"/><path d="m150.538 44.6382c.26 3.7633 9.154 3.4097 11.957 5.29 1.175.7884 2.121 7.0071 2.121 7.0071.82.7465 2.07.7458 3.069.3793 0 0 4.499.9734 6.135.2391 1.611-9.7097-2.175-17.3752-12.084-18.9263-6.129-.995-11.401 3.067-11.198 6.0108z" fill="url(#aa)"/><path d="m161.347 58.0848c-.324.9218-1.366 1.8898-3.001 1.6534-1.225-.0495-1.962-1.5132-1.642-2.0239 0 0 .466.9957 1.59 1.1277 1.655.1938 3.053-.7572 3.053-.7572z" fill="#492a21"/><path d="m147.517 57.7779c.183 1.1129.954 2.0266 2.1 1.9955 1.308-.1199 1.836-1.186 1.712-1.7523 0 0-.605.7004-1.436.7735-1.325.1158-2.376-1.0167-2.376-1.0167z" fill="#492a21"/><path d="m170.558 78.6178c2.909-.7607 5.683 4.6526 9.932 16.4994 3.204 8.9328 5.019 17.0248 2.99 18.3908-6.859 4.618-27.887-8.71-29.716-13.268l4.473-.8434c2.682 2.6214 14.456 3.8854 16.165 4.7584 0 0-10.679-23.7511-3.844-25.5372z" fill="url(#ac)"/><path d="m151.335 98.5148c-1.638 2.2422-6.619 3.5062-11.392 5.1842-5.468 1.922-6.758 5.996-5.482 7.707 5.389 5.096 19.112-8.136 20.283-11.402 1.17-3.2679-2.543-2.6753-3.409-1.4892z" fill="url(#ad)"/><path d="m155.406 100.267c.405-.211 1.909-1.6026 2.22-2.5759.448-1.3994 1.796-4.0993 1.217-4.3682-1.003-.466-2.117 3.5215-2.522 2.9993-.459-.592.034-3.5723.284-5.5509.224-1.7719.461-2.7209.035-2.8143-.374-.0813-.686 1.291-.919 2.5881-.19 1.0648-.407 2.4588-.604 2.45-.354-.0143-.155-1.2416.002-2.4094.213-1.5856.58-3.0954.129-3.1896-.567-.1185-.916 1.3378-1.159 3.042-.169 1.182-.278 2.6796-.528 2.7852-.327.1382-.088-1.3553.034-2.4106.166-1.4577.525-2.601.055-2.6667-.473-.0657-.862 1.1183-1.14 2.7683-.199 1.1752-.262 2.6971-.523 2.7852-.387.13.158-3.0325-.395-2.9444-.71.1131-.783 3.1022-.654 5.5319.144 2.7005.689 3.836 1.691 5.071z" fill="url(#ae)"/><path d="m158.423 99.5633c-.218-.1707.132-1.0994.218-2.0998.142-1.6466 1.014-3.871.427-4.1338-.85-.3807-1.139 3.2925-1.602 2.8021-.523-.5554-.422-3.5357-.43-5.5081-.007-1.7672.104-2.7209-.324-2.7852-.375-.0556-.505 1.3214-.567 2.6192-.05 1.0655-.084 2.4581-.277 2.4622-.348.0088-.31-1.2179-.305-2.3836.006-1.5823.172-3.0988-.281-3.1632-.568-.0806-.724 1.3825-.744 3.084-.014 1.1799.07 2.668-.161 2.7893-.301.1585-.258-1.3344-.275-2.3863-.022-1.4529.182-2.6064-.285-2.641-.47-.0345-.698 1.1617-.76 2.8123-.044 1.1752.089 2.6844-.156 2.7887-.361.1537-.557-3.1883-1.085-3.065-.679.1585-.045 3.298.392 5.6924.484 2.662 1.161 3.7495 2.296 4.9055z" fill="url(#af)"/><path d="m170.891 43.3749c1.96 5.4499-2.896 8.059-7.349 8.6443.636 2.0659 1.065 4.8572 1.073 4.9066l-.008-.0013c.307 1.6344.174 3.512 1.465 3.512 1.165 0 1.52-2.9288 1.541-3.1042.023-.0082.049-.0102.072-.0183 0 0 4.499.9733 6.135.2391.948-5.7148.01-10.7095-2.929-14.1782z" fill="#491d17" opacity=".3"/><path d="m148.311 42.7653c-1.363 3.6997.403 6.7152 8.882 8.4858 7.001 1.4617 9.623 4.7102 9.623 4.7102s1.111-10.7061-6.45-15.4847c-5.994-3.7877-11.209-.0068-12.055 2.2887z" fill="url(#ag)"/><path d="m162.962 42.6955c2.569 3.8948 2.808 10.2239 2.808 10.2239-3.66-4.7001-10.326-2.788-14.77-4.9799-2.331-1.1501-2.966-2.643-3.048-3.806-.451 3.0731 1.832 5.5705 9.24 7.1176 7.002 1.4617 9.623 4.7109 9.623 4.7109s.822-8.0103-3.853-13.2665z" fill="#491d17" opacity=".3"/><path d="m170.558 78.6171c-.266.0698-.505.1727-.72.3055 4.029.9618 7.415 10.3261 9.56 16.1316 2.226 6.0218 4.785 15.1098 2.337 16.7518-2.448 1.643-6.008.767-13.018-2.19-7.01-2.956-14.214-8.263-14.214-8.263l.008.078c4.227 5.306 22.637 16.339 28.97 12.075 2.029-1.366.213-9.458-2.99-18.3902-4.25-11.8453-7.024-17.2587-9.933-16.4987z" fill="#c3694d" opacity=".4"/><path d="m134.461 111.405c4.815 4.555 16.287-5.528 19.507-10.056-4.636 4.289-14.887 12.246-19.939 8.916.052.44.2.829.432 1.14z" fill="#c3694d" opacity=".4"/><path d="m157.777 65.7383c-1.934-.0068-4.133.93-4.133.93s-1.382-.2696-2.584.1382c0 0 1.551 2.3144 3.217 2.2054 2.306-.1511 3.5-3.2736 3.5-3.2736z" fill="#d3634e"/><path d="m154.019 67.5838c-1.359.1281-2.949-.7626-2.949-.7626l-.011-.0156c1.201-.4078 2.583-.1389 2.583-.1389s2.2-.9361 4.134-.9293c0 0-2.235 1.7035-3.757 1.8464z" fill="#7a2216" opacity=".3"/><path d="m234.238 95.7234c-8.726 0-15.8 6.9606-15.8 15.5486 0 8.587 7.074 15.548 15.8 15.548 8.727 0 15.801-6.961 15.801-15.548s-7.074-15.5486-15.801-15.5486zm0 28.5336c-7.287 0-13.195-5.813-13.195-12.984 0-7.172 5.908-12.9852 13.195-12.9852 7.288 0 13.196 5.8132 13.196 12.9852 0 7.171-5.908 12.984-13.196 12.984z" fill="url(#ah)"/><path d="m229.944 103.663s.406-3.8809.606-4.2487c.346-.6347 4.743-2.9953 4.743-2.9953s.658.1138.489.863c0 0-4.17 1.9155-4.479 2.5502-.261.5368-.597 3.9068-.597 3.9068z" fill="url(#ai)"/><path d="m235.293 96.419c.181.1179.39.3387.221.6754 0 0-4.092 1.8342-4.488 2.6924-.226.4922-.554 3.3402-.623 3.9512h.302s.337-3.37.597-3.9065c.31-.6347 4.479-2.5502 4.479-2.5502.169-.7485-.488-.8623-.488-.8623z" fill="#bbacab" opacity=".7"/><path d="m234.948 104.673-.394-1.197h-8.72l-.394 1.197z" fill="url(#aj)"/><path d="m234.948 104.673-.394-1.197h-4.026l-.018 1.197z" fill="#bbacab" opacity=".6"/><path d="m229.404 103.476-.09 1.058h-2.904l.268-1.058z" fill="#fff6e5" opacity=".4"/><path d="m225.558 104.316-.118.357h9.508l-.118-.357z" fill="#bbacab" opacity=".6"/><path d="m233.575 118.073h-6.762l-1.453-12.187h9.668z" fill="url(#ak)"/><path d="m230.908 118.073h2.667l1.453-12.187h-9.668l.085.715h5.886z" fill="url(#ak)" opacity=".3"/><path d="m235.515 106.135.018-1.601h-10.678l.018 1.601z" fill="url(#al)"/><path d="m235.515 104.922.018-.388h-10.678l.018.388z" fill="#fae7e7"/><path d="m235.526 106.135.007-1.601h-4.684l.008 1.601z" fill="#bbacab" opacity=".6"/><path d="m228.961 106.135.005-1.601h-2.904l.005 1.601z" fill="#fff6e5" opacity=".6"/><path d="m226.403 107.254s2.433.684 2.528 4.911c.101 4.508-1.422 5.162-1.422 5.162z" fill="#fff6e5" opacity=".5"/><path d="m230.813 99.3384c-.129-.1639 1.355-1.0296 2.153-1.5111.89-.5372 2.215-1.2884 2.32-1.0933.096.1802-1.042.6699-2.269 1.3452-1.229.6767-2.131 1.3513-2.204 1.2592z" fill="#fff6e5" opacity=".8"/><path d="m235.515 106.135.018-.28h-10.678l.018.28z" fill="#bbacab" opacity=".6"/><path d="m242.072 117.87h-9.601c-.838 0-1.517-.669-1.517-1.493v-.142c0-.825.679-1.493 1.517-1.493h9.601c.838 0 1.518.668 1.518 1.493v.142c0 .824-.679 1.493-1.518 1.493z" fill="url(#am)"/><g opacity=".3"><path d="m231.705 116.863c0 .093-.076.169-.171.169-.094 0-.171-.075-.171-.169 0-.093.077-.168.171-.168.095 0 .171.075.171.168z" fill="url(#an)"/><path d="m235.907 116.993c0 .092-.077.168-.171.168s-.171-.076-.171-.168c0-.093.076-.168.171-.168.094-.001.171.074.171.168z" fill="url(#ao)"/><path d="m238.492 116.128c0 .092-.076.168-.171.168-.094 0-.171-.075-.171-.168s.077-.168.171-.168c.095 0 .171.075.171.168z" fill="url(#ap)"/><path d="m241.451 117.221c0 .093-.076.169-.171.169s-.171-.076-.171-.169.076-.168.171-.168.171.075.171.168z" fill="url(#aq)"/><path d="m242.775 115.71c0 .093-.077.168-.171.168s-.171-.075-.171-.168c0-.092.077-.168.171-.168s.171.076.171.168z" fill="url(#ar)"/><path d="m232.107 116.16c0 .066-.053.119-.12.119s-.121-.053-.121-.119c0-.065.055-.118.121-.118.067 0 .12.053.12.118z" fill="url(#as)"/><path d="m236.33 116.289c.066 0 .12-.053.12-.119 0-.065-.054-.118-.12-.118-.067 0-.121.053-.121.118 0 .066.054.119.121.119z" fill="url(#at)"/><path d="m238.017 117.123c.066 0 .12-.053.12-.118 0-.066-.054-.119-.12-.119-.067 0-.121.053-.121.119 0 .065.054.118.121.118z" fill="url(#au)"/><path d="m240.581 116.33c0 .065-.054.118-.12.118s-.12-.053-.12-.118c0-.066.053-.119.12-.119s.12.053.12.119z" fill="url(#av)"/><path d="m242.299 117.004c.066 0 .12-.053.12-.118 0-.066-.054-.119-.12-.119-.067 0-.121.053-.121.119 0 .065.054.118.121.118z" fill="url(#aw)"/><path d="m233.471 117.005c0 .066-.054.118-.121.118-.066 0-.12-.053-.12-.118 0-.066.054-.119.12-.119.067 0 .121.053.121.119z" fill="url(#ax)"/><path d="m232.523 116.94c.047 0 .085-.037.085-.084 0-.046-.038-.084-.085-.084-.048 0-.086.038-.086.084 0 .047.038.084.086.084z" fill="url(#ay)"/><path d="m236.909 116.71c.047 0 .085-.038.085-.084 0-.047-.038-.084-.085-.084-.048 0-.086.037-.086.084 0 .046.038.084.086.084z" fill="url(#az)"/><path d="m239.721 116.864c0 .046-.039.085-.086.085s-.085-.038-.085-.085.038-.084.085-.084c.048 0 .086.038.086.084z" fill="url(#aA)"/><path d="m241.731 116.358c0 .046-.039.084-.086.084s-.085-.037-.085-.084.038-.085.085-.085c.048 0 .086.038.086.085z" fill="url(#aB)"/><path d="m243.276 116.591c.047 0 .085-.038.085-.084 0-.047-.038-.085-.085-.085s-.086.038-.086.085c0 .046.039.084.086.084z" fill="url(#aC)"/><path d="m231.381 115.966c.048 0 .086-.037.086-.084 0-.046-.038-.084-.086-.084-.047 0-.085.038-.085.084 0 .047.038.084.085.084z" fill="url(#aD)"/></g><path d="m242.697 114.881c0 .013.008.023.008.036v.242c0 .797-.657 1.444-1.467 1.444h-8.871c-.585 0-1.082-.344-1.317-.833-.05.148-.095.3-.095.465v.141c0 .825.679 1.494 1.517 1.494h9.601c.838 0 1.518-.669 1.518-1.494v-.141c-.001-.604-.37-1.119-.894-1.354z" fill="url(#aE)" opacity=".3"/><path d="m237.272 120.814c-5.285 0-6.546-1.15-6.546-3.485h13.092c0 2.334-1.261 3.485-6.546 3.485z" fill="url(#aG)"/><path d="m237.398 115.068s2.149.817 3.995-.034l.343.179s-1.432 2.025-4.742.282z" fill="url(#aH)" opacity=".3"/><path d="m243.804 117.712c.008-.125.014-.251.014-.383h-13.092c0 .132.005.258.013.383z" fill="#ffdebc"/><path d="m242.329 117.329c0 2.22-1.147 3.366-5.801 3.474.241.005.484.011.745.011 5.285 0 6.546-1.15 6.546-3.485z" fill="#ce6944" opacity=".3"/><path d="m237.262 115.009s2.149.817 3.995-.034l.342.178s-2.052 1.386-4.637.222z" fill="#f38fbc"/><path d="m234.086 117.065.413.306s2.651-1.938 4.272-2.46l-2.667.194z" fill="url(#aI)" opacity=".3"/><path d="m238.801 114.906s1.023.345 1.445.527c.575.249 1.413.736 1.575.736s.717-.527 1.101-.725l-.929-.428-3.011-.168z" fill="url(#aJ)" opacity=".3"/><path d="m237.272 120.221c-4.809 0-6.302-.944-6.545-2.85.016 2.306 1.292 3.443 6.545 3.443s6.529-1.137 6.545-3.443c-.243 1.906-1.736 2.85-6.545 2.85z" fill="#ce6944" opacity=".3"/><path d="m238.156 115.754.375-.448c-.123-.016-.24-.035-.35-.055l-.54.378c.175.052.347.093.515.125z" fill="#ffafda"/><path d="m239.371 115.831-.08-.47c-.13-.001-.258-.007-.381-.016l-.082.488c.188.01.369.009.543-.002z" fill="#ffafda"/><path d="m240.461 115.645-.366-.334c-.116.017-.231.029-.344.037l.32.392c.137-.028.268-.061.39-.095z" fill="#ffafda"/><path d="m241.458 115.079c-.415.243-2.217 1.155-4.431.217l-.065.079c2.586 1.164 4.637-.222 4.637-.222z" fill="#c089a5"/><path d="m230.94 114.573s.813.535 1.635 1.202c.702.571 1.424 1.289 1.511 1.289.185 0 2.568-1.964 5.171-2.492h-8.317z" fill="url(#aL)"/><path d="m238.361 114.573c-2.27.708-4.199 2.283-4.366 2.283-.085 0-.808-.718-1.511-1.289-.51-.415-1.017-.778-1.327-.994h-.216s.812.535 1.634 1.202c.703.571 1.426 1.289 1.511 1.289.186 0 2.569-1.964 5.172-2.492h-.897z" fill="#be5f00" opacity=".5"/><path d="m239.082 114.573h-4.328c-.322.048-.646.091-.937.085-.31-.007-.546-.045-.805-.085h-1.661c-.134.047-.221.063-.307.069.205.138.693.476 1.228.893.366-.143.831-.356 1.281-.37.956-.03.918.809 1.873.809.154 0 .298-.005.436-.014.921-.536 2.109-1.118 3.35-1.378-.044-.003-.086-.006-.13-.009z" fill="#be5f00" opacity=".5"/><path d="m243.644 114.672s-.747.344-1.463.909c-.142.112-.345.357-.416.361-.071.005-.744-.443-1.86-.806-.726-.237-1.61-.44-2.546-.465h6.285z" fill="url(#aM)"/><path d="m243.366 114.672c-.271.142-.769.423-1.253.805-.142.112-.345.357-.416.361-.07.005-.745-.443-1.86-.806-.439-.143-.936-.274-1.467-.361h-1.011c.936.025 1.82.228 2.546.465 1.116.363 1.789.811 1.86.806s.274-.249.416-.361c.716-.565 1.463-.909 1.463-.909z" fill="#be5f00" opacity=".5"/><path d="m243.644 114.672h-6.285c.702.018 1.373.137 1.971.295.297-.054.633-.086 1.027-.086.661 0 1.326.391 1.913.632.688-.525 1.374-.841 1.374-.841z" fill="#be5f00" opacity=".5"/><path d="m237.272 109.948c-3.615 0-6.546 2.013-6.546 4.496h13.092c0-2.483-2.931-4.496-6.546-4.496z" fill="url(#aN)"/><path d="m238.125 111.078c.154.671-.929 1.45-2.418 1.74-1.49.289-2.822-.019-2.976-.69s.928-1.45 2.418-1.739c1.49-.29 2.822.019 2.976.689z" fill="#fff" opacity=".2"/><path d="m238.62 118.707c0 .449-1.621.977-3.441.977-1.821 0-2.642-.528-2.642-.977 0-.448.422-.648 2.642-.648 2.219 0 3.441.2 3.441.648z" fill="#fff" opacity=".2"/><path d="m242.898 112.181c-.489.842-2.931 1.695-5.626 1.695s-5.406-.852-5.627-1.695c-.57.668-.919 1.434-.919 2.263h13.092c0-.829-.35-1.595-.92-2.263z" fill="#ce6944" opacity=".3"/><g fill="#ce6944" opacity=".3"><path d="m235.482 111.791c-.047-.074.323-.493.51-.244.2.268-.462.319-.51.244z"/><path d="m236.371 110.32c.051-.072.625.047.464.312-.17.285-.515-.239-.464-.312z"/><path d="m237.657 111.582c.056-.07.62.079.445.336-.188.274-.5-.267-.445-.336z"/><path d="m238.403 110.103c.002.086-.545.282-.574-.021-.03-.324.573-.066.574.021z"/><path d="m238.635 110.983c-.044-.076.345-.481.521-.224.188.275-.477.3-.521.224z"/><path d="m239.714 112.024c.05-.054.503.095.344.296-.169.216-.394-.241-.344-.296z"/><path d="m239.734 110.414c.006-.071.467-.194.467.055-.001.266-.473.015-.467-.055z"/><path d="m234.167 112.203c-.066-.034.009-.472.253-.366.262.114-.186.401-.253.366z"/><path d="m236.944 112.885c-.057.048-.483-.158-.296-.337.2-.192.353.29.296.337z"/><path d="m235.553 110.211c.036.062-.285.393-.427.182-.153-.227.391-.244.427-.182z"/><path d="m233.959 111.162c-.044-.076.345-.481.521-.224.188.275-.477.3-.521.224z"/><path d="m240.749 111.285c-.036.08-.623.058-.517-.23.113-.308.554.151.517.23z"/></g><path d="m237.272 109.948c-.135 0-.261.021-.393.027 3.059.142 5.491 2.078 5.491 4.469h1.449c-.001-2.483-2.932-4.496-6.547-4.496z" fill="#ce6944" opacity=".3"/><path d="m235.351 111.743c-.048-.074.323-.494.51-.244.2.268-.463.319-.51.244z" fill="#ffe7af"/><path d="m236.24 110.272c.051-.072.624.047.464.312-.171.285-.515-.239-.464-.312z" fill="#ffe7af"/><path d="m237.527 111.533c.055-.07.62.079.444.336-.188.275-.5-.266-.444-.336z" fill="#ffe7af"/><path d="m238.273 110.054c.001.087-.546.282-.575-.02-.03-.324.573-.066.575.02z" fill="#ffe7af"/><path d="m238.504 110.935c-.044-.076.345-.481.521-.225.188.276-.477.301-.521.225z" fill="#ffe7af"/><path d="m239.583 111.976c.049-.054.502.094.344.296-.17.216-.394-.242-.344-.296z" fill="#ffe7af"/><path d="m239.603 110.366c.005-.071.467-.194.466.054 0 .267-.472.016-.466-.054z" fill="#ffe7af"/><path d="m234.036 112.155c-.067-.034.008-.472.253-.366.261.114-.186.401-.253.366z" fill="#ffe7af"/><path d="m236.813 112.837c-.057.048-.483-.158-.296-.336.2-.194.353.289.296.336z" fill="#ffe7af"/><path d="m235.422 110.163c.035.062-.285.393-.428.182-.153-.227.392-.245.428-.182z" fill="#ffe7af"/><path d="m233.827 111.113c-.044-.076.345-.481.521-.224.188.276-.477.301-.521.224z" fill="#ffe7af"/><path d="m240.619 111.237c-.037.08-.623.058-.518-.23.113-.308.553.15.518.23z" fill="#ffe7af"/><path d="m242.6 114.345c-1.067-.03-1.92.119-3.147.045-1.354-.082-2.566-.28-3.939-.134-.534.056-1.171.205-1.697.193-.474-.01-.776-.094-1.248-.146-.384-.043-.836-.077-1.206.057-.301.108-.36.061-.703.088-.269.021-.434-.145-.706-.096-.329.06-.645.271-.636.353.005.042.258-.046.464.27.162.248.192.371.369.503.477.358 1.22.035 1.713-.027.371-.047 1.046-.376 1.69-.396.955-.029.918.713 1.872.71 1.727-.004 2.637-.997 4.931-.997.713 0 1.62.486 2.291.667.406.11.762.053 1.16-.049.942-.242 1.233-.813 1.178-.866-.054-.052-.519.017-.761-.022-.574-.094-1.135-.14-1.625-.153z" fill="url(#aO)"/><g fill="#9bb602" opacity=".5"><path d="m234.18 114.91c-.296-.207-.577-.22-.923-.207-.181.007-.371-.006-.548.044-.201.056-.373.172-.581.21-.136.024-.251-.017-.386-.016-.163.001-.293.063-.441.123-.252.103-.48.208-.758.16-.147-.026-.281-.083-.378-.201-.079-.097-.071-.227-.147-.325-.144-.187-.498-.148-.694-.02-.005.01-.007.018-.006.026.005.042.258-.046.464.27.162.249.192.371.369.503.477.358 1.22.036 1.713-.027.371-.046 1.046-.376 1.69-.396.956-.029.918.713 1.872.711.03 0 .058-.002.087-.002-.252-.038-.472-.135-.697-.258-.264-.144-.395-.424-.636-.595z"/><path d="m240.357 114.768c.673 0 1.521.434 2.179.635-.016-.008-.029-.014-.038-.019-.355-.222-.658-.505-1.053-.659-.343-.134-.709-.062-1.069-.092-.132-.011-.253-.067-.382-.095-.17-.037-.352-.045-.526-.02-.388.056-.767.13-1.106.338-.217.134-.44.227-.692.258-.244.031-.496.17-.707.287-.234.129-.47.211-.713.284 1.254-.235 2.205-.917 4.107-.917z"/><path d="m244.225 114.497c-.221-.036-.441-.065-.655-.088.092.072.295.126.393.149.176.04.532.201.324.418-.05.051-.122.065-.183.101-.07.041-.099.097-.148.157-.053.064-.164.139-.265.18.039-.01.078-.019.117-.029.943-.243 1.234-.814 1.179-.866-.055-.051-.519.018-.762-.022z"/></g><g fill="#fff" opacity=".3"><path d="m236.14 114.557c-.612-.099-1.092.062-1.638.139.352.137.502.603.895.693.563.129.822-.377 1.31-.495.122-.029.27-.039.39-.084.173-.067.32-.21.483-.29-.093.055-1.334.054-1.44.037z"/><path d="m232.68 114.509c-.235.038-.441.237-.697.216-.197-.016-.369-.068-.574-.031-.246.046-.43.268-.679.28-.142.006-.292.012-.373-.118-.045-.072-.077-.219-.162-.298.111-.019.234.015.353.05.127.037.235.024.364 0 .147-.028.282-.089.427-.132.209-.061.425-.122.644-.127.455-.009.602.122.697.16z"/></g><path d="m233.053 115.781s.849.847.951.838c.101-.008.728-.449.728-.449s-.518-.438-1.679-.389z" fill="#fff" opacity=".3"/><path d="m245.508 102.13-1.982-1.95-20.558 20.229 1.982 1.951z" fill="url(#aP)"/><path d="m67.9238 117.629c-8.7267 0-15.8008 6.961-15.8008 15.549 0 8.587 7.0741 15.548 15.8008 15.548 8.7268 0 15.8008-6.961 15.8008-15.548 0-8.588-7.074-15.549-15.8008-15.549zm0 28.533c-7.2874 0-13.1955-5.813-13.1955-12.984 0-7.172 5.9081-12.985 13.1955-12.985 7.2875 0 13.1955 5.814 13.1955 12.985s-5.908 12.984-13.1955 12.984z" fill="url(#aQ)"/><path d="m69.3088 119.294c-.2154-.212-2.5847-.272-2.7692 0-.1844.273 0 2.059 0 2.059h2.7692s.2155-1.847 0-2.059z" fill="url(#aR)"/><path d="m69.3088 119.294c-.106-.105-.7386-.172-1.3733-.181.1129.023.2017.037.2596.134.0695.116.0116 1.505-.0345 1.915-.0103.095.0854.153.2286.191h.9196s.2154-1.847 0-2.059z" fill="#be7c58" opacity=".5"/><path d="m69.4382 127.894v-4.815s.3978-.017.5045-.139c.1067-.121.1542-1.696 0-1.813-.1541-.118-3.8877-.19-4.0371 0-.1493.189-.1466 1.713 0 1.813.1466.101.5046.139.5046.139v4.815s-2.5634 1.18-2.5634 3.497v14.671c0 .611 2.1215 1.193 4.2003 1.181 1.9968-.012 3.9545-.594 3.9545-1.181 0-.999 0-13.399 0-14.671-.0007-2.317-2.5634-3.497-2.5634-3.497z" fill="url(#aS)"/><g fill="#be7c58" opacity=".3"><path d="m66.8452 120.889c.0833 0 .1508-.067.1508-.149 0-.081-.0675-.148-.1508-.148-.0832 0-.1507.067-.1507.148 0 .082.0675.149.1507.149z"/><path d="m68.3747 119.908c0 .082-.0675.148-.1508.148s-.1507-.066-.1507-.148.0674-.148.1507-.148.1508.066.1508.148z"/><path d="m67.4654 119.561c.0833 0 .1508-.067.1508-.149s-.0675-.148-.1508-.148c-.0832 0-.1507.066-.1507.148s.0675.149.1507.149z"/><path d="m67.2911 120.284c0 .038-.031.068-.0695.068-.0384 0-.0694-.03-.0694-.068s.031-.069.0694-.069c.0385 0 .0695.031.0695.069z"/><path d="m68.6058 119.469c0 .038-.031.068-.0694.068-.0385 0-.0695-.03-.0695-.068s.031-.068.0695-.068c.0384 0 .0694.03.0694.068z"/><path d="m69.2143 120.147c0 .038-.0309.068-.0694.068s-.0695-.03-.0695-.068.031-.068.0695-.068.0694.031.0694.068z"/><path d="m68.3684 120.843c.0384 0 .0695-.031.0695-.069s-.0311-.068-.0695-.068c-.0383 0-.0694.03-.0694.068s.0311.069.0694.069z"/><path d="m66.892 119.834c0 .073-.0599.132-.1335.132-.0737 0-.1336-.059-.1336-.132 0-.072.0599-.131.1336-.131.0736 0 .1335.059.1335.131z"/><path d="m67.9053 120.484c0 .072-.0599.131-.1336.131-.0736 0-.1335-.059-.1335-.131 0-.073.0599-.131.1335-.131.0744-.001.1336.058.1336.131z"/><path d="m69.209 119.503c0 .072-.0599.131-.1336.131-.0736 0-.1335-.059-.1335-.131 0-.073.0599-.131.1335-.131.0737 0 .1336.059.1336.131z"/><path d="m69.081 120.74c0 .073-.0599.132-.1336.132-.0736 0-.1335-.059-.1335-.132 0-.072.0599-.13.1335-.13.0744-.001.1336.058.1336.13z"/></g><path d="m66.0364 147.073c.6237.108 1.3161.174 2.0107.17 1.9969-.012 3.9545-.594 3.9545-1.181 0-.999 0-13.399 0-14.671 0-2.317-2.5634-3.497-2.5634-3.497v-4.815s.3979-.017.5046-.139c.1067-.121.1542-1.696 0-1.813-.1184-.091-2.3445-.154-3.4397-.093l.0014.009c.6257 0 2.0843-.004 2.2763.205.1735.188.1797 1.478-.0523 1.744-.2085.239-2.3183.087-2.3183.087v.374s1.3712-.034 1.5102.172c.1391.205.0868 4.309.0868 4.309s.9939.975.9939 3.54v14.77c0 .548-1.5646.863-2.9647.829z" fill="#593d20" opacity=".3"/><g fill="#f9c9df" opacity=".4"><path d="m66.7262 129.187c.8363.547-.9286 2.433-1.6266 2.075-1.0834-.555.5473-2.78 1.6266-2.075z"/><path d="m65.0507 132.162c.7682 0 .7675 2.946.7586 6.087-.0103 3.679-.3118 7.477-.7586 7.477-.1886 0-.3207-3.981-.3909-7.475-.0634-3.149.033-6.089.3909-6.089z"/><path d="m66.7502 121.28c.3738 0 .5583.342.5431.77-.0151.42-.1576.825-.5513.803-.2547-.014-.4412-.291-.4502-.763-.0069-.358.1005-.81.4584-.81z"/></g><path d="m79.1966 124.037-1.9819-1.95-20.5578 20.229 1.9819 1.951z" fill="url(#aT)"/><path d="m206.424 52.9099c-8.727 0-15.801 6.961-15.801 15.5484 0 8.5873 7.074 15.5484 15.801 15.5484s15.801-6.9611 15.801-15.5484c0-8.5874-7.074-15.5484-15.801-15.5484zm0 28.5331c-7.288 0-13.196-5.8137-13.196-12.9847 0-7.1717 5.908-12.9847 13.196-12.9847s13.195 5.8136 13.195 12.9847c0 7.171-5.908 12.9847-13.195 12.9847z" fill="url(#aU)"/><path d="m210.143 72.3849 1.544-2.1608-11.84-8.1927-1.544 2.1608z" fill="#ecd2bd"/><path d="m215.125 75.82 1.544-2.1609-5.348-3.6994-1.543 2.1608z" fill="#e1a35a"/><path d="m210.14 72.382.537-.7519-11.84-8.1927-.537.7519z" fill="#d2b29b"/><path d="m215.106 75.8174.537-.7519-5.347-3.7001-.537.7519z" fill="url(#aV)"/><path d="m198.303 64.1928 1.544-2.1608-1.671-1.1564-1.545 2.1609z" fill="#b4a398"/><path d="m198.308 64.1993.537-.7519-1.671-1.1563-.538.7519z" fill="#8d7e75"/><g fill="#8d7e75" opacity=".3"><path d="m198.974 62.411c.104.0718.249.0474.321-.0549.074-.1023.049-.2439-.055-.3163-.104-.0718-.249-.0474-.322.0548-.073.1023-.048.2439.056.3164z"/><path d="m197.199 63.1479c.104.0718.248.0474.321-.0549.074-.1023.048-.2438-.055-.3163-.104-.0718-.248-.0474-.322.0549-.074.1029-.049.2445.056.3163z"/><path d="m198.115 62.5037c.065.0448.154.0292.199-.0338.045-.0637.03-.1511-.034-.1958-.065-.0447-.154-.0291-.199.0339-.046.0637-.03.151.034.1957z"/><path d="m198.117 61.7119c.13.0894.307.059.398-.0684.091-.1273.06-.3021-.07-.3915-.128-.0894-.307-.0589-.397.0684-.091.1274-.06.3021.069.3915z"/><path d="m198.184 63.5144c.13.0894.307.0589.398-.0684.091-.1274.06-.3021-.069-.3916-.13-.0894-.307-.0589-.398.0685-.09.1266-.059.3021.069.3915z"/></g><path d="m198.116 60.2814c.017-2.7046 9.473-2.1411 9.498-6.3487.026-4.2077-10.366-2.9668-10.355-4.8701.012-1.9034 2.981-.275 3.01-4.9833-.019 3.0054-5.435 2.0639-5.453 4.969-.017 2.9052 8.435 2.4547 8.42 4.9589-.015 2.5041-5.101 3.2688-5.12 6.2742z" fill="#d2bfb5"/><path d="m217.696 59.315-1.982-1.9503-20.558 20.2294 1.982 1.9503z" fill="url(#aW)"/><path d="m270.308 235.673-50.142-.03c-3.943-.003-7.137-3.149-7.134-7.029l.03-49.341c.002-3.879 3.2-7.023 7.143-7.02l50.142.03c3.942.003 7.136 3.149 7.134 7.029l-.03 49.341c-.003 3.879-3.201 7.022-7.143 7.02z" fill="url(#aX)"/><path d="m251.306 200.479-12.097-.008c-.175 0-.317-.14-.317-.312v-.331c0-.172.143-.312.317-.312l12.097.008c.175 0 .318.14.318.312v.33c0 .173-.143.313-.318.313z" fill="#360d82" opacity=".2"/><path d="m251.303 206.399-12.097-.007c-.175 0-.317-.14-.317-.312v-.331c0-.172.142-.312.317-.311l12.097.006c.175 0 .317.141.317.313v.33c0 .173-.142.313-.317.312z" fill="#360d82" opacity=".2"/><path d="m251.299 212.321-12.097-.007c-.176 0-.317-.14-.317-.312v-.331c0-.172.141-.312.317-.312l12.097.007c.175 0 .317.141.317.313v.33c0 .172-.142.312-.317.312z" fill="#360d82" opacity=".2"/><path d="m251.295 218.241-12.097-.006c-.175 0-.317-.141-.317-.313v-.33c0-.172.143-.312.317-.312l12.097.006c.176 0 .318.14.318.313v.33c0 .173-.142.312-.318.312z" fill="#360d82" opacity=".2"/><path d="m270.346 172.283-50.142-.03c-3.942-.002-7.14 3.141-7.143 7.02l-.03 49.341c-.003 3.879 3.191 7.026 7.134 7.029l50.142.03c3.942.002 7.14-3.141 7.143-7.02l.03-49.341c.003-3.88-3.191-7.027-7.134-7.029zm2.406 52.766c-.002 3.313-2.734 5.998-6.1 5.996l-42.825-.025c-3.366-.002-6.094-2.69-6.092-6.003l.025-42.14c.002-3.313 2.733-5.997 6.1-5.995l7.542.005-.007 12.318c-.001 1.177.968 2.13 2.163 2.131l23.411.013c1.195.001 2.165-.952 2.166-2.128l.007-12.318 7.543.005c3.366.002 6.094 2.689 6.092 6.002z" fill="#360d82" opacity=".3"/><g fill="#360d82" opacity=".3"><path d="m236.303 200.78c2.282 3.658-3.587 9.038-2.767 14.804.483 3.397 3.59 6.082 4.648 8.427 1.724 3.823-4.477 7.066-6.916 3.213-1.392-2.198-2.507-6.156-3.677-9.134-1.914-4.871-5.123-8.563-4.208-12.314 1.135-4.657 11.152-7.832 12.92-4.996z"/><path d="m234.889 198.492c2.336.29 3.964-4.499.791-4.992-3.172-.492-3.242 4.688-.791 4.992z"/><path d="m231.146 198.407c1.698-.317 1.591-4.006-.74-3.644-2.332.363-1.041 3.978.74 3.644z"/><path d="m227.939 199.608c1.574-.435 1.131-3.911-1.037-3.382-2.168.527-.615 3.839 1.037 3.382z"/><path d="m224.937 201.623c1.489-.412 1.07-3.699-.98-3.199-2.05.499-.581 3.631.98 3.199z"/><path d="m222.591 203.576c1.134-.504.35-3.084-1.221-2.443-1.572.641.031 2.972 1.221 2.443z"/><path d="m254.226 200.775c-2.324 3.635 3.483 9.073 2.597 14.83-.523 3.392-3.659 6.045-4.744 8.38-1.769 3.806 4.395 7.111 6.878 3.283 1.417-2.185 2.577-6.131 3.782-9.098 1.97-4.851 5.22-8.51 4.349-12.27-1.082-4.668-11.062-7.944-12.862-5.125z"/><path d="m255.666 198.501c-2.339.266-3.912-4.538-.734-5 3.177-.46 3.188 4.72.734 5z"/><path d="m259.409 198.453c-1.694-.334-1.544-4.022.782-3.636 2.328.386.996 3.988-.782 3.636z"/><path d="m262.603 199.686c-1.569-.451-1.086-3.922 1.076-3.372s.57 3.846-1.076 3.372z"/><path d="m265.581 201.731c-1.483-.427-1.027-3.708 1.018-3.188 2.043.519.538 3.635-1.018 3.188z"/><path d="m267.905 203.708c-1.128-.515-.315-3.087 1.249-2.431s-.065 2.972-1.249 2.431z"/></g><path d="m270.346 172.283-50.142-.03c-3.942-.002-7.14 3.141-7.143 7.02l-.03 49.341c-.003 3.879 3.191 7.026 7.134 7.029l50.142.03c3.942.002 7.14-3.141 7.143-7.02l.03-49.341c.003-3.88-3.191-7.027-7.134-7.029zm4.606 54.454c-.002 3.578-2.951 6.477-6.588 6.475l-46.251-.027c-3.637-.002-6.583-2.905-6.581-6.483l.028-45.513c.002-3.578 2.952-6.477 6.588-6.475l46.252.027c3.636.002 6.583 2.905 6.58 6.484z" fill="#d9d9d9"/><path d="m271.459 177.85c-1.113-1.01-2.599-1.628-4.232-1.629l-43.908-.026c-3.452-.002-6.253 2.75-6.255 6.148l-.026 43.207c-.001 1.607.625 3.07 1.65 4.166z" fill="url(#aY)" opacity=".2"/><path d="m255.585 189.979-20.641-.012c-1.079-.001-1.954-.862-1.953-1.924l.009-14.011 24.549.014-.008 14.012c-.002 1.061-.877 1.921-1.956 1.921z" fill="#d9d9d9"/><path d="m255.309 176.491h-20.08v10.954h20.08z" fill="#544443"/><path d="m254.265 177.516h-17.991v8.904h17.991z" fill="#fff"/><path d="m245.599 181.519.002-3.24-.834-.001-.002 3.24z" fill="#544443"/><path d="m238.2 181.514.002-3.24h-.834l-.002 3.24z" fill="#544443"/><path d="m253.173 181.523.002-3.239-.834-.001-.002 3.24z" fill="#544443"/><path d="m240.597 179.861.001-1.585h-.521l-.001 1.584z" fill="#544443"/><path d="m242.891 179.862.002-1.584-.522-.001-.001 1.585z" fill="#544443"/><path d="m248.083 179.865.002-1.585h-.521l-.002 1.584z" fill="#544443"/><path d="m250.377 179.866.002-1.584h-.521l-.002 1.584z" fill="#544443"/><path d="m270.346 172.283-50.142-.03c-3.942-.002-7.14 3.141-7.143 7.02l-.03 49.341c-.003 3.879 3.191 7.026 7.134 7.029l50.142.03c3.942.002 7.14-3.141 7.143-7.02l.03-49.341c.003-3.88-3.191-7.027-7.134-7.029zm6.346 55.789c-.002 3.788-3.125 6.856-6.974 6.854l-48.961-.029c-3.85-.002-6.969-3.075-6.966-6.863l.029-48.179c.002-3.788 3.125-6.858 6.975-6.855l48.962.029c3.85.002 6.968 3.075 6.966 6.863z" fill="#d9d9d9"/><path d="m243.105 185.021c.188.177.424.335.745.335.356 0 .621-.222.622-.602-.001-.376-.236-.588-.592-.587-.206 0-.322.053-.512.177l-.273-.172.097-1.552h1.705l-.002.481-1.204-.002-.066.761c.138-.063.257-.102.424-.102.548-.001 1.002.306 1.001.983.001.688-.537 1.083-1.124 1.083-.517-.001-.855-.205-1.088-.437z" fill="#544443"/><path d="m245.684 185.022c.189.178.423.336.748.334.356 0 .618-.221.619-.601-.001-.375-.235-.588-.586-.587-.208-.001-.322.052-.517.178l-.274-.172.1-1.554h1.705l-.002.481-1.208-.002-.065.762c.14-.064.262-.104.426-.103.546 0 1.003.307 1.001.983.001.688-.539 1.083-1.124 1.083-.52 0-.855-.205-1.091-.437z" fill="#544443"/><path d="m145.39 221.77c.008-7.555-4.953-13.677-11.129-13.857v-.027h-.212c-.017 0-.033-.006-.05-.006s-.033.006-.05.006l-5.009-.005-.002 1.493c-3.751 2.271-6.356 6.929-6.362 12.372-.006 5.442 2.588 10.107 6.334 12.386l-.001 1.501 5.322.005v-.034c6.176-.167 11.151-6.279 11.159-13.834z" fill="url(#aZ)"/><path d="m128.91 234.131-.001 1.501 5.322.006v-.034c5.016-.136 9.191-4.221 10.605-9.789-1.542 1.28-3.271 1.198-5.151-.002l-16.602-.006c.924 3.645 3.056 6.64 5.827 8.324z" fill="url(#a0)" opacity=".2"/><path d="m140.125 221.765c-.008 7.665-5.123 13.873-11.423 13.866s-11.4-6.226-11.392-13.891 5.123-13.873 11.423-13.866 11.401 6.226 11.392 13.891z" fill="url(#a1)"/><path d="m132.778 234.682-1.108-13.424-9.067.725 1.001 12.116c1.539.946 3.255 1.53 5.098 1.532 1.441.001 2.806-.357 4.076-.949z" fill="url(#a2)" opacity=".3"/><path d="m117.697 222.651c.008-7.665 5.123-13.873 11.423-13.866 4.453.005 8.267 3.145 10.14 7.675-1.708-5.033-5.772-8.581-10.527-8.586-6.3-.007-11.415 6.201-11.423 13.866-.003 2.247.475 4.338 1.252 6.216-.555-1.635-.867-3.425-.865-5.305z" fill="url(#a3)" opacity=".3"/><path d="m131.659 221.82c.002-2.646-1.868-4.792-4.184-4.813v-.002h-.012c-.006 0-.012-.002-.018-.002-.004 0-.007.002-.009.002l-19.531-.021-.011 9.625 19.57.021v-.008c2.316-.018 4.192-2.156 4.195-4.802z" fill="#7b6f72"/><path d="m119.089 221.806c.009-7.63-5.384-13.818-12.061-13.881v-.004h-.034c-.019 0-.036-.006-.054-.006-.019 0-.036.006-.055.006l-5.18-.006-.001 1.394c-4.0893 2.232-6.9391 6.954-6.9453 12.471s2.8326 10.245 6.9173 12.486l-.002 1.401 5.323.006v-.012c6.677-.048 12.084-6.225 12.092-13.855z" fill="url(#a4)"/><path d="m101.676 234.266-.002 1.401 5.323.006v-.012c5.451-.039 10.001-4.19 11.513-9.854-1.082 1.196-3.947 1.321-5.542-.002l-17.6869-.007c.9961 3.737 3.3467 6.796 6.3949 8.468z" fill="url(#a5)" opacity=".2"/><path d="m113.475 221.8c-.009 7.665-5.462 13.872-12.181 13.865-6.7191-.007-12.1583-6.226-12.1501-13.891.009-7.665 5.462-13.873 12.1811-13.865 6.719.007 12.158 6.226 12.15 13.891z" fill="url(#a6)"/><path d="m107.18 222.492c-.004 3.579-2.55 6.477-5.687 6.474-3.1371-.004-5.677-2.907-5.6736-6.487.0041-3.579 2.5503-6.477 5.6876-6.474 3.138.005 5.678 2.908 5.673 6.487z" fill="url(#a7)" opacity=".3"/><path d="m106.691 221.793c-.004 3.39-2.416 6.136-5.388 6.133-2.9725-.003-5.3789-2.755-5.3748-6.146.0035-3.39 2.4161-6.136 5.3888-6.133 2.972.003 5.378 2.755 5.374 6.146z" fill="#7b6f72"/><path d="m90.3789 223.324c.0082-7.665 5.4619-13.872 12.1811-13.866 3.189.004 6.067 1.438 8.234 3.732-2.225-3.19-5.616-5.277-9.468-5.281-6.7194-.008-12.1724 6.2-12.1813 13.865-.0049 4.025 1.5178 7.621 3.9145 10.159-1.6554-2.374-2.6845-5.34-2.6803-8.609z" fill="url(#a8)" opacity=".3"/><g fill="#000" opacity=".5"><path d="m103.154 217.194c1.462 2.307-3.7628 3.386-4.5702 2.185-1.2514-1.864 3.2942-4.199 4.5702-2.185z"/><path d="m98.0042 220.268c1.5522.578-.0282 2.446-.7627 2.147-1.1392-.464-.4536-2.6.7627-2.147z"/></g><path d="m222.766 235.484c8.047-.804 16.037-2.269 23.845-4.352 2.671.875 8.03 2.533 8.683 1.97.874-.753-3.124-2.5-3.124-2.5s8.682 1.797 9.337 1.091-4.31-2.383-4.31-2.383 11.168 1.353 11.774.475c.605-.878-6.017-2.392-6.017-2.392s13.073.918 13.295-.043-3.85-1.633-3.85-1.633 6.991-2.003 6.843-2.952c-.147-.949-7.921.898-7.921.898s3.22-2.7 2.208-3.223c-1.011-.523-6.622 3.296-6.622 3.296s2.3-3.053 1.287-3.544c-1.014-.49-7.554 4.888-7.554 4.888s2.624-4.143 1.89-4.532c-.733-.389-6.572 4.765-6.572 4.765s2.15-3.37 1.358-3.827c-.793-.457-6.127 4.739-6.127 4.739s1.7-2.194.78-2.795c-.716-.467-4.459 4.135-6.091 6.208-7.625 2.018-15.426 3.437-23.279 4.224z" fill="url(#ba)"/><path d="m222.691 234.758.076.727c8.046-.805 16.036-2.27 23.844-4.352 2.671.875 8.03 2.533 8.683 1.97.874-.753-3.124-2.501-3.124-2.501s8.682 1.797 9.337 1.091c.655-.705-4.31-2.382-4.31-2.382s11.169 1.353 11.774.475-6.017-2.392-6.017-2.392 13.073.917 13.295-.044c.222-.96-3.85-1.633-3.85-1.633s6.991-2.003 6.843-2.952c0 0-19.402 4.316-34.61 8.097-10.882 2.706-18.484 3.603-21.941 3.896z" fill="#9cb702" opacity=".4"/><path d="m279.13 240.486c.711-.572-1.943-3.574-1.943-3.574s6.579 4.201 7.243 3.705c.664-.495-2.581-4.189-2.581-4.189s7.308 4.316 8.232 3.678c.925-.639-4.219-4.443-4.219-4.443s8.534 4.056 9.451 3.384c.918-.67-2.689-2.848-2.689-2.848s7.971.64 7.967-.319c-.003-.96-7.225-1.873-7.225-1.873s3.917-1.285 3.546-2.2c-.371-.916-13.141 1.983-13.141 1.983s6.303-2.505 5.567-3.281c-.736-.774-11.557 2.264-11.557 2.264s4.64-2.413 3.883-3.01c-.758-.597-9.053 2.501-9.053 2.501s3.675-2.336 2.693-2.946c-.815-.506-6.914 2.568-8.979 3.635-6.617-.199-12.794.079-18.837.363-8.042.378-15.64.735-23.912-.026l-.154 1.625c8.389.772 16.043.412 24.146.03 6.232-.292 12.598-.586 19.444-.343 2.105 1.931 5.944 5.305 6.53 4.777.815-.734-1.209-2.642-1.209-2.642s6.086 4.321 6.797 3.749z" fill="url(#bb)"/><path d="m279.13 240.486c.711-.572-1.943-3.574-1.943-3.574s6.579 4.201 7.243 3.705c.664-.495-2.581-4.189-2.581-4.189s7.308 4.316 8.232 3.678c.925-.639-4.219-4.443-4.219-4.443s8.534 4.056 9.451 3.384c.918-.67-2.689-2.848-2.689-2.848s7.971.64 7.967-.319c-6.837-.784-21.967-2.034-35.234-2.262-13.267-.227-22.667.912-29.991.899-4.721-.008-9.258-.072-11.895-.118l-.049.516c8.389.772 16.043.412 24.146.03 6.232-.292 12.598-.586 19.444-.343 2.105 1.931 5.944 5.305 6.53 4.777.815-.734-1.209-2.642-1.209-2.642s6.086 4.321 6.797 3.749z" fill="#9cb702" opacity=".4"/><path d="m255.238 245.893c.624-.266-.558-3.212-.558-3.212s3.743 3.732 4.551 3.409c.802-.321-1.373-3.437-1.373-3.437s4.195 3.578 4.969 3.246c.77-.33-.667-2.077-.667-2.077s4.448 1.214 4.785.63c.343-.591-3.55-1.998-3.55-1.998s2.822-.371 2.945-1.024c.124-.666-9.349-.419-9.349-.419s5.284-.896 5.08-1.572c-.208-.693-9.405-.174-9.405-.174s4.515-1.106 4.146-1.724c-.377-.633-8.49.337-8.49.337s4.038-1.264 3.39-2.003c-.485-.553-5.822.478-8.728 1.087-7.268-1.906-14.907-2.237-22.331-.909l.297 1.606c6.949-1.242 14.091-.975 20.916.712 1.428 1.891 4.474 5.77 5.172 5.425.915-.453-.318-2.238-.318-2.238s3.881 4.032 4.608 3.704c.725-.327-.474-2.854-.474-2.854s3.756 3.753 4.384 3.485z" fill="url(#bc)"/><path d="m255.238 245.893c.624-.266-.558-3.212-.558-3.212s3.743 3.732 4.551 3.409c.802-.321-1.373-3.437-1.373-3.437s4.195 3.578 4.969 3.246c.77-.33-.667-2.077-.667-2.077s4.067 1.108 4.711.691c-2.861-.888-20.728-6.393-26.948-7.404-6.432-1.045-13.229-1.216-19.109-.191l.137.742c6.949-1.243 14.091-.975 20.916.711 1.428 1.891 4.474 5.771 5.172 5.425.915-.452-.318-2.238-.318-2.238s3.881 4.032 4.608 3.705c.724-.327-.474-2.855-.474-2.855s3.755 3.753 4.383 3.485z" fill="#9cb702" opacity=".4"/><path d="m169.32 236.337c.046-3.441 31.342-10.226 40.067-10.759 8.726-.534 20.952-.793 21.611 8.779.694 10.071-14.029 10.856-21.65 10.012s-40.077-4.375-40.028-8.032z" fill="url(#bd)"/><g fill="#ffe299" opacity=".4"><path d="m225.97 231.132c-.358 6.963-17.386 2.854-17.038-.473.541-5.159 17.318-4.985 17.038.473z"/><path d="m206.936 230.205c.284 4.246-7.886 2.733-7.939.694-.084-3.162 7.716-4.023 7.939-.694z"/></g><path d="m230.998 234.357c-.296-4.301-2.937-6.608-6.538-7.806 1.94 1.119 3.271 2.846 3.464 5.518.6 8.278-11.789 8.901-18.204 8.195-6.414-.706-33.734-3.659-33.698-6.665.005-.42.6-.9 1.616-1.413-4.88 1.517-8.302 3.015-8.318 4.15-.049 3.658 32.407 7.189 40.028 8.033s22.344.059 21.65-10.012z" fill="#db7301" opacity=".3"/><g fill="#db7301" opacity=".5"><path d="m223.338 236.691c-.007-.177.18-.427.417-.427.228 0 .413.183.413.409v.018c0 .63.069 1.285.138 1.919.085.801.174 1.639.128 2.438-.012.226-.209.398-.436.384-.229-.012-.434-.21-.39-.429.043-.742-.039-1.502-.126-2.308-.071-.653-.144-1.331-.144-2.004z"/><path d="m212.32 234.718c0-1.351.132-2.653.4-3.736.054-.219.276-.353.499-.3.223.052.358.274.305.492-.583 2.381-.48 5.872.257 8.501.065.214-.07.441-.29.501-.219.061-.449-.067-.509-.285-.437-1.555-.662-3.405-.662-5.173z"/><path d="m201.842 239.162c0-.387.02-.774.038-1.144.019-.34.036-.669.036-.975 0-.225.186-.408.415-.408s.415.183.415.408c0 .32-.018.663-.037 1.016-.051 1.045-.108 2.124.265 2.888.099.199.014.446-.193.544-.206.098-.454.013-.553-.191-.311-.629-.386-1.384-.386-2.138z"/><path d="m192.058 234.821c0-1.58.219-3.115.479-4.532.042-.221.257-.368.484-.329.225.041.363.259.334.476-.508 2.76-.86 5.993.375 9.022.085.212-.02.448-.231.532-.213.084-.455-.018-.54-.227-.666-1.638-.901-3.313-.901-4.942z"/><path d="m184.501 238.373.005-2.856c0-.226.186-.408.415-.408s.415.182.415.408l-.005 2.856c0 .225-.186.408-.415.408s-.415-.183-.415-.408z"/><path d="m217.681 232.175c0-.021.001-.044.006-.067.127-.751.121-1.569.108-2.431-.011-1.17-.024-2.39.33-3.474.07-.215.304-.332.522-.264.218.07.338.302.268.514-.315.958-.299 2.115-.29 3.215.011.865.018 1.753-.121 2.574-.037.222-.25.373-.477.335-.202-.034-.346-.206-.346-.402z"/></g><path d="m104.564 118.053c27.922-10.016 24.299-30.8932 12.114-32.0048-4.134-.3772-8.826.9063-12.114 7.4989h-.283c-3.437-6.894-8.3411-8.1193-12.5324-7.4277-11.6267 1.9168-14.3773 22.1366 12.5324 31.9336z" fill="url(#be)"/><path d="m116.678 86.0482c-.743-.0677-1.504-.0819-2.272-.021.051.0041.102.0082.154.0129 11.173 1.0187 14.495 20.1629-11.109 29.3479h-.259c-22.5291-8.202-22.3866-24.3708-14.0783-28.4599-9.2424 4.31-9.5666 22.1199 15.1673 31.1249h.283c27.922-10.017 24.299-30.8939 12.114-32.0048z" fill="#91001b" opacity=".3"/><path d="m103.205 113.544c-.301 0-.57-.193-.658-.48l-3.0443-9.863-.7716 1.79c-.108.25-.3572.412-.6333.412h-15.9584c-.38 0-.6884-.303-.6884-.677s.3084-.677.6884-.677h15.5021l1.3347-3.096c.1129-.262.382-.431.6704-.412.2891.015.5374.207.6224.48l2.698 8.744 2.066-14.0057c.046-.3129.306-.5534.627-.5784.321-.0224.616.1727.712.4741l3.085 9.771.368-.944c.103-.261.358-.434.643-.434h16.551c.38 0 .688.303.688.677s-.308.678-.688.678h-16.079l-.91 2.33c-.106.269-.375.437-.665.434-.294-.01-.548-.201-.635-.476l-2.771-8.7773-2.073 14.0503c-.046.313-.308.554-.63.578-.017.002-.034.002-.051.002z" fill="#fff"/><path d="m103.648 61.3211s-2.238 4.1799-6.8229 4.2388c-4.585.059-9.7985-4.0254-9.7985-4.0254s5.6761-4.2239 9.6884-4.2754c4.012-.0522 6.933 4.062 6.933 4.062z" fill="url(#bf)"/><path d="m103.648 61.3211s-4.1521 1.2328-7.5077-2.3551c-3.3564-3.5879-4.658-10.6512-4.658-10.6512s6.6686 1.4583 9.6047 4.5978c2.938 3.1395 2.561 8.4085 2.561 8.4085z" fill="url(#bg)"/><path d="m103.864 61.3184s4.183 1.1258 7.443-2.5475c3.26-3.6732 4.374-10.767 4.374-10.767s-6.628 1.629-9.481 4.843c-2.852 3.214-2.336 8.4715-2.336 8.4715z" fill="url(#bh)"/><path d="m103.648 61.3211s-3.6648-2.5746-3.7343-7.8172 3.4823-11.187 3.4823-11.187 3.717 6.5066 3.778 11.0942c.06 4.5863-3.526 7.91-3.526 7.91z" fill="url(#bi)"/><path d="m103.836 61.1003s2.238-4.1799 6.823-4.2388 9.798 4.0255 9.798 4.0255-5.676 4.2239-9.688 4.2753c-4.012.0515-6.933-4.062-6.933-4.062z" fill="url(#bj)"/><path d="m101.937 61.8542c-1.596 0-3.9823-.4484-6.0501-2.6593-3.3845-3.6183-4.6896-10.5272-4.7433-10.8198l-.0923-.502.506.1104c.2767.0603 6.809 1.518 9.7837 4.6995 3.003 3.2099 2.666 8.4397 2.65 8.6611l-.016.2331-.227.0677c-.018.0054-.735.2093-1.811.2093zm-10.0073-13.0815c.373 1.6818 1.7346 7.0457 4.4638 9.9637 2.7568 2.9471 6.0215 2.5095 6.9215 2.3172.027-1.0553-.031-5.2941-2.48-7.9121-2.3606-2.5224-7.2933-3.9543-8.9053-4.3688z" fill="url(#bk)"/><path d="m105.37 61.8108c-.955 0-1.581-.1612-1.597-.1652l-.23-.0617-.022-.2323c-.022-.2208-.497-5.4404 2.42-8.7269 2.89-3.256 9.381-4.8809 9.656-4.9487l.502-.1239-.079.5039c-.046.294-1.167 7.234-4.455 10.9384-2.101 2.368-4.604 2.8164-6.195 2.8164zm-1.18-.7681c.904.1694 4.18.5222 6.858-2.4946 2.652-2.9885 3.869-8.3835 4.198-10.0748-1.601.4558-6.495 2.015-8.787 4.5964-2.381 2.6836-2.324 6.9197-2.269 7.973z" fill="url(#bl)"/><path d="m110.632 62.6968c-4.303.0555-7.151-1.5924-7.151-1.5924s2.885 4.4149 7.187 4.36c4.303-.0555 10.391-4.5856 10.391-4.5856s-6.124 1.7631-10.427 1.818z" fill="url(#bm)" opacity=".2"/><path d="m97.0702 62.9786c4.1758-.0095 6.8968-1.6995 6.8968-1.6995s-2.684 4.4949-6.8603 4.4671c-5.4324-.0366-10.2012-4.4284-10.2012-4.4284s5.9886 1.6703 10.1647 1.6608z" fill="url(#bn)" opacity=".2"/><path d="m113.965 55.072c-3.5-.1775-5.629.7769-5.629.7769.837-2.2346.527-4.6371.388-5.4256-.519.3069-1.02.6374-1.484.9923.136.7309.219 1.4462.228 2.1228.021 1.5498-.344 2.9655-.855 4.1799 1.059-.6353 2.374-1.1115 3.947-1.1311.828-.0109 1.674.1056 2.509.3054.329-.5872.627-1.2009.896-1.8206z" fill="url(#bo)" opacity=".2"/><path d="m110.693 65.501c-4.104 0-7.016-4.0342-7.139-4.207l-.12-.1693.098-.1822c.095-.1781 2.387-4.3587 7.123-4.4197.034 0 .069-.0006.104-.0006 4.627 0 9.698 3.9313 9.913 4.0999l.347.2716-.354.2635c-.235.1755-5.814 4.2917-9.891 4.3438-.027 0-.055 0-.081 0zm-6.445-4.4244c.598.7593 3.189 3.7694 6.517 3.7471 3.277-.042 7.799-3.025 9.113-3.9422-1.25-.8995-5.504-3.722-9.214-3.682-3.793.0494-5.929 3.0948-6.416 3.8771z" fill="url(#bp)"/><path d="m100.038 51.5653c-.5538-.4267-1.1692-.8141-1.8114-1.163l-.0337.0014c-.2382 2.8022.7179 5.7019.7179 5.7019-2.3328-1.1888-5.3498-.3827-5.3498-.3827l.0372.1104c.3049.6096.6415 1.2036 1.0105 1.759.7255-.2011 1.4393-.3251 2.1063-.3339 1.683-.0217 3.1732.6896 4.337 1.5227l.165.0264.004-.3536c-.697-1.2415-1.2798-2.8895-1.3073-4.95-.0082-.6401.0372-1.2903.1243-1.9386z" fill="url(#bq)" opacity=".2"/><path d="m96.726 65.8993c-4.627 0-9.698-3.9313-9.9134-4.1l-.347-.2716.3538-.2635c.2355-.1754 5.8138-4.2916 9.8922-4.3438 4.1304-.0508 7.0954 4.0329 7.2184 4.207l.121.1693-.098.1822c-.095.1782-2.387 4.3588-7.123 4.4197-.0345 0-.0696.0007-.104.0007zm-9.1198-4.3594c1.2397.8914 5.4172 3.6821 9.1212 3.6821.031 0 .0626 0 .0936-.0007 3.792-.0488 5.929-3.0941 6.415-3.8765-.594-.7538-3.158-3.747-6.4467-3.747-.0234 0-.0461 0-.0695.0006-3.2758.0414-7.7995 3.0244-9.1136 3.9415z" fill="url(#br)"/><path d="m103.678 61.758-.23-.1619c-.155-.109-3.8076-2.7358-3.8785-8.0888-.0702-5.2765 3.3825-11.1172 3.5295-11.3631l.303-.508.293.5134c.154.2689 3.761 6.6346 3.822 11.2554.062 4.6825-3.483 8.0218-3.634 8.1613zm-.287-18.7326c-.847 1.5674-3.189 6.2858-3.133 10.4738.056 4.2578 2.58 6.7084 3.362 7.3654.749-.7871 3.259-3.7051 3.209-7.4501-.048-3.6908-2.563-8.7411-3.438-10.3891z" fill="url(#bs)"/></svg>