<svg fill="none" height="289" viewBox="0 0 289 289" width="289" xmlns="http://www.w3.org/2000/svg" xmlns:xlink="http://www.w3.org/1999/xlink"><linearGradient id="a"><stop offset="0" stop-color="#1effd7"/><stop offset="1" stop-color="#008080"/></linearGradient><linearGradient id="b" gradientUnits="userSpaceOnUse" x1="145.872" x2="145.872" xlink:href="#a" y1="20.307" y2="269.613"/><linearGradient id="c" gradientUnits="userSpaceOnUse" x1="244.782" x2="244.782" xlink:href="#a" y1="174.141" y2="197.618"/><linearGradient id="d" gradientUnits="userSpaceOnUse" x1="252.181" x2="252.181" xlink:href="#a" y1="113.747" y2="139.626"/><linearGradient id="e" gradientUnits="userSpaceOnUse" x1="255.412" x2="255.412" xlink:href="#a" y1="113.713" y2="139.443"/><linearGradient id="f" gradientUnits="userSpaceOnUse" x1="253.819" x2="253.819" xlink:href="#a" y1="117.365" y2="126.313"/><linearGradient id="g" gradientUnits="userSpaceOnUse" x1="252.206" x2="252.206" xlink:href="#a" y1="126.688" y2="130.981"/><linearGradient id="h" gradientUnits="userSpaceOnUse" x1="252.97" x2="252.97" xlink:href="#a" y1="133.729" y2="136.85"/><linearGradient id="i" gradientUnits="userSpaceOnUse" x1="223.675" x2="223.675" xlink:href="#a" y1="60.5276" y2="65.0301"/><linearGradient id="j" gradientUnits="userSpaceOnUse" x1="153.25" x2="153.25" xlink:href="#a" y1="39.4283" y2="59.8676"/><linearGradient id="k" gradientUnits="userSpaceOnUse" x1="78.1796" x2="78.1796" xlink:href="#a" y1="60" y2="75.9157"/><linearGradient id="l" gradientUnits="userSpaceOnUse" x1="78.6709" x2="78.6709" xlink:href="#a" y1="69.1802" y2="87.0404"/><linearGradient id="m" gradientUnits="userSpaceOnUse" x1="39.0362" x2="39.0362" xlink:href="#a" y1="105.85" y2="122.626"/><linearGradient id="n" gradientUnits="userSpaceOnUse" x1="34.3609" x2="34.3609" xlink:href="#a" y1="108.269" y2="110.616"/><linearGradient id="o" gradientUnits="userSpaceOnUse" x1="39.8733" x2="39.8733" xlink:href="#a" y1="111.541" y2="122.213"/><linearGradient id="p" gradientUnits="userSpaceOnUse" x1="57.6208" x2="57.6208" xlink:href="#a" y1="172.258" y2="198.504"/><linearGradient id="q" gradientUnits="userSpaceOnUse" x1="170.008" x2="170.008" xlink:href="#a" y1="117.017" y2="165.053"/><linearGradient id="r" gradientUnits="userSpaceOnUse" x1="122.318" x2="122.318" xlink:href="#a" y1="113.942" y2="177.793"/><path d="m270.251 68.9612c-.915-1.5531-1.876-3.0767-2.882-4.5679-13.4-19.852-36.455-33.4304-59.136-39.5688-9.933-2.6882-20.19-4.0974-30.467-4.4459-67.403-2.2849-94.2502 50.8379-116.5275 64.5469-22.2772 13.709-56.55032 37.1295-54.26549 86.2535s37.70009 95.392 106.24599 98.248c68.545 2.856 73.115-27.989 111.386-39.414 25.327-7.56 43.322-33.096 52.134-56.695 12.008-32.161 11.443-73.9349-6.488-104.3568z" fill="url(#b)"/><path d="m270.251 68.9612c-.915-1.5531-1.876-3.0767-2.882-4.5679-13.4-19.852-36.455-33.4304-59.136-39.5688-9.933-2.6882-20.19-4.0974-30.467-4.4459-67.403-2.2849-94.2502 50.8379-116.5275 64.5469-22.2772 13.709-56.55032 37.1295-54.26549 86.2535s37.70009 95.392 106.24599 98.248c68.545 2.856 73.115-27.989 111.386-39.414 25.327-7.56 43.322-33.096 52.134-56.695 12.008-32.161 11.443-73.9349-6.488-104.3568z" fill="#fff" fill-opacity=".19" opacity=".7"/><path d="m248.69 26.2707c-1.471-1.526-4.024-2.9305-8.451-3.0386-9.951-.2427-7.281 6.7967-9.951 8.4955-2.67 1.6987-3.398-.9711-6.068.7282-2.67 1.6988-1.456 5.0974-3.641 5.5829-2.184.4856-5.097-2.1842-7.767-.4855-2.67 1.6988-2.67 3.1553-3.884 3.1553-1.213 0-3.64-.971-5.096 0-1.457.9711-3.156 2.1843-3.156 2.1843h26.062" stroke="#263238" stroke-linecap="round" stroke-linejoin="round" stroke-miterlimit="10"/><path d="m251.431 30.6161c-.237-.1151-.488-.2301-.754-.3451 0 0-.084-1.1716-.894-2.5594" stroke="#263238" stroke-linecap="round" stroke-linejoin="round" stroke-miterlimit="10"/><path d="m230.076 42.8928h32.009s.728-2.1843-1.942-3.6409c-2.67-1.4559-3.884-.2427-4.854-1.4559-.865-1.0809 1.928-3.7015-2.593-6.4904" stroke="#263238" stroke-linecap="round" stroke-linejoin="round" stroke-miterlimit="10"/><path d="m71.9252 36.44c-.5711-.5924-1.5624-1.1375-3.2808-1.1797-3.8633-.0942-2.8269 2.6386-3.8633 3.2981s-1.319-.3769-2.3554.2826c-1.0363.6595-.5652 1.9785-1.4132 2.1675-.8479.1884-1.9785-.8479-3.0148-.1884-1.0364.6595-1.0364 1.2248-1.5074 1.2248-.4711 0-1.4132-.3769-1.9785 0-.5653.3768-1.2248.8479-1.2248.8479h10.1167" stroke="#263238" stroke-linecap="round" stroke-linejoin="round" stroke-miterlimit="10"/><path d="m72.9887 38.1272c-.0919-.0445-.1896-.0896-.2931-.1341 0 0-.0323-.4549-.3473-.9936" stroke="#263238" stroke-linecap="round" stroke-linejoin="round" stroke-miterlimit="10"/><path d="m64.699 42.8928h12.4259s.2826-.8479-.7537-1.4132c-1.0364-.5653-1.5075-.0942-1.8843-.5653-.3358-.4196.7485-1.4369-1.0063-2.5195" stroke="#263238" stroke-linecap="round" stroke-linejoin="round" stroke-miterlimit="10"/><path d="m211.148 20.393c-.571-.5925-1.562-1.1375-3.281-1.1797-3.863-.0942-2.827 2.6386-3.863 3.2981-1.036.6594-1.319-.3769-2.355.2826-1.037.6595-.566 1.9785-1.414 2.1669s-1.978-.8479-3.015-.1884c-1.036.6595-1.036 1.2248-1.507 1.2248-.472 0-1.414-.3769-1.979 0-.565.3768-1.225.8479-1.225.8479h10.117" stroke="#263238" stroke-linecap="round" stroke-linejoin="round" stroke-miterlimit="10"/><path d="m212.212 22.0796c-.092-.0445-.189-.0896-.293-.1341 0 0-.032-.4549-.347-.9936" stroke="#263238" stroke-linecap="round" stroke-linejoin="round" stroke-miterlimit="10"/><path d="m203.922 26.8452h12.426s.282-.8479-.754-1.4132-1.507-.0942-1.884-.5653c-.336-.4196.748-1.4369-1.007-2.5195" stroke="#263238" stroke-linecap="round" stroke-linejoin="round" stroke-miterlimit="10"/><path d="m152.592 244.494c57.14 0 103.462-46.321 103.462-103.462 0-57.1405-46.322-103.462-103.462-103.462-57.1405 0-103.462 46.3215-103.462 103.462 0 57.141 46.3215 103.462 103.462 103.462z" stroke="#263238" stroke-dasharray="2 2" stroke-linejoin="round"/><path d="m229.829 265.272h22.963" stroke="#263238" stroke-miterlimit="10"/><path d="m44.0795 265.272h181.6675" stroke="#263238" stroke-miterlimit="10"/><path d="m236.493 203.03c-.208 0-.42-.05-.618-.155-.638-.342-.879-1.137-.538-1.776l4.286-8.012c.342-.639 1.137-.879 1.776-.538.638.342.88 1.137.538 1.776l-4.285 8.012c-.236.442-.69.693-1.159.693z" fill="#263238"/><path d="m253.08 203.03c-.469 0-.922-.251-1.159-.694l-4.285-8.012c-.342-.639-.101-1.434.538-1.776.639-.341 1.434-.101 1.776.538l4.286 8.012c.341.639.1 1.434-.539 1.777-.197.105-.409.155-.617.155z" fill="#263238"/><path d="m244.782 197.618c6.483 0 11.739-5.255 11.739-11.738s-5.256-11.739-11.739-11.739-11.738 5.256-11.738 11.739 5.255 11.738 11.738 11.738z" fill="url(#c)" stroke="#263238" stroke-linecap="round" stroke-linejoin="round" stroke-miterlimit="10"/><path d="m244.782 195.941c5.557 0 10.062-4.504 10.062-10.061s-4.505-10.062-10.062-10.062-10.061 4.505-10.061 10.062 4.504 10.061 10.061 10.061z" fill="#fff" stroke="#263238" stroke-linecap="round" stroke-linejoin="round" stroke-miterlimit="10"/><path d="m244.969 178.427s-.187 8.198-.187 7.453l2.05 4.099" stroke="#263238" stroke-miterlimit="10"/><path d="m251.416 173.582c-.453-3.159-3.163-5.59-6.447-5.59-3.285 0-5.995 2.431-6.448 5.59z" fill="#fff" stroke="#263238" stroke-linecap="round" stroke-linejoin="round" stroke-miterlimit="10"/><path d="m244.782 186.625c.412 0 .745-.334.745-.745 0-.412-.333-.745-.745-.745-.411 0-.745.333-.745.745 0 .411.334.745.745.745z" fill="#263238" stroke="#263238" stroke-miterlimit="10"/><path d="m265.116 126.687c0 7.146-5.793 12.939-12.939 12.939-.734 0-1.456-.059-2.158-.183-6.116-1.024-10.774-6.345-10.774-12.756s4.658-11.733 10.774-12.756c.702-.125 1.423-.184 2.158-.184 7.146.001 12.939 5.795 12.939 12.94z" fill="url(#d)" stroke="#263238" stroke-linecap="round" stroke-linejoin="round" stroke-miterlimit="10"/><path d="m250.914 113.713c5.664 1.378 9.891 6.888 9.891 12.974 0 6.411-4.665 11.732-10.787 12.756" fill="url(#e)"/><path d="m250.914 113.713c5.664 1.378 9.891 6.888 9.891 12.974 0 6.411-4.665 11.732-10.787 12.756" stroke="#263238" stroke-linecap="round" stroke-linejoin="round" stroke-miterlimit="10"/><path d="m242.991 117.365c2.205.011 5.571.719 8.452 4.24 4.753 5.809 11.09 6.338 13.203 1.056" fill="url(#f)"/><path d="m242.991 117.365c2.205.011 5.571.719 8.452 4.24 4.753 5.809 11.09 6.338 13.203 1.056" stroke="#263238" stroke-linecap="round" stroke-linejoin="round" stroke-miterlimit="10"/><path d="m239.296 127.678s17.576 8.053 25.82-.99z" fill="url(#g)"/><path d="m239.296 127.678s17.576 8.053 25.82-.99" stroke="#263238" stroke-linecap="round" stroke-linejoin="round" stroke-miterlimit="10"/><path d="m244.24 136.742c1.623.2 4.149.228 6.675-.877 4.225-1.849 7.976-2.817 9.771-1.585.66.454.948.971 1.014 1.384" fill="url(#h)"/><path d="m244.24 136.742c1.623.2 4.149.228 6.675-.877 4.225-1.849 7.976-2.817 9.771-1.585.66.454.948.971 1.014 1.384" stroke="#263238" stroke-linecap="round" stroke-linejoin="round" stroke-miterlimit="10"/><path d="m239.879 75.3943c0 5.7609-4.71 11.8744-9.225 11.8744-1.105 0-3.98.0047-5.005-.3913-5.593-2.1599-7.752-7.5145-7.752-12.1698 0-2.4195.723-5.0546 2.637-6.666 2.54-2.138 5.338-.793 8.285-.793 2.564 0 6.161-1.0497 8.116.3924 2.466 1.8201 2.944 4.8887 2.944 7.7533z" fill="#fff" stroke="#263238" stroke-linejoin="round" stroke-miterlimit="10"/><path d="m236.855 71.5246c-.372.6433-1.492.6919-2.504.1081-1.011-.5838-1.53-1.5785-1.158-2.2224.372-.6433 1.492-.6919 2.504-.1081 1.011.5838 1.53 1.5785 1.158 2.2224z" fill="#fff" stroke="#263238" stroke-linejoin="round" stroke-miterlimit="10"/><path d="m228.223 68.1346.196-.4572 2.743-6.4001-1.819-.2798-1.82 6.4378z" fill="#263238" stroke="#263238" stroke-linejoin="round" stroke-miterlimit="10"/><path d="m228.643 63.7962s-1.259-2.7993-3.079-3.2189c-1.819-.4196-6.857 1.9594-6.857 1.9594s2.519 1.8195 4.478 2.3791c1.959.56 5.458-1.1196 5.458-1.1196z" fill="url(#i)" stroke="#263238" stroke-linejoin="round" stroke-miterlimit="10"/><path d="m159.303 56.7648c-.407-2.2814-.977-8.229-.489-10.4289.489-2.1998.326-4.0737.326-4.0737v-7.9845s.408-1.5479-.081-3.2588c-.489-1.7108-4.237-5.3777-4.237-5.3777v-1.3034l-.239-.0138-1.03-.0428v-.0249l-.303.0128-.302-.0128v.0249l-1.031.0428-.238.0138v1.3034s-3.748 3.6663-4.237 5.3777c-.489 1.7109-.082 3.2588-.082 3.2588v7.9845s-.163 1.8739.326 4.0737c.489 2.1999-.081 8.1475-.488 10.4289-.408 2.2814-.245 3.9922 1.059 4.6442 1.087.5434 4.04.1809 4.993.0451.953.1358 3.907.4983 4.994-.0451 1.304-.6514 1.467-2.3628 1.059-4.6442z" fill="#fff" stroke="#263238" stroke-linejoin="round" stroke-miterlimit="10" stroke-width=".5"/><path d="m157.715 46.7741c.393-1.8751.262-3.4721.262-3.4721v-3.8737h-9.452v3.8737s-.131 1.597.261 3.4721c.392 1.875-.065 6.9441-.393 8.8884-.327 1.9444-.196 3.4027.85 3.9582.872.463 3.242.1543 4.007.0387.764.1156 3.135.4243 4.006-.0387 1.047-.5555 1.177-2.0138.85-3.9582-.325-1.9443-.783-7.014-.391-8.8884z" fill="url(#j)"/><path d="m155.183 22.464h-3.911v2.1998h3.911z" fill="#263238" stroke="#263238" stroke-linejoin="round" stroke-miterlimit="10" stroke-width=".5"/><path d="m147.606 33.4627h11.406" stroke="#263238" stroke-linejoin="round" stroke-miterlimit="10" stroke-width=".5"/><path d="m152.209 41.6108h6.314" stroke="#263238" stroke-linejoin="round" stroke-miterlimit="10" stroke-width=".5"/><path d="m148.012 41.6108h1.898" stroke="#263238" stroke-linejoin="round" stroke-miterlimit="10" stroke-width=".5"/><path d="m65.9569 74.8157h2.8438l3.1004-5.8129 3.1425 6.9129.5347-1.426h3.9414l4.1899-9.5225 2.6998 8.87h4.9298c2.8281-3.294 2.6888-8.2585-.4318-11.3791-3.2755-3.2755-8.5862-3.2744-11.86.0029l-.8641.8652-.8704-.8704c-3.2744-3.2744-8.5828-3.2744-11.8571 0-3.2744 3.2743-3.2744 8.5827 0 11.8571z" fill="url(#k)" stroke="#000" stroke-linejoin="round" stroke-miterlimit="10" stroke-width=".4"/><path d="m85.3211 75.3047-1.8641-6.1245-2.9813 6.7759h-3.8818l-1.4213 3.79-3.3773-7.4296-2.1149 3.9656h-2.2565l10.7577 10.7583 11.7363-11.7357z" fill="url(#l)" stroke="#000" stroke-linejoin="round" stroke-miterlimit="10" stroke-width=".4"/><path d="m43.6864 122.626s-.5289-1.762-2.1149-2.115c-1.5866-.352-4.9355.177-5.4638-1.762-.5289-1.939 1.9386-1.41 1.4103-2.996-.5289-1.587-4.4067-1.587-5.2876-4.583-.8814-2.997.3526-6.169 2.6438-5.112 2.2912 1.058 3.3489 5.464 4.2304 7.227.8814 1.762.7052-1.763 3.1726-2.115 2.4675-.353 4.9356 1.586 3.349 4.054-1.5861 2.467-1.5242 4.386-1.2341 5.64.2023.876.2526.807.2526.807z" fill="url(#m)" stroke="#263238" stroke-linejoin="round" stroke-miterlimit="10"/><path d="m34.8748 110.616c-.93-1.531-1.0277-2.347-1.0277-2.347z" fill="url(#n)"/><path d="m34.8748 110.616c-.93-1.531-1.0277-2.347-1.0277-2.347" stroke="#263238" stroke-miterlimit="10"/><path d="m44.2638 122.213s-.3797-2.061-2.2247-4.123-4.2321-3.473-6.1308-5.968c-.1526-.202-.2942-.395-.4255-.581" fill="url(#o)"/><path d="m44.2638 122.213s-.3797-2.061-2.2247-4.123-4.2321-3.473-6.1308-5.968c-.1526-.202-.2942-.395-.4255-.581" stroke="#263238" stroke-miterlimit="10"/><path d="m49.2144 119.756s-8.0562 1.612-8.0562 9.265c0 7.652 21.7507 22.556 23.3622 19.737 1.6114-2.82-6.3054-19.51-8.3192-23.135-2.0143-3.625-4.1673-6.269-6.9868-5.867z" fill="#fff" stroke="#263238" stroke-miterlimit="10"/><path d="m43.5101 134.612s2.8201-4.23 5.4639-5.464" stroke="#263238" stroke-miterlimit="10"/><path d="m57.611 130.382s-2.82 1.058-5.2875 3.525" stroke="#263238" stroke-miterlimit="10"/><path d="m53.7332 143.426s1.234-3.173 4.2304-4.76" stroke="#263238" stroke-miterlimit="10"/><path d="m53.2043 126.68-1.7623 1.058" stroke="#263238" stroke-miterlimit="10"/><path d="m60.4311 137.432-1.2335.353" stroke="#263238" stroke-miterlimit="10"/><path d="m57.6208 198.504c7.2476 0 13.1229-5.876 13.1229-13.123 0-7.248-5.8753-13.123-13.1229-13.123-7.2475 0-13.1229 5.875-13.1229 13.123 0 7.247 5.8754 13.123 13.1229 13.123z" fill="url(#p)" stroke="#263238" stroke-linecap="round" stroke-linejoin="round" stroke-miterlimit="10"/><path d="m61.0391 176.278c0 2.243-2.042 7.076-3.4183 7.076-1.3762 0-3.4177-4.833-3.4177-7.076 0-2.242 2.0415-2.905 3.4177-2.905 1.3763-.001 3.4183.663 3.4183 2.905z" fill="#fff" stroke="#263238" stroke-linecap="round" stroke-linejoin="round" stroke-miterlimit="10"/><path d="m51.4467 177.869c1.942 1.121 5.31 4.814 4.6222 6.006s-6.0979 1.035-8.04-.086c-1.942-1.121-1.4958-3.221-.8074-4.412.6878-1.192 2.2831-2.629 4.2252-1.508z" fill="#fff" stroke="#263238" stroke-linecap="round" stroke-linejoin="round" stroke-miterlimit="10"/><path d="m48.0283 186.972c1.9421-1.121 7.4944-2.103 8.1828-.911s-2.8224 5.71-4.765 6.831c-1.9421 1.121-3.5374-.315-4.2252-1.507s-1.1346-3.292.8074-4.413z" fill="#fff" stroke="#263238" stroke-linecap="round" stroke-linejoin="round" stroke-miterlimit="10"/><path d="m54.2026 194.484c0-2.243 2.0421-7.71 3.4183-7.71s3.4177 5.467 3.4177 7.71c0 2.242-2.0415 2.905-3.4177 2.905s-3.4183-.663-3.4183-2.905z" fill="#fff" stroke="#263238" stroke-linecap="round" stroke-linejoin="round" stroke-miterlimit="10"/><path d="m63.7945 192.892c-1.9421-1.121-5.1367-5.354-4.4483-6.546s5.9239-.495 7.866.627c1.9421 1.121 1.4959 3.22.8075 4.412s-2.2831 2.629-4.2252 1.507z" fill="#fff" stroke="#263238" stroke-linecap="round" stroke-linejoin="round" stroke-miterlimit="10"/><path d="m67.2128 183.79c-1.9421 1.121-7.1782 1.61-7.8666.418-.6878-1.192 2.5068-5.217 4.4488-6.338 1.9421-1.122 3.5374.315 4.2252 1.507.6878 1.191 1.1346 3.291-.8074 4.413z" fill="#fff" stroke="#263238" stroke-linecap="round" stroke-linejoin="round" stroke-miterlimit="10"/><path d="m250.564 230.879c.023.014.483-1.767.5-1.882.186-1.339-.241-4.037-1.604-4.695-.982-.474-2.081.097-2.438 1.08-.366 1.004.097 2.237.646 3.084.645.995 2.894 2.411 2.896 2.413z" fill="#263238"/><path d="m223.685 230.294c1.086.475 3.744.415 3.746.415.028-.001-.571-1.74-.621-1.845-.584-1.22-2.427-3.234-3.928-3.031-1.081.146-1.682 1.227-1.438 2.245.249 1.04 1.315 1.812 2.241 2.216z" fill="#263238"/><path d="m224.602 237.991c1.127.165 3.499-.523 3.687-.579.375 1.328.867 2.66 1.439 3.98.326.756.678 1.507 1.041 2.255-.216-.317-.412-.599-.444-.636-.885-1.022-3.195-2.477-4.588-1.886-1.004.427-1.298 1.629-.794 2.546.515.937 1.747 1.4 2.746 1.545 1.014.148 3.048-.398 3.584-.549.143.285.281.572.424.857.687 1.368 1.378 2.729 2.015 4.085.225.478.428.957.634 1.435-.192-.281-.357-.516-.385-.549-.885-1.023-3.195-2.478-4.589-1.886-1.004.426-1.298 1.628-.794 2.545.515.937 1.748 1.4 2.747 1.545.967.141 2.849-.345 3.487-.523.196.497.393.993.56 1.483.107.337.233.654.321.998.095.339.189.675.281 1.007.155.647.319 1.314.455 1.949.098.441.183.863.27 1.287-.218-.478-.665-1.406-.711-1.479-.72-1.144-2.783-2.933-4.25-2.559-1.057.269-1.53 1.412-1.17 2.395.367 1.004 1.515 1.649 2.48 1.944 1.063.325 3.418.028 3.711-.011.141.704.272 1.389.385 2.038.238 1.354.422 2.574.563 3.622h.989c-.169-1.086-.388-2.365-.671-3.787-.14-.715-.305-1.476-.481-2.255.177-.071 1.181-.477 2.071-.974.775.839 2.76 1.821 3.017 1.946-.27.665-.54 1.308-.803 1.912-.516 1.186-1.006 2.244-1.445 3.159h1.067c.374-.836.781-1.776 1.204-2.81.278-.673.56-1.399.844-2.147.285.06 2.615.533 3.701.288.985-.222 2.178-.78 2.618-1.754.432-.953.046-2.128-.988-2.476-1.436-.482-3.626 1.148-4.429 2.236-.047.064-.483.818-.751 1.298.115-.307.228-.602.342-.919.229-.624.44-1.254.668-1.931.099-.331.199-.665.299-1.002.108-.333.179-.697.27-1.049.195-.819.353-1.659.493-2.509.548.2 2.501.879 3.513.808 1.007-.071 2.271-.441 2.854-1.337.571-.877.368-2.097-.602-2.597-1.346-.694-3.758.585-4.716 1.539-.06.06-.671.821-.998 1.246.08-.512.163-1.022.228-1.542.187-1.501.328-3.026.476-4.547.045-.466.096-.929.145-1.394.193.073 2.498.931 3.631.851 1.008-.07 2.271-.441 2.854-1.336.571-.877.368-2.098-.602-2.598-1.345-.694-3.757.586-4.716 1.54-.072.071-.949 1.168-1.159 1.458.108-1.022.226-2.041.382-3.039.214-1.379.5-2.72.873-3.999.09.034 2.491.941 3.651.859 1.008-.071 2.271-.441 2.855-1.336.571-.877.367-2.098-.603-2.598-1.345-.694-3.757.586-4.716 1.539-.063.063-.731.898-1.041 1.303-.042-.022-.034-.018-.076-.04.416-1.365.991-2.635 1.587-3.797.345-.674.711-1.298 1.082-1.898.43.215 2.405 1.174 3.458 1.216 1.01.041 2.306-.189 2.984-1.015.664-.809.595-2.044-.313-2.647-1.261-.838-3.799.169-4.857 1.011-.057.046-.59.576-.973.968.171-.268.343-.548.513-.801.633-.954 1.272-1.789 1.844-2.523.328-.415.633-.784.923-1.126.531-.009 2.674-.074 3.61-.514.914-.429 1.959-1.23 2.181-2.276.216-1.024-.414-2.089-1.499-2.205-1.505-.162-3.294 1.901-3.844 3.136-.047.107-.599 1.861-.571 1.861 0 0 .026-.001.032-.001-.285.324-.587.674-.909 1.063-.589.723-1.247 1.546-1.904 2.49-.658.942-1.347 1.983-1.973 3.145-.63 1.164-1.233 2.421-1.687 3.797-.005.015-.009.032-.013.048.007-.444-.013-1.685-.025-1.78-.174-1.34-1.297-3.829-2.786-4.104-1.073-.198-1.981.642-2.067 1.685-.087 1.066.685 2.132 1.439 2.804.849.759 3.206 1.494 3.394 1.552-.42 1.314-.744 2.696-.996 4.113-.144.81-.265 1.63-.375 2.454-.006-.384-.013-.727-.02-.775-.174-1.341-1.297-3.829-2.786-4.104-1.073-.198-1.981.642-2.066 1.685-.088 1.065.684 2.132 1.438 2.804.764.683 2.761 1.349 3.292 1.519-.039.317-.082.632-.119.949-.182 1.519-.356 3.036-.573 4.519-.076.523-.17 1.035-.263 1.547-.005-.341-.013-.628-.018-.671-.174-1.341-1.298-3.829-2.787-4.104-1.073-.199-1.981.642-2.066 1.684-.088 1.066.685 2.132 1.438 2.804.729.652 2.567 1.283 3.197 1.488-.11.522-.22 1.045-.351 1.546-.097.34-.166.674-.282 1.009-.108.336-.215.667-.322.996-.227.625-.458 1.271-.695 1.876-.162.421-.324.82-.485 1.222.082-.519.22-1.539.222-1.626.021-.898-.298-2.358-.933-3.384.004-.132-.004-.264-.025-.396-.166-1.034-1.137-1.801-2.19-1.52-1.463.389-2.392 2.957-2.461 4.307-.004.08.048.949.09 1.497-.073-.319-.141-.628-.221-.955-.153-.647-.325-1.288-.508-1.979-.1-.331-.201-.664-.303-1.001-.094-.337-.236-.68-.353-1.024-.29-.791-.622-1.579-.973-2.365.567-.136 2.57-.647 3.375-1.264.801-.614 1.651-1.62 1.643-2.689-.007-1.047-.851-1.952-1.935-1.834-1.505.163-2.811 2.561-3.084 3.885-.017.083-.106 1.055-.145 1.589-.215-.471-.428-.942-.661-1.411-.673-1.355-1.396-2.705-2.111-4.056-.22-.414-.433-.828-.649-1.243.203-.046 2.598-.601 3.499-1.293.801-.615 1.651-1.62 1.643-2.689-.007-1.046-.851-1.953-1.935-1.835-1.505.164-2.811 2.561-3.085 3.886-.02.1-.147 1.498-.161 1.856-.474-.913-.938-1.827-1.359-2.746-.583-1.269-1.084-2.544-1.478-3.817.094-.021 2.596-.59 3.52-1.298.801-.615 1.651-1.62 1.643-2.689-.007-1.046-.85-1.952-1.935-1.834-1.505.164-2.811 2.561-3.085 3.885-.017.088-.115 1.154-.149 1.661-.048.006-.039.005-.086.01-.406-1.368-.627-2.745-.77-4.043-.084-.752-.123-1.475-.145-2.181.477-.057 2.654-.348 3.555-.893.863-.523 1.819-1.43 1.929-2.493.107-1.04-.631-2.034-1.722-2.035-1.514-.003-3.076 2.237-3.492 3.523-.023.07-.175.806-.278 1.344-.004-.318-.016-.646-.014-.951.001-1.145.074-2.193.146-3.121.045-.528.096-1.004.148-1.448.439-.302 2.19-1.538 2.728-2.421.525-.862.955-2.107.563-3.1-.384-.974-1.498-1.515-2.466-1.014-1.345.696-1.699 3.403-1.477 4.736.02.115.528 1.884.551 1.868 0 0 .021-.014.026-.018-.059.427-.117.886-.171 1.388-.092.928-.188 1.978-.215 3.127-.03 1.148-.03 2.397.089 3.712.116 1.318.307 2.699.687 4.097.005.015.011.031.015.047-.238-.374-.939-1.398-1.001-1.47-.885-1.023-3.195-2.478-4.588-1.886-1.004.426-1.299 1.628-.795 2.545.515.936 1.748 1.399 2.747 1.544z" fill="#263238"/><path d="m223.685 230.294c1.086.475 3.744.415 3.746.415.028-.001-.571-1.74-.621-1.845-.584-1.22-2.427-3.234-3.928-3.031-1.081.146-1.682 1.227-1.438 2.245.249 1.04 1.315 1.812 2.241 2.216z" fill="#263238" opacity=".3"/><path d="m250.564 230.879c.023.014.483-1.767.5-1.882.186-1.339-.241-4.037-1.604-4.695-.982-.474-2.081.097-2.438 1.08-.366 1.004.097 2.237.646 3.084.645.995 2.894 2.411 2.896 2.413z" fill="#263238" opacity=".3"/><path d="m224.602 237.991c1.127.165 3.499-.523 3.687-.579.375 1.328.867 2.66 1.439 3.98.326.756.678 1.507 1.041 2.255-.216-.317-.412-.599-.444-.636-.885-1.022-3.195-2.477-4.588-1.886-1.004.427-1.298 1.629-.794 2.546.515.937 1.747 1.4 2.746 1.545 1.014.148 3.048-.398 3.584-.549.143.285.281.572.424.857.687 1.368 1.378 2.729 2.015 4.085.225.478.428.957.634 1.435-.192-.281-.357-.516-.385-.549-.885-1.023-3.195-2.478-4.589-1.886-1.004.426-1.298 1.628-.794 2.545.515.937 1.748 1.4 2.747 1.545.967.141 2.849-.345 3.487-.523.196.497.393.993.56 1.483.107.337.233.654.321.998.095.339.189.675.281 1.007.155.647.319 1.314.455 1.949.098.441.183.863.27 1.287-.218-.478-.665-1.406-.711-1.479-.72-1.144-2.783-2.933-4.25-2.559-1.057.269-1.53 1.412-1.17 2.395.367 1.004 1.515 1.649 2.48 1.944 1.063.325 3.418.028 3.711-.011.141.704.272 1.389.385 2.038.238 1.354.422 2.574.563 3.622h.989c-.169-1.086-.388-2.365-.671-3.787-.14-.715-.305-1.476-.481-2.255.177-.071 1.181-.477 2.071-.974.775.839 2.76 1.821 3.017 1.946-.27.665-.54 1.308-.803 1.912-.516 1.186-1.006 2.244-1.445 3.159h1.067c.374-.836.781-1.776 1.204-2.81.278-.673.56-1.399.844-2.147.285.06 2.615.533 3.701.288.985-.222 2.178-.78 2.618-1.754.432-.953.046-2.128-.988-2.476-1.436-.482-3.626 1.148-4.429 2.236-.047.064-.483.818-.751 1.298.115-.307.228-.602.342-.919.229-.624.44-1.254.668-1.931.099-.331.199-.665.299-1.002.108-.333.179-.697.27-1.049.195-.819.353-1.659.493-2.509.548.2 2.501.879 3.513.808 1.007-.071 2.271-.441 2.854-1.337.571-.877.368-2.097-.602-2.597-1.346-.694-3.758.585-4.716 1.539-.06.06-.671.821-.998 1.246.08-.512.163-1.022.228-1.542.187-1.501.328-3.026.476-4.547.045-.466.096-.929.145-1.394.193.073 2.498.931 3.631.851 1.008-.07 2.271-.441 2.854-1.336.571-.877.368-2.098-.602-2.598-1.345-.694-3.757.586-4.716 1.54-.072.071-.949 1.168-1.159 1.458.108-1.022.226-2.041.382-3.039.214-1.379.5-2.72.873-3.999.09.034 2.491.941 3.651.859 1.008-.071 2.271-.441 2.855-1.336.571-.877.367-2.098-.603-2.598-1.345-.694-3.757.586-4.716 1.539-.063.063-.731.898-1.041 1.303-.042-.022-.034-.018-.076-.04.416-1.365.991-2.635 1.587-3.797.345-.674.711-1.298 1.082-1.898.43.215 2.405 1.174 3.458 1.216 1.01.041 2.306-.189 2.984-1.015.664-.809.595-2.044-.313-2.647-1.261-.838-3.799.169-4.857 1.011-.057.046-.59.576-.973.968.171-.268.343-.548.513-.801.633-.954 1.272-1.789 1.844-2.523.328-.415.633-.784.923-1.126.531-.009 2.674-.074 3.61-.514.914-.429 1.959-1.23 2.181-2.276.216-1.024-.414-2.089-1.499-2.205-1.505-.162-3.294 1.901-3.844 3.136-.047.107-.599 1.861-.571 1.861 0 0 .026-.001.032-.001-.285.324-.587.674-.909 1.063-.589.723-1.247 1.546-1.904 2.49-.658.942-1.347 1.983-1.973 3.145-.63 1.164-1.233 2.421-1.687 3.797-.005.015-.009.032-.013.048.007-.444-.013-1.685-.025-1.78-.174-1.34-1.297-3.829-2.786-4.104-1.073-.198-1.981.642-2.067 1.685-.087 1.066.685 2.132 1.439 2.804.849.759 3.206 1.494 3.394 1.552-.42 1.314-.744 2.696-.996 4.113-.144.81-.265 1.63-.375 2.454-.006-.384-.013-.727-.02-.775-.174-1.341-1.297-3.829-2.786-4.104-1.073-.198-1.981.642-2.066 1.685-.088 1.065.684 2.132 1.438 2.804.764.683 2.761 1.349 3.292 1.519-.039.317-.082.632-.119.949-.182 1.519-.356 3.036-.573 4.519-.076.523-.17 1.035-.263 1.547-.005-.341-.013-.628-.018-.671-.174-1.341-1.298-3.829-2.787-4.104-1.073-.199-1.981.642-2.066 1.684-.088 1.066.685 2.132 1.438 2.804.729.652 2.567 1.283 3.197 1.488-.11.522-.22 1.045-.351 1.546-.097.34-.166.674-.282 1.009-.108.336-.215.667-.322.996-.227.625-.458 1.271-.695 1.876-.162.421-.324.82-.485 1.222.082-.519.22-1.539.222-1.626.021-.898-.298-2.358-.933-3.384.004-.132-.004-.264-.025-.396-.166-1.034-1.137-1.801-2.19-1.52-1.463.389-2.392 2.957-2.461 4.307-.004.08.048.949.09 1.497-.073-.319-.141-.628-.221-.955-.153-.647-.325-1.288-.508-1.979-.1-.331-.201-.664-.303-1.001-.094-.337-.236-.68-.353-1.024-.29-.791-.622-1.579-.973-2.365.567-.136 2.57-.647 3.375-1.264.801-.614 1.651-1.62 1.643-2.689-.007-1.047-.851-1.952-1.935-1.834-1.505.163-2.811 2.561-3.084 3.885-.017.083-.106 1.055-.145 1.589-.215-.471-.428-.942-.661-1.411-.673-1.355-1.396-2.705-2.111-4.056-.22-.414-.433-.828-.649-1.243.203-.046 2.598-.601 3.499-1.293.801-.615 1.651-1.62 1.643-2.689-.007-1.046-.851-1.953-1.935-1.835-1.505.164-2.811 2.561-3.085 3.886-.02.1-.147 1.498-.161 1.856-.474-.913-.938-1.827-1.359-2.746-.583-1.269-1.084-2.544-1.478-3.817.094-.021 2.596-.59 3.52-1.298.801-.615 1.651-1.62 1.643-2.689-.007-1.046-.85-1.952-1.935-1.834-1.505.164-2.811 2.561-3.085 3.885-.017.088-.115 1.154-.149 1.661-.048.006-.039.005-.086.01-.406-1.368-.627-2.745-.77-4.043-.084-.752-.123-1.475-.145-2.181.477-.057 2.654-.348 3.555-.893.863-.523 1.819-1.43 1.929-2.493.107-1.04-.631-2.034-1.722-2.035-1.514-.003-3.076 2.237-3.492 3.523-.023.07-.175.806-.278 1.344-.004-.318-.016-.646-.014-.951.001-1.145.074-2.193.146-3.121.045-.528.096-1.004.148-1.448.439-.302 2.19-1.538 2.728-2.421.525-.862.955-2.107.563-3.1-.384-.974-1.498-1.515-2.466-1.014-1.345.696-1.699 3.403-1.477 4.736.02.115.528 1.884.551 1.868 0 0 .021-.014.026-.018-.059.427-.117.886-.171 1.388-.092.928-.188 1.978-.215 3.127-.03 1.148-.03 2.397.089 3.712.116 1.318.307 2.699.687 4.097.005.015.011.031.015.047-.238-.374-.939-1.398-1.001-1.47-.885-1.023-3.195-2.478-4.588-1.886-1.004.426-1.299 1.628-.795 2.545.515.936 1.748 1.399 2.747 1.544z" fill="#263238" opacity=".3"/><path d="m66.2451 230.879c.0232.014.4832-1.767.4994-1.882.1861-1.339-.2404-4.037-1.6039-4.695-.982-.474-2.0802.097-2.438 1.08-.3653 1.004.0982 2.237.6468 3.084.6444.995 2.894 2.411 2.8957 2.413z" fill="#263238"/><path d="m39.3659 230.294c1.0866.475 3.7437.415 3.746.415.0277-.001-.5711-1.74-.6214-1.845-.5832-1.22-2.427-3.234-3.9275-3.031-1.0808.146-1.682 1.227-1.4375 2.245.2486 1.04 1.315 1.812 2.2404 2.216z" fill="#263238"/><path d="m40.2832 237.991c1.1271.165 3.4986-.523 3.687-.579.3746 1.328.8664 2.66 1.4387 3.98.326.756.678 1.507 1.0409 2.255-.2161-.317-.4121-.599-.4439-.636-.8849-1.022-3.1951-2.477-4.5881-1.886-1.004.427-1.2982 1.629-.7942 2.546.515.937 1.7473 1.4 2.7467 1.545 1.0138.148 3.0478-.398 3.5841-.549.1422.285.2809.572.4237.857.6867 1.368 1.378 2.729 2.0149 4.085.2249.478.4283.957.6341 1.435-.1925-.281-.3572-.516-.3855-.549-.8844-1.023-3.1946-2.478-4.5882-1.886-1.004.426-1.2982 1.628-.7942 2.545.515.937 1.7473 1.4 2.7467 1.545.9676.141 2.8495-.345 3.4871-.523.1959.497.393.993.56 1.483.107.337.233.654.3214.998.0948.339.1884.675.2815 1.007.1549.647.319 1.314.4549 1.949.0977.441.1826.863.2693 1.287-.2179-.478-.6647-1.406-.7109-1.479-.7196-1.144-2.7825-2.933-4.2495-2.559-1.0571.269-1.5299 1.412-1.1704 2.395.367 1.004 1.5149 1.649 2.4808 1.944 1.0629.325 3.4171.028 3.7107-.011.141.704.2717 1.389.3844 2.038.2387 1.354.4219 2.574.5635 3.622h.9896c-.1694-1.086-.3884-2.365-.6711-3.787-.1404-.715-.3046-1.476-.4803-2.255.1769-.071 1.1808-.477 2.0704-.974.7751.839 2.7605 1.821 3.0177 1.946-.2705.665-.5398 1.308-.8034 1.912-.5156 1.186-1.0057 2.244-1.445 3.159h1.0676c.3739-.836.7809-1.776 1.204-2.81.2774-.673.56-1.399.8433-2.147.2849.06 2.6148.533 3.7009.288.9849-.222 2.1779-.78 2.6183-1.754.4318-.953.0457-2.128-.9889-2.476-1.4352-.482-3.6258 1.148-4.4287 2.236-.0474.064-.4832.818-.7508 1.298.1145-.307.2283-.602.3422-.919.2289-.624.4393-1.254.6682-1.931.0988-.331.1988-.665.2994-1.002.1075-.333.1786-.697.2699-1.049.1948-.819.3531-1.659.493-2.509.5474.2 2.5004.879 3.5125.808 1.0069-.071 2.271-.441 2.8542-1.337.5711-.877.3676-2.097-.6017-2.597-1.3456-.694-3.7582.585-4.7165 1.539-.0601.06-.6705.821-.9976 1.246.0803-.512.163-1.022.2277-1.542.1867-1.501.3283-3.026.4769-4.547.045-.466.0959-.929.1445-1.394.1936.073 2.4981.931 3.6315.851 1.0075-.07 2.271-.441 2.8542-1.336.5711-.877.3676-2.098-.6023-2.598-1.3456-.694-3.7581.586-4.7159 1.54-.0722.071-.9491 1.168-1.1589 1.458.1081-1.022.2255-2.041.3815-3.039.2139-1.379.5-2.72.8728-3.999.0902.034 2.4912.941 3.6518.859 1.0075-.071 2.271-.441 2.8542-1.336.571-.877.367-2.098-.6023-2.598-1.3456-.694-3.7576.586-4.7159 1.539-.063.063-.7318.898-1.041 1.303-.0422-.022-.0347-.018-.0769-.04.4162-1.365.9913-2.635 1.5878-3.797.3445-.674.7109-1.298 1.082-1.898.43.215 2.4051 1.174 3.4576 1.216 1.0092.041 2.3057-.189 2.9836-1.015.6642-.809.5954-2.044-.3132-2.647-1.2612-.838-3.7992.169-4.8564 1.011-.0572.046-.5901.576-.9728.968.1717-.268.3434-.548.5127-.801.6335-.954 1.2722-1.789 1.8438-2.523.3284-.415.6335-.784.9231-1.126.5318-.009 2.6738-.074 3.6108-.514.9138-.429 1.9588-1.23 2.1802-2.276.2162-1.024-.4139-2.089-1.4982-2.205-1.5051-.162-3.294 1.901-3.8443 3.136-.0474.107-.5988 1.861-.571 1.861 0 0 .026-.001.0318-.001-.285.324-.5867.674-.9086 1.063-.589.723-1.2474 1.546-1.904 2.49-.6583.942-1.3473 1.983-1.9739 3.145-.6294 1.164-1.2328 2.421-1.6866 3.797-.0052.015-.0086.032-.0132.048.0075-.444-.0122-1.685-.0243-1.78-.174-1.34-1.2976-3.829-2.7866-4.104-1.0727-.198-1.9808.642-2.0663 1.685-.0873 1.066.6849 2.132 1.4381 2.804.849.759 3.2067 1.494 3.3945 1.552-.4202 1.314-.7444 2.696-.9958 4.113-.1445.81-.2648 1.63-.3752 2.454-.0058-.384-.0138-.727-.0196-.775-.174-1.341-1.2976-3.829-2.7866-4.104-1.0727-.198-1.9808.642-2.0663 1.685-.0873 1.065.6849 2.132 1.4381 2.804.7641.683 2.7616 1.349 3.2922 1.519-.0387.317-.0815.632-.119.949-.1815 1.519-.3561 3.036-.5734 4.519-.0763.523-.1705 1.035-.2624 1.547-.0052-.341-.0127-.628-.0185-.671-.174-1.341-1.2976-3.829-2.7865-4.104-1.0728-.199-1.9809.642-2.0664 1.684-.0873 1.066.6855 2.132 1.4381 2.804.7288.652 2.5669 1.283 3.1969 1.488-.111.522-.2202 1.045-.3509 1.546-.0971.34-.1664.674-.2826 1.009-.1081.336-.215.667-.3214.996-.2277.625-.4583 1.271-.6953 1.876-.1618.421-.3237.82-.4855 1.222.082-.519.2208-1.539.2231-1.626.0208-.898-.2983-2.358-.9329-3.384.004-.132-.0041-.264-.0249-.396-.1659-1.034-1.1369-1.801-2.1906-1.52-1.4629.389-2.3912 2.957-2.4605 4.307-.0041.08.0479.949.0901 1.497-.0734-.319-.1416-.628-.2213-.955-.1532-.647-.3255-1.288-.5081-1.979-.1-.331-.2011-.664-.3029-1.001-.0936-.337-.2358-.68-.3531-1.024-.2896-.791-.6214-1.579-.9728-2.365.5664-.136 2.5704-.647 3.3749-1.264.8011-.614 1.6508-1.62 1.6433-2.689-.0075-1.047-.8508-1.952-1.9352-1.834-1.5051.163-2.8113 2.561-3.0842 3.885-.0173.083-.1063 1.055-.145 1.589-.2151-.471-.4278-.942-.6607-1.411-.6728-1.355-1.3959-2.705-2.1114-4.056-.2197-.414-.4329-.828-.6485-1.243.2023-.046 2.5975-.601 3.4986-1.293.8011-.615 1.6508-1.62 1.6432-2.689-.0075-1.046-.8508-1.953-1.9351-1.835-1.5051.164-2.8114 2.561-3.0848 3.886-.0202.1-.1468 1.498-.1612 1.856-.474-.913-.9381-1.827-1.3589-2.746-.5826-1.269-1.0838-2.544-1.478-3.817.0942-.021 2.5964-.59 3.52-1.298.8012-.615 1.6508-1.62 1.6433-2.689-.0075-1.046-.8508-1.952-1.9351-1.834-1.5052.164-2.8114 2.561-3.0848 3.885-.0179.088-.1156 1.154-.1497 1.661-.0474.006-.0388.005-.0856.01-.4057-1.368-.6271-2.745-.7699-4.043-.0844-.752-.1231-1.475-.1445-2.181.4769-.057 2.6536-.348 3.5547-.893.8636-.523 1.819-1.43 1.9288-2.493.1075-1.04-.6312-2.034-1.7218-2.035-1.5138-.003-3.0756 2.237-3.4923 3.523-.0226.07-.1746.806-.2775 1.344-.0046-.318-.0161-.646-.0144-.951.0023-1.145.0746-2.193.1462-3.121.0451-.528.096-1.004.1486-1.448.4381-.302 2.1889-1.538 2.7276-2.421.5254-.862.9554-2.107.5629-3.1-.3843-.974-1.4976-1.515-2.4663-1.014-1.345.696-1.6987 3.403-1.4762 4.736.0196.115.5271 1.884.5502 1.868 0 0 .0214-.014.0266-.018-.0589.427-.1173.886-.1716 1.388-.0919.928-.1879 1.978-.2145 3.127-.03 1.148-.03 2.397.0885 3.712.1167 1.318.3075 2.699.6878 4.097.004.015.011.031.015.047-.2381-.374-.9392-1.398-1.0017-1.47-.8849-1.023-3.1946-2.478-4.5881-1.886-1.004.426-1.2982 1.628-.7942 2.545.5121.936 1.7444 1.399 2.7438 1.544z" fill="#263238"/><path d="m39.3659 230.294c1.0866.475 3.7437.415 3.746.415.0277-.001-.5711-1.74-.6214-1.845-.5832-1.22-2.427-3.234-3.9275-3.031-1.0808.146-1.682 1.227-1.4375 2.245.2486 1.04 1.315 1.812 2.2404 2.216z" fill="#263238" opacity=".3"/><path d="m66.2451 230.879c.0232.014.4832-1.767.4994-1.882.1861-1.339-.2404-4.037-1.6039-4.695-.982-.474-2.0802.097-2.438 1.08-.3653 1.004.0982 2.237.6468 3.084.6444.995 2.894 2.411 2.8957 2.413z" fill="#263238" opacity=".3"/><path d="m40.2832 237.991c1.1271.165 3.4986-.523 3.687-.579.3746 1.328.8664 2.66 1.4387 3.98.326.756.678 1.507 1.0409 2.255-.2161-.317-.4121-.599-.4439-.636-.8849-1.022-3.1951-2.477-4.5881-1.886-1.004.427-1.2982 1.629-.7942 2.546.515.937 1.7473 1.4 2.7467 1.545 1.0138.148 3.0478-.398 3.5841-.549.1422.285.2809.572.4237.857.6867 1.368 1.378 2.729 2.0149 4.085.2249.478.4283.957.6341 1.435-.1925-.281-.3572-.516-.3855-.549-.8844-1.023-3.1946-2.478-4.5882-1.886-1.004.426-1.2982 1.628-.7942 2.545.515.937 1.7473 1.4 2.7467 1.545.9676.141 2.8495-.345 3.4871-.523.1959.497.393.993.56 1.483.107.337.233.654.3214.998.0948.339.1884.675.2815 1.007.1549.647.319 1.314.4549 1.949.0977.441.1826.863.2693 1.287-.2179-.478-.6647-1.406-.7109-1.479-.7196-1.144-2.7825-2.933-4.2495-2.559-1.0571.269-1.5299 1.412-1.1704 2.395.367 1.004 1.5149 1.649 2.4808 1.944 1.0629.325 3.4171.028 3.7107-.011.141.704.2717 1.389.3844 2.038.2387 1.354.4219 2.574.5635 3.622h.9896c-.1694-1.086-.3884-2.365-.6711-3.787-.1404-.715-.3046-1.476-.4803-2.255.1769-.071 1.1808-.477 2.0704-.974.7751.839 2.7605 1.821 3.0177 1.946-.2705.665-.5398 1.308-.8034 1.912-.5156 1.186-1.0057 2.244-1.445 3.159h1.0676c.3739-.836.7809-1.776 1.204-2.81.2774-.673.56-1.399.8433-2.147.2849.06 2.6148.533 3.7009.288.9849-.222 2.1779-.78 2.6183-1.754.4318-.953.0457-2.128-.9889-2.476-1.4352-.482-3.6258 1.148-4.4287 2.236-.0474.064-.4832.818-.7508 1.298.1145-.307.2283-.602.3422-.919.2289-.624.4393-1.254.6682-1.931.0988-.331.1988-.665.2994-1.002.1075-.333.1786-.697.2699-1.049.1948-.819.3531-1.659.493-2.509.5474.2 2.5004.879 3.5125.808 1.0069-.071 2.271-.441 2.8542-1.337.5711-.877.3676-2.097-.6017-2.597-1.3456-.694-3.7582.585-4.7165 1.539-.0601.06-.6705.821-.9976 1.246.0803-.512.163-1.022.2277-1.542.1867-1.501.3283-3.026.4769-4.547.045-.466.0959-.929.1445-1.394.1936.073 2.4981.931 3.6315.851 1.0075-.07 2.271-.441 2.8542-1.336.5711-.877.3676-2.098-.6023-2.598-1.3456-.694-3.7581.586-4.7159 1.54-.0722.071-.9491 1.168-1.1589 1.458.1081-1.022.2255-2.041.3815-3.039.2139-1.379.5-2.72.8728-3.999.0902.034 2.4912.941 3.6518.859 1.0075-.071 2.271-.441 2.8542-1.336.571-.877.367-2.098-.6023-2.598-1.3456-.694-3.7576.586-4.7159 1.539-.063.063-.7318.898-1.041 1.303-.0422-.022-.0347-.018-.0769-.04.4162-1.365.9913-2.635 1.5878-3.797.3445-.674.7109-1.298 1.082-1.898.43.215 2.4051 1.174 3.4576 1.216 1.0092.041 2.3057-.189 2.9836-1.015.6642-.809.5954-2.044-.3132-2.647-1.2612-.838-3.7992.169-4.8564 1.011-.0572.046-.5901.576-.9728.968.1717-.268.3434-.548.5127-.801.6335-.954 1.2722-1.789 1.8438-2.523.3284-.415.6335-.784.9231-1.126.5318-.009 2.6738-.074 3.6108-.514.9138-.429 1.9588-1.23 2.1802-2.276.2162-1.024-.4139-2.089-1.4982-2.205-1.5051-.162-3.294 1.901-3.8443 3.136-.0474.107-.5988 1.861-.571 1.861 0 0 .026-.001.0318-.001-.285.324-.5867.674-.9086 1.063-.589.723-1.2474 1.546-1.904 2.49-.6583.942-1.3473 1.983-1.9739 3.145-.6294 1.164-1.2328 2.421-1.6866 3.797-.0052.015-.0086.032-.0132.048.0075-.444-.0122-1.685-.0243-1.78-.174-1.34-1.2976-3.829-2.7866-4.104-1.0727-.198-1.9808.642-2.0663 1.685-.0873 1.066.6849 2.132 1.4381 2.804.849.759 3.2067 1.494 3.3945 1.552-.4202 1.314-.7444 2.696-.9958 4.113-.1445.81-.2648 1.63-.3752 2.454-.0058-.384-.0138-.727-.0196-.775-.174-1.341-1.2976-3.829-2.7866-4.104-1.0727-.198-1.9808.642-2.0663 1.685-.0873 1.065.6849 2.132 1.4381 2.804.7641.683 2.7616 1.349 3.2922 1.519-.0387.317-.0815.632-.119.949-.1815 1.519-.3561 3.036-.5734 4.519-.0763.523-.1705 1.035-.2624 1.547-.0052-.341-.0127-.628-.0185-.671-.174-1.341-1.2976-3.829-2.7865-4.104-1.0728-.199-1.9809.642-2.0664 1.684-.0873 1.066.6855 2.132 1.4381 2.804.7288.652 2.5669 1.283 3.1969 1.488-.111.522-.2202 1.045-.3509 1.546-.0971.34-.1664.674-.2826 1.009-.1081.336-.215.667-.3214.996-.2277.625-.4583 1.271-.6953 1.876-.1618.421-.3237.82-.4855 1.222.082-.519.2208-1.539.2231-1.626.0208-.898-.2983-2.358-.9329-3.384.004-.132-.0041-.264-.0249-.396-.1659-1.034-1.1369-1.801-2.1906-1.52-1.4629.389-2.3912 2.957-2.4605 4.307-.0041.08.0479.949.0901 1.497-.0734-.319-.1416-.628-.2213-.955-.1532-.647-.3255-1.288-.5081-1.979-.1-.331-.2011-.664-.3029-1.001-.0936-.337-.2358-.68-.3531-1.024-.2896-.791-.6214-1.579-.9728-2.365.5664-.136 2.5704-.647 3.3749-1.264.8011-.614 1.6508-1.62 1.6433-2.689-.0075-1.047-.8508-1.952-1.9352-1.834-1.5051.163-2.8113 2.561-3.0842 3.885-.0173.083-.1063 1.055-.145 1.589-.2151-.471-.4278-.942-.6607-1.411-.6728-1.355-1.3959-2.705-2.1114-4.056-.2197-.414-.4329-.828-.6485-1.243.2023-.046 2.5975-.601 3.4986-1.293.8011-.615 1.6508-1.62 1.6432-2.689-.0075-1.046-.8508-1.953-1.9351-1.835-1.5051.164-2.8114 2.561-3.0848 3.886-.0202.1-.1468 1.498-.1612 1.856-.474-.913-.9381-1.827-1.3589-2.746-.5826-1.269-1.0838-2.544-1.478-3.817.0942-.021 2.5964-.59 3.52-1.298.8012-.615 1.6508-1.62 1.6433-2.689-.0075-1.046-.8508-1.952-1.9351-1.834-1.5052.164-2.8114 2.561-3.0848 3.885-.0179.088-.1156 1.154-.1497 1.661-.0474.006-.0388.005-.0856.01-.4057-1.368-.6271-2.745-.7699-4.043-.0844-.752-.1231-1.475-.1445-2.181.4769-.057 2.6536-.348 3.5547-.893.8636-.523 1.819-1.43 1.9288-2.493.1075-1.04-.6312-2.034-1.7218-2.035-1.5138-.003-3.0756 2.237-3.4923 3.523-.0226.07-.1746.806-.2775 1.344-.0046-.318-.0161-.646-.0144-.951.0023-1.145.0746-2.193.1462-3.121.0451-.528.096-1.004.1486-1.448.4381-.302 2.1889-1.538 2.7276-2.421.5254-.862.9554-2.107.5629-3.1-.3843-.974-1.4976-1.515-2.4663-1.014-1.345.696-1.6987 3.403-1.4762 4.736.0196.115.5271 1.884.5502 1.868 0 0 .0214-.014.0266-.018-.0589.427-.1173.886-.1716 1.388-.0919.928-.1879 1.978-.2145 3.127-.03 1.148-.03 2.397.0885 3.712.1167 1.318.3075 2.699.6878 4.097.004.015.011.031.015.047-.2381-.374-.9392-1.398-1.0017-1.47-.8849-1.023-3.1946-2.478-4.5881-1.886-1.004.426-1.2982 1.628-.7942 2.545.5121.936 1.7444 1.399 2.7438 1.544z" fill="#263238" opacity=".3"/><path d="m195.57 256.486 4.068 7.382s2.109.603 4.369-.603c2.26-1.205 4.671-3.013 6.328-3.616s6.629-3.767 7.985-6.177c1.356-2.411 1.808-4.068-.452-3.465s-3.767.904-5.876 1.205-6.479 0-6.479 0z" fill="#fff" stroke="#263238" stroke-miterlimit="10"/><path d="m143.629 254.177s1.808 2.863 4.52 4.52 7.232 2.712 6.931 4.219-3.465 2.712-6.629 2.26-10.697-2.561-12.505-3.315c-1.808-.753-2.863-.904-2.863-2.109s3.315-9.642 3.315-9.642z" fill="#fff" stroke="#263238" stroke-miterlimit="10"/><path d="m160.914 120.233s-5.577 6.305-7.692 10.389-10.787 17.567-9.58 19.592c1.208 2.026 7.428 8.515 10.611 10.697s5.949 4.525 5.949 4.525l2.409-1.819s-4.384-6.172-6.96-10.363-4.095-6.345-4.095-6.345 7.063-8.68 8.86-10.928c1.798-2.248 2.429-12.114 2.512-13.027.084-.912-.589-3.883-2.014-2.721z" fill="#fff" stroke="#263238" stroke-miterlimit="10"/><path d="m180.256 89.6461s1.97 2.1207 2.136 4.3743c.167 2.2536-.428 4.413 1.002 5.3644 1.43.9522 3.105 1.1302 2.247 1.7972-.857.668-2.432 1.842-2.432 1.842s-.702 6.85-1.431 7.206-6.717 1.101-6.717 1.101-2.148 3.634-1.692 5.715c.456 2.082 4.133 8.91 6.409 13.123 2.275 4.213 2.397 5.866 1.495 10.012s-3.744 21.79-3.594 24.653c.151 2.863 2.26 7.081 2.26 7.081s12.053 33.146 13.409 36.913.904 12.656 1.808 15.97c.904 3.315 6.78 14.916 7.684 17.025s4.331 6.678 4.331 6.678l.753 1.507s-2.109 1.808-4.52 3.616-5.273 3.013-6.328 3.314c-1.055.302-2.411.753-2.411.753s-4.631-8.184-6.439-12.553-4.821-9.19-5.424-15.518-2.561-12.053-4.219-17.025c-1.657-4.972-7.081-13.71-7.081-13.71s-4.369 17.477-7.835 21.695c-3.465 4.219-8.437 15.519-11.601 21.244s-4.67 7.081-4.972 9.793c-.301 2.712-1.055 4.671-1.055 4.671s-5.273-1.055-7.985-2.863-4.972-4.219-4.972-4.219 7.533-16.121 11.149-23.202 7.985-22.75 8.136-23.805c.151-1.054 1.657-9.943 2.26-11.902s.753-2.109.603-3.164c-.151-1.055-4.219-7.383-2.561-13.56 1.657-6.177 6.147-12.242 6.147-12.242s2.639-9.26 2.611-11.675c-.027-2.415-2.553-7.97-3.253-13.357-.701-5.387-.366-13.116 2.072-16.922s6.373-9.838 6.573-11.213c.201-1.374.969-3.244-.889-7.941-1.858-4.6969 2.522-8.7978 5.566-10.5336 3.046-1.7357 8.76-.0433 8.76-.0433z" fill="#fff" stroke="#263238" stroke-miterlimit="10"/><path d="m180.707 99.6593c.283 0 .513-.5739.513-1.282 0-.708-.23-1.282-.513-1.282s-.513.574-.513 1.282c0 .7081.23 1.282.513 1.282z" fill="#263238"/><path d="m179.339 96.241s1.026-1.1964 2.052-.171" stroke="#263238" stroke-miterlimit="10"/><path d="m182.758 105.299s-1.538.342-2.564-1.367" stroke="#263238" stroke-miterlimit="10"/><path d="m176.474 179.448-4.52 17.628" stroke="#263238" stroke-miterlimit="10"/><path d="m187.623 220.429s-.904 12.354-1.506 16.573" stroke="#263238" stroke-miterlimit="10"/><path d="m189.431 227.51s-1.356 9.793-1.356 10.697" stroke="#263238" stroke-miterlimit="10"/><path d="m172.091 99.7674s-2.542-3.7402-4.457-1.03c-1.915 2.7096-.201 5.4536.884 5.8266 1.084.372 1.664.028 1.664.028s-.852 2.782-2.778 5.342c-1.926 2.559-7.029 5.052-11.164 4.3-4.134-.752-11.935-8.182-10.437-14.4868 1.497-6.3048 3.078-9.4434 4.882-9.5763 1.803-.1335 2.882 2.2039 4.985 2.0484 2.104-.1555 4.671-8.3521 12.105-9.9595 7.435-1.6074 13.745 2.0051 14.535 4.5153.791 2.5097-.312 3.9512-1.063 4.0067-.752.0555-3.74-1.5363-5.465-.3514s-.573 2.4594-.345 3.5004c.228 1.0404-1.52 1.9253-1.442 2.9767.078 1.0519.317 2.2426-.284 2.2871s-1.62.5728-1.62.5728z" fill="#263238" stroke="#263238" stroke-miterlimit="10"/><path d="m179.778 130.17c-.584-1.081-1.26-2.335-1.951-3.635-.223.112-.463.187-.72.207-1.953.144-6.36-6.328-10.778-8.872-2.093-1.205-3.738-.951-4.891-.35-.207.321-.41.637-.607.944 1.387-.581 3.357-.87 5.575.457 4.268 2.555 7.684 7.892 8.563 11.604.878 3.712-3.357 9.766-8.989 11.24-3.561.932-5.902-.464-7.414-3.198.969 4.616 2.837 9.012 2.861 11.088.027 2.415-2.612 11.675-2.612 11.675s-.23.404-.595 1.097c7.114 2.097 16.098 3.104 19.575 2.407.386-5.389 2.699-21.074 3.477-24.653.904-4.146.781-5.799-1.494-10.011z" fill="url(#q)" stroke="#263238" stroke-miterlimit="10"/><path d="m164.487 119.516s4.09.151 6.138 3.323c2.047 3.172 11.344 16.535 12.647 17.798 1.302 1.264 3.132 3.546 3.132 3.546s14.482-8.474 17.053-10.477c2.571-2.002 5.031-5.508 5.031-5.508s.273-2.437.368-3.2c.094-.762 2.348-.929 2.348-.929s1.52-1.925 2.733-1.864c1.213.062 1.496 1.853 1.496 1.853s1.564 2.755 1.664 4.108c.1 1.352-2.705 4.279-3.874 4.818-1.169.54-3.4 1.007-3.4 1.007s-9.323 10.812-12.407 14.061c-3.083 3.25-8.119 6.644-9.288 7.183s-5.877-1.832-6.661-2.227-20.593-19.024-20.593-19.024" fill="#fff"/><g stroke="#263238"><path d="m164.487 119.516s4.09.151 6.138 3.323c2.047 3.172 11.344 16.535 12.647 17.798 1.302 1.264 3.132 3.546 3.132 3.546s14.482-8.474 17.053-10.477c2.571-2.002 5.031-5.508 5.031-5.508s.273-2.437.368-3.2c.094-.762 2.348-.929 2.348-.929s1.52-1.925 2.733-1.864c1.213.062 1.496 1.853 1.496 1.853s1.564 2.755 1.664 4.108c.1 1.352-2.705 4.279-3.874 4.818-1.169.54-3.4 1.007-3.4 1.007s-9.323 10.812-12.407 14.061c-3.083 3.25-8.119 6.644-9.288 7.183s-5.877-1.832-6.661-2.227-20.593-19.024-20.593-19.024" stroke-miterlimit="10"/><path d="m132.957 125.956s5.085 8.038 7.381 11.483c2.297 3.444 6.234 7.545 6.234 7.545s4.101-3.609 7.382-6.889c3.281-3.281 4.921-8.858 4.921-8.858s-1.969-3.445-1.969-4.101 1.805-2.625 2.297-3.117 1.312-.328 1.312-.328.492-.656 1.804-.656 4.429 3.116 4.757 5.413c.328 2.296-1.969 4.757-2.953 6.234-.984 1.476-5.413 9.678-7.217 13.615-1.805 3.937-7.874 10.662-9.843 10.991-1.968.328-11.482-7.71-12.631-9.187-1.148-1.476 0-13.451-.82-15.419-.819-1.969-.655-6.726-.655-6.726z" fill="#fff" stroke-miterlimit="10"/><path d="m160.515 121.691s4.101 3.117 2.461 3.773c-1.641.656-2.297-.984-2.297-.984s1.641 1.968.985 3.609" stroke-miterlimit="10"/><path d="m161.992 125.792s2.296 2.296 3.445 2.46" stroke-miterlimit="10"/><path d="m110.484 184.518s-5.414 20.833-7.218 23.129-10.4982 10.006-12.1385 14.436c-1.6404 4.429-9.5885 21.969-10.5728 24.758s-1.8045 3.609-1.8045 3.609l6.8897 3.772s7.2921-13.439 11.2288-18.36c3.9373-4.922 9.0223-12.631 12.6313-16.241 3.609-3.609 14.271-18.536 14.271-18.536z" fill="#fff" stroke-miterlimit="10"/><path d="m123.771 201.086-13.287-16.568s-4.787 18.418-6.858 22.525c1.961 2.37 5.331 5.277 10.721 6.76 4.336-5.595 9.424-12.717 9.424-12.717z" fill="#263238" stroke-miterlimit="10"/><path d="m85.6399 254.223s1.689-2.976 3.6755-6.938c-2.9738-.832-6.0285-2.428-7.6151-3.501-.5994 1.658-.9277 2.441-1.1456 3.057-.9843 2.789-1.8045 3.609-1.8045 3.609z" fill="#fff" stroke-miterlimit="10"/><path d="m88.5924 256.848s-.656-.329-.8202-2.953c-.1641-2.625-.4919-4.43-1.4762-2.789-.9843 1.64-.9843 1.64-.9843 1.64l-6.3973-3.772s-1.1485.984-1.1485 1.968c0 .985-4.5934 5.414-3.6091 6.726.9844 1.312 4.4293 1.312 7.8741 3.609 3.4449 2.296 4.1009 3.445 8.366 3.609s5.0852-1.313 5.0852-2.133-3.4448-2.132-4.5933-3.281c-1.1479-1.148-2.2964-2.624-2.2964-2.624z" fill="#fff" stroke-miterlimit="10"/><path d="m95.4822 262.753c0-.205-.2162-.442-.5578-.698-.8358.537-2.6998 1.31-6.1678.862-5.0853-.656-5.0853-2.132-7.8741-4.593-1.8728-1.653-4.6275-2.415-6.239-2.739-.5242.875-.8115 1.649-.4866 2.082.9843 1.312 4.4292 1.312 7.8741 3.609 3.4448 2.297 4.1009 3.445 8.3659 3.609 4.2651.164 5.0853-1.312 5.0853-2.132z" fill="#fff" stroke-miterlimit="10"/><path d="m108.516 172.543s-1.805 5.905 1.476 14.271 16.732 22.966 20.997 26.574c4.265 3.609 4.265 3.609 4.265 3.609s.656 9.843 5.413 16.568c4.757 6.726 16.24 22.966 16.24 22.966l5.414-4.101s-4.43-5.249-5.742-10.335c-1.312-5.085-8.366-20.341-9.514-25.426-1.149-5.085-5.414-13.943-5.906-14.763s-9.35-17.552-9.35-17.552l1.312-8.038z" fill="#fff" stroke-miterlimit="10"/><path d="m130.392 212.865c1.281-1.75 4.976-5.672 12.832-6.637-1.009-2.26-1.861-3.982-2.065-4.322-.493-.82-9.351-17.552-9.351-17.552l1.312-8.038-24.606-3.772s-1.804 5.905 1.477 14.271c3.142 8.011 15.604 21.731 20.401 26.05z" fill="#263238" stroke-miterlimit="10"/><path d="m151.764 249.257c2.906 4.111 5.143 7.274 5.143 7.274l5.413-4.101s-2.702-3.211-4.511-7.042c-1.365 1.228-3.398 2.737-6.045 3.869z" fill="#fff" stroke-miterlimit="10"/><path d="m161.992 247.837s-2.461-2.297-2.132.656c.328 2.952 1.312 3.936 1.312 3.936s-6.726 3.117-6.07 4.594 1.476 2.46 1.476 2.46 4.101 6.398 5.906 5.742c1.804-.656 4.921-4.757 7.71-6.07s6.233-5.741 7.053-8.366.328-3.609-1.64-2.461c-1.969 1.149-4.593 2.625-7.546 2.625-2.952 0-5.085-1.64-5.085-1.64z" fill="#fff" stroke-miterlimit="10"/><path d="m176.791 247.863c-.011.048-.025.089-.036.138-.984 4.429-6.561 7.546-9.186 10.006-2.148 2.014-6.272 4.795-7.698 5.739.969 1.002 1.947 1.721 2.613 1.479 1.804-.656 4.921-4.757 7.71-6.069 2.789-1.313 6.233-5.742 7.053-8.366.619-1.981.49-3.026-.456-2.927z" fill="#fff" stroke-miterlimit="10"/><path d="m138.47 87.1595s1.392 2.4051 1.772 5.3164c.38 2.9114.253 4.557 1.392 5.9494 1.14 1.3924 2.152 2.2787 1.899 3.0377-.253.76-2.025 1.646-2.025 1.646s-1.519 6.202-2.912 7.215c-1.392 1.013-6.076-.253-6.076-.253s-1.772 2.405-1.645 5.823c.126 3.417 2.911 8.734 4.557 13.671 1.645 4.937 1.898 9.114.253 15.697-1.646 6.582-2.279 20.76-2.152 24.557.127 3.798.127 5.823.127 5.823s1.898 2.152-6.836 2.152-16.962-3.291-17.848-3.671c-.887-.38-1.14-1.013-1.14-1.013s2.026-22.152 1.393-23.924-1.266-9.874-1.266-9.874.253-13.798 4.177-18.987c3.924-5.19 8.481-7.469 10.127-10.127 1.645-2.658 1.012-5.696 1.012-5.696s-4.303-3.165-6.329-9.2407c-2.025-6.0759 3.671-12.6587 7.848-14.1777 4.178-1.519 12.786.5063 14.051 2.0253 1.266 1.519-.379 4.0506-.379 4.0506z" fill="#fff" stroke-miterlimit="10"/><path d="m138.849 83.1089c-1.265-1.519-9.873-3.5443-14.051-2.0253-4.177 1.519-9.873 8.1012-7.848 14.1777 2.026 6.0757 6.329 9.2407 6.329 9.2407s.037.18.07.485c.923-.16 3.095-1.245 3.095-1.245s-1.013-.759-1.393-1.266c-.379-.506-1.392-4.0501.633-4.683 2.026-.6329 2.532.7595 2.912 1.519.379.759 1.392-.0001 1.772-.3798s.126-3.2911.126-3.2911 1.519-1.1393 2.659-2.4051c1.139-1.2658-3.165-4.1772-3.165-4.1772s3.165-.1266 4.81-.3797c1.646-.2532 3.671-1.519 3.671-1.519s1.646-2.5322.38-4.0512z" fill="#263238" stroke-miterlimit="10"/><path d="m132.52 110.071-3.164-1.519 2.152 3.419z" fill="#263238" stroke-miterlimit="10"/></g><path d="m139.734 97.6323c.054.6971-.1 1.2774-.344 1.2959s-.486-.5312-.539-1.2283c-.054-.697.101-1.2774.345-1.2959.244-.0184.485.5312.538 1.2283z" fill="#263238"/><path d="m137.71 95.2613s.886-1.3924 1.772-.6329" stroke="#263238" stroke-miterlimit="10"/><path d="m140.115 104.882s-1.898-.76-1.898-1.266" stroke="#263238" stroke-miterlimit="10"/><path d="m133.66 175.643s0-2.026-.127-5.823c-.127-3.798.506-17.975 2.152-24.558 1.645-6.582 1.392-10.759-.253-15.696-.541-1.621-1.203-3.281-1.854-4.903-2.953.613-6.308-3.864-8.331-7.237-2.461-4.101-6.726-3.445-6.726-3.445l-.034-.03c-.42.352-.854.72-1.302 1.109 1.911.495 5.224 1.92 6.914 5.974 2.46 5.906-1.64 13.287-6.562 15.584-3.586 1.674-7.511.126-9.382-.838-.165 2.105-.192 3.532-.192 3.532s.633 8.101 1.266 9.873-1.393 23.925-1.393 23.925.253.633 1.14 1.012c.886.38 9.113 3.671 17.848 3.671 8.734.002 6.836-2.15 6.836-2.15z" fill="url(#r)" stroke="#263238" stroke-miterlimit="10"/><path d="m119.178 116.606s-6.562-.329-9.35 3.116c-2.789 3.445-16.2405 24.114-16.8966 25.754-.656 1.641.9844 4.101.9844 4.101s20.5042 18.372 21.1612 18.537c.656.164 4.429 4.593 5.577 4.921 1.149.328 4.921-.656 5.413-1.149.492-.492 2.789-2.625 1.805-3.445-.985-.82-1.641-1.312-1.641-1.804 0-.493.492-2.297-1.312-2.625s-7.382-.328-7.382-.328-2.788-3.281-6.397-8.366-5.741-9.022-5.741-9.022l15.091-14.6" fill="#fff"/><path d="m119.178 116.606s-6.562-.329-9.35 3.116c-2.789 3.445-16.2405 24.114-16.8966 25.754-.656 1.641.9844 4.101.9844 4.101s20.5042 18.372 21.1612 18.537c.656.164 4.429 4.593 5.577 4.921 1.149.328 4.921-.656 5.413-1.149.492-.492 2.789-2.625 1.805-3.445-.985-.82-1.641-1.312-1.641-1.804 0-.493.492-2.297-1.312-2.625s-7.382-.328-7.382-.328-2.788-3.281-6.397-8.366-5.741-9.022-5.741-9.022l15.091-14.6" stroke="#263238" stroke-miterlimit="10"/></svg>