<svg fill="none" height="282" viewBox="0 0 282 282" width="282" xmlns="http://www.w3.org/2000/svg" xmlns:xlink="http://www.w3.org/1999/xlink"><linearGradient id="a"><stop offset="0" stop-color="#1effd7"/><stop offset="1" stop-color="#008080"/></linearGradient><linearGradient id="b" gradientUnits="userSpaceOnUse" x1="148.231" x2="148.231" xlink:href="#a" y1="77.5673" y2="92.3415"/><linearGradient id="c" gradientUnits="userSpaceOnUse" x1="148.263" x2="148.263" xlink:href="#a" y1="78.922" y2="90.9889"/><linearGradient id="d" gradientUnits="userSpaceOnUse" x1="144.425" x2="144.425" xlink:href="#a" y1="85.2063" y2="90.1938"/><linearGradient id="e" gradientUnits="userSpaceOnUse" x1="151.226" x2="151.226" xlink:href="#a" y1="86.0621" y2="91.1471"/><linearGradient id="f" gradientUnits="userSpaceOnUse" x1="152.444" x2="152.444" xlink:href="#a" y1="78.8215" y2="83.9256"/><linearGradient id="g" gradientUnits="userSpaceOnUse" x1="145.731" x2="145.731" xlink:href="#a" y1="78.2474" y2="83.3434"/><linearGradient id="h" gradientUnits="userSpaceOnUse" x1="142.948" x2="142.948" xlink:href="#a" y1="98.19" y2="137.96"/><linearGradient id="i" gradientUnits="userSpaceOnUse" x1="110.446" x2="110.446" xlink:href="#a" y1="96.7164" y2="198.945"/><linearGradient id="j" gradientUnits="userSpaceOnUse" x1="142.659" x2="142.659" xlink:href="#a" y1="144.063" y2="158.837"/><linearGradient id="k" gradientUnits="userSpaceOnUse" x1="142.662" x2="142.662" xlink:href="#a" y1="145.418" y2="157.485"/><linearGradient id="l" gradientUnits="userSpaceOnUse" x1="138.831" x2="138.831" xlink:href="#a" y1="151.702" y2="156.689"/><linearGradient id="m" gradientUnits="userSpaceOnUse" x1="146.85" x2="146.85" xlink:href="#a" y1="145.317" y2="150.421"/><linearGradient id="n" gradientUnits="userSpaceOnUse" x1="140.137" x2="140.137" xlink:href="#a" y1="144.743" y2="149.839"/><linearGradient id="o" gradientUnits="userSpaceOnUse" x1="159.954" x2="159.954" xlink:href="#a" y1="135.638" y2="150.008"/><linearGradient id="p" gradientUnits="userSpaceOnUse" x1="159.982" x2="159.982" xlink:href="#a" y1="136.938" y2="148.68"/><linearGradient id="q" gradientUnits="userSpaceOnUse" x1="155.918" x2="155.918" xlink:href="#a" y1="138.564" y2="143.559"/><linearGradient id="r" gradientUnits="userSpaceOnUse" x1="158.989" x2="158.989" xlink:href="#a" y1="144.186" y2="149.34"/><linearGradient id="s" gradientUnits="userSpaceOnUse" x1="164.855" x2="164.855" xlink:href="#a" y1="141.515" y2="146.64"/><linearGradient id="t" gradientUnits="userSpaceOnUse" x1="161.978" x2="161.978" xlink:href="#a" y1="136.273" y2="141.471"/><linearGradient id="u" gradientUnits="userSpaceOnUse" x1="174.641" x2="174.641" xlink:href="#a" y1="143.671" y2="158.165"/><linearGradient id="v" gradientUnits="userSpaceOnUse" x1="174.633" x2="174.633" xlink:href="#a" y1="144.985" y2="156.829"/><linearGradient id="w" gradientUnits="userSpaceOnUse" x1="178.086" x2="178.086" xlink:href="#a" y1="151.866" y2="156.942"/><linearGradient id="x" gradientUnits="userSpaceOnUse" x1="177.836" x2="177.836" xlink:href="#a" y1="144.704" y2="150.095"/><linearGradient id="y" gradientUnits="userSpaceOnUse" x1="170.347" x2="170.347" xlink:href="#a" y1="144.717" y2="149.736"/><linearGradient id="z" gradientUnits="userSpaceOnUse" x1="191.816" x2="191.816" xlink:href="#a" y1="136.574" y2="151.072"/><linearGradient id="A" gradientUnits="userSpaceOnUse" x1="191.802" x2="191.802" xlink:href="#a" y1="137.9" y2="149.745"/><linearGradient id="B" gradientUnits="userSpaceOnUse" x1="195.256" x2="195.256" xlink:href="#a" y1="144.778" y2="149.847"/><linearGradient id="C" gradientUnits="userSpaceOnUse" x1="195.006" x2="195.006" xlink:href="#a" y1="137.615" y2="143.002"/><linearGradient id="D" gradientUnits="userSpaceOnUse" x1="187.516" x2="187.516" xlink:href="#a" y1="137.616" y2="142.635"/><linearGradient id="E" gradientUnits="userSpaceOnUse" x1="187.913" x2="187.913" xlink:href="#a" y1="144.355" y2="149.705"/><linearGradient id="F" gradientUnits="userSpaceOnUse" x1="94.8989" x2="94.8989" xlink:href="#a" y1="103.276" y2="156.363"/><linearGradient id="G" gradientUnits="userSpaceOnUse" x1="137.224" x2="137.219" xlink:href="#a" y1="196.898" y2="200.519"/><linearGradient id="H" gradientUnits="userSpaceOnUse" x1="29.8449" x2="29.8449" xlink:href="#a" y1="211.728" y2="230.405"/><linearGradient id="I" gradientUnits="userSpaceOnUse" x1="56.273" x2="56.273" xlink:href="#a" y1="214.606" y2="234.472"/><linearGradient id="J" gradientUnits="userSpaceOnUse" x1="43.9743" x2="43.9743" xlink:href="#a" y1="213.755" y2="233.097"/><linearGradient id="K" gradientUnits="userSpaceOnUse" x1="69.0221" x2="69.0221" xlink:href="#a" y1="214.814" y2="232.56"/><linearGradient id="L" gradientUnits="userSpaceOnUse" x1="208.7" x2="208.7" xlink:href="#a" y1="203.751" y2="247.032"/><linearGradient id="M" gradientUnits="userSpaceOnUse" x1="176.503" x2="176.503" xlink:href="#a" y1="40.3444" y2="56.3605"/><g fill="#ebebeb"><path d="m47.9054 42.1252h-14.8872v6.3111h14.8872z"/><path d="m39.6016 34.1671h-14.8871v6.3112h14.8871z"/><path d="m56.2091 34.1671h-14.8871v6.3112h14.8871z"/><path d="m248.084 34.1671h-14.887v6.3112h14.887z"/><path d="m248.084 204.467h-14.887v6.311h14.887z"/><path d="m256.387 196.509h-14.887v6.311h14.887z"/><path d="m39.6016 204.461h-14.8871v6.311h14.8871z"/><path d="m65.7329 135.681h14.8871v-6.311h-14.8871z"/><path d="m74.0366 143.64h14.8872v-6.312h-14.8872z"/></g><path d="m47.4781 0h-.6634v61.5606h.6634z" fill="#c7c7c7"/><path d="m66.5031 80.2798-1.5573 3.4347h-35.6044l-1.5517-3.4347 15.157-10.5243h8.3994z" fill="#ebebeb"/><path d="m52.3974 59.6148-1.0513 10.1407h-8.3993l-1.0514-10.1407z" fill="#dbdbdb"/><path d="m66.5031 80.2854-1.5573 3.4291h-35.6044l-1.5517-3.4291z" fill="#dbdbdb"/><path d="m94.2928 0h-.6634v50.4836h.6634z" fill="#c7c7c7"/><path d="m113.318 69.2028-1.557 3.4348h-35.6049l-1.5516-3.4348 15.157-10.5242h8.3993z" fill="#ebebeb"/><path d="m99.2121 48.5378-1.0513 10.1408h-8.3993l-1.0513-10.1408z" fill="#dbdbdb"/><path d="m113.318 69.2084-1.557 3.4292h-35.6049l-1.5516-3.4292z" fill="#dbdbdb"/><path d="m239.521 44.2965h-36.537v36.6544h36.537z" fill="#fff"/><path d="m201.083 42.3903v40.467h40.339v-40.467zm38.416 38.5606h-36.543v-36.66h36.543z" fill="#dbdbdb"/><path d="m236.896 73.8502v-12.6731h-28.476v12.6731z" fill="#ebebeb"/><path d="m228.547 69.9416v-14.6358h-14.589v14.6358z" fill="#c7c7c7"/><path d="m242.979 42.3903h-1.557v40.467h1.557z" fill="#c7c7c7"/><path d="m239.521 96.3425h-36.537v36.6545h36.537z" fill="#fff"/><path d="m218.804 102.208h-9.54v27.647h9.54z" fill="#c7c7c7"/><path d="m201.083 94.4362v40.4668h40.339v-40.4668zm38.416 38.5608h-36.543v-36.6602h36.543z" fill="#dbdbdb"/><path d="m228.547 107.352h-14.589v14.636h14.589z" fill="#ebebeb"/><path d="m242.979 94.4362h-1.557v40.4668h1.557z" fill="#c7c7c7"/><path d="m239.521 148.388h-36.537v36.655h36.537z" fill="#fff"/><path d="m227.085 153.385h-20.048v12.025h20.048z" fill="#ebebeb"/><path d="m201.083 146.482v40.467h40.339v-40.467zm38.416 38.561h-36.543v-36.66h36.543z" fill="#dbdbdb"/><path d="m228.547 159.398h-14.589v14.635h14.589z" fill="#c7c7c7"/><path d="m242.979 146.482h-1.557v40.467h1.557z" fill="#c7c7c7"/><path d="m184.802 260.139c37.263 0 67.47-3.446 67.47-7.698s-30.207-7.699-67.47-7.699-67.47 3.447-67.47 7.699 30.207 7.698 67.47 7.698z" fill="#ebebeb"/><path d="m17.2428 243.648 30.8256-.135 30.8313-.051 61.6513-.096 61.651.096 30.832.045 30.825.141-30.825.135-30.832.051-61.651.096-61.6513-.096-30.8313-.051z" fill="#263238"/><path d="m152.425 243.648h-48.856c-1.54-16.615-3.086-33.643-4.3119-47.218-.0394-.451-.0843-.902-.1237-1.348-1.383-15.358-2.3219-25.972-2.3219-25.972h46.1005c.003.047.003.094 0 .141.343 2.515 5.038 39.22 9.513 74.397z" fill="#37474f"/><path d="m110.973 243.648h-.781c-2.131-17.992-3.862-36.017-5.437-54.065-.089-1.079-.183-2.16-.281-3.243-.314-3.705-.629-7.428-.933-11.139 0-.113.163-.113.18 0 .345 3.29.678 6.572 1.001 9.847.002.01.002.019 0 .029.112 1.195.236 2.385.354 3.587 1.254 12.453 2.496 24.895 3.857 37.331.648 5.892 1.328 11.776 2.04 17.653z" fill="#263238"/><path d="m136.256 169.11-6.185 41.014-.219 1.387-.562 3.695-.045.259-.146.993-4.115 27.19h-26.2441c-2.693-15.228-5.4478-30.839-7.7303-43.795-.0506-.293-.1012-.564-.1518-.857-3.0753-17.433-5.2735-29.892-5.2735-29.892z" fill="#263238"/><path d="m142.957 169.07s0 .057-.028.181c-.365 2.391-4.335 28.036-10.929 44.866-.045.141-.096.271-.158.417 0 0-.927.288-2.603.953-.652.26-1.428.564-2.305.959l-.955.429c-1.934.868-4.279 2.008-6.955 3.463-.258.135-.511.276-.764.417v.305c-.135 1.765-.821 10.823-1.687 22.56h-46.022c3.5418-36.621 7.4323-74.578 7.4323-74.578z" fill="#37474f"/><path d="m83.1331 176.205c-1.3099 17.179-2.5637 34.359-3.9354 51.516-.4273 5.309-.8658 10.618-1.3156 15.927h-.6746c1.9452-22.477 3.7948-44.955 5.5489-67.432.0113-.248.3936-.248.3767-.011z" fill="#263238"/><path d="m134.17 213.327c-5.508 2.011-10.831 4.499-15.91 7.434-.022.01-.042.023-.058.041-.017.017-.03.037-.038.059-.009.023-.013.046-.013.07.001.024.006.048.016.07.009.021.023.041.04.058.018.016.038.029.06.038.022.008.046.013.07.012.024 0 .047-.006.069-.015 5.358-2.313 10.822-4.512 16.051-7.124.085-.038.151-.108.184-.196.033-.087.031-.184-.007-.269s-.108-.152-.195-.185-.184-.031-.269.007z" fill="#263238"/><path d="m135.873 176.43c0-.186-.343-.225-.337 0 .039 6.385-.365 11.997-.899 17.964-.253 2.769-2.474 18.076-7.258 16.959-.804-.186-1.215-.975-1.338-2.188-.152-1.455.393-3.243.635-4.692.562-3.21.961-6.424 1.231-9.656.558-6.027.494-12.096-.191-18.11-.007-.036-.026-.069-.054-.092-.029-.024-.064-.036-.101-.036-.036 0-.072.012-.1.036-.028.023-.047.056-.054.092 0 8.364-.214 16.711-1.462 24.996-.596 3.982-2.597 9.977 1.557 10.587 4.155.609 6.96-9.414 7.478-12.16 1.439-7.671 1.495-15.945.893-23.7z" fill="#263238"/><path d="m127.502 211.743c-.425 1.034-.783 2.095-1.074 3.175-.309.833-.462 1.717-.449 2.606.007.035.024.068.049.093.025.026.057.044.093.052.035.008.071.005.105-.008s.063-.035.084-.064c.501-.784.88-1.64 1.125-2.538.365-.982.748-1.957 1.085-2.95.008-.122-.024-.244-.091-.346-.067-.103-.165-.181-.28-.222-.115-.042-.24-.044-.357-.008s-.218.11-.29.21z" fill="#263238"/><path d="m105.841 181.439c.008-.668-.059-1.334-.203-1.985-.005-.023-.018-.042-.036-.056-.017-.015-.04-.022-.062-.022-.023 0-.045.007-.063.022-.018.014-.03.033-.036.056-.133.554-.207 1.121-.219 1.692-.067.659-.157 1.314-.225 1.974-.143 1.347-.378 2.683-.703 3.998-.604 2.488-1.866 4.766-3.654 6.593-1.7778 1.751-3.8782 3.138-6.1841 4.084-2.5693 1.094-5.2791 1.5-7.9327 2.284-.1125.028-.0787.192 0 .197 2.9468-.007 5.8649-.582 8.5961-1.692 2.4129-.91 4.6094-2.316 6.4487-4.128 1.845-1.869 3.145-4.21 3.755-6.768.307-1.316.481-2.659.518-4.01.044-.746.044-1.493 0-2.239z" fill="#263238"/><path d="m123.196 109.98c3.705 8.325 30.674 46.891 52.347 51.55 3.654.784 14.994 4.382 21.554-5.02 8.866-12.696 14.522-37.01 13.28-49.976-1.029-10.716-30.236-2.679-31.956 3.423-1.299 4.62-3.609 19.774-4.554 19.532-6.139-1.591-24.428-17.484-42.654-27.27-8.45-4.568-10.868 1.326-8.017 7.761z" fill="#ad6359"/><path d="m172.074 136.076c.126-.948.301-1.889.523-2.82.464-1.793 1.093-3.539 1.877-5.217.034-.073.169-.028.141.057-.562 1.731-.973 3.53-1.434 5.296-.225.88-.438 1.754-.635 2.639-.197.886-.444 1.805-.596 2.719 0 .05-.101.045-.096 0 .062-.908.096-1.788.22-2.674z" fill="#263238"/><path d="m210.512 108.514s-.484-14.044-5.504-23.3838c-3.469-6.4578-12.582-19.6611-34.39-20.5071-5.173-.1974-12.689 3.1979-4.357 6.5988 5.92 2.4196 10.4 2.1602 13.588 4.1962 0 0-9.046 5.4595-9.046 10.6652 0 2.3294-.343 7.3715.478 12.3009 0 0 1.614 1.4156 3.047 1.3536 0 0 .158 4.8732 5.622 9.9042z" fill="#ad6359"/><path d="m143.924 79.2138c-2.653 1.7935-4.104 6.0292-1.968 10.0561 2.137 4.027 7.545 3.5138 10.12 1.7484 2.575-1.7653 4.751-6.1701 2.553-9.9264-1.861-3.2599-6.033-5.0196-10.705-1.8781z" fill="url(#b)"/><path d="m143.924 79.2138c-2.653 1.7935-4.104 6.0292-1.968 10.0561 2.137 4.027 7.545 3.5138 10.12 1.7484 2.575-1.7653 4.751-6.1701 2.553-9.9264-1.861-3.2599-6.033-5.0196-10.705-1.8781z" fill="#000" opacity=".1"/><path d="m144.734 80.2685c-2.165 1.4608-3.345 4.9237-1.603 8.2118 1.743 3.2882 6.185 2.8708 8.276 1.427 2.092-1.4439 3.885-5.0366 2.092-8.1104-1.552-2.662-4.959-4.0946-8.765-1.5284z" fill="url(#c)"/><path d="m149.265 82.0958c.191.1523.877-.423.5-.6937-.376-.2707-.747.502-.5.6937z" fill="#fff"/><path d="m150.867 85.869c-.095.2199.63.7445.799.3102.168-.4343-.669-.6035-.799-.3102z" fill="#fff"/><path d="m152.475 84.4026c.04.2369.934.2764.838-.1805-.096-.4568-.888-.1353-.838.1805z" fill="#fff"/><path d="m149.22 80.4433c.236-.0394.281-.9306-.174-.8403-.456.0902-.141.8911.174.8403z" fill="#fff"/><path d="m144.942 83.5679c.062-.2312-.737-.6373-.838-.1805-.101.4569.753.4907.838.1805z" fill="#fff"/><path d="m146.853 88.548c-.197-.141-.854.4625-.466.7163s.725-.5245.466-.7163z" fill="#fff"/><path d="m148.422 88.2491c-.236-.0395-.562.7952-.101.8516s.416-.8008.101-.8516z" fill="#fff"/><path d="m146.775 84.7185c.168-.1692-.326-.9194-.636-.564-.309.3553.411.7896.636.564z" fill="#fff"/><path d="m141.962 85.3389s4.357-.4851 4.931.4004c.573.8855-2.525 4.7771-3.036 4.4331-.512-.3441-2.367-3.3559-1.895-4.8335z" fill="url(#d)"/><path d="m141.962 85.3389s4.357-.4851 4.931.4004c.573.8855-2.525 4.7771-3.036 4.4331-.512-.3441-2.367-3.3559-1.895-4.8335z" fill="#000" opacity=".1"/><path d="m149.411 91.1368s-1.287-4.2075-.523-4.935c.765-.7276 5.145 1.5961 4.908 2.1657-.236.5697-2.85 2.9554-4.385 2.7693z" fill="url(#e)"/><path d="m149.411 91.1368s-1.287-4.2075-.523-4.935c.765-.7276 5.145 1.5961 4.908 2.1657-.236.5697-2.85 2.9554-4.385 2.7693z" fill="#000" opacity=".1"/><path d="m154.96 83.3874s-4.261 1.0378-4.942.2312c-.68-.8065 1.895-5.076 2.446-4.7827s2.772 3.0231 2.496 4.5515z" fill="url(#f)"/><path d="m154.96 83.3874s-4.261 1.0378-4.942.2312c-.68-.8065 1.895-5.076 2.446-4.7827s2.772 3.0231 2.496 4.5515z" fill="#000" opacity=".1"/><path d="m147.736 78.2719s1.04 4.2752.236 4.9576-5.06-1.9007-4.773-2.4534 3.019-2.7862 4.537-2.5042z" fill="url(#g)"/><path d="m147.736 78.2719s1.04 4.2752.236 4.9576-5.06-1.9007-4.773-2.4534 3.019-2.7862 4.537-2.5042z" fill="#000" opacity=".1"/><path d="m156.692 85.4404c-2.052.7839-11.874 2.7467-11.874 2.7467l.191-.4682 10.53-3.2881c.076-.0292.138-.0863.174-.1596.035-.0732.041-.1573.017-.2352-.012-.0409-.032-.0789-.059-.1118-.027-.0328-.061-.0598-.098-.0793-.038-.0195-.08-.0311-.122-.0341-.043-.003-.085.0026-.125.0165l-9.845 2.7072.31-.7501 10.772-3.5306c.045-.0082.088-.026.126-.0522.038-.0261.07-.0601.094-.0997.025-.0396.04-.0838.046-.1298.005-.046.001-.0926-.013-.1369-.013-.0443-.036-.0851-.067-.1198-.03-.0348-.068-.0626-.11-.0817s-.087-.029-.134-.029c-.046-.0001-.091.0097-.134.0287l-10.08 2.9441.298-.7163 11.019-3.8014c.042-.0115.08-.0314.113-.0583.034-.027.061-.0605.081-.0985.02-.0381.032-.0798.036-.1226.003-.0429-.002-.086-.016-.1267-.012-.0407-.031-.0786-.058-.1114-.026-.0328-.059-.0598-.097-.0793-.037-.0196-.078-.0313-.12-.0343-.042-.0031-.084.0025-.124.0164l-10.345 3.2204.253-.6091s10.367-4.0157 11.593-4.2526c2.209-.4343.877 6.4522-2.232 7.6366z" fill="#455a64"/><path d="m158.974 79.744c1.44-.6599 7.348-3.2712 8.046-3.542.809-.3158 29.442-11.4886 30.583-11.5225 1.142-.0338.624 3.8973-.033 4.7264-.658.829-27.784 8.3246-30.517 9.4075-2.861 1.128-8.242 3.384-8.242 3.384z" fill="#455a64"/><path d="m203.439 84.4026c-3.109-2.256-9.788-6.8864-16.568-8.7815-7.528-2.1037-22.595-4.1172-24.085 1.4721-1.096 4.1002 4.593 5.3805 4.593 5.3805s-6.403.4794-6.583 4.3992c-.163 3.5758 4.29 4.2977 4.29 4.2977s-3.835.9644-3.329 4.4387c.607 4.1736 8.54 1.4664 12.796 5.1667.956.829 28.886-16.3734 28.886-16.3734z" fill="#ad6359"/><path d="m185.983 83.974c-3.267-1.63-11.649-3.4179-18.491-1.63-.158.0395-.208.1805-.062.1749 6.222-.2544 12.453.2532 18.553 1.5115.022.0056.039-.0395 0-.0564z" fill="#263238"/><path d="m183.65 91.5372c-2.969-1.128-11.689-2.5718-18.553-.5076-.158.0451-.197.1861-.051.1748 6.193-.5721 12.43-.4378 18.592.4005.034.0113.045-.0564.012-.0677z" fill="#263238"/><path d="m141.788 137.96 28.56-15.29s-28.307-17.304-41.367-22.278c-13.611-5.2057-18.761-1.3761-6.505 13.57 12.071 14.698 19.312 23.998 19.312 23.998z" fill="url(#h)"/><path d="m168.003 121.26c-.546.146-1.08.334-1.596.564-.767.333-1.485.771-2.131 1.303.826-.124 1.63-.363 2.389-.711.595-.256 1.16-.576 1.687-.953-.118-.056-.253-.13-.349-.203zm-30.089 4.269c-.767.329-1.483.768-2.125 1.303.824-.125 1.627-.366 2.384-.716.769-.326 1.487-.763 2.131-1.297-.827.118-1.632.357-2.39.71zm13.527 2.572c-.328-.768-.763-1.486-1.293-2.132.121.829.359 1.636.708 2.397.326.769.761 1.485 1.293 2.127-.119-.828-.358-1.633-.708-2.392zm-24.383-12.34c-.332-.766-.769-1.482-1.299-2.126.124.827.365 1.632.714 2.391.325.771.76 1.489 1.293 2.132-.121-.829-.359-1.636-.708-2.397zm-6.746-11.754c-.775-.303-1.589-.493-2.418-.564.669.499 1.406.9 2.187 1.19.776.301 1.589.491 2.418.564-.67-.498-1.406-.899-2.187-1.19zm19.637 8.46c-.775-.313-1.591-.512-2.423-.592.671.501 1.409.904 2.193 1.196.775.3 1.589.49 2.417.564-.656-.499-1.379-.901-2.147-1.196zm-6.943-10.383c-.298.749-.487 1.537-.562 2.341.473-.634.852-1.333 1.124-2.076zm19.464 14.799c-.3.778-.489 1.595-.563 2.426.981-1.359 1.592-2.951 1.771-4.62-.503.665-.91 1.398-1.208 2.177z" fill="#fff"/><path d="m141.113 131.976c.635-.44 1.344-.795 2.013-1.179.669-.383 1.383-.784 2.074-1.179 1.406-.795 2.811-1.567 4.239-2.334 2.811-1.529 5.662-3.074 8.523-4.552.788-.412 1.575-.812 2.373-1.201s1.687-.756 2.541-1.162c.01-.001.019.001.027.006s.015.012.019.021c.003.009.004.019.002.028s-.007.018-.014.024c-.686.4-1.349.863-2.035 1.263-.686.401-1.423.824-2.137 1.218-1.409.779-2.828 1.544-4.256 2.296-2.811 1.489-5.622 2.989-8.433 4.416l-2.406 1.207c-.826.417-1.647.885-2.513 1.224-.017.017-.084-.045-.017-.096z" fill="#263238"/><path d="m122.476 113.928c12.071 14.726 19.312 24.021 19.312 24.021l9.124-4.884-34.294-34.0774c-2.367 1.8214-.911 6.6894 5.858 14.9404z" fill="#263238"/><path d="m148.292 194.151-75.6946 4.794s7.0107-73.173 33.3496-99.7317c3.255-3.2769 11.076-3.0738 16.304-.863 1.872.784 8.95 9.5037 11.345 18.0477 2.395 8.545 14.882 77.483 14.696 77.753z" fill="url(#i)"/><path d="m98.5206 120.696c-.7677.329-1.4851.766-2.1307 1.297.8282-.124 1.6334-.371 2.3893-.733.7692-.326 1.4868-.763 2.1308-1.297-.827.13-1.6315.376-2.3894.733zm37.3584 6.091c-.032.021-.063.046-.09.074.032.003.064.003.096 0 0 0-.006-.085-.006-.102zm-18.941 12.645c-.768.329-1.485.765-2.13 1.297.825-.123 1.63-.362 2.389-.71.767-.328 1.482-.765 2.125-1.298-.825.119-1.628.358-2.384.711zm-8.32 32.114c-.767.331-1.482.77-2.125 1.303.826-.119 1.631-.358 2.389-.711.766-.331 1.481-.77 2.125-1.302-.826.121-1.631.36-2.389.71zm-18.6991-20.868c-.7646.332-1.4797.769-2.1251 1.297.8267-.118 1.6316-.358 2.3893-.71.7657-.33 1.4812-.767 2.1252-1.297-.8276.13-1.6322.379-2.3894.738zm-12.7789 44.742c-.767.328-1.4828.765-2.1251 1.298.8267-.119 1.6316-.359 2.3893-.711.7666-.331 1.4822-.769 2.1252-1.303-.8287.129-1.6338.38-2.3894.745zm33.26-4.856c-.767.328-1.483.765-2.125 1.298.826-.122 1.631-.361 2.389-.711.766-.333 1.481-.771 2.125-1.303-.829.127-1.634.378-2.389.745zm37.46.756c-.532.145-1.051.333-1.552.564-.764.333-1.479.769-2.125 1.297.826-.119 1.631-.359 2.389-.71.47-.21.925-.453 1.361-.728-.034-.147-.073-.288-.073-.423zm-17.097-22.035c-.768.33-1.486.769-2.131 1.302.817-.125 1.611-.364 2.362-.71.768-.329 1.486-.768 2.13-1.303-.82.121-1.619.361-2.372.711zm-25.181-60.833c-.328-.77-.766-1.488-1.299-2.132.123.826.362 1.631.709 2.391.328.771.765 1.491 1.298 2.138-.119-.83-.358-1.637-.708-2.397zm-11.3173 86.038c-.3262-.771-.7617-1.491-1.293-2.138.1195.829.3581 1.637.7083 2.397.3276.771.763 1.491 1.2931 2.138-.1142-.83-.3531-1.639-.7084-2.397zm-4.6494-20.953c-.3317-.767-.7709-1.483-1.3043-2.126.1238.826.3622 1.631.7084 2.391.329.771.7684 1.489 1.3043 2.132-.1241-.828-.3626-1.635-.7084-2.397zm28.0087-14.393c-.33-.769-.765-1.488-1.293-2.138.117.83.356 1.638.709 2.397.325.772.761 1.492 1.293 2.138-.123-.828-.362-1.635-.709-2.397zm-11.896-26.508c-.329-.771-.767-1.491-1.299-2.138.117.83.356 1.638.709 2.397.328.772.765 1.492 1.298 2.138-.122-.82-.36-1.617-.708-2.369zm17.839 61.002c.1.695.289 1.373.562 2.019l.675-.045c-.327-.699-.743-1.353-1.237-1.946zm20.464-17.106c-.33-.77-.77-1.488-1.304-2.132.127.826.365 1.63.708 2.391.33.769.768 1.487 1.299 2.132-.119-.826-.356-1.632-.703-2.391zm-16.973-60.771c-.332-.766-.769-1.482-1.299-2.126.124.827.365 1.632.714 2.391.325.771.76 1.489 1.293 2.132-.121-.829-.359-1.636-.708-2.397zm-6.746-11.754c-.775-.303-1.589-.493-2.418-.564.669.499 1.406.9 2.187 1.19.776.301 1.589.491 2.418.564-.67-.498-1.406-.899-2.187-1.19zm-21.1955 58.453c-.7722-.316-1.5868-.516-2.4174-.592.6709.5 1.4091.903 2.1926 1.196.7761.298 1.5893.488 2.4173.564-.663-.493-1.3939-.887-2.17-1.168zm-18.3278 21.026c-.7753-.312-1.5913-.512-2.4231-.592 1.3559.985 2.9452 1.598 4.6101 1.777-.6625-.495-1.3911-.894-2.1645-1.185zm51.4923 1.692c-.775-.312-1.591-.512-2.423-.592 1.356.985 2.945 1.598 4.61 1.777-.663-.494-1.392-.893-2.165-1.185zm-3.604-31.279c-.774-.306-1.588-.496-2.417-.564.668.5 1.404.901 2.187 1.19.775.308 1.588.507 2.417.592-.658-.511-1.387-.921-2.164-1.218zm-6.881-26.305c-.774-.307-1.588-.497-2.418-.564.668.499 1.405.898 2.187 1.184.774.313 1.588.512 2.418.592-.658-.509-1.388-.917-2.165-1.212zm-30.719 9.351c-.3046.776-.4941 1.593-.5622 2.425.9738-1.365 1.5834-2.957 1.771-4.625-.5092.669-.9165 1.411-1.2088 2.2zm27.891 42.136c-.305.777-.494 1.594-.562 2.426.498-.672.9-1.41 1.192-2.194.296-.779.486-1.595.562-2.426-.498.67-.896 1.409-1.181 2.194zm12.964-39.576c-.304.781-.494 1.602-.562 2.437.981-1.363 1.592-2.959 1.771-4.631-.502.671-.905 1.409-1.197 2.194zm-31.837 43.028c-.3049.778-.4943 1.597-.5624 2.431.4954-.676.8954-1.419 1.1864-2.205.3-.778.489-1.595.562-2.426-.495.673-.891 1.414-1.175 2.2zm-21.0379-19.892c-.3001.78-.4894 1.598-.5622 2.431.5001-.672.8998-1.413 1.1863-2.2.3056-.776.495-1.593.5622-2.425-.4899.674-.8852 1.412-1.175 2.194zm26.0749-13.502c-.307.777-.497 1.596-.562 2.43.98-1.361 1.59-2.955 1.771-4.624-.508.667-.915 1.407-1.209 2.194zm7.916-31.483c-.296.781-.485 1.599-.562 2.431.499-.671.901-1.409 1.192-2.194.299-.78.488-1.598.562-2.431-.496.672-.895 1.411-1.186 2.194z" fill="#fff"/><path d="m107.044 101.323c1.845 4.231 4.771 7.899 8.483 10.631 1.813 1.401 3.933 2.344 6.185 2.752 1.184.235 2.411.111 3.525-.355 1.034-.563 1.907-1.382 2.535-2.38.73-1.104 1.288-2.314 1.653-3.587.428-1.424.753-2.877.973-4.349-.003-.006-.004-.014-.003-.021s.004-.014.008-.02.009-.011.016-.014c.006-.004.013-.005.021-.005.007 0 .014.001.021.005.006.003.012.008.016.014s.006.013.007.02 0 .015-.002.021c-.202 1.394-.292 2.82-.602 4.174-.254 1.223-.67 2.407-1.237 3.519-.543 1.069-1.31 2.008-2.248 2.753-1.011.744-2.245 1.119-3.497 1.06-2.441-.114-4.8-.92-6.803-2.324-1.993-1.317-3.768-2.938-5.262-4.805-1.696-2.117-3.026-4.504-3.936-7.061-.003-.02.001-.04.012-.056.011-.017.028-.028.047-.032.02-.003.04.001.056.012.017.011.028.028.032.048z" fill="#263238"/><path d="m123.572 112.163c-4.43.744-11.485-6.441-14.088-12.059-.175-.3831.646-4.2691 1.428-9.0236.461-2.8933.91-6.1251 1.124-9.103.039-.6147 18.328 5.7641 18.328 5.7641s-2.249 6.125-2.553 11.3195c-.017.4105 0 .8218.051 1.229.003.068.003.136 0 .204.214 2.34-.006 10.941-4.29 11.669z" fill="#ad6359"/><path d="m125.934 100.465c.637.056 1.279.056 1.917 0 0-.079 0-.146 0-.203-.055-.4071-.07-.8189-.045-1.2292.309-5.1945 2.541-11.3139 2.541-11.3139s-14.842-5.1831-17.811-5.7584c.343 3.4968 2.435 17.5348 13.398 18.5045z" fill="#263238"/><path d="m109.382 61.5945c-1.945 6.6495 1.771 25.8255 6.528 30.016 6.892 6.1194 18.069 6.5819 23.224-1.692 4.998-8.0313-.287-32.8812-5.588-36.7051-7.803-5.6513-21.296-1.4607-24.164 8.3811z" fill="#ad6359"/><path d="m127.542 73.2298c0-.0508-.085.0789-.074.1297.282 1.2859.394 2.82-.685 3.4517-.034 0 0 .0846 0 .0677 1.399-.4682 1.236-2.4817.759-3.6491z" fill="#263238"/><path d="m126.142 72.1018c-2.097.2368-1.473 4.4274.472 4.2074 1.945-.2199 1.287-4.4048-.472-4.2074z" fill="#263238"/><path d="m135.457 71.8649c0-.0508.113.0451.118.0959.152 1.3084.563 2.7749 1.783 3.0287.039 0 .045.0733 0 .0733-1.462.0169-1.962-1.9402-1.901-3.1979z" fill="#263238"/><path d="m136.413 70.3308c2.058-.4681 2.845 3.6942.939 4.1342-1.906.4399-2.665-3.7394-.939-4.1342z" fill="#263238"/><path d="m124.208 70.4323c.523-.2468 1.033-.5197 1.529-.8178.579-.2113 1.073-.6076 1.405-1.128.073-.1842.083-.3873.029-.5779s-.168-.3582-.327-.4768c-.714-.4624-1.523-.2481-2.248.1072-.741.3372-1.329.941-1.648 1.692-.059.1737-.068.3608-.024.5391.043.1784.137.3405.27.467.132.1265.298.2122.478.2468s.366.0167.536-.0516z" fill="#263238"/><path d="m137.74 67.979c-.578-.0294-1.154-.0897-1.726-.1805-.615.0188-1.22-.1655-1.72-.5245-.137-.1431-.222-.3278-.243-.5249-.02-.1972.026-.3955.13-.5637.489-.6937 1.321-.8008 2.12-.7444.808.0384 1.575.3736 2.153.9418.122.1382.203.3089.231.4916s.002.3697-.073.5383c-.076.1687-.198.3119-.353.4123-.154.1005-.335.1539-.519.154z" fill="#263238"/><path d="m128.183 85.023c.354.2538.73.6261 1.203.5979.48-.0823.938-.2648 1.343-.5358.008-.0063.018-.0096.029-.0094.01.0002.02.0038.028.0104.007.0066.013.0157.015.0257.002.0101 0 .0205-.004.0297-.147.2839-.368.5226-.639.6905-.271.1678-.583.2586-.902.2626-.274-.0294-.533-.1401-.744-.3178-.212-.1778-.365-.4147-.442-.6804-.039-.0677.056-.1129.113-.0734z" fill="#263238"/><path d="m128.958 80.9284c.405.4656.902.8418 1.46 1.1049.557.2631 1.163.4073 1.779.4235.537.0192 1.075-.0377 1.596-.1692.1-.0169.198-.0434.293-.079.095 0 .18-.0507.281-.0846.067-.0244.124-.0701.162-.1302.039-.0601.057-.1313.051-.2025-.005-.0446-.016-.0883-.033-.1297v-.1128c-.124-1.004-.45-2.5098-.45-2.5098.393.124 2.372.688 2.249.1692-.9-4.2864-1.901-9.024-3.705-13.1243-.009-.0307-.03-.0565-.058-.0719-.028-.0153-.061-.0189-.091-.0099-.031.009-.057.0298-.072.0578s-.019.061-.01.0917c.703 4.151 2.131 8.1554 2.907 12.3121-.707-.2072-1.439-.3154-2.176-.3215-.135.062.68 2.899.697 3.3558.004.0167.004.034 0 .0508-1.641.4624-2.979.1466-4.773-.7389-.112-.0733-.197.0282-.107.1185z" fill="#263238"/><path d="m133.13 81.8703c-.443.797-1.081 1.4669-1.855 1.9457-.43.2457-.925.3502-1.417.299-1.074-.1128-1.237-1.0604-1.17-1.9064.039-.4476.131-.8889.276-1.3141 1.249.7632 2.709 1.1052 4.166.9758z" fill="#263238"/><path d="m131.275 83.8161c-.43.2456-.925.3501-1.417.2989-1.074-.1128-1.237-1.0603-1.17-1.9063 1.125-.0508 2.334.5358 2.587 1.6074z" fill="#ff97b8"/><path d="m130.994 57.7198c-.541 1.092-1.35 2.0277-2.352 2.7185-1.001.6908-2.162 1.114-3.372 1.2294-2.4.2031-5.088-.8234-6.476-2.8594-.04-.0621-.135 0-.096.062 1.484 2.1771 3.936 3.666 6.612 3.384 1.274-.1614 2.484-.6551 3.509-1.4319 1.025-.7769 1.829-1.8097 2.332-2.9955.034-.1353-.113-.2087-.157-.1071z" fill="#263238"/><path d="m120.677 44.415c-3.064-.1128-5.909 2.0135-7.067 4.7884-.658 1.6623-.883 3.4658-.652 5.2395 0 .015.006.0294.016.0399.011.0106.025.0165.04.0165s.029-.0059.04-.0165c.011-.0105.016-.0249.016-.0399-.134-2.82.934-6.0009 3.183-7.8283 1.009-.8822 2.267-1.4269 3.599-1.5584 1.332-.1314 2.672.1571 3.833.8252 1.287.7508 2.279 1.9212 2.811 3.3163.014.0278.038.0494.067.061s.061.0123.09.002c.03-.0103.054-.0309.07-.058.015-.0271.021-.0589.015-.0896-.405-1.3142-1.204-2.471-2.289-3.3121-1.085-.841-2.402-1.3251-3.772-1.386z" fill="#263238"/><path d="m143.924 46.0845c-1.086-1.7186-2.743-2.997-4.677-3.6096-2.682-.8573-5.257 0-7.798.9306-.068 0-.028.1297.039.1071 2.165-.7727 4.402-1.4325 6.707-.8967 1.897.4395 3.583 1.5235 4.773 3.0681 1.181 1.5979 1.747 3.5693 1.595 5.5522-.152 1.983-1.011 3.8445-2.421 5.2428-.833.7829-1.817 1.3868-2.891 1.7747-1.074.388-2.216.5517-3.355.4813-.09 0-.124.1297-.028.1353 1.557.1553 3.126-.1271 4.532-.8156 1.407-.6884 2.594-1.7558 3.43-3.0826s1.288-2.8608 1.304-4.4304c.017-1.5696-.402-3.1129-1.21-4.4572z" fill="#263238"/><path d="m108.994 63.3034s-.967-5.6851.09-7.7381 4.166-3.1922 4.166-3.1922.782-5.1888 5.223-6.5481c3.986-1.2182 7.556 1.7315 7.556 1.7315s4.318-6.8921 11.464-5.2001c6.78 1.5961 8.152 11.077 2.946 15.4141-3.655 3.0456-10.193.7445-10.193.7445-.523.2087-5.257 4.9237-10.682.987 0 0-3.103 3.8578-5.774 2.256.017.0226-2.58 2.0925-4.796 1.5454z" fill="#263238"/><path d="m112.098 56.5749c.455 2.9158 1.686 11.2348 1.04 13.2709-.647 2.036-2.041 7.2869-2.969 7.8509-1.309-6.204-1.77-12.7408-.787-16.1022.544-1.846 1.469-3.5564 2.716-5.0196z" fill="#263238" opacity=".2"/><path d="m112.778 76.986s-4.498-6.0574-7.269-4.4274c-2.772 1.63.776 10.5186 4.11 11.641.416.1745.864.2624 1.316.2584.451-.004.897-.0999 1.311-.2818.413-.1818.786-.446 1.095-.7764.309-.3305.548-.7203.702-1.146z" fill="#ad6359"/><path d="m106.583 75.0797c-.012 0-.024.0048-.032.0132-.009.0085-.013.02-.013.0319 0 .012.004.0235.013.0319.008.0085.02.0133.032.0133 2.333.8629 3.62 2.9722 4.537 5.1718-.709-.8347-1.659-1.2746-2.778-.4173-.062.0451 0 .1353.068.1184.401-.1419.837-.1557 1.246-.0396.41.1161.774.3565 1.042.6882.437.5604.814 1.1654 1.124 1.8048.113.2031.484.0846.4-.1523-.001-.0188-.001-.0376 0-.0564-.051-2.9497-2.469-7.0105-5.639-7.2079z" fill="#263238"/><path d="m160.408 143.374c-2.997.564-2.198-3.412-4.975-3.671-2.778-.26-3.61 2.82-5.319 2.38s-.483-3.514-3.885-3.542c-3.401-.028-4.177 4.67-6.235 5.753-2.057 1.083-6.482-.756-7.01 3.006-.529 3.762 7.067 5.014 12.52 7.648s11.351 6.638 16.27 6.356c5.274-.333 7.567-3.779 11.604-4.326s13.313 1.957 17.265-1.59c3.953-3.548 10.334-6.407 10.429-10.254.096-3.846-4.942-2.154-6.555-2.34-1.614-.187-1.462-4.434-4.565-5.026-3.104-.592-3.868 1.337-6.567 1.529-2.698.191-3.856-5.076-7.64-4.129-3.784.948-2.811 3.091-4.447 4.027s-4.818-1.19-7.028-.214c-2.209.976-1.191 3.914-3.862 4.393z" fill="#455a64"/><path d="m172.636 145.895c3.126.153 1.81-3.671 4.61-4.286s4.037 2.341 5.729 1.692c1.692-.648.045-3.542 3.508-4.01s4.852 4.106 7.089 4.912c2.238.807 6.516-1.579 7.54 2.087 1.023 3.666-6.578 5.877-11.807 9.188-5.228 3.311-10.732 8.037-15.792 8.358-5.42.344-8.203-2.786-12.369-2.82-4.165-.033-13.335 3.644-17.816.626-4.481-3.017-11.345-5.03-11.935-8.832-.591-3.801 4.767-2.775 6.386-3.164s.934-4.585 4.02-5.567c3.087-.981 4.115.83 6.893.677 2.777-.152 3.289-5.516 7.269-5.076s3.25 2.707 5.06 3.424c1.81.716 4.767-1.794 7.14-1.128 2.372.665 1.692 3.784 4.475 3.919z" fill="#37474f"/><path d="m138.353 145.709c-2.654 1.794-4.104 6.03-1.968 10.057s7.545 3.513 10.12 1.748 4.75-6.17 2.552-9.926c-1.883-3.26-6.055-5.02-10.704-1.879z" fill="url(#j)"/><path d="m138.353 145.709c-2.654 1.794-4.104 6.03-1.968 10.057s7.545 3.513 10.12 1.748 4.75-6.17 2.552-9.926c-1.883-3.26-6.055-5.02-10.704-1.879z" fill="#000" opacity=".1"/><path d="m139.14 146.764c-2.165 1.461-3.373 4.924-1.602 8.212s6.184 2.871 8.275 1.427c2.092-1.444 3.885-5.037 2.092-8.11-1.552-2.663-4.959-4.095-8.765-1.529z" fill="url(#k)"/><path d="m143.671 148.591c.191.153.877-.423.501-.693-.377-.271-.748.502-.501.693z" fill="#fff"/><path d="m145.273 152.365c-.095.22.63.744.799.31.168-.434-.669-.604-.799-.31z" fill="#fff"/><path d="m146.881 150.898c.04.237.934.277.838-.18s-.888-.13-.838.18z" fill="#fff"/><path d="m143.626 146.939c.236-.04.281-.931-.174-.84-.455.09-.141.891.174.84z" fill="#fff"/><path d="m139.348 150.063c.062-.231-.737-.637-.838-.18s.754.491.838.18z" fill="#fff"/><path d="m141.259 155.049c-.196-.141-.854.463-.466.717.388.253.725-.531.466-.717z" fill="#fff"/><path d="m142.828 154.745c-.236-.04-.562.795-.101.851.461.057.416-.801.101-.851z" fill="#fff"/><path d="m141.181 151.214c.168-.169-.326-.919-.636-.564-.309.355.411.79.636.564z" fill="#fff"/><path d="m136.368 151.834s4.357-.485 4.931.401c.573.885-2.525 4.777-3.036 4.433-.512-.344-2.367-3.356-1.895-4.834z" fill="url(#l)"/><path d="m136.368 151.834s4.357-.485 4.931.401c.573.885-2.525 4.777-3.036 4.433-.512-.344-2.367-3.356-1.895-4.834z" fill="#000" opacity=".1"/><path d="m143.817 157.632s-1.287-4.207-.522-4.935c.764-.727 5.144 1.596 4.908 2.166-.237.57-2.851 2.955-4.386 2.769z" fill="#ff8473"/><path d="m143.817 157.632s-1.287-4.207-.522-4.935c.764-.727 5.144 1.596 4.908 2.166-.237.57-2.851 2.955-4.386 2.769z" fill="#000" opacity=".1"/><path d="m149.366 149.883s-4.261 1.038-4.941.231c-.681-.806 1.894-5.076 2.445-4.782.551.293 2.772 3 2.496 4.551z" fill="url(#m)"/><path d="m149.366 149.883s-4.261 1.038-4.941.231c-.681-.806 1.894-5.076 2.445-4.782.551.293 2.772 3 2.496 4.551z" fill="#000" opacity=".1"/><path d="m142.142 144.768s1.04 4.275.236 4.957c-.804.683-5.06-1.901-4.773-2.453.287-.553 3.019-2.786 4.537-2.504z" fill="url(#n)"/><path d="m142.142 144.768s1.04 4.275.236 4.957c-.804.683-5.06-1.901-4.773-2.453.287-.553 3.019-2.786 4.537-2.504z" fill="#000" opacity=".1"/><path d="m161.229 135.777c-3.126-.688-7.18 1.185-8.608 5.516-1.428 4.332 2.677 7.896 5.741 8.562 3.064.665 7.724-.812 8.922-5.003 1.034-3.626-.579-7.868-6.055-9.075z" fill="url(#o)"/><path d="m161.229 135.777c-3.126-.688-7.18 1.185-8.608 5.516-1.428 4.332 2.677 7.896 5.741 8.562 3.064.665 7.724-.812 8.922-5.003 1.034-3.626-.579-7.868-6.055-9.075z" fill="#000" opacity=".1"/><path d="m161.015 137.052c-2.547-.564-5.858.97-7.027 4.512-1.17 3.542 2.187 6.458 4.688 6.994 2.502.535 6.314-.66 7.309-4.084.826-2.949-.495-6.412-4.97-7.422z" fill="url(#p)"/><path d="m162.825 141.626c0 .243.911.344.849-.118-.061-.463-.882-.198-.849.118z" fill="#fff"/><path d="m161.218 145.394c-.231.084-.107.97.32.795s-.028-.903-.32-.795z" fill="#fff"/><path d="m163.382 145.546c-.146.197.439.868.703.485.264-.384-.517-.739-.703-.485z" fill="#fff"/><path d="m163.984 140.436c.191.152.871-.434.489-.699-.383-.265-.742.519-.489.699z" fill="#fff"/><path d="m158.778 139.505c.213-.118-.051-.975-.445-.733-.393.243.169.886.445.733z" fill="#fff"/><path d="m156.506 144.339c-.033-.243-.927-.305-.843.152s.883.158.843-.152z" fill="#fff"/><path d="m157.805 145.264c-.135-.203-.961.141-.686.513.276.372.86-.265.686-.513z" fill="#fff"/><path d="m159.211 141.632c.241 0 .438-.875 0-.863-.439.011-.315.857 0 .863z" fill="#fff"/><path d="m155.444 138.564s3.373 2.82 3.12 3.857c-.253 1.038-5.189 1.467-5.296.858-.107-.61.776-4.033 2.176-4.715z" fill="url(#q)"/><path d="m155.444 138.564s3.373 2.82 3.12 3.857c-.253 1.038-5.189 1.467-5.296.858-.107-.61.776-4.033 2.176-4.715z" fill="#000" opacity=".1"/><path d="m156.411 147.977s2.142-3.841 3.193-3.79c1.051.05 2.401 4.839 1.827 5.076-.573.236-4.098-.04-5.02-1.286z" fill="url(#r)"/><path d="m156.411 147.977s2.142-3.841 3.193-3.79c1.051.05 2.401 4.839 1.827 5.076-.573.236-4.098-.04-5.02-1.286z" fill="#000" opacity=".1"/><path d="m165.85 146.64s-3.694-2.38-3.581-3.429c.112-1.049 4.959-2.115 5.138-1.529.18.587-.286 4.118-1.557 4.958z" fill="url(#s)"/><path d="m165.85 146.64s-3.694-2.38-3.581-3.429c.112-1.049 4.959-2.115 5.138-1.529.18.587-.286 4.118-1.557 4.958z" fill="#000" opacity=".1"/><path d="m164.529 137.875s-2.367 3.706-3.413 3.593c-1.045-.113-2.108-4.969-1.523-5.155.584-.186 4.087.265 4.936 1.562z" fill="url(#t)"/><path d="m164.529 137.875s-2.367 3.706-3.413 3.593c-1.045-.113-2.108-4.969-1.523-5.155.584-.186 4.087.265 4.936 1.562z" fill="#000" opacity=".1"/><path d="m170.044 156.431c2.356 2.171 6.797 2.594 10.204-.429s1.642-8.183-.674-10.293c-2.317-2.109-7.09-3.192-10.221-.174-2.71 2.617-3.441 7.095.691 10.896z" fill="url(#u)"/><path d="m170.044 156.431c2.356 2.171 6.797 2.594 10.204-.429s1.642-8.183-.674-10.293c-2.317-2.109-7.09-3.192-10.221-.174-2.71 2.617-3.441 7.095.691 10.896z" fill="#000" opacity=".1"/><path d="m170.876 155.416c1.923 1.771 5.555 2.115 8.338-.35s1.343-6.683-.562-8.415c-1.906-1.731-5.791-2.605-8.349-.141-2.204 2.138-2.8 5.798.573 8.906z" fill="url(#v)"/><path d="m171.596 150.588c.101-.22-.619-.756-.793-.327s.669.598.793.327z" fill="#fff"/><path d="m174.874 148.123c.236.045.562-.784.112-.851-.45-.068-.427.795-.112.851z" fill="#fff"/><path d="m173.074 146.899c.225-.09.057-.97-.365-.772-.422.197.079.897.365.772z" fill="#fff"/><path d="m169.999 151.005c-.09-.225-.967-.062-.776.361.192.423.9-.073.776-.361z" fill="#fff"/><path d="m174.03 154.446c-.242 0-.444.863 0 .857s.315-.852 0-.857z" fill="#fff"/><path d="m178.415 151.411c-.09.226.647.728.804.294.158-.435-.686-.587-.804-.294z" fill="#fff"/><path d="m177.752 149.956c0 .243.905.361.849-.101-.056-.463-.871-.214-.849.101z" fill="#fff"/><path d="m174.716 152.387c-.208-.124-.815.536-.405.756.411.22.681-.592.405-.756z" fill="#fff"/><path d="m176.442 156.939s-1.49-4.14-.765-4.907c.726-.767 5.218 1.348 5.01 1.923s-2.699 3.096-4.245 2.984z" fill="url(#w)"/><path d="m176.442 156.939s-1.49-4.14-.765-4.907c.726-.767 5.218 1.348 5.01 1.923s-2.699 3.096-4.245 2.984z" fill="#000" opacity=".1"/><path d="m180.321 148.332s-3.778 2.256-4.66 1.664c-.883-.592.343-5.392.95-5.29.607.101 3.53 2.064 3.71 3.626z" fill="url(#x)"/><path d="m180.321 148.332s-3.778 2.256-4.66 1.664c-.883-.592.343-5.392.95-5.29.607.101 3.53 2.064 3.71 3.626z" fill="#000" opacity=".1"/><path d="m171.512 144.717s2.001 3.914 1.383 4.766c-.619.851-5.347-.672-5.212-1.269.135-.598 2.288-3.413 3.829-3.497z" fill="url(#y)"/><path d="m171.512 144.717s2.001 3.914 1.383 4.766c-.619.851-5.347-.672-5.212-1.269.135-.598 2.288-3.413 3.829-3.497z" fill="#000" opacity=".1"/><path d="m168.24 152.951s3.907-2.008 4.756-1.382-.669 5.364-1.271 5.229c-.601-.136-3.401-2.296-3.485-3.847z" fill="#ff8473"/><path d="m168.24 152.951s3.907-2.008 4.756-1.382-.669 5.364-1.271 5.229c-.601-.136-3.401-2.296-3.485-3.847z" fill="#000" opacity=".1"/><path d="m187.214 149.342c2.356 2.171 6.797 2.588 10.204-.435s1.642-8.178-.675-10.293c-2.316-2.115-7.089-3.192-10.221-.175-2.681 2.617-3.44 7.073.692 10.903z" fill="url(#z)"/><path d="m187.214 149.342c2.356 2.171 6.797 2.588 10.204-.435s1.642-8.178-.675-10.293c-2.316-2.115-7.089-3.192-10.221-.175-2.681 2.617-3.44 7.073.692 10.903z" fill="#000" opacity=".1"/><path d="m188.046 148.332c1.923 1.771 5.555 2.115 8.337-.355 2.783-2.471 1.344-6.684-.562-8.41-1.906-1.725-5.79-2.611-8.349-.141-2.203 2.138-2.799 5.787.574 8.906z" fill="url(#A)"/><path d="m188.766 143.476c.101-.22-.619-.75-.793-.322-.174.429.658.61.793.322z" fill="#fff"/><path d="m192.043 141.034c.236.039.562-.79.113-.852-.45-.062-.444.818-.113.852z" fill="#fff"/><path d="m190.244 139.81c.225-.096.056-.976-.365-.778-.422.197.078.902.365.778z" fill="#fff"/><path d="m187.169 143.91c-.09-.225-.967-.056-.776.361.191.418.9-.067.776-.361z" fill="#fff"/><path d="m191.2 147.351c-.242 0-.444.868 0 .857s.315-.846 0-.857z" fill="#fff"/><path d="m195.585 144.322c-.09.226.647.728.804.288s-.686-.581-.804-.288z" fill="#fff"/><path d="m194.922 142.861c0 .243.905.361.849-.096-.057-.457-.872-.22-.849.096z" fill="#fff"/><path d="m191.886 145.298c-.208-.124-.815.53-.405.755.41.226.68-.592.405-.755z" fill="#fff"/><path d="m193.612 149.844s-1.49-4.14-.765-4.902c.725-.761 5.217 1.343 5.009 1.924s-2.698 3.09-4.244 2.978z" fill="url(#B)"/><path d="m193.612 149.844s-1.49-4.14-.765-4.902c.725-.761 5.217 1.343 5.009 1.924s-2.698 3.09-4.244 2.978z" fill="#000" opacity=".1"/><path d="m197.491 141.22s-3.778 2.256-4.661 1.692c-.882-.564.343-5.392.95-5.296.608.096 3.554 2.064 3.711 3.604z" fill="url(#C)"/><path d="m197.491 141.22s-3.778 2.256-4.661 1.692c-.882-.564.343-5.392.95-5.296.608.096 3.554 2.064 3.711 3.604z" fill="#000" opacity=".1"/><path d="m188.681 137.616s2.002 3.914 1.383 4.766c-.618.851-5.346-.666-5.211-1.269.135-.604 2.288-3.407 3.828-3.497z" fill="url(#D)"/><path d="m188.681 137.616s2.002 3.914 1.383 4.766c-.618.851-5.346-.666-5.211-1.269.135-.604 2.288-3.407 3.828-3.497z" fill="#000" opacity=".1"/><path d="m185.409 145.862s3.908-2.008 4.756-1.388c.849.621-.669 5.364-1.27 5.229-.602-.136-3.401-2.29-3.486-3.841z" fill="url(#E)"/><path d="m185.409 145.862s3.908-2.008 4.756-1.388c.849.621-.669 5.364-1.27 5.229-.602-.136-3.401-2.29-3.486-3.841z" fill="#000" opacity=".1"/><path d="m129.875 153.087 16.461 22.498 42.986-2.719 13.516-24.393z" fill="#ebebeb"/><path d="m95.5353 115.518c-10.2827 27.45-18.6933 57.354-12.3291 63.321 5.1385 4.811 47.8158 11.844 57.1538 11.206 3.969-.259 8-31.02 1.124-32.097-1.956-.304-32.608-1.009-32.911-1.692-1.007-2.109-.203-17.021.174-34.793.472-22.842-8.8602-17.563-13.2117-5.945z" fill="#ad6359"/><path d="m138.246 189.786c11.115 1.32 24.872 3.643 36.436-1.449 1.298-.536 2.379-1.494 3.07-2.719 5.223-2.188 5.763-5.324 5.763-5.324 4.239-3.536 4.351-6.813 4.351-6.813s6.1-2.64 5.122-6.605c-1.085-4.455-9.445.124-15.573-.175-14.055-.693-35.903-5.735-39.917-6.339z" fill="#ad6359"/><path d="m162.201 176.335c4.138.118 8.203.349 12.335-.096 4.537-.485 8.821-1.692 13.212-2.854.014-.005.028-.006.042-.005.015.001.029.005.041.012.013.006.025.015.034.026s.016.024.021.037c.004.014.006.029.005.043s-.005.028-.012.041c-.006.013-.015.024-.026.034-.011.009-.024.016-.038.021-7.623 3.327-17.428 4.303-25.625 2.927-.197-.028-.197-.192.011-.186z" fill="#263238"/><path d="m160.554 184.783c4.031-.107 11.121-.338 22.933-4.636.039 0 .073.045.033.068-7.308 3.813-14.814 5.228-22.96 4.76-.253-.017-.276-.186-.006-.192z" fill="#263238"/><path d="m159.75 189.335c6.854-.44 11.115-1.591 17.991-3.756.033 0 .067.05.028.067-7.551 3.288-10.682 3.621-18.036 3.948-.253-.011-.253-.242.017-.259z" fill="#263238"/><path d="m160.537 168.79c-1.793-.818-1.383-1.766 2.024-2.6 3.407-.835 17.575-1.247 17.013-6.205-.563-4.957-20.33-3.147-26.109-2.256-6.064 1.032-11.809 3.455-16.788 7.079 3.925.62 16.175 2.684 23.86 3.982z" fill="#ad6359"/><path d="m109.433 149.686-29.9036 6.677s10.2264-31.612 16.8661-43.941c6.9715-12.8478 13.3695-13.3046 13.7965 6.018.377 19.086-.759 31.246-.759 31.246z" fill="url(#F)"/><path d="m83.3805 150.447c.7308-.248 1.5067-.395 2.2488-.564l2.3162-.564c1.5686-.378 3.1428-.728 4.7169-1.072 3.1428-.682 6.2911-1.381 9.4446-2.013.872-.169 1.738-.344 2.609-.491.872-.146 1.85-.254 2.766-.411.056 0 .062.073 0 .084-.776.192-1.535.451-2.311.649-.775.197-1.585.395-2.383.564-1.574.353-3.1486.697-4.7228 1.032-3.1033.648-6.1842 1.314-9.3213 1.895l-2.6143.485c-.9051.169-1.8271.395-2.7491.479-.0282.012-.0506-.056 0-.073z" fill="#263238"/><path d="m86.3433 138.22c.7196-2.037 1.3774-4.084 2.0689-6.126.7814-2.318 1.4898-4.658 2.2488-6.987 0-.057-.0843-.091-.1068-.034-.9389 2.481-4.1378 10.75-4.6438 12.154-1.4786 4.089-2.9572 8.178-4.4021 12.278-.8095 2.301-1.6866 4.958-2.4849 7.259-.0562.169 2.3444-.485 3.6037-.863.0675 0 .1125-.254.0281-.231-1.1918.27-2.811.445-2.9909.49 1.5348-3.891 3.0078-7.811 4.4526-11.742.7534-2.061 1.4955-4.127 2.2264-6.198z" fill="#263238"/><path d="m105.132 149.139c-.204.523-.364 1.062-.478 1.613l.489-.108c.221-.411.418-.835.591-1.269.297-.778.486-1.594.562-2.425-.492.669-.884 1.406-1.164 2.189zm-14.055-12.194c-.3046.776-.4941 1.593-.5622 2.425.9738-1.365 1.5834-2.957 1.771-4.625-.5092.669-.9165 1.411-1.2088 2.2zm14.617-4.281c-.329-.771-.767-1.49-1.298-2.137.117.829.355 1.637.708 2.397.328.771.766 1.491 1.299 2.137-.109-.827-.336-1.635-.675-2.397zm-.146-24.212c-.328-.77-.766-1.488-1.299-2.132.123.826.362 1.631.709 2.391.328.771.765 1.491 1.299 2.138-.109-.828-.336-1.635-.675-2.397zm-15.6628 42.254c-.7646.333-1.4798.769-2.1252 1.298.8267-.119 1.6317-.359 2.3894-.711.7657-.33 1.4811-.767 2.1251-1.297-.8146.124-1.6076.364-2.3556.71zm8.6354-30.01c-.7677.329-1.4851.766-2.1308 1.297.8283-.124 1.6335-.371 2.3894-.733.7692-.326 1.4868-.763 2.1308-1.297-.827.13-1.6315.376-2.3894.733z" fill="#fff"/><path d="m147.297 249.728c0 2.363-20.43 2.335-20.424-.034l.101-23.925c.44-.034.872-.142 1.276-.321.064-.029.118-.075.156-.133.038-.059.058-.127.058-.197s-.02-.138-.058-.197-.092-.105-.156-.133c-.407-.192-.838-.326-1.282-.401v-1.286c.442-.032.875-.138 1.282-.315.063-.033.115-.081.152-.142.036-.06.056-.129.056-.2 0-.07-.02-.139-.056-.199-.037-.061-.089-.11-.152-.142-.413-.171-.842-.298-1.282-.378v-1.286c.442-.036.875-.145 1.282-.321.063-.031.116-.08.153-.139.036-.06.056-.129.056-.199 0-.071-.02-.14-.056-.2-.037-.059-.09-.108-.153-.139-.411-.178-.841-.306-1.282-.383v-1.303c.44-.041.871-.144 1.282-.305.063-.031.116-.079.153-.139.036-.06.056-.129.056-.199 0-.071-.02-.139-.056-.199-.037-.06-.09-.108-.153-.14-.414-.171-.843-.304-1.282-.394v-5.409c0-1.901 6.297-7.941 7.269-8.866l.13-.119v-1.472h5.684v1.472s7.376 6.949 7.376 9.024v5.403c-.439.095-.868.229-1.282.401-.061.024-.113.067-.146.124-.047.071-.069.156-.062.241s.043.165.101.227c.026.038.064.068.107.085.409.161.839.263 1.276.304v1.303c-.424.075-.839.196-1.237.361h-.045c-.062.031-.115.08-.152.139-.037.06-.057.129-.057.199 0 .071.02.14.057.199.037.06.09.109.152.14l.101.039c.379.158.779.255 1.187.288v1.286c-.355.063-.704.159-1.04.288l-.242.09c-.063.031-.116.079-.153.139s-.056.129-.056.199.019.139.056.199.09.108.153.14c.095.048.195.086.298.112.317.115.648.185.984.209v1.286c-.295.051-.584.126-.866.226-.152.056-.292.118-.41.174-.064.029-.118.075-.156.134-.038.058-.058.126-.058.196s.02.139.058.197c.038.059.092.105.156.133.156.069.318.126.483.169.26.079.528.13.798.153v12.408z" fill="#fff" opacity=".8"/><path d="m145.639 213.643-.028 22.402-.068 11.844c0 1.94-16.821 1.924-16.815-.034l.101-34.009c1.422.508 4.739 1.54 7.612 1.235 2.873-.304 6.539-1.325 9.17-1.545.015.034.025.07.028.107z" fill="#ebebeb" opacity=".8"/><path d="m141.244 196.904-8.04-.011c-.158-.001-.287.128-.287.287l-.004 3.046c0 .158.128.287.286.288l8.04.011c.158 0 .287-.129.287-.287l.004-3.046c0-.159-.128-.288-.286-.288z" fill="url(#G)"/><path d="m28.4812 230.4c.6994-.005 1.3832-.209 1.9715-.588.5883-.38 1.0569-.919 1.3512-1.556 0 0 1.4954 1.461 3.9354.452 2.44-1.01 4.9924-7.158 3.1821-12.273s-6.5666-6.322-10.3952-2.324c-5.1779-1.9-8.939 1.286-8.2981 6.678s5.6333 9.791 8.2531 9.611z" fill="url(#H)"/><path d="m24.1354 208.28c1.3396.396 2.5455 1.153 3.487 2.188s1.5826 2.308 1.8539 3.683c.2474 1.263-1.6866 1.726-1.9564.451-.4217-2.132-2.2488-3.079-4.3177-3.7-1.2369-.372-.3093-2.995.9332-2.622z" fill="#37474f"/><path d="m28.1664 215.448s.3767-5.883 6.0212-6.65c-.243 1.579-.9434 3.051-2.014 4.233-1.0706 1.183-2.4641 2.023-4.0072 2.417z" fill="#37474f"/><path d="m47.4106 229.401c.4392.549 1.0254.96 1.6897 1.186s1.3791.257 2.0602.089c0 0-.2192 2.087 2.0802 3.384s8.6973-.491 11.587-5.076.8939-9.086-4.6044-9.639c-1.6866-5.256-6.5328-6.255-10.3615-2.419-3.8286 3.835-4.2221 10.501-2.4512 12.475z" fill="url(#I)"/><path d="m62.0617 212.301c.5172 1.301.6696 2.72.4407 4.101-.2289 1.382-.8305 2.675-1.7394 3.738-.8377.982-2.4062-.276-1.5629-1.257 1.4111-1.653 1.0288-3.672.2305-5.697-.4779-1.201 2.1532-2.092 2.6311-.885z" fill="#37474f"/><path d="m58.9527 219.892s4.8462-3.339 8.9334.643c-1.388.783-2.9747 1.14-4.563 1.025-1.5883-.114-3.108-.694-4.3704-1.668z" fill="#37474f"/><path d="m43.7001 233.034c-.6896-.116-1.3322-.427-1.8529-.895-.5206-.468-.8977-1.075-1.0874-1.751 0 0-1.6866 1.207-3.9692-.174-2.2825-1.382-3.7949-7.863-1.2031-12.628 2.5918-4.766 7.4773-5.201 10.6313-.649 5.414-1.049 8.6242 2.696 7.14 7.896-1.4843 5.2-7.0782 8.793-9.6587 8.201z" fill="url(#J)"/><path d="m43.7001 233.034c-.6896-.116-1.3322-.427-1.8528-.895-.5207-.468-.8978-1.075-1.0875-1.751 0 0-1.6866 1.207-3.9692-.174-2.2825-1.382-3.7949-7.863-1.2031-12.628 2.5918-4.766 7.4773-5.201 10.6313-.649 5.414-1.049 8.6242 2.696 7.14 7.896-1.4843 5.2-7.0782 8.793-9.6587 8.201z" fill="#000" opacity=".1"/><path d="m51.481 211.878c-1.3826.182-2.6893.74-3.7791 1.612-1.0899.873-1.9215 2.028-2.4051 3.34-.4442 1.207 1.4111 1.974 1.8608.756.7478-2.036 2.6986-2.685 4.8462-2.967 1.265-.169.759-2.91-.5228-2.741z" fill="#37474f"/><path d="m46.3762 218.268s.5622-5.866-4.8968-7.518c-.0098 1.597.4494 3.162 1.3202 4.498.8708 1.337 2.1147 2.388 3.5766 3.02z" fill="#37474f"/><path d="m73.4351 232.024c-.6711.2-1.3849.205-2.0586.014-.6738-.19-1.2798-.569-1.7476-1.091 0 0-1.0007 1.838-3.6374 1.59-2.6368-.248-6.8589-5.38-6.6172-10.806.2418-5.426 4.4358-7.969 9.2652-5.273 4.3964-3.334 8.9221-1.388 9.8779 3.948.9557 5.335-2.5075 11.014-5.0823 11.618z" fill="url(#K)"/><path d="m73.4351 232.024c-.6711.2-1.3849.205-2.0586.014-.6738-.19-1.2798-.569-1.7476-1.091 0 0-1.0007 1.838-3.6374 1.59-2.6368-.248-6.8589-5.38-6.6172-10.806.2418-5.426 4.4358-7.969 9.2652-5.273 4.3964-3.334 8.9221-1.388 9.8779 3.948.9557 5.335-2.5075 11.014-5.0823 11.618z" fill="#000" opacity=".1"/><path d="m71.1413 209.594c-1.1606.775-2.0882 1.853-2.6826 3.119-.5945 1.265-.8333 2.669-.6907 4.06.1293 1.286 2.1308 1.128 2.0015-.141-.2193-2.16 1.2481-3.598 3.0527-4.805 1.057-.716-.6015-2.95-1.6809-2.233z" fill="#37474f"/><path d="m69.3703 217.602s-2.0745-5.515-7.6965-4.59c.6928 1.438 1.7918 2.64 3.1602 3.456 1.3685.816 2.946 1.211 4.5363 1.134z" fill="#37474f"/><path d="m78.4162 224.32s-5.1442 19.328-11.8738 19.328h-35.6212c-6.7464 0-11.8681-19.328-11.8681-19.328z" fill="#ebebeb"/><path d="m227.518 225.685c5.347-6.768 5.173-8.139 5.099-8.737 0-.158-2.782-15.921-7.769-15.921h-9.811c.034-1.896.09-3.351.135-3.678.197-1.444.889-2.82 1.99-2.82 1.102 0 1.125-1.359 0-1.359h-20.481c-1.096 0-1.096 1.359 0 1.359 1.097 0 5.19 1.585 5.802 2.386.613.801.787 12.684.636 15.38-.152 2.696-12.532 9.633-14.297 17.761-1.766 8.127 2.541 19.706 20.301 19.706s22.061-11.579 20.307-19.706c-.374-1.56-1.021-3.04-1.912-4.371zm-12.368-13.373c-.146-1.083-.174-4.467-.146-7.749h9.664c1.568 1.224 4.037 9.954 4.447 12.605-.332.869-2.018 3.305-3.778 5.601-4.211-4.834-9.968-8.663-10.21-10.457z" fill="#fff"/><path d="m227.518 225.685c.99-1.269 1.962-2.555 2.868-3.886.449-.666.888-1.343 1.276-2.042.419-.684.726-1.43.91-2.211.036-.398-.002-.8-.112-1.184l-.247-1.179c-.169-.79-.356-1.574-.563-2.352-.399-1.557-.86-3.102-1.394-4.619-.522-1.519-1.195-2.981-2.007-4.365-.401-.687-.899-1.312-1.478-1.856-.278-.274-.606-.49-.967-.637-.361-.146-.747-.219-1.136-.215h-9.636-.13v-.129l.085-2.335.039-1.162c.026-.395.099-.785.219-1.162.112-.386.281-.753.501-1.089.221-.357.55-.633.939-.789.099-.037.203-.06.309-.068h.287c.161-.014.312-.083.427-.197.048-.056.084-.121.104-.192.019-.071.023-.146.01-.219-.013-.072-.042-.141-.085-.201s-.099-.109-.164-.144c-.346-.107-.709-.141-1.068-.102h-3.469-4.633-9.265-2.31c-.371 0-.686.091-.771.378-.017.071-.019.144-.005.215s.043.138.085.196c.042.059.097.108.16.143s.133.056.204.061c.141 0 .383 0 .563.057.18.056.388.078.562.124.382.101.753.214 1.124.344.737.252 1.459.544 2.165.874.356.169.704.357 1.04.564.175.107.343.228.5.361.092.08.167.178.219.287.044.1.076.204.096.311.145.771.24 1.551.287 2.335.112 1.551.168 3.096.213 4.647s.074 3.102.079 4.653v2.329c0 .389 0 .762-.045 1.179-.088.418-.281.807-.562 1.128-1.013 1.188-2.125 2.288-3.323 3.288-1.158 1.027-2.316 2.047-3.435 3.108-2.22 2.126-4.374 4.388-5.835 7.089-.743 1.338-1.215 2.81-1.389 4.332-.205 1.521-.188 3.064.051 4.579l.078.564c.04.187.09.373.135.564l.276 1.128.404 1.078.203.536.258.513.529 1.021c.202.321.433.631.646.947.434.632.921 1.224 1.457 1.771.26.28.539.54.837.778l.872.745c.646.412 1.265.868 1.928 1.246s1.361.711 2.075.987c.714.277 1.439.564 2.175.756 2.975.792 6.048 1.149 9.125 1.06l2.305-.09c.764-.073 1.529-.192 2.288-.287.758-.105 1.51-.258 2.249-.457.371-.091.753-.164 1.124-.277l1.085-.383c2.925-.977 5.531-2.731 7.539-5.076.248-.293.445-.626.67-.936.235-.305.443-.63.624-.971l.562-1.02c.171-.346.319-.702.444-1.066.56-1.444.894-2.966.989-4.512.103-1.544-.007-3.095-.326-4.608-.366-1.515-.99-2.956-1.844-4.258zm0 0c.866 1.288 1.507 2.714 1.895 4.218.334 1.518.459 3.074.371 4.625-.086 1.554-.41 3.085-.961 4.54-.119.37-.266.73-.439 1.078l-.562 1.037c-.18.343-.387.671-.619.982-.224.316-.421.654-.674.953-2.002 2.403-4.626 4.205-7.584 5.206l-1.097.389c-.371.113-.753.186-1.124.282-.74.2-1.491.356-2.249.468-.77.096-1.535.22-2.305.293l-2.322.102c-3.103.096-6.205-.256-9.209-1.044-.742-.22-1.467-.507-2.204-.761-.736-.254-1.405-.666-2.108-.998-.703-.333-1.31-.841-1.968-1.258l-.888-.762c-.306-.24-.594-.504-.86-.789-.547-.56-1.047-1.163-1.495-1.805-.22-.321-.45-.637-.658-.964l-.562-1.044-.27-.519-.208-.564-.411-1.094-.292-1.128c-.045-.192-.101-.378-.141-.564l-.078-.564c-.25-1.547-.273-3.122-.068-4.675.178-1.566.66-3.081 1.417-4.462.747-1.371 1.643-2.655 2.67-3.829 1.011-1.185 2.084-2.315 3.216-3.384 1.125-1.072 2.283-2.098 3.435-3.13 1.173-.985 2.262-2.066 3.255-3.232.226-.27.386-.588.467-.931.034-.355.034-.761.045-1.128 0-.772 0-1.545 0-2.318 0-1.545 0-3.096-.062-4.641-.062-1.546-.095-3.091-.202-4.631-.042-.757-.13-1.51-.264-2.256 0-.096-.051-.175-.073-.248-.036-.062-.082-.117-.135-.164-.139-.117-.285-.224-.439-.321-.325-.196-.661-.373-1.006-.53-.693-.327-1.402-.617-2.125-.869-.713-.277-1.46-.452-2.221-.519-.118-.016-.231-.056-.334-.117-.102-.061-.191-.142-.262-.238-.075-.099-.125-.215-.146-.338-.022-.122-.014-.248.022-.367.037-.116.099-.223.18-.313.081-.091.181-.163.293-.212.201-.08.418-.115.635-.101h2.316 9.265 4.633 4.048c.218-.012.435.034.629.135.106.057.197.138.266.235.069.098.115.211.133.329.019.118.011.238-.024.351-.036.114-.096.217-.178.304-.158.163-.37.265-.596.287-.19-.003-.38.024-.562.079-.335.131-.617.369-.804.677-.205.313-.362.655-.467 1.015-.192.736-.28 1.496-.258 2.256l-.085 2.307-.129-.13h9.636c.841-.005 1.649.324 2.249.914.594.56 1.104 1.204 1.512 1.912.808 1.401 1.473 2.881 1.985 4.416.528 1.528.973 3.079 1.361 4.647.191.779.371 1.568.562 2.358l.236 1.184c.108.395.14.806.095 1.213-.187.789-.502 1.541-.933 2.228-.399.705-.843 1.376-1.298 2.036-.889 1.348-1.867 2.622-2.868 3.886z" fill="#263238"/><path d="m215.127 212.312c-.078-.643-.095-1.286-.123-1.934l-.045-1.941v-3.874-.04h.039l9.664-.118h.062l.034.034.32.321c.09.119.169.243.253.361.159.239.306.485.439.739.258.508.483 1.026.703 1.545.421 1.049.792 2.115 1.124 3.187s.669 2.149.95 3.237c.281 1.089.562 2.189.731 3.311v.051.045c-.241.524-.525 1.028-.849 1.506-.309.474-.635.936-.967 1.398-.66.914-1.338 1.817-2.035 2.708l-.096.118-.101-.113c-1.606-1.842-3.324-3.582-5.144-5.211-.905-.823-1.822-1.636-2.71-2.476-.444-.423-.883-.846-1.287-1.308-.446-.426-.776-.958-.962-1.546zm0 0c.187.584.518 1.112.962 1.534.41.457.854.88 1.298 1.297.9.83 1.822 1.636 2.733 2.443 1.863 1.584 3.629 3.279 5.29 5.076h-.197c.675-.903 1.331-1.817 1.968-2.741.315-.469.63-.937.928-1.405.308-.458.578-.941.809-1.444v.096c-.191-1.088-.466-2.177-.759-3.26-.292-1.083-.601-2.154-.933-3.226-.332-1.071-.697-2.126-1.124-3.164-.203-.519-.428-1.026-.67-1.528-.22-.49-.52-.94-.888-1.331l.096.034-9.665-.119.04-.039c-.023 1.293-.023 2.585 0 3.874v1.94c.028.672.039 1.32.112 1.963z" fill="#263238"/><path d="m208.684 247.032c-14.932 0-18.552-9.735-17.074-16.559 1.479-6.824 14.055-14.472 13.791-16.689-.045-.434-.079-9.125-.095-10.033h7.438c0 .947.056 9.644.106 10.033.298 2.211 11.419 9.848 12.931 16.689s-2.164 16.559-17.097 16.559z" fill="url(#L)"/><path d="m193.246 48.724c-.315 3.1293-1.494 6.1083-3.404 8.6027s-4.475 4.4053-7.408 5.5183c-2.932 1.113-6.116 1.3839-9.193.7825-3.078-.6015-5.927-2.0516-8.229-4.1875l-8.433 1.2464 4.228-7.332c-1.058-2.5808-1.457-5.3864-1.158-8.1611.515-4.4316 2.75-8.481 6.221-11.2702 3.472-2.7892 7.899-4.0932 12.322-3.6294 4.424.4639 8.486 2.6583 11.308 6.1073 2.821 3.449 4.173 7.8747 3.763 12.3173z" fill="#fff"/><path d="m193.246 48.724c-.326 3.1248-1.505 6.0989-3.407 8.5953-.476.6201-.989 1.2115-1.534 1.771-.563.54-1.158 1.0448-1.783 1.5115-1.246.9397-2.618 1.6992-4.076 2.256-1.458.5729-2.989.9393-4.548 1.0885-.781.0686-1.566.0837-2.35.0451-.785-.0184-1.567-.0995-2.339-.2425-3.116-.5771-6.01-2.0124-8.36-4.1454l.203.0621-8.433 1.3028-.613.0959.309-.564 4.205-7.332v.2876c-.994-2.4271-1.421-5.0508-1.247-7.6693.175-2.6185.946-5.1619 2.254-7.4346 1.317-2.2557 3.126-4.1836 5.29-5.64 2.165-1.4363 4.625-2.363 7.198-2.7107 2.572-.3477 5.189-.1074 7.656.7029 2.443.8338 4.671 2.2037 6.521 4.01 1.844 1.7994 3.257 3.9952 4.133 6.4219.875 2.4268 1.19 5.0212.921 7.5879zm0 0c.269-2.5524-.05-5.1326-.932-7.542-.881-2.4093-2.302-4.5837-4.152-6.3559-1.851-1.7721-4.082-3.0947-6.522-3.866-2.441-.7713-5.025-.9708-7.554-.5831-2.506.3794-4.894 1.3264-6.982 2.7693-2.067 1.4535-3.794 3.3416-5.06 5.5328-1.247 2.198-1.981 4.6507-2.148 7.1741-.156 2.5193.251 5.0418 1.192 7.3828l.062.1522-.084.1354-4.25 7.332-.304-.4456 8.467-1.19h.118l.084.079c2.257 2.1207 5.059 3.5681 8.09 4.1792.756.1532 1.523.2475 2.294.282 2.321.1607 4.648-.1817 6.825-1.0039 1.46-.527 2.833-1.2683 4.076-2.1996 1.266-.9071 2.386-2.0025 3.323-3.2487 1.922-2.4851 3.119-5.4568 3.457-8.584z" fill="#263238"/><path d="m183.605 50.1565c-1.894 2.5568-4.317 4.673-7.101 6.204-2.782-1.5321-5.202-3.6482-7.095-6.204-2.496-3.3163-2.373-8.5108 1.197-9.6331 3.936-1.2408 5.898 4.7263 5.898 4.7263s1.973-6.0066 5.903-4.7263c3.559 1.1618 3.682 6.3168 1.198 9.6331z" fill="url(#M)"/></svg>