<svg width="104" height="123" viewBox="0 0 104 123" fill="none" xmlns="http://www.w3.org/2000/svg">
<g clip-path="url(#clip0_71_741)">
<path fill-rule="evenodd" clip-rule="evenodd" d="M12.26 21.4401C29.87 2.01007 50.18 -8.55993 65.43 8.73007C69.43 8.92007 73 10.2501 76 13.0701C82.28 18.9601 83.23 29.9901 80.38 38.7601V46.3901C82.32 47.6601 83.56 50.0501 84.14 52.7801C84.51 54.5401 84.6 56.4701 84.43 58.3201C84.25 60.2301 83.78 62.0701 83.02 63.5601C81.93 65.7101 80.27 67.2201 78.02 67.5501C75.82 69.8901 73.67 72.3901 71.74 74.8101C69.63 77.4601 67.82 79.9701 66.58 82.0201C65.62 83.6101 65.92 84.6501 66.27 85.8301C66.44 86.4201 66.62 87.0301 66.75 87.7101C70.6 88.5501 74.09 89.2001 77.22 89.7901C97.09 93.5101 103.25 94.6601 103.25 120.5C103.25 121.82 102.18 122.88 100.87 122.88H51.62H2.38C1.06 122.88 0 121.81 0 120.5C0 94.6601 6.16 93.5001 26.03 89.7801C29.18 89.1901 32.69 88.5301 36.57 87.6901C36.7 87.1801 36.87 86.7001 37.04 86.2201C37.44 85.0801 37.84 83.9401 36.67 82.0201C35.43 79.9701 33.62 77.4601 31.51 74.8101C29.59 72.3901 27.43 69.8901 25.23 67.5501C22.98 67.2201 21.32 65.7001 20.23 63.5601C19.47 62.0601 19 60.2201 18.82 58.3201C18.64 56.4701 18.74 54.5401 19.11 52.7801C19.68 50.0601 20.91 47.6901 22.83 46.4101L20.25 44.8801C19.56 37.2301 21.57 23.9501 12.26 21.4401ZM75.62 36.7001C75.19 33.5501 74.37 30.9101 73.2 28.7001C71.7 26.8301 69.52 25.2401 66.72 23.1901L66.4 22.9601C65.81 22.5201 65.21 22.1101 64.61 21.7301C55.19 27.8401 50.63 26.4101 43.03 27.6601C36.14 28.7901 30.55 31.3501 27.62 36.0301C27.62 36.1501 27.62 36.2801 27.62 36.4001V47.9001C27.62 49.0301 26.83 49.9801 25.77 50.2201C24.81 50.5101 24.12 51.9501 23.75 53.7501C23.48 55.0601 23.41 56.5001 23.54 57.8801C23.67 59.2001 23.97 60.4401 24.47 61.4101C24.91 62.2801 25.48 62.8701 26.14 62.8801H26.28C26.97 62.8701 27.6 63.1501 28.04 63.6201C30.56 66.2701 33.05 69.1301 35.23 71.8701C37.42 74.6201 39.34 77.3001 40.72 79.5801C43.05 83.4201 42.28 85.6101 41.52 87.8001C41.3 88.4301 41.08 89.0701 41.08 89.6701C41.08 90.8701 40.19 91.8601 39.04 92.0301C34.45 93.0601 30.45 93.8101 26.91 94.4701C10.64 97.5001 5.18 98.5301 4.79 118.12H51.62H98.45C98.06 98.5301 92.6 97.5001 76.34 94.4501C72.76 93.7801 68.7 93.0201 64.03 91.9701C62.93 91.7201 62.17 90.7401 62.18 89.6501H62.17C62.17 88.7201 61.93 87.9101 61.71 87.1501C61.06 84.9201 60.48 82.9401 62.52 79.5701C63.9 77.2901 65.82 74.6101 68.01 71.8601C70.19 69.1201 72.68 66.2601 75.2 63.6101C75.71 63.0801 76.4 62.8301 77.08 62.8801H77.09C77.75 62.8701 78.32 62.2801 78.76 61.4101C79.25 60.4401 79.56 59.2001 79.69 57.8801C79.82 56.5001 79.75 55.0601 79.48 53.7501C79.1 51.9201 78.39 50.4601 77.41 50.2101C76.33 49.9401 75.61 48.9701 75.61 47.9001V36.7001H75.62Z" fill="url(#paint0_linear_71_741)"/>
</g>
<defs>
<linearGradient id="paint0_linear_71_741" x1="51.625" y1="-0.000976563" x2="51.625" y2="122.88" gradientUnits="userSpaceOnUse">
<stop stop-color="#1EFFD7"/>
<stop offset="1" stop-color="#008080"/>
</linearGradient>
<clipPath id="clip0_71_741">
<rect width="103.24" height="122.88" fill="white"/>
</clipPath>
</defs>
</svg>
