<svg width="30" height="30" viewBox="0 0 30 30" fill="none" xmlns="http://www.w3.org/2000/svg">
<path fill-rule="evenodd" clip-rule="evenodd" d="M10.5346 3.75C11.0596 3.75 11.4859 4.16798 11.4859 4.68402C11.4859 5.19884 11.0609 5.61682 10.5346 5.61682L8.49837 5.61804C6.80837 5.6205 5.43337 6.97005 5.43337 8.62849V10.9525C5.43337 11.4673 5.00587 11.8865 4.48087 11.8865C3.95587 11.8865 3.52962 11.4673 3.52962 10.9525V8.62849C3.52962 5.94164 5.75837 3.75368 8.49712 3.75123L10.5334 3.75H10.5346ZM19.5007 3.75037H21.492C24.2382 3.75037 26.4707 5.93956 26.4707 8.63253V10.9529C26.4707 11.4677 26.0457 11.8869 25.5195 11.8869C24.9945 11.8869 24.5682 11.4677 24.5682 10.9529V8.63253C24.5682 6.96919 23.1882 5.61596 21.492 5.61596H19.5007C18.9757 5.61596 18.5495 5.1992 18.5495 4.68439C18.5495 4.16835 18.9757 3.75037 19.5007 3.75037ZM18.4531 8.42832H11.5481C9.96813 8.44426 8.69812 9.71046 8.71187 11.261V12.8177C8.71562 12.9991 8.86438 13.1475 9.04938 13.1536H20.9494C21.1356 13.1487 21.2844 13.0004 21.2906 12.8177V11.261C21.2919 10.5121 20.9969 9.79258 20.4644 9.25693C19.9356 8.72618 19.2094 8.42832 18.4531 8.42832ZM2.2025 15.0515H27.7987C28.3237 15.0515 28.75 15.4695 28.75 15.9856C28.75 16.5004 28.3237 16.9171 27.7987 16.9171H26.4713V21.3666C26.4713 24.0608 24.2375 26.25 21.4925 26.25H19.5012C18.975 26.25 18.5487 25.832 18.5487 25.316C18.5487 24.8012 18.975 24.3832 19.5012 24.3832H21.4925C23.1888 24.3832 24.5688 23.0312 24.5688 21.3666V16.9171H21.29V18.1564C21.3025 19.7069 20.0338 20.9744 18.4525 20.9891H11.5475C9.9675 20.9744 8.69875 19.7069 8.71125 18.1564V16.9171H5.4325V21.3715C5.4325 23.03 6.80875 24.3795 8.5 24.382L10.535 24.3832C11.06 24.3832 11.4862 24.8012 11.4862 25.316C11.485 25.832 11.06 26.25 10.5338 26.25L8.4975 26.2488C5.75875 26.2463 3.52875 24.0584 3.52875 21.3715V16.9171H2.2025C1.6775 16.9171 1.25 16.5004 1.25 15.9856C1.25 15.4695 1.6775 15.0515 2.2025 15.0515Z" fill="#BDBDBD"/>
</svg>
