<svg width="270" height="196" viewBox="0 0 270 196" fill="none" xmlns="http://www.w3.org/2000/svg">
    <path opacity="0.1" d="M270 125.891C270.005 131.202 269.46 136.493 268.379 141.648C268.016 143.385 267.593 145.086 267.112 146.751C266.523 148.806 265.84 150.822 265.067 152.79C264.677 153.785 264.265 154.761 263.831 155.717C263.838 161.163 262.888 166.551 261.042 171.542C257.703 180.496 251.749 187.735 244.266 191.942C239.588 194.576 234.474 195.962 229.29 196H51.2588C43.3378 196.02 35.5537 193.564 28.6977 188.882L28.5923 188.811C27.6157 188.137 26.6636 187.422 25.736 186.668C23.6489 184.967 21.688 183.059 19.8745 180.965C17.42 178.134 15.2571 174.971 13.4308 171.542C9.14134 163.503 6.86903 154.195 6.87699 144.695C2.53303 135.699 0 124.923 0 113.343C0 98.7332 4.02533 85.4057 10.6387 75.3168C12.0175 73.209 13.5277 71.2257 15.1569 69.3835C16.7644 67.5606 18.4921 65.8914 20.3238 64.3918C21.7893 63.1908 23.3209 62.1061 24.9085 61.1452C25.571 60.7475 26.2357 60.3714 26.912 60.0224C27.5057 59.7113 28.1063 59.4218 28.7137 59.1485C29.4427 58.822 30.1808 58.5217 30.9281 58.2476C31.6754 57.9734 32.4128 57.7335 33.1402 57.5279C34.21 57.2195 35.2981 56.9687 36.4045 56.7757C37.3214 56.6161 38.2384 56.5052 39.1553 56.4213C39.8843 56.3564 40.6201 56.3212 41.3605 56.3104H41.7617C42.5778 56.3104 43.3893 56.3483 44.1939 56.4132C44.2787 56.213 44.3704 56.0101 44.4552 55.8126C44.7761 55.0902 45.1085 54.3705 45.4432 53.6671C45.4424 53.6608 45.4424 53.6544 45.4432 53.6482C45.5005 53.5237 45.5578 53.402 45.6174 53.2829C45.8879 52.7066 46.1698 52.1358 46.4587 51.5703C46.5916 51.2998 46.7223 51.0454 46.8575 50.7911C46.8862 50.7279 46.9175 50.6665 46.9515 50.6071C47.0891 50.3366 47.2289 50.066 47.371 49.7955C48.0786 48.4607 48.8144 47.1495 49.5785 45.8616L49.7734 45.5316C49.8926 45.3313 50.0026 45.1365 50.1356 44.9363C50.4519 44.4142 50.7774 43.8893 51.1052 43.3752C51.3345 43.0073 51.5637 42.642 51.8113 42.293C52.4073 41.3912 53.0186 40.4893 53.6451 39.5875C54.2717 38.6856 54.9227 37.7955 55.5982 36.9171C55.6899 36.7954 55.7816 36.6763 55.8779 36.5573L56.8567 35.2965C56.9048 35.237 56.9461 35.1829 56.9919 35.1288C57.1089 34.98 57.2212 34.8312 57.3472 34.6878C57.8722 34.0303 58.4109 33.3864 58.9519 32.7452C61.7051 29.5087 64.6381 26.4925 67.7315 23.7168C67.853 23.6032 67.9768 23.495 68.0983 23.3868C68.6805 22.87 69.272 22.3586 69.8634 21.8554C73.1164 19.101 76.517 16.5977 80.0436 14.3611C80.2866 14.196 80.5342 14.0418 80.7841 13.8903C83.9458 11.9161 87.1974 10.1494 90.5242 8.5983C92.3374 7.75147 94.1919 6.95604 96.0579 6.22825C97.3003 5.74667 98.5473 5.28943 99.8104 4.85925C101.785 4.18828 103.773 3.58675 105.775 3.05466C111.673 1.49271 117.673 0.527843 123.71 0.170558C125.544 0.0605331 127.399 0.00371763 129.274 0.000110252C138.322 -0.0140272 147.334 1.33152 156.094 4.0043C156.185 4.16585 156.308 4.29754 156.454 4.387C156.6 4.47645 156.762 4.52072 156.926 4.51565H157.696C158.031 4.62387 158.363 4.73209 158.698 4.84572C160.567 5.48062 162.409 6.17414 164.225 6.92628L164.683 7.12108C169.164 9.00168 173.524 11.2622 177.729 13.8849C181.519 16.2435 185.169 18.9047 188.652 21.85C189.188 22.3045 189.717 22.7627 190.238 23.2244C190.871 22.7464 191.514 22.2883 192.168 21.85C194.694 20.1521 197.377 18.8022 200.164 17.8269C205.991 15.7918 212.156 15.5072 218.099 16.999C225.721 18.9064 232.621 23.6411 238.194 30.3751C240.463 33.1304 242.483 36.1571 244.22 39.4062C244.346 39.6389 244.473 39.8743 244.594 40.1124C246.088 42.9881 247.371 46.0084 248.431 49.1407C248.47 49.2571 248.509 49.3653 248.544 49.4789C249.522 52.412 250.312 55.4283 250.905 58.5019C250.932 58.6588 250.964 58.813 250.992 58.9699C251.547 61.9445 251.924 64.9614 252.12 67.9983C252.12 68.1065 252.12 68.2175 252.138 68.3311C252.234 69.9021 252.283 71.4894 252.285 73.0928C252.285 74.5268 252.244 75.9499 252.168 77.3622C252.168 77.5164 252.15 77.676 252.138 77.8356C252.118 78.2442 252.088 78.6473 252.058 79.0585C253.809 80.7253 255.447 82.5498 256.959 84.5156C257.627 85.376 258.273 86.2688 258.898 87.1941C260.802 90.0103 262.475 93.0333 263.896 96.2225C267.772 104.859 270 115.018 270 125.891Z" fill="url(#paint0_linear_6_580)"/>
    <g opacity="0.2">
        <path opacity="0.2" d="M156.003 179.127C155.996 179.419 155.967 179.711 155.918 179.998C154.322 179.698 152.717 179.426 151.103 179.184C151.103 179.108 151.103 179.029 151.103 178.95C151.117 178.137 151.315 177.343 151.676 176.65C152.148 175.765 152.866 175.212 153.657 175.241C154.448 175.271 155.134 175.876 155.558 176.791C155.879 177.509 156.033 178.315 156.003 179.127Z" fill="#3F3D56"/>
        <path opacity="0.2" d="M156.135 174.49C156.191 172.392 155.138 170.65 153.784 170.599C152.429 170.549 151.286 172.209 151.23 174.307C151.174 176.405 152.226 178.147 153.581 178.198C154.935 178.249 156.079 176.589 156.135 174.49Z" fill="#3F3D56"/>
        <path opacity="0.2" d="M156.26 169.845C156.316 167.747 155.263 166.005 153.909 165.954C152.554 165.903 151.411 167.563 151.355 169.662C151.299 171.76 152.351 173.502 153.706 173.553C155.06 173.603 156.204 171.943 156.26 169.845Z" fill="#3F3D56"/>
        <path opacity="0.2" d="M156.383 165.2C156.439 163.102 155.386 161.359 154.032 161.309C152.677 161.258 151.534 162.918 151.478 165.016C151.422 167.115 152.474 168.857 153.829 168.908C155.183 168.958 156.327 167.298 156.383 165.2Z" fill="#3F3D56"/>
        <path opacity="0.2" d="M156.505 160.555C156.561 158.456 155.509 156.714 154.154 156.664C152.8 156.613 151.657 158.273 151.6 160.371C151.544 162.47 152.597 164.212 153.951 164.262C155.306 164.313 156.449 162.653 156.505 160.555Z" fill="#3F3D56"/>
        <path opacity="0.2" d="M145.707 128.324C145.384 127.806 145.093 127.262 144.835 126.696L151.316 125.684L144.34 125.486C143.718 123.738 143.403 121.859 143.415 119.964C143.427 118.068 143.766 116.194 144.411 114.459L153.611 120.55L145.184 112.725C146.034 111.098 147.159 109.696 148.487 108.606C149.816 107.517 151.32 106.763 152.906 106.392C154.492 106.022 156.126 106.042 157.705 106.451C159.284 106.861 160.775 107.652 162.084 108.774C163.393 109.896 164.493 111.325 165.314 112.972C166.136 114.62 166.661 116.45 166.858 118.349C167.055 120.247 166.918 122.173 166.458 124.007C165.997 125.84 165.222 127.542 164.18 129.005C164.683 129.809 165.11 130.676 165.453 131.59L156.948 136.42L165.967 133.21C166.535 135.428 166.626 137.778 166.233 140.047C165.84 142.317 164.974 144.435 163.715 146.209C165.024 148.312 165.807 150.807 165.975 153.411C166.142 156.015 165.686 158.622 164.66 160.934C163.634 163.246 162.078 165.169 160.172 166.484C158.265 167.8 156.084 168.454 153.878 168.371C151.673 168.289 149.531 167.474 147.698 166.019C145.865 164.564 144.415 162.529 143.514 160.145C142.613 157.761 142.297 155.125 142.603 152.539C142.908 149.953 143.823 147.521 145.241 145.52C143.677 143.008 142.872 139.947 142.955 136.828C143.038 133.709 144.005 130.714 145.7 128.324H145.707Z" fill="#6C63FF"/>
        <path opacity="0.1" d="M166.467 137.706C166.386 140.827 165.417 143.823 163.715 146.209C165.024 148.312 165.807 150.807 165.975 153.411C166.142 156.015 165.686 158.622 164.66 160.934C163.634 163.246 162.078 165.169 160.172 166.484C158.265 167.8 156.084 168.453 153.878 168.371C151.673 168.289 149.531 167.474 147.698 166.019C145.865 164.564 144.415 162.529 143.514 160.145C142.613 157.761 142.297 155.125 142.603 152.539C142.908 149.953 143.823 147.521 145.241 145.52C143.735 143.097 166.508 136.146 166.467 137.706Z" fill="black"/>
    </g>
    <g opacity="0.2">
        <path opacity="0.2" d="M121.147 179.127C121.14 179.419 121.111 179.711 121.062 179.998C119.466 179.698 117.861 179.426 116.247 179.184C116.247 179.108 116.247 179.029 116.247 178.95C116.262 178.137 116.459 177.343 116.82 176.65C117.292 175.765 118.01 175.212 118.801 175.241C119.592 175.271 120.278 175.876 120.702 176.791C121.023 177.509 121.177 178.315 121.147 179.127Z" fill="#3F3D56"/>
        <path opacity="0.2" d="M121.276 174.491C121.332 172.393 120.28 170.651 118.925 170.6C117.571 170.55 116.428 172.21 116.371 174.308C116.315 176.406 117.368 178.149 118.722 178.199C120.077 178.25 121.22 176.59 121.276 174.491Z" fill="#3F3D56"/>
        <path opacity="0.2" d="M121.401 169.846C121.457 167.748 120.405 166.006 119.05 165.955C117.696 165.904 116.553 167.564 116.496 169.663C116.44 171.761 117.493 173.503 118.847 173.554C120.202 173.605 121.345 171.945 121.401 169.846Z" fill="#3F3D56"/>
        <path opacity="0.2" d="M121.524 165.201C121.58 163.103 120.528 161.361 119.173 161.31C117.819 161.259 116.676 162.919 116.62 165.018C116.563 167.116 117.616 168.858 118.971 168.909C120.325 168.959 121.468 167.299 121.524 165.201Z" fill="#3F3D56"/>
        <path opacity="0.2" d="M121.647 160.556C121.704 158.457 120.651 156.715 119.296 156.665C117.942 156.614 116.799 158.274 116.743 160.372C116.687 162.471 117.739 164.213 119.094 164.263C120.448 164.314 121.591 162.654 121.647 160.556Z" fill="#3F3D56"/>
        <path opacity="0.2" d="M110.851 128.324C110.528 127.806 110.237 127.262 109.98 126.696L116.46 125.684L109.484 125.486C108.862 123.738 108.547 121.859 108.559 119.964C108.571 118.068 108.91 116.194 109.555 114.459L118.755 120.55L110.328 112.725C111.178 111.098 112.303 109.696 113.631 108.606C114.96 107.517 116.464 106.763 118.05 106.392C119.636 106.022 121.27 106.042 122.849 106.451C124.428 106.861 125.919 107.652 127.228 108.774C128.537 109.896 129.637 111.325 130.458 112.972C131.28 114.62 131.805 116.45 132.002 118.349C132.199 120.247 132.062 122.173 131.602 124.007C131.141 125.84 130.366 127.542 129.325 129.005C129.827 129.809 130.254 130.676 130.597 131.59L122.092 136.42L131.111 133.21C131.679 135.428 131.77 137.778 131.377 140.047C130.984 142.317 130.118 144.435 128.859 146.209C130.168 148.312 130.951 150.807 131.119 153.411C131.286 156.015 130.83 158.622 129.804 160.934C128.778 163.246 127.223 165.169 125.316 166.484C123.409 167.8 121.228 168.454 119.022 168.371C116.817 168.289 114.675 167.474 112.842 166.019C111.009 164.564 109.559 162.529 108.658 160.145C107.757 157.761 107.442 155.125 107.747 152.539C108.052 149.953 108.967 147.521 110.385 145.52C108.821 143.008 108.016 139.947 108.099 136.828C108.182 133.709 109.149 130.714 110.844 128.324H110.851Z" fill="black"/>
        <path opacity="0.1" d="M131.611 137.706C131.531 140.827 130.561 143.823 128.859 146.209C130.168 148.312 130.951 150.807 131.119 153.411C131.286 156.015 130.83 158.622 129.804 160.934C128.778 163.246 127.223 165.169 125.316 166.484C123.409 167.8 121.228 168.453 119.022 168.371C116.817 168.289 114.675 167.474 112.842 166.019C111.009 164.564 109.559 162.529 108.658 160.145C107.757 157.761 107.442 155.125 107.747 152.539C108.052 149.953 108.967 147.521 110.385 145.52C108.879 143.097 131.652 136.146 131.611 137.706Z" fill="black"/>
    </g>
    <path d="M36 182L38.426 181.992H41.8465L46.1712 99.833L89 16.2543L87.1383 13.9176V8L40.8197 97.8966L36 182Z" fill="#F1C0C0"/>
    <path opacity="0.1" d="M38 182H41.2045L45.5881 99.3887L89 15.3496L87.1129 13L42.3344 98.1296L38 182Z" fill="black"/>
    <path d="M87 13.7519L135.631 75.2413L134.127 183.402L138.258 183.989L138.327 184H142.458L142.952 79.8856L234.014 115.719L235.55 179.521L238.874 179.96L240 180.109L237.393 111.294L142.201 71.9239L90.0045 8H87V13.7519Z" fill="#F1C0C0"/>
    <path opacity="0.1" d="M143 78L143.374 80.0087L234.155 116.17L235.686 180.557L239 181L236.401 114.831L143 78Z" fill="black"/>
    <path opacity="0.1" d="M87 13.7523L135.274 75.2454L133.781 183.412L137.882 184L139 71.7058L87 8V13.7523Z" fill="black"/>
    <path d="M143 121.186L176.192 129.111L176.204 129.114L234.338 143L237 141.706L236.991 141.479L236.817 136.978L143.034 114L143 121.186Z" fill="#F1C0C0"/>
    <path d="M113.803 109.665C114.045 109.817 114.276 109.99 114.495 110.184C114.753 110.445 114.985 110.739 115.187 111.06C116.176 112.537 117.09 114.253 116.993 116.116C116.995 116.387 116.951 116.656 116.862 116.907C116.774 117.158 116.644 117.387 116.479 117.58C116.07 117.981 115.484 118 114.949 118C114.368 118 113.757 118 113.254 117.654C112.751 117.308 112.331 116.635 111.736 116.651C111.652 116.667 111.566 116.667 111.482 116.651C111.277 116.574 111.235 116.262 111.101 116.065C110.871 115.711 110.384 115.799 110.022 115.954C109.66 116.108 109.258 116.339 108.901 116.161C108.693 116.035 108.524 115.839 108.414 115.6C107.558 114.003 107.376 112.084 107.214 110.229C107.115 109.101 106.359 105.253 108.446 106.128C109.369 106.512 110.232 107.278 111.071 107.84L113.803 109.665Z" fill="#3F3D56"/>
    <path d="M111.419 109.518C111.603 109.68 111.826 109.762 112.052 109.751C112.279 109.74 112.496 109.636 112.669 109.456C113.008 109.081 113.224 108.568 113.277 108.013C113.504 107.927 113.62 108.292 113.766 108.515C114.021 108.894 114.54 108.888 114.772 109.292C114.934 109.571 114.897 109.958 115.011 110.273C115.159 110.68 115.526 110.891 115.776 111.22C116.012 111.58 116.183 111.997 116.277 112.444L116.65 113.815C116.829 114.385 116.944 114.982 116.992 115.59C117.015 115.894 116.989 116.2 116.915 116.491C116.841 116.783 116.72 117.053 116.559 117.287C116.058 117.947 115.236 118.017 114.51 117.997C114.268 118.004 114.026 117.969 113.791 117.894C113.147 117.649 112.735 116.855 112.564 116.055C112.393 115.255 112.411 114.417 112.311 113.597C112.203 112.793 112.012 112.008 111.742 111.262C111.542 110.683 110.991 109.819 111 109.203C111.164 109.203 111.282 109.387 111.419 109.518Z" fill="#3F3D56"/>
    <path d="M112.701 106.705C112.574 106.297 112.5 105.873 112.481 105.443C112.481 104.581 112.853 103.77 113.227 103L110.126 103.446C109.752 103.5 109.334 103.581 109.122 103.911C109.042 104.075 109 104.257 109 104.442C109 104.626 109.042 104.808 109.122 104.972C109.278 105.3 109.401 105.644 109.491 105.998C109.498 106.308 109.532 106.617 109.592 106.921C109.688 107.144 109.824 107.346 109.991 107.516C110.878 108.557 111.542 109.784 112.204 111C112.185 110.966 114.074 109.416 113.998 108.91C113.954 108.623 113.409 108.278 113.235 108.002C112.996 107.601 112.815 107.164 112.701 106.705Z" fill="#BE6F72"/>
    <path d="M135 96V98.8699L96.003 108.456L93.98 110H87V108.383L125.315 96.7168L135 96Z" fill="#F1C0C0"/>
    <path opacity="0.1" d="M135 99L96.003 108.474L93.98 110H87L125.599 99.7112L135 99Z" fill="black"/>
    <path d="M109.93 132.843C110.537 133.31 110.772 134.227 110.866 135.078C111.126 137.411 110.671 139.768 110.636 142.123C110.604 145.422 111.409 148.781 110.721 151.976C110.309 153.886 110.659 156.069 110.273 157.998C110.158 158.571 109.946 159.111 109.836 159.684C109.606 160.925 109.847 162.224 110.171 163.438C110.275 163.766 110.341 164.108 110.367 164.456C110.351 164.992 110.237 165.517 110.031 165.995L108.651 169.867C108.497 170.301 107.89 170.372 107.501 170.429C106.769 170.533 105.953 170.606 105.371 170.069C104.789 169.531 104.649 168.631 104.559 167.79C104.387 166.177 104.31 164.551 104.329 162.925C104.354 162.501 104.322 162.075 104.234 161.662C104.108 161.196 103.83 160.792 103.754 160.298C103.657 159.659 103.931 159.032 104.032 158.388C104.101 157.8 104.094 157.202 104.009 156.617C103.919 155.744 103.816 154.871 103.698 154.003C103.533 152.789 103.77 151.591 103.929 150.374C104.078 149.231 103.887 148.066 103.698 146.931C103.715 147.852 103.618 148.771 103.411 149.659C103.289 150.093 103.114 150.508 103.008 150.95C102.537 152.934 103.542 155.015 103.399 157.07C103.333 158.03 103.015 158.98 103.105 159.927C103.167 160.62 103.439 161.256 103.625 161.916C103.811 162.576 103.908 163.332 103.625 163.949C102.877 165.624 103.436 167.902 104.106 169.621C104.242 169.926 104.36 170.241 104.46 170.565C104.658 171.34 104.492 172.172 104.545 172.98C104.352 173.017 104.155 173.002 103.968 172.936C103.781 172.869 103.609 172.752 103.466 172.595C103.365 172.47 103.282 172.322 103.183 172.191C102.907 171.879 102.58 171.637 102.222 171.479C102.012 171.34 101.772 171.274 101.532 171.291C101.279 171.375 101.051 171.542 100.876 171.774C100.649 172.011 100.407 172.229 100.154 172.426C100.046 172.524 99.9197 172.591 99.7858 172.62C99.7184 172.632 99.6495 172.619 99.5888 172.582C99.5281 172.546 99.4787 172.487 99.4476 172.415C99.4333 172.37 99.4247 172.322 99.4223 172.273C99.3369 171.449 99.2916 170.62 99.2866 169.79C99.2866 168.363 97.8467 167.381 97.6649 165.97C97.52 164.833 97.7892 163.673 97.6994 162.527C97.6557 161.938 97.5177 161.359 97.5269 160.77C97.5269 160.388 97.6005 160.014 97.6258 159.635C97.6469 159.214 97.6415 158.792 97.6097 158.371L97.5384 157.054C97.4694 155.752 97.3935 154.423 96.9611 153.234C96.4483 151.845 96.1446 150.36 96.064 148.846C96.018 147.891 96.0479 146.936 95.9559 145.979C95.873 145.114 95.689 144.254 95.7419 143.386C95.7856 142.715 95.972 142.066 96.0157 141.395C96.1054 140.104 95.6913 138.849 95.367 137.613C95.0427 136.377 94.8034 135.007 95.229 133.815C95.2898 133.619 95.391 133.445 95.5234 133.307C95.6866 133.179 95.8723 133.097 96.0663 133.067C100.013 132.084 104.058 131.778 108.078 132.159C108.734 132.203 109.37 132.438 109.93 132.843Z" fill="#3F3D56"/>
    <path d="M97 104C99.2091 104 101 101.985 101 99.5C101 97.0147 99.2091 95 97 95C94.7909 95 93 97.0147 93 99.5C93 101.985 94.7909 104 97 104Z" fill="#BE6F72"/>
    <path d="M96.4951 105.314C96.5508 105.565 96.5508 105.829 96.4951 106.08C96.4341 106.256 96.3483 106.419 96.2411 106.564C95.8659 107.113 95.4508 107.626 95 108.097C95.2296 108.679 95.6431 109.143 96.1588 109.397C96.6709 109.644 97.208 109.819 97.7579 109.916C98.0324 109.998 98.318 110.02 98.5998 109.982C98.8595 109.908 99.1053 109.781 99.3256 109.608L101.479 108.144C101.804 107.944 102.104 107.697 102.374 107.41C102.769 106.949 102.992 106.333 102.998 105.69C103.008 105.575 102.98 105.46 102.921 105.366C102.838 105.284 102.735 105.235 102.625 105.226C101.868 105.036 101.271 104.338 100.932 103.547C100.626 102.736 100.428 101.877 100.344 101L98.0482 102.374C97.7071 102.58 97.3684 102.786 97.0152 102.965C96.7902 103.08 96.3354 103.176 96.1757 103.41C95.8709 103.841 96.4152 104.794 96.4951 105.314Z" fill="#BE6F72"/>
    <path d="M94.7358 107.719C94.4371 108.015 94.2039 108.394 94.0571 108.825C93.92 109.358 94.0571 109.92 94.1809 110.448C94.7611 112.696 95.2044 114.993 95.5073 117.319C95.693 118.918 95.7616 120.54 95.8522 122.157C96.0379 125.456 96.3076 130.715 96.6679 133.993C97.9944 134.064 99.2876 133.598 100.603 133.428C103.061 133.113 105.593 133.833 108 133.161C107.416 130.382 106.833 125.637 106.249 122.861C105.991 121.767 105.812 120.648 105.714 119.517C105.663 118.704 105.694 117.889 105.703 117.071C105.723 115.473 105.65 113.874 105.577 112.275C105.493 110.41 105.409 108.545 105.042 106.72C105.017 106.488 104.926 106.273 104.786 106.11C104.565 105.916 104.277 105.985 104.014 106.028C103.209 106.151 102.393 105.918 101.719 105.372C101.428 105.132 101.036 104.839 100.764 105.106C100.648 105.266 100.572 105.463 100.543 105.673C100.423 106.05 100.237 106.392 99.9986 106.675C99.76 106.959 99.4739 107.178 99.1594 107.317C98.5294 107.592 97.8696 107.755 97.2007 107.802C96.996 107.855 96.7826 107.826 96.5928 107.719C96.2789 107.488 96.2568 106.654 95.861 106.598C95.514 106.55 94.9701 107.45 94.7358 107.719Z" fill="#3F3D56"/>
    <path d="M100.444 114.092C99.5827 113.147 99.2045 111.777 98.5765 110.612C98.1488 109.829 97.6025 109.14 96.9632 108.577C96.6419 108.334 96.3472 108.047 96.0854 107.723C95.8636 107.41 95.6955 106.993 95.3593 106.872C95.2204 106.838 95.0762 106.842 94.9392 106.885C94.8021 106.929 94.6763 107.01 94.5726 107.121C94.3667 107.346 94.1719 107.584 93.9889 107.833C92.999 109.008 91.2597 109.172 90.4753 110.532C90.2636 110.82 90.1198 111.166 90.0574 111.536C89.8315 113.515 90.2779 115.518 91.3041 117.131C91.5028 117.504 91.8079 117.788 92.1679 117.934C92.119 118.433 92.1767 118.938 92.336 119.406C92.7682 121.1 93.2994 122.76 93.9259 124.372C93.7761 125.003 93.6714 125.647 93.613 126.297C93.4496 127.933 93.6013 129.592 93.4473 131.231C93.3212 132.569 92.9803 133.873 92.9687 135.214C92.9687 135.428 92.985 135.683 93.1461 135.792C93.2318 135.843 93.3277 135.866 93.4239 135.859L96.2955 135.958C97.9625 136.015 99.6457 136.071 101.287 135.717C101.506 135.68 101.718 135.604 101.915 135.49C102.471 135.134 102.655 134.331 102.744 133.616C102.86 132.689 102.906 131.752 102.882 130.816C103.229 132.077 103.643 133.38 104.693 133.926C105.249 134.216 105.884 134.194 106.493 134.175C107.807 134.108 109.115 133.954 110.413 133.712C110.493 133.724 110.574 133.713 110.65 133.682C110.726 133.651 110.795 133.6 110.85 133.533C110.906 133.467 110.947 133.386 110.97 133.297C110.994 133.209 110.999 133.115 110.985 133.024L110.999 131.563C111.027 128.594 110.385 125.756 110.135 122.801C110.056 121.869 110.063 120.927 109.864 120.014C109.783 119.631 109.664 119.256 109.591 118.871C109.529 118.493 109.49 118.111 109.475 117.728L109.292 114.783C109.206 113.42 109.082 112.106 108.991 110.746C108.941 109.422 108.774 108.107 108.492 106.821C108.289 106.018 107.866 105.108 107.135 105.009C106.745 104.958 106.367 105.154 105.996 105.29C105.084 105.619 104.104 105.615 103.194 105.277C102.913 105.149 102.62 105.06 102.321 105.009C102.171 104.985 102.017 105.008 101.877 105.075C101.737 105.142 101.615 105.25 101.523 105.389C101.432 105.598 101.39 105.83 101.399 106.064C101.289 108.738 101.086 111.493 100.444 114.092Z" fill="url(#paint1_linear_6_580)"/>
    <path d="M96.9843 114.127C95.9903 112.763 94.9704 111.373 93.6897 110.506C93.1851 110.163 92.6116 109.905 92.0531 110.034C91.4947 110.163 90.9751 110.795 91.0009 111.533C91.0182 111.991 91.2316 112.395 91.2985 112.844C91.3761 113.35 91.264 113.889 91.3847 114.377C91.4828 114.699 91.6295 114.992 91.816 115.239L93.3425 117.595C93.9894 118.578 94.6362 119.574 95.4685 120.254C96.3008 120.933 97.3789 121.251 98.2931 120.768C98.9435 120.374 99.4844 119.728 99.8412 118.917C100.221 118.131 100.488 117.272 100.844 116.461C101.398 115.164 102.128 114.01 103 113.055C102.552 112.903 101.989 112.69 101.706 112.213C101.626 112.061 101.557 111.899 101.501 111.73L101.152 110.747C101.033 110.739 100.915 110.763 100.803 110.818C100.692 110.872 100.591 110.956 100.505 111.064C100.356 111.29 100.195 111.503 100.024 111.702C99.7205 111.999 99.3086 112.081 99.0327 112.42C98.9259 112.566 98.8292 112.724 98.7437 112.892C98.535 113.249 98.27 113.544 97.9666 113.757C97.6631 113.97 97.3282 114.097 96.9843 114.127Z" fill="#3F3D56"/>
    <path d="M103.276 108.381C104.018 106.515 103.984 104.277 104.195 102.169C104.218 101.611 104.361 101.075 104.604 100.627C105.032 99.961 105.786 99.9522 106.432 100.038C106.623 100.067 106.86 100.191 106.849 100.453C106.834 100.547 106.801 100.634 106.753 100.704C106.127 101.818 105.759 103.166 105.697 104.572C106.032 104.893 106.552 104.233 106.875 104.572C107.089 104.82 106.99 105.309 106.862 105.663C106.564 106.482 106.257 107.296 105.94 108.104C105.688 108.816 105.358 109.471 104.963 110.047C104.692 110.406 104.373 110.689 104.097 111.043C103.456 111.871 103.069 113.042 102.406 113.85C102.35 113.933 102.274 113.987 102.192 114C102.107 113.992 102.028 113.943 101.967 113.861C101.636 113.49 101.361 113.032 101.159 112.514C100.907 111.871 100.945 111.683 101.343 111.229C102.087 110.418 102.812 109.548 103.276 108.381Z" fill="#BE6F72"/>
    <path d="M95.5977 112.832C95.7448 112.938 95.9262 113.058 96.088 112.969C96.1541 112.922 96.2103 112.859 96.2523 112.783C96.5325 112.346 96.7663 111.871 96.9485 111.368C96.9799 111.296 96.9974 111.218 97 111.138C97 110.955 96.8603 110.82 96.7303 110.714C96.0341 110.196 95.2855 109.78 94.5018 109.477C93.8546 109.19 93.1779 108.941 92.4915 109.012C92.2336 109.033 91.9818 109.114 91.7513 109.251C91.5209 109.387 91.3165 109.577 91.1505 109.809C90.6601 110.545 91.4814 110.769 91.9963 111.035C93.1877 111.668 94.4773 112.035 95.5977 112.832Z" fill="url(#paint2_linear_6_580)"/>
    <path opacity="0.2" d="M135 96V98.3985L125.294 99L125 96.599L135 96Z" fill="black"/>
    <path d="M93.1168 99.8813C93.6974 99.3667 93.3614 98.2879 93.7545 97.5969C93.9831 97.219 94.3694 97.0202 94.7488 96.8511C95.2067 96.6181 95.6973 96.4702 96.2002 96.4136C96.4521 96.3873 96.7061 96.423 96.9436 96.5181C97.181 96.6132 97.3957 96.7653 97.5716 96.963C97.7202 97.1469 97.8208 97.3707 97.9602 97.5621C98.1329 97.7854 98.3579 97.9537 98.6115 98.0491C98.865 98.1445 99.1375 98.1634 99.4002 98.104C99.7042 98.0294 100.02 97.7783 99.999 97.4403C99.9647 97.2346 99.8682 97.0474 99.7248 96.9083L99.0711 96.1203C98.3282 95.2254 97.5031 94.2759 96.4128 94.0521C95.6539 93.8955 94.8768 94.1168 94.1454 94.3828C93.8505 94.4896 93.5191 94.6487 93.4368 94.9744C93.382 95.1981 93.4642 95.4417 93.4162 95.6679C93.3225 96.1178 92.7922 96.2695 92.5454 96.6473C92.2985 97.0251 92.374 97.4726 92.3031 97.8902C92.2322 98.3078 92.0265 98.7155 92.0014 99.148C91.9854 99.409 92.1065 99.8937 92.3762 99.9882C92.646 100.083 92.95 99.5706 93.1168 99.8813Z" fill="#3F3D56"/>
    <path d="M100 97.3335C99.8066 96.1949 99.3896 95.1197 98.7797 94.1867C98.2374 93.315 97.4829 92.6391 96.6075 92.2407C96.1699 92.0478 95.6992 91.9692 95.2308 92.0109C94.7625 92.0525 94.3085 92.2134 93.9031 92.4813C93.3013 92.966 92.833 93.6325 92.5521 94.4041C91.958 95.8481 91.7378 97.6129 92.4282 99C92.7035 98.6222 93.176 98.793 93.5935 98.6558C94.1165 98.4876 94.5592 98.0943 95.0569 97.8484C96.5593 97.1006 98.3944 97.7061 100 97.3335Z" fill="#FED253"/>
    <path opacity="0.1" d="M93.07 97.9356C93.0125 97.2917 92.975 96.544 93.295 96.086C93.3109 96.058 93.3312 96.0356 93.3542 96.0207C93.3772 96.0058 93.4023 95.9988 93.4275 96.0002C93.4498 96.0105 93.4704 96.0273 93.488 96.0495C93.5057 96.0716 93.5199 96.0986 93.53 96.129C93.7147 96.5461 93.872 96.9868 94 97.4455C93.8137 97.384 93.6188 97.404 93.4405 97.5029C93.2622 97.6018 93.1087 97.7749 93 98" fill="black"/>
    <path opacity="0.1" d="M100 135V137.84L98.5623 138H91V135H100Z" fill="black"/>
    <path d="M100 135.649V138H90.4283L65 98.8494V97H70.3307L100 135.649Z" fill="#F1C0C0"/>
    <path opacity="0.1" d="M100 135.649V138H90.4283L65 98.8494V97H70.3307L100 135.649Z" fill="black"/>
    <path opacity="0.1" d="M100 135.649V138H90.4283L65 98.8494V97L90.5659 135.649H100Z" fill="black"/>
    <path d="M54.0398 142.433C53.9512 143.297 53.9885 144.224 54.3799 144.97C54.7714 145.716 55.5962 146.21 56.3092 145.912C56.3457 145.901 56.38 145.882 56.41 145.856C56.44 145.83 56.4651 145.797 56.4839 145.759C56.5029 145.668 56.4921 145.573 56.4536 145.49C56.1389 144.523 56.1648 143.452 56.5258 142.506C56.5724 142.382 56.6726 142.237 56.7821 142.285C56.8279 142.312 56.8648 142.356 56.887 142.409C56.9998 142.634 57.0562 142.89 57.0501 143.15C57.0172 143.385 57.0109 143.624 57.0314 143.861C57.0757 144.092 57.2901 144.309 57.4765 144.21C57.5304 144.172 57.5769 144.122 57.6134 144.062C57.6498 144.003 57.6754 143.935 57.6885 143.864C58.2081 142.132 57.9728 140.24 57.7351 138.428C57.7371 138.387 57.7311 138.345 57.7176 138.306C57.7041 138.268 57.6834 138.233 57.6569 138.205C57.6305 138.176 57.599 138.155 57.5646 138.142C57.5301 138.129 57.4937 138.125 57.4578 138.13C56.3581 138.004 55.757 137.701 55.1279 138.879C54.5873 139.872 54.0398 141.239 54.0398 142.433Z" fill="url(#paint3_linear_6_580)"/>
    <path d="M66.6495 136.771C66.3359 138.335 66.0202 139.917 66 141.523C66.0055 142.523 66.0684 143.522 66.1881 144.513L66.4233 146.839C66.5039 147.623 66.5823 148.405 66.6965 149.181C66.7694 149.581 66.8091 149.988 66.8152 150.398C66.7932 150.801 66.74 151.201 66.6562 151.593C66.5154 152.415 66.4367 153.252 66.421 154.091C66.3964 155.434 66.5353 156.777 66.6226 158.12C66.797 160.796 66.7707 163.486 66.5442 166.157C66.4538 166.878 66.5843 167.613 66.9115 168.228C67.0443 168.421 67.1536 168.637 67.2363 168.867C67.4042 169.482 67.0123 170.097 66.9115 170.728C66.8471 171.221 66.9481 171.723 67.1925 172.126C67.4369 172.529 67.8047 172.799 68.215 172.877C70.0066 173.132 71.8476 173.017 73.4624 174C73.6326 173.404 73.2608 172.727 73.431 172.12C73.5385 171.744 73.8341 171.499 74.0357 171.182C74.3065 170.699 74.4415 170.125 74.4209 169.544C74.4288 168.785 74.3163 168.031 74.0894 167.322C73.8991 166.732 73.6258 166.149 73.6415 165.515C73.6415 165.203 73.7333 164.875 73.6281 164.588C73.5559 164.423 73.4578 164.276 73.3392 164.156C72.6698 163.276 72.2585 162.158 72.1679 160.973C72.0805 159.796 72.1121 158.611 72.2619 157.443C72.3717 156.331 72.5195 155.157 73.1085 154.29C72.8354 151.659 72.9959 148.99 73.581 146.433C73.6393 146.197 73.7311 145.923 73.9327 145.866C74.0127 145.856 74.0936 145.87 74.1685 145.905C74.2433 145.941 74.3099 145.998 74.3627 146.07C74.7143 146.465 74.8823 147.037 75.0345 147.585C75.2025 148.179 75.3727 148.813 75.2451 149.42C75.1913 149.689 75.0838 149.925 75.0211 150.183C74.8849 150.701 74.9087 151.261 75.0883 151.759C75.1758 151.942 75.2308 152.144 75.2496 152.353C75.2288 152.533 75.1834 152.707 75.1152 152.869C75.0321 153.187 75.0057 153.522 75.0378 153.853C75.0698 154.184 75.1595 154.503 75.3011 154.789C75.5865 155.36 75.9387 155.878 76.347 156.328C76.1519 157.359 76.2024 158.435 76.4925 159.434C76.5135 159.479 76.5268 159.528 76.5318 159.579C76.5368 159.63 76.5334 159.682 76.5216 159.732C76.4813 159.834 76.3783 159.871 76.2977 159.944C76.0737 160.164 76.2126 160.58 76.3626 160.868C76.7739 161.657 77.228 162.412 77.7221 163.13C78.17 163.772 78.1297 165.01 78.7971 165.241C79.0775 165.313 79.3677 165.313 79.6481 165.241C80.3066 165.12 81.0412 164.892 81.3637 164.193C81.4958 163.906 81.5495 163.557 81.7556 163.342C81.9616 163.127 82.2281 163.089 82.3424 162.831C82.4566 162.574 82.3289 162.235 82.367 161.937C82.4051 161.639 82.6223 161.4 82.6917 161.085C82.8575 160.36 82.152 159.764 82.0557 159.023C81.9168 157.948 83.0456 157.142 82.9986 156.068C82.9 153.734 82.8373 151.389 82.7365 149.055C82.6101 146.964 82.5921 144.865 82.6828 142.772C82.7612 141.469 82.9067 140.105 82.5081 138.893C81.9348 137.185 80.3536 136.226 78.824 136.043C77.2943 135.861 75.7691 136.296 74.2529 136.581C71.7365 137.046 69.1799 137.11 66.6495 136.771Z" fill="#3F3D56"/>
    <path d="M71 111C73.2091 111 75 108.985 75 106.5C75 104.015 73.2091 102 71 102C68.7909 102 67 104.015 67 106.5C67 108.985 68.7909 111 71 111Z" fill="#FBBEBE"/>
    <path d="M69.5091 112.615C69.3858 112.944 69.1786 113.222 68.9147 113.413C68.6508 113.604 68.3425 113.7 68.0304 113.686C67.8991 114.309 68.2138 114.937 68.5739 115.427C69.3215 116.424 70.2876 117.174 71.3727 117.6C72.4577 118.027 73.6224 118.114 74.7466 117.853C75.1841 117.763 75.5991 117.565 75.9626 117.272C76.4526 116.803 76.7815 116.15 76.891 115.43C76.9952 114.714 77.0248 113.987 76.9793 113.263C76.992 113.121 76.9563 112.978 76.8797 112.864C76.7891 112.784 76.6771 112.742 76.5626 112.745C75.7973 112.667 74.9979 112.633 74.3254 112.202C73.6529 111.772 73.1751 110.799 73.4989 110C73.4468 110.125 72.1244 110.184 71.9501 110.21C71.4044 110.298 70.8587 110.397 70.3152 110.511C70.0541 110.527 69.796 110.583 69.5476 110.677C69.2192 110.872 69.3415 110.776 69.4185 111.128C69.534 111.668 69.7038 112.055 69.5091 112.615Z" fill="#FBBEBE"/>
    <path d="M71.8883 114.168C71.3879 114.175 70.8887 114.11 70.4017 113.976C69.9099 113.841 69.4765 113.502 69.1817 113.022C69.0101 112.717 68.8988 112.334 68.6251 112.163C68.1775 111.891 67.6673 112.351 67.3101 112.772C66.9849 113.187 66.608 113.543 66.1922 113.826C65.6959 114.133 65.1161 114.242 64.6476 114.603C64.2816 114.927 63.9675 115.325 63.7199 115.777L60.4336 121.022C59.1139 123.13 57.9659 125.394 56.79 127.62C55.7719 129.546 55.2385 131.764 54.4708 133.842C54.41 133.97 54.3849 134.116 54.3989 134.261C54.4267 134.402 54.5729 134.516 54.6749 134.435C54.3293 134.837 54.6332 135.522 54.552 136.087C54.4597 136.482 54.2672 136.836 54 137.101C54.5105 137.023 55.0287 137.051 55.5307 137.185C56.0495 137.357 56.5391 137.633 56.9779 138C57.2585 137.948 57.233 137.364 57.4418 137.147C57.567 137.019 57.7525 137.035 57.9172 136.997C58.5364 136.856 58.7823 135.984 59.2577 135.492C59.6543 135.082 60.2156 134.948 60.6353 134.562C61.3172 133.935 61.4633 132.818 61.8205 131.891C62.1243 131.106 62.6021 130.421 62.8688 129.617C63.0427 129.095 63.1262 128.53 63.3744 128.049C63.771 127.272 64.5177 126.859 65.2298 126.486C65.6797 126.25 66.1575 126.005 66.6422 126.043C66.6167 127.307 66.4798 128.552 66.7141 129.785C66.7952 130.22 66.9089 130.644 67.0063 131.076C67.4493 133.022 67.5536 135.049 67.5745 137.054C68.6401 136.769 69.7284 136.616 70.8214 136.598C71.6819 136.568 72.54 136.698 73.4004 136.679C74.4209 136.658 75.4298 136.427 76.4502 136.345C77.4707 136.264 78.5375 136.345 79.4397 136.889C79.3665 135.166 79.4076 133.44 79.5627 131.726L79.8085 129.024C79.864 128.24 79.9671 127.461 80.117 126.693C80.2515 126.073 80.4463 125.476 80.5947 124.859C81.1165 122.685 81.0215 120.364 80.9217 118.101C80.8707 116.938 80.488 115.793 80.0381 114.758C79.8752 114.374 79.6892 114.003 79.4815 113.649C78.9378 112.772 78.2132 112.07 77.3753 111.609C76.5375 111.148 75.6136 110.943 74.6899 111.014C74.572 111.018 74.4556 111.047 74.3467 111.101C74.1509 111.247 73.998 111.461 73.9084 111.712C73.4285 112.722 72.7323 113.569 71.8883 114.168Z" fill="#3F3D56"/>
    <path d="M67.2983 108.358C67.4174 108.1 67.7378 108.005 67.9337 107.798C68.3097 107.406 68.1402 106.779 68.1985 106.25C68.2938 105.476 68.953 104.828 69.7076 104.552C70.477 104.311 71.2958 104.261 72.0903 104.405C72.4728 104.432 72.8422 104.552 73.1653 104.753C73.3029 104.851 73.43 104.978 73.5597 105.068C73.7962 105.208 74.0792 105.251 74.3483 105.19C74.6174 105.129 74.8512 104.967 75 104.741C74.0628 103.641 73.0249 102.48 71.6006 102.142C71.1119 102.045 70.614 101.999 70.1153 102.005C69.456 101.993 68.7756 101.982 68.1667 102.227C67.338 102.56 66.7555 103.327 66.4564 104.152C66.1947 104.989 66.0548 105.858 66.0407 106.732C65.9864 107.316 65.9864 107.903 66.0407 108.487C66.1431 109.284 66.4469 110.044 66.925 110.698C66.9896 110.8 67.0811 110.883 67.1897 110.938C68.397 111.454 67.2003 108.572 67.2983 108.358Z" fill="#3F3D56"/>
    <path d="M75 103.891C74.8655 102.641 74.0439 101.608 73.1709 100.777C72.4673 100.057 71.6292 99.5089 70.7135 99.1711C69.7916 98.8764 68.7304 98.9401 67.9405 99.5374C67.3048 100.018 66.9013 100.783 66.5908 101.552C66.1828 102.461 65.9807 103.462 66.0014 104.473C66.0626 105.476 66.5125 106.493 67.3145 107C67.6031 106.538 68.1044 106.299 68.5861 106.111C70.6856 105.246 72.8267 104.505 75 103.891Z" fill="#FED253"/>
    <path opacity="0.1" d="M67.2812 103C67.3639 103 67.4182 103.137 67.4596 103.248C67.6701 103.773 67.851 104.327 68 104.903C67.6975 105.007 67.1778 105.123 67.0278 104.696C66.9477 104.481 67.0433 102.98 67.2812 103Z" fill="black"/>
    <path opacity="0.1" d="M72.2341 102.988C72.1263 103.034 72.0005 102.94 72.0005 102.872V102.096C71.9975 102.074 72.0084 102.053 72.0319 102.034C72.0506 102.024 72.0733 102.016 72.0988 102.011C72.1242 102.005 72.1519 102.002 72.1802 102.002C72.5442 101.984 72.8452 102.122 73.0789 102.254C73.4335 102.468 73.7419 102.696 74 102.936L72.0993 102.91" fill="black"/>
    <path d="M84.3428 120.489C84.5537 120.268 84.7789 120.065 85.0166 119.88C85.6515 119.413 86.4194 119.229 87.1322 118.931C87.845 118.633 88.5693 118.151 88.8467 117.369C88.9855 116.879 89.0307 116.364 88.9796 115.854C88.9862 115.641 88.9519 115.428 88.8787 115.231C88.7915 115.056 88.6673 114.907 88.5166 114.796C87.5493 114.009 86.252 113.946 85.051 114.027C82.4031 114.207 79.8077 114.921 77.3933 116.132C77.2656 116.178 77.1537 116.266 77.0724 116.384C77.0254 116.494 77.0041 116.614 77.0105 116.735C76.9678 117.479 77.0557 118.226 77.2695 118.934C77.5858 119.832 78.2367 120.557 78.5095 121.473C78.6333 121.885 78.6745 122.321 78.7823 122.735C78.8706 123.163 79.1002 123.539 79.4263 123.79C80.3317 124.386 81.1866 123.586 81.8146 122.965L84.3428 120.489Z" fill="#3F3D56"/>
    <path d="M73.2942 123.665L72.1207 120.731C71.9486 120.324 71.8002 119.905 71.6763 119.476C71.542 118.964 71.4772 118.433 71.3523 117.919C70.9403 116.205 69.901 114.777 69.3941 113.098C69.3621 112.946 69.2967 112.807 69.2043 112.692C69.1304 112.632 69.0458 112.591 68.9566 112.573C68.8674 112.555 68.7757 112.559 68.6882 112.586C67.9799 112.726 67.4268 113.345 66.7787 113.695C66.4778 113.854 66.1537 113.96 65.8528 114.143C65.7024 114.225 65.5692 114.343 65.4621 114.489C65.3551 114.635 65.2768 114.806 65.2325 114.99C65.1608 115.396 65.3367 115.786 65.4848 116.181C66.1144 117.81 66.2579 119.63 66.2857 121.413C66.3065 122.612 66.2533 123.899 65.6353 124.862C64.4479 126.719 65.2071 129.446 65.6515 131.694C65.7047 131.959 65.7672 132.245 65.8042 132.527C65.8434 132.879 65.8612 133.233 65.8575 133.588C65.8575 134.779 65.7996 136.007 65.3645 137.087C65.7941 137.349 66.2676 137.503 66.7532 137.538C68.0972 137.735 69.4466 137.873 70.8014 137.952C71.2259 137.998 71.6539 137.973 72.0721 137.878C72.5687 137.724 73.0065 137.385 73.3163 136.914C73.626 136.443 73.7901 135.868 73.7825 135.278C73.8566 136.013 73.9932 136.811 74.4584 137.321C74.9236 137.83 75.6018 137.907 76.2337 137.947C78.017 138.055 79.8051 137.998 81.5803 137.774C81.6936 137.769 81.805 137.739 81.909 137.687C82.2515 137.491 82.2701 136.949 82.2423 136.514C82.1914 135.7 82.1381 134.885 82.0525 134.076C81.9799 133.56 81.9427 133.039 81.9414 132.516C81.9767 131.978 82.0541 131.446 82.1728 130.924C82.483 129.269 82.7283 127.579 82.6242 125.883C82.583 125.47 82.5683 125.054 82.5802 124.639C82.6404 123.702 83.0709 122.811 82.9899 121.88C82.7584 119.142 82.571 116.332 81.9044 113.69C81.784 113.217 81.6312 112.711 81.2725 112.44C80.8096 112.084 80.1592 112.27 79.6291 112.045C79.3804 111.912 79.1439 111.751 78.9232 111.564C78.4436 111.221 77.8938 111.027 77.3285 111.002C76.9026 110.983 76.4281 111.092 76.1712 111.485C76.0522 111.706 75.9735 111.952 75.9397 112.209C75.6041 113.828 75.2106 115.427 74.8172 117.027L74.4399 118.561L73.4284 122.678C73.3289 123.116 73.396 123.251 73.2942 123.665Z" fill="url(#paint4_linear_6_580)"/>
    <path d="M79.2854 107L101 135.577V138H91.3179L75 111.329" fill="#F1C0C0"/>
    <path opacity="0.1" d="M79.2854 107L101 135.577V138H91.3179L75 111.329" fill="black"/>
    <path opacity="0.1" d="M75.3457 111L75.4153 111.031L91.4571 135.581H101V138H91.3179L75 111.376L75.3457 111Z" fill="black"/>
    <path d="M76.9793 112.034C76.1772 112.413 75.2858 112.898 75.0452 113.809C74.9977 113.969 74.9874 114.139 75.0154 114.304C75.074 114.498 75.1858 114.668 75.3359 114.792C75.4861 114.917 75.6675 114.989 75.8564 114.999C76.2338 115.009 76.609 114.935 76.9587 114.781L81.6908 113.093C81.8191 113.049 81.9658 112.982 81.9979 112.846C82.0061 112.76 81.9902 112.674 81.9521 112.599C81.8054 112.212 81.661 111.423 81.3539 111.153C81.1019 110.935 80.6023 111.012 80.2975 111.017C79.1242 111.027 78.022 111.539 76.9793 112.034Z" fill="url(#paint5_linear_6_580)"/>
    <path d="M81.0369 113.27C81.8549 113.267 82.6682 113.422 83.4471 113.728C84.2294 114.039 84.9223 114.619 85.4434 115.399C85.5951 115.616 85.703 115.875 85.7585 116.153C85.8055 116.441 86.572 116.614 86.4027 116.81C86.9177 116.709 86.7954 117.006 87.3174 117C87.8394 116.994 88.4037 116.83 88.7165 116.32C88.9337 115.901 89.0306 115.406 88.9916 114.912C88.9984 114.57 88.9455 114.23 88.8364 113.915C88.6012 113.311 88.0604 112.985 87.5619 112.706L83.3624 110.353C83.1188 110.194 82.8573 110.08 82.5865 110.016C82.3586 109.989 82.1289 109.996 81.9022 110.036L80 110.304C80.416 110.633 80.7547 111.09 80.9827 111.629C81.2107 112.168 81.3202 112.77 81.3003 113.377" fill="#3F3D56"/>
    <defs>
        <linearGradient id="paint0_linear_6_580" x1="135" y1="0" x2="135" y2="196" gradientUnits="userSpaceOnUse">
            <stop stop-color="#1EFFD7"/>
            <stop offset="1" stop-color="#008080"/>
        </linearGradient>
        <linearGradient id="paint1_linear_6_580" x1="100.5" y1="105" x2="100.5" y2="136" gradientUnits="userSpaceOnUse">
            <stop stop-color="#1EFFD7"/>
            <stop offset="1" stop-color="#008080"/>
        </linearGradient>
        <linearGradient id="paint2_linear_6_580" x1="94" y1="109" x2="94" y2="113" gradientUnits="userSpaceOnUse">
            <stop stop-color="#1EFFD7"/>
            <stop offset="1" stop-color="#008080"/>
        </linearGradient>
        <linearGradient id="paint3_linear_6_580" x1="56" y1="138" x2="56" y2="146" gradientUnits="userSpaceOnUse">
            <stop stop-color="#1EFFD7"/>
            <stop offset="1" stop-color="#008080"/>
        </linearGradient>
        <linearGradient id="paint4_linear_6_580" x1="74" y1="111" x2="74" y2="138" gradientUnits="userSpaceOnUse">
            <stop stop-color="#1EFFD7"/>
            <stop offset="1" stop-color="#008080"/>
        </linearGradient>
        <linearGradient id="paint5_linear_6_580" x1="78.5" y1="111" x2="78.5" y2="115" gradientUnits="userSpaceOnUse">
            <stop stop-color="#1EFFD7"/>
            <stop offset="1" stop-color="#008080"/>
        </linearGradient>
    </defs>
</svg>
